<svg width="169" height="24" viewBox="0 0 169 24" fill="none" xmlns="http://www.w3.org/2000/svg">
<path d="M22.283 8.66083C22.283 8.85717 22.167 9.07136 21.935 9.3034L17.0756 14.0423L18.2268 20.7358C18.2358 20.7982 18.2402 20.8875 18.2402 21.0035C18.2402 21.1909 18.1934 21.3493 18.0997 21.4787C18.0059 21.6081 17.8698 21.6729 17.6914 21.6729C17.5218 21.6729 17.3433 21.6193 17.1559 21.5122L11.1452 18.3529L5.13449 21.5122C4.93815 21.6193 4.75966 21.6729 4.59901 21.6729C4.4116 21.6729 4.27104 21.6081 4.17733 21.4787C4.08362 21.3493 4.03677 21.1909 4.03677 21.0035C4.03677 20.95 4.04569 20.8607 4.06354 20.7358L5.21481 14.0423L0.341996 9.3034C0.118881 9.06244 0.00732422 8.84825 0.00732422 8.66083C0.00732422 8.33062 0.257212 8.12536 0.756988 8.04504L7.47719 7.0678L10.4892 0.976778C10.6588 0.61087 10.8774 0.427917 11.1452 0.427917C11.4129 0.427917 11.6316 0.61087 11.8011 0.976778L14.8132 7.0678L21.5334 8.04504C22.0332 8.12536 22.283 8.33062 22.283 8.66083Z" fill="#FFD700"/>
<path d="M58.8729 8.66083C58.8729 8.85717 58.7569 9.07136 58.5248 9.3034L53.6654 14.0423L54.8167 20.7358C54.8256 20.7982 54.8301 20.8875 54.8301 21.0035C54.8301 21.1909 54.7832 21.3493 54.6895 21.4787C54.5958 21.6081 54.4597 21.6729 54.2812 21.6729C54.1116 21.6729 53.9331 21.6193 53.7457 21.5122L47.735 18.3529L41.7243 21.5122C41.528 21.6193 41.3495 21.6729 41.1889 21.6729C41.0014 21.6729 40.8609 21.6081 40.7672 21.4787C40.6735 21.3493 40.6266 21.1909 40.6266 21.0035C40.6266 20.95 40.6355 20.8607 40.6534 20.7358L41.8047 14.0423L36.9318 9.3034C36.7087 9.06244 36.5972 8.84825 36.5972 8.66083C36.5972 8.33062 36.8471 8.12536 37.3468 8.04504L44.067 7.0678L47.0791 0.976778C47.2486 0.61087 47.4673 0.427917 47.735 0.427917C48.0028 0.427917 48.2214 0.61087 48.391 0.976778L51.403 7.0678L58.1232 8.04504C58.623 8.12536 58.8729 8.33062 58.8729 8.66083Z" fill="#FFD700"/>
<path d="M95.4732 8.66476C95.4732 8.86119 95.3571 9.07547 95.125 9.30762L90.2634 14.0487L91.4152 20.7451C91.4241 20.8076 91.4286 20.8969 91.4286 21.013C91.4286 21.2005 91.3817 21.359 91.2879 21.4884C91.1942 21.6179 91.058 21.6826 90.8795 21.6826C90.7098 21.6826 90.5312 21.629 90.3438 21.5219L84.3304 18.3612L78.317 21.5219C78.1205 21.629 77.942 21.6826 77.7812 21.6826C77.5938 21.6826 77.4531 21.6179 77.3594 21.4884C77.2656 21.359 77.2188 21.2005 77.2188 21.013C77.2188 20.9594 77.2277 20.8701 77.2455 20.7451L78.3973 14.0487L73.5223 9.30762C73.2991 9.06655 73.1875 8.85226 73.1875 8.66476C73.1875 8.3344 73.4375 8.12905 73.9375 8.04869L80.6607 7.07101L83.6741 0.977261C83.8438 0.611189 84.0625 0.428152 84.3304 0.428152C84.5982 0.428152 84.817 0.611189 84.9866 0.977261L88 7.07101L94.7232 8.04869C95.2232 8.12905 95.4732 8.3344 95.4732 8.66476Z" fill="#FFD700"/>
<path d="M132.073 8.66476C132.073 8.86119 131.957 9.07547 131.725 9.30762L126.863 14.0487L128.015 20.7451C128.024 20.8076 128.029 20.8969 128.029 21.013C128.029 21.2005 127.982 21.359 127.888 21.4884C127.794 21.6179 127.658 21.6826 127.48 21.6826C127.31 21.6826 127.131 21.629 126.944 21.5219L120.93 18.3612L114.917 21.5219C114.721 21.629 114.542 21.6826 114.381 21.6826C114.194 21.6826 114.053 21.6179 113.959 21.4884C113.866 21.359 113.819 21.2005 113.819 21.013C113.819 20.9594 113.828 20.8701 113.846 20.7451L114.997 14.0487L110.122 9.30762C109.899 9.06655 109.788 8.85226 109.788 8.66476C109.788 8.3344 110.038 8.12905 110.538 8.04869L117.261 7.07101L120.274 0.977261C120.444 0.611189 120.663 0.428152 120.93 0.428152C121.198 0.428152 121.417 0.611189 121.587 0.977261L124.6 7.07101L131.323 8.04869C131.823 8.12905 132.073 8.3344 132.073 8.66476Z" fill="#FFD700"/>
<path d="M168.673 8.66476C168.673 8.86119 168.557 9.07547 168.325 9.30762L163.463 14.0487L164.615 20.7451C164.624 20.8076 164.628 20.8969 164.628 21.013C164.628 21.2005 164.581 21.359 164.488 21.4884C164.394 21.6179 164.258 21.6826 164.079 21.6826C163.91 21.6826 163.731 21.629 163.543 21.5219L157.53 18.3612L151.517 21.5219C151.32 21.629 151.142 21.6826 150.981 21.6826C150.793 21.6826 150.653 21.6179 150.559 21.4884C150.465 21.359 150.418 21.2005 150.418 21.013C150.418 20.9594 150.427 20.8701 150.445 20.7451L151.597 14.0487L146.722 9.30762C146.499 9.06655 146.387 8.85226 146.387 8.66476C146.387 8.3344 146.637 8.12905 147.137 8.04869L153.86 7.07101L156.874 0.977261C157.043 0.611189 157.262 0.428152 157.53 0.428152C157.798 0.428152 158.017 0.611189 158.186 0.977261L161.2 7.07101L167.923 8.04869C168.423 8.12905 168.673 8.3344 168.673 8.66476Z" fill="#FFD700"/>
</svg>
