<svg xmlns="http://www.w3.org/2000/svg" fill="none" viewBox="0 0 95 95" height="95" width="95">
<path fill="black" d="M89.7271 53.8649H5.22461V54.5299H89.7271V53.8649Z"></path>
<path fill="black" d="M9.4523 45.315C5.0348 45.315 1.4248 41.705 1.4248 37.1925C1.4248 32.68 5.0823 29.07 9.4523 29.07C11.2098 29.07 12.9198 29.4975 14.2023 30.495V29.3075H18.0023V44.9825H14.2023V43.985C12.9198 44.745 11.3048 45.315 9.4523 45.315ZM5.1298 37.1925C5.1298 39.615 7.1723 41.705 9.54731 41.705C12.1123 41.705 14.2023 39.615 14.2023 37.1925C14.2023 34.77 12.1123 32.68 9.54731 32.68C7.1723 32.68 5.1298 34.77 5.1298 37.1925ZM27.5023 45.315C23.0373 45.315 19.3323 41.705 19.3323 37.1925C19.3323 32.68 23.0373 29.07 27.5023 29.07C29.2598 29.07 30.8748 29.4975 32.2048 30.495V23.8925H36.0523V44.9825H32.2048V43.985C30.8748 44.745 29.2123 45.315 27.5023 45.315ZM23.0373 37.1925C23.0373 39.615 25.1273 41.705 27.6923 41.705C30.0673 41.705 32.2048 39.615 32.2048 37.1925C32.2048 34.77 30.0673 32.68 27.6923 32.68C25.1273 32.68 23.0373 34.77 23.0373 37.1925ZM41.8948 44.9825H37.9998V29.3075H41.8948V44.9825ZM37.9998 23.8925H41.8948V27.835H37.9998V23.8925ZM56.2873 23.8925H60.0398V44.9825H56.2873V43.985C54.9573 44.7925 53.2948 45.315 51.5848 45.315C47.0723 45.315 43.5573 41.705 43.5573 37.1925C43.5573 32.68 47.0723 29.07 51.5848 29.07C53.3423 29.07 54.8623 29.4975 56.2873 30.495V23.8925ZM47.1673 37.1925C47.1673 39.615 49.3048 41.705 51.6798 41.705C54.1498 41.705 56.2873 39.615 56.2873 37.1925C56.2873 34.77 54.1498 32.68 51.6798 32.68C49.3048 32.68 47.1673 34.77 47.1673 37.1925ZM69.5398 45.315C65.1698 45.315 61.3698 41.705 61.3698 37.1925C61.3698 32.68 65.1698 29.07 69.5398 29.07C71.2973 29.07 72.9123 29.4975 74.1473 30.495V29.3075H77.9948V44.9825H74.1473V43.985C72.9123 44.745 71.2498 45.315 69.5398 45.315ZM65.1698 37.1925C65.1698 39.615 67.3073 41.705 69.7298 41.705C72.1048 41.705 74.1473 39.615 74.1473 37.1925C74.1473 34.77 72.1048 32.68 69.7298 32.68C67.3073 32.68 65.1698 34.77 65.1698 37.1925ZM86.5923 45.315C90.4398 45.315 93.6223 43.795 93.6223 39.9475C93.6223 37.7625 92.1023 36.3375 89.6323 35.6725C87.1148 35.0075 83.8373 35.1025 83.8373 33.4875C84.0273 32.395 84.9773 32.1575 86.5923 32.1575C88.9198 32.1575 89.0148 33.3925 89.1098 34.2475H93.0048C92.7198 31.16 90.2498 29.07 86.4023 29.07C82.3173 29.07 79.8473 31.255 79.8473 34.105C79.8473 35.72 80.6548 37.1925 82.0798 37.9525C83.1248 38.38 84.4548 38.7125 86.0698 39.045C87.8273 39.14 89.3948 39.3775 89.3948 40.6125C89.3948 41.3725 88.5873 42.37 86.7823 42.37C84.1223 42.37 83.5998 40.945 83.5998 39.9475H79.5148C79.6098 43.0825 82.2698 45.315 86.5923 45.315Z"></path>
<path fill="black" d="M25.6496 70.015C24.9371 70.775 24.0821 71.1075 23.0371 71.1075C21.9921 71.1075 21.0896 70.775 20.3771 70.11C19.4746 69.16 19.4746 68.1625 19.4746 65.9775C19.4746 63.8875 19.4746 62.89 20.3771 61.94C21.0896 61.275 22.0396 60.9425 23.0371 60.9425C24.9371 60.9425 26.2671 62.13 26.5521 63.8875H25.4121C25.1271 62.7 24.2246 61.7975 22.9896 61.7975C22.2771 61.7975 21.6596 62.13 21.2321 62.5575C20.6146 63.2225 20.5196 63.8875 20.5196 65.9775C20.5196 68.1625 20.6146 68.8275 21.2321 69.4925C21.6596 69.92 22.2771 70.2525 22.9896 70.2525C23.7021 70.2525 24.4146 69.92 24.8896 69.3975C25.3171 68.8275 25.4121 68.305 25.4121 67.545V66.785H22.9896V65.7875H26.5046V67.45C26.5521 68.59 26.3621 69.35 25.6496 70.015Z"></path>
<path fill="black" d="M38.0001 71.1075L35.7676 66.595H33.3451V71.1075H32.2051V60.895H36.0526C37.9051 60.895 39.1401 61.9875 39.1401 63.745C39.1401 65.265 38.2376 66.1675 36.9076 66.5L39.3776 71.1075H38.0001ZM35.9576 61.8925H33.3451V65.5975H35.9576C37.1926 65.5975 38.0001 64.9325 38.0001 63.745C38.0001 62.5575 37.1926 61.8925 35.9576 61.8925Z"></path>
<path fill="black" d="M50.4447 70.11C49.7322 70.775 48.7822 71.1075 47.8797 71.1075C46.7397 71.1075 45.9322 70.775 45.2672 70.11C44.3647 69.16 44.3647 68.1625 44.3647 65.9775C44.3647 63.8875 44.3647 62.89 45.2672 61.94C45.9322 61.275 46.7397 60.9425 47.8797 60.9425C48.7822 60.9425 49.7322 61.275 50.4447 61.94C51.3472 62.89 51.3472 63.8875 51.3472 65.9775C51.3472 68.1625 51.3472 69.1125 50.4447 70.11ZM49.6372 62.5575C49.1147 62.13 48.4972 61.7975 47.8797 61.7975C47.1672 61.7975 46.5497 62.13 46.0272 62.5575C45.4572 63.2225 45.3622 63.8875 45.3622 65.9775C45.3622 68.1625 45.4572 68.8275 46.0272 69.4925C46.5497 69.92 47.1672 70.2525 47.8797 70.2525C48.4972 70.2525 49.1147 69.92 49.6372 69.4925C50.2547 68.8275 50.3497 68.1625 50.3497 65.9775C50.3497 63.84 50.2547 63.2225 49.6372 62.5575Z"></path>
<path fill="black" d="M60.4672 71.1075C58.4247 71.1075 56.9521 69.7775 56.9521 67.735V60.9425H58.0446V67.64C58.0446 69.2075 59.0896 70.2525 60.5147 70.2525C62.0347 70.2525 62.9847 69.16 62.9847 67.64V60.9425H64.1247V67.735C64.0297 69.7775 62.5097 71.1075 60.4672 71.1075Z"></path>
<path fill="black" d="M73.7199 66.9275H70.9649V71.1075H69.9199V60.895H73.7199C75.5724 60.895 76.9024 62.0825 76.9024 63.84C76.9024 65.74 75.5724 66.9275 73.7199 66.9275ZM73.6249 61.8925H70.9649V65.93H73.6249C74.8599 65.93 75.7624 65.265 75.7624 63.84C75.7624 62.5575 74.8599 61.8925 73.6249 61.8925Z"></path>
<path fill="black" d="M92.007 29.0225C91.152 29.0225 90.4395 28.31 90.4395 27.4075C90.4395 26.505 91.152 25.7925 92.007 25.7925C92.862 25.7925 93.5745 26.505 93.5745 27.4075C93.622 28.31 92.9095 29.0225 92.007 29.0225ZM92.007 26.03C91.247 26.03 90.677 26.6475 90.677 27.4075C90.677 28.1675 91.247 28.7375 92.007 28.7375C92.7195 28.7375 93.337 28.12 93.337 27.4075C93.337 26.6475 92.7195 26.03 92.007 26.03Z"></path>
<path fill="black" d="M92.3872 28.2624L92.0072 27.5499H91.7222V28.2624H91.5322V26.5524H92.1022C92.3872 26.5524 92.6722 26.7424 92.6722 27.0749C92.6722 27.3124 92.5297 27.5024 92.2922 27.5499L92.7197 28.3099L92.3872 28.2624ZM92.0547 26.7424H91.6747V27.3599H92.0547C92.2447 27.3599 92.3397 27.2174 92.3397 27.0274C92.3872 26.8849 92.2922 26.7424 92.0547 26.7424Z"></path>
</svg>
