<svg xmlns="http://www.w3.org/2000/svg" fill="none" viewBox="0 0 123 38" height="38" width="123">
<path fill="#FF5A5F" d="M64.8235 9.54767C64.8235 10.917 63.7091 12.0201 62.3258 12.0201C60.9425 12.0201 59.8281 10.917 59.8281 9.54767C59.8281 8.1783 60.904 7.0752 62.3258 7.0752C63.7475 7.11323 64.8235 8.21634 64.8235 9.54767ZM54.5254 14.5306V15.1392C54.5254 15.1392 53.3342 13.6177 50.7981 13.6177C46.6097 13.6177 43.3435 16.7748 43.3435 21.1492C43.3435 25.4855 46.5713 28.6807 50.7981 28.6807C53.3726 28.6807 54.5254 27.1212 54.5254 27.1212V27.7678C54.5254 28.0721 54.7559 28.3004 55.0633 28.3004H58.1758V13.9981H55.0633C54.7559 13.9981 54.5254 14.2643 54.5254 14.5306ZM54.5254 23.6977C53.949 24.5345 52.7962 25.2572 51.4129 25.2572C48.9537 25.2572 47.0708 23.7357 47.0708 21.1491C47.0708 18.5625 48.9537 17.041 51.4129 17.041C52.7578 17.041 53.9874 17.8018 54.5254 18.6006V23.6977ZM60.4814 13.998H64.1703V28.3004H60.4814V13.998ZM115.584 13.6178C113.048 13.6178 111.857 15.1393 111.857 15.1393V7.11328H108.168V28.3005H111.28C111.588 28.3005 111.818 28.0342 111.818 27.7679V27.1213C111.818 27.1213 113.009 28.6808 115.545 28.6808C119.734 28.6808 123 25.4857 123 21.1493C123 16.813 119.734 13.6178 115.584 13.6178ZM114.969 25.2191C113.547 25.2191 112.433 24.4964 111.857 23.6596V18.5625C112.433 17.8017 113.663 17.0029 114.969 17.0029C117.428 17.0029 119.311 18.5245 119.311 21.111C119.311 23.6976 117.428 25.2191 114.969 25.2191ZM106.246 19.8179V28.3384H102.558V20.2363C102.558 17.8779 101.789 16.927 99.714 16.927C98.5997 16.927 97.4469 17.4976 96.7168 18.3344V28.3004H93.028V13.9981H95.9483C96.2557 13.9981 96.4863 14.2643 96.4863 14.5306V15.1392C97.5622 14.0361 98.9839 13.6177 100.406 13.6177C102.02 13.6177 103.364 14.0741 104.44 14.987C105.747 16.0521 106.246 17.4215 106.246 19.8179ZM84.0749 13.6178C81.5388 13.6178 80.3476 15.1393 80.3476 15.1393V7.11328H76.6587V28.3005H79.7712C80.0786 28.3005 80.3091 28.0342 80.3091 27.7679V27.1213C80.3091 27.1213 81.5003 28.6808 84.0364 28.6808C88.2248 28.6808 91.491 25.4857 91.491 21.1493C91.5294 16.813 88.2633 13.6178 84.0749 13.6178ZM83.4599 25.2191C82.0381 25.2191 80.9238 24.4964 80.3474 23.6596V18.5625C80.9238 17.8017 82.1534 17.0029 83.4599 17.0029C85.9191 17.0029 87.802 18.5245 87.802 21.111C87.802 23.6976 85.9191 25.2191 83.4599 25.2191ZM73.4693 13.6177C74.5836 13.6177 75.16 13.8079 75.16 13.8079V17.1933C75.16 17.1933 72.086 16.1662 70.1647 18.3344V28.3384H66.4758V13.9981H69.5883C69.8957 13.9981 70.1263 14.2643 70.1263 14.5306V15.1392C70.8179 14.3404 72.3165 13.6177 73.4693 13.6177ZM35.1589 27.007C34.9667 26.5506 34.7746 26.0561 34.5825 25.6376C34.2751 24.953 33.9677 24.3063 33.6987 23.6977L33.6603 23.6597C31.0089 17.954 28.1692 12.1722 25.172 6.46647L25.0568 6.23824C24.7493 5.66767 24.4419 5.05906 24.1345 4.45045C23.7503 3.76577 23.366 3.04304 22.7512 2.35836C21.5216 0.836837 19.754 0 17.8711 0C15.9499 0 14.2207 0.836837 12.9527 2.28228C12.3763 2.96697 11.9536 3.68969 11.5693 4.37437C11.2619 4.98298 10.9545 5.59159 10.6471 6.16216L10.5318 6.39039C7.57306 12.0961 4.69114 17.8779 2.03976 23.5836L2.00134 23.6597C1.73236 24.2683 1.42495 24.9149 1.11755 25.5996C0.925419 26.018 0.73329 26.4745 0.541162 26.969C0.0416278 28.3764 -0.112075 29.7077 0.0800535 31.0771C0.502736 33.9299 2.42402 36.3263 5.07539 37.3914C6.07446 37.8098 7.11196 38 8.18787 38C8.49528 38 8.87954 37.962 9.18694 37.9239C10.455 37.7718 11.7615 37.3534 13.0295 36.6306C14.605 35.7558 16.1036 34.5005 17.7943 32.6747C19.485 34.5005 21.0221 35.7558 22.5591 36.6306C23.8271 37.3534 25.1336 37.7718 26.4017 37.9239C26.7091 37.962 27.0933 38 27.4007 38C28.4766 38 29.5526 37.8098 30.5094 37.3914C33.1992 36.3263 35.082 33.8919 35.5047 31.0771C35.8121 29.7457 35.6584 28.4144 35.1589 27.007ZM17.8327 28.985C15.7577 26.3984 14.4128 23.964 13.9517 21.91C13.7596 21.0351 13.7212 20.2743 13.8364 19.5896C13.9133 18.981 14.1439 18.4485 14.4513 17.992C15.1813 16.965 16.411 16.3184 17.8327 16.3184C19.2545 16.3184 20.5225 16.927 21.2142 17.992C21.5216 18.4485 21.7521 18.981 21.829 19.5896C21.9443 20.2743 21.9058 21.0731 21.7137 21.91C21.2526 23.926 19.9077 26.3604 17.8327 28.985ZM33.1608 30.773C32.8918 32.751 31.5469 34.4627 29.6679 35.2235C28.7456 35.6038 27.7466 35.7179 26.7475 35.6038C25.7869 35.4897 24.8262 35.1854 23.8272 34.6148C22.4438 33.8541 21.0605 32.6749 19.4466 30.9252C21.9827 27.8441 23.5198 25.0293 24.0961 22.5188C24.3651 21.3396 24.4035 20.2745 24.2883 19.2855C24.1346 18.3346 23.7887 17.4597 23.2508 16.6989C22.0596 14.9872 20.0614 13.9982 17.8328 13.9982C15.6041 13.9982 13.6059 15.0253 12.4147 16.6989C11.8768 17.4597 11.5309 18.3346 11.3772 19.2855C11.2235 20.2745 11.262 21.3776 11.5694 22.5188C12.1458 25.0293 13.7212 27.8821 16.2189 30.9632C14.6434 32.7129 13.2217 33.8921 11.8383 34.6529C10.8393 35.2235 9.87863 35.5278 8.91799 35.6419C7.8805 35.756 6.88143 35.6038 5.99764 35.2615C4.11478 34.5007 2.76988 32.789 2.5009 30.811C2.38562 29.8601 2.46248 28.9091 2.84673 27.8441C2.96201 27.4637 3.15414 27.0833 3.34627 26.6269C3.61525 26.0182 3.92265 25.3716 4.23006 24.725L4.26848 24.6489C6.91986 18.9812 9.76336 13.1994 12.7221 7.5698L12.8374 7.34157C13.1448 6.771 13.4522 6.16239 13.7596 5.59182C14.067 4.98321 14.4129 4.41264 14.8355 3.91815C15.6425 3.00524 16.7184 2.51074 17.9096 2.51074C19.1008 2.51074 20.1767 3.00524 20.9837 3.91815C21.4063 4.41264 21.7522 4.98321 22.0596 5.59182C22.367 6.16239 22.6744 6.771 22.9818 7.34157L23.0971 7.5698C26.0174 13.2375 28.8609 19.0193 31.5085 24.6869V24.725C31.8159 25.3336 32.0848 26.0182 32.3923 26.6269C32.5844 27.0833 32.7765 27.4637 32.8918 27.8441C33.1992 28.8331 33.3145 29.784 33.1608 30.773Z" clip-rule="evenodd" fill-rule="evenodd"></path>
</svg>
