<svg xmlns="http://www.w3.org/2000/svg" width="97.38" height="75.651" viewBox="0 0 97.38 75.651">
  <path id="blue-arrow" d="M86.568,5.326A25.913,25.913,0,0,1,86.088,9.9a28.252,28.252,0,0,1-2.349,6.082C77.165,27.791,67.522,36.465,54.578,40.05c-13.208,3.657-25.69.748-36.093-8.713A53.512,53.512,0,0,1,6.189,14.55C5.64,13.4,5.062,12.257,4.134,10.372c-1.167,2.636-2.057,4.648-2.946,6.659l-.865-.187a7.49,7.49,0,0,1-.316-1.867Q.414,10.206.96,5.446c.231-2.04.485-4.234,2.674-5.121C5.986-.627,7.962.661,9.482,2.264a76.013,76.013,0,0,1,5.8,7.047c.374.5.021,1.547,0,2.341-.792-.024-1.811.259-2.33-.129-1.61-1.205-3.03-2.665-4.556-4.056-.113.256-.253.418-.217.518C15.217,27.9,29.721,39.752,50.354,37.717a14.61,14.61,0,0,0,2.98-.613c13.86-4.427,24.1-13.086,30.36-26.27A39.142,39.142,0,0,0,85.42,5.212l1.148.114" transform="translate(0.663 37.25) rotate(-25)" fill="#1bccdc" stroke="rgba(0,0,0,0)" stroke-miterlimit="10" stroke-width="1"/>
</svg>
