<svg xmlns="http://www.w3.org/2000/svg" width="20" height="20" viewBox="0 0 20 20">
  <path id="Path_4220" data-name="Path 4220" d="M10-15.625a8.125,8.125,0,0,1,7.036,4.063,8.125,8.125,0,0,1,0,8.125A8.125,8.125,0,0,1,10,.625,8.125,8.125,0,0,1,2.964-3.437a8.125,8.125,0,0,1,0-8.125A8.125,8.125,0,0,1,10-15.625ZM10,2.5a10,10,0,0,0,8.66-5,10,10,0,0,0,0-10,10,10,0,0,0-8.66-5,10,10,0,0,0-8.66,5,10,10,0,0,0,0,10A10,10,0,0,0,10,2.5ZM14.414-9.336a.934.934,0,0,0,0-1.324.937.937,0,0,0-1.324,0L8.754-6.324,6.918-8.16a.934.934,0,0,0-1.324,0,.937.937,0,0,0,0,1.324l2.5,2.5a.934.934,0,0,0,1.324,0Z" transform="translate(0 17.5)" fill="#69cc3d"/>
</svg>
