<svg xmlns="http://www.w3.org/2000/svg" fill="none" viewBox="0 0 95 49" height="49" width="95">
<path fill="#009EDC" d="M92.7789 46.5889H93.2512L93.9022 48.3378H93.915L94.5405 46.5889H95V48.7125H94.6936V46.9761H94.6809L94.0299 48.7125H93.7363L93.098 46.9761H93.0853V48.7125H92.7789V46.5889ZM92.6258 46.5889V46.8387H91.8855V48.7125H91.5791V46.8387H90.8387V46.5889H92.6258ZM95 15.1968C95 14.085 94.0809 13.1855 92.9448 13.1855C91.8088 13.1855 90.877 14.085 90.877 15.1968V19.4441C90.877 20.5558 91.8088 21.4678 92.9448 21.4678C94.0809 21.4678 95 20.5558 95 19.4441V15.1968ZM83.6649 9.63769C83.6649 8.51966 82.7458 7.61523 81.5715 7.61523C80.4354 7.61523 79.5164 8.51966 79.5164 9.63769V19.4439C79.5164 20.5557 80.4354 21.4676 81.5715 21.4676C82.7458 21.4676 83.6649 20.5557 83.6649 19.4439V9.63769ZM72.2916 2.01746C72.2916 0.904423 71.3725 0 70.2365 0C69.1004 0 68.1686 0.904423 68.1686 2.01746V23.4663C68.1686 24.5906 69.1004 25.49 70.2365 25.49C71.3725 25.49 72.2916 24.5906 72.2916 23.4663V2.01746ZM60.931 9.63769C60.931 8.51966 60.0119 7.61523 58.8631 7.61523C57.727 7.61523 56.808 8.51966 56.808 9.63769V19.4439C56.808 20.5557 57.727 21.4676 58.8631 21.4676C60.0119 21.4676 60.931 20.5557 60.931 19.4439V9.63769ZM49.5705 15.1968C49.5705 14.085 48.6386 13.1855 47.5026 13.1855C46.3665 13.1855 45.4347 14.085 45.4347 15.1968V19.4441C45.4347 20.5558 46.3665 21.4678 47.5026 21.4678C48.6386 21.4678 49.5705 20.5558 49.5705 19.4441V15.1968ZM38.2226 9.63769C38.2226 8.51966 37.2908 7.61523 36.1547 7.61523C35.0059 7.61523 34.0741 8.51966 34.0741 9.63769V19.4439C34.0741 20.5557 35.0059 21.4676 36.1547 21.4676C37.2908 21.4676 38.2226 20.5557 38.2226 19.4439V9.63769ZM26.8621 2.01746C26.8621 0.904423 25.9303 0 24.7942 0C23.6454 0 22.7263 0.904423 22.7263 2.01746V23.4663C22.7263 24.5906 23.6454 25.49 24.7942 25.49C25.9303 25.49 26.8621 24.5906 26.8621 23.4663V2.01746ZM15.5015 9.63769C15.5015 8.51966 14.5697 7.61523 13.4336 7.61523C12.2848 7.61523 11.3657 8.51966 11.3657 9.63769V19.4439C11.3657 20.5557 12.2848 21.4676 13.4336 21.4676C14.5697 21.4676 15.5015 20.5557 15.5015 19.4439V9.63769ZM4.13576 15.1968C4.13576 14.085 3.20777 13.1855 2.06916 13.1855C0.92927 13.1855 0 14.085 0 15.1968V19.4441C0 20.5558 0.92927 21.4678 2.06916 21.4678C3.20777 21.4678 4.13576 20.5558 4.13576 19.4441V15.1968ZM46.8388 36.2329C46.775 36.2204 45.0135 35.7457 43.5711 35.7457C41.9117 35.7457 41.0054 36.2829 41.0054 37.0699C41.0054 38.0443 42.2308 38.394 42.9073 38.6064L44.0561 38.9562C46.7622 39.8056 48.0004 41.617 48.0004 43.5782C48.0004 47.6381 44.3497 48.9998 41.1585 48.9998C38.9502 48.9998 36.8696 48.6125 36.6654 48.5626V44.8399C37.0355 44.9399 38.7843 45.452 40.5969 45.452C42.6648 45.452 43.6221 44.8524 43.6221 43.9405C43.6221 43.116 42.8052 42.6413 41.7712 42.329C41.516 42.2416 41.133 42.1292 40.8777 42.0417C38.5545 41.3297 36.6271 39.993 36.6271 37.3197C36.6271 34.2967 38.9375 32.2729 42.7797 32.2729C44.7965 32.2729 46.7112 32.7476 46.8388 32.7851V36.2329ZM77.7293 36.3955C75.253 36.3955 73.4276 38.2943 73.4276 40.6428C73.4276 42.9913 75.253 44.8901 77.7293 44.8901C80.2057 44.8901 82.0438 42.9913 82.0438 40.6428C82.0438 38.2943 80.2057 36.3955 77.7293 36.3955ZM86.4477 40.6426C86.4477 45.2647 82.8097 48.9998 77.7294 48.9998C72.649 48.9998 69.0111 45.2647 69.0111 40.6426C69.0111 36.0206 72.649 32.2729 77.7294 32.2729C82.8097 32.2729 86.4477 36.0206 86.4477 40.6426ZM21.1434 37.1948C20.9775 37.1074 19.6372 36.3329 17.6459 36.3329C14.9398 36.3329 13.0761 38.1692 13.0761 40.6426C13.0761 43.0411 14.8632 44.9524 17.6459 44.9524C19.5989 44.9524 20.9647 44.1903 21.1434 44.0904V48.4251C20.6201 48.5751 19.2032 48.9998 17.3395 48.9998C12.6549 48.9998 8.55359 45.8393 8.55359 40.6426C8.55359 35.8082 12.2719 32.2729 17.3395 32.2729C19.3053 32.2729 20.7477 32.7352 21.1434 32.8601V37.1948ZM64.62 37.1948C64.4541 37.1074 63.1138 36.3329 61.1225 36.3329C58.4292 36.3329 56.5655 38.1692 56.5655 40.6426C56.5655 43.0411 58.3526 44.9524 61.1225 44.9524C63.0755 44.9524 64.4413 44.1903 64.62 44.0904V48.4251C64.1095 48.5751 62.6798 48.9998 60.8289 48.9998C56.1443 48.9998 52.0341 45.8393 52.0341 40.6426C52.0341 35.8082 55.7486 32.2729 60.8289 32.2729C62.7819 32.2729 64.2371 32.7352 64.62 32.8601V37.1948ZM31.036 48.7127H26.8748V32.5605H31.036V48.7127Z" clip-rule="evenodd" fill-rule="evenodd"></path>
</svg>
