<svg xmlns="http://www.w3.org/2000/svg" width="20" height="20" viewBox="0 0 20 20">
  <path id="Path_4211" data-name="Path 4211" d="M10-15.625a8.125,8.125,0,0,1,7.036,4.063,8.125,8.125,0,0,1,0,8.125A8.125,8.125,0,0,1,10,.625,8.125,8.125,0,0,1,2.964-3.437a8.125,8.125,0,0,1,0-8.125A8.125,8.125,0,0,1,10-15.625ZM10,2.5a10,10,0,0,0,8.66-5,10,10,0,0,0,0-10,10,10,0,0,0-8.66-5,10,10,0,0,0-8.66,5,10,10,0,0,0,0,10A10,10,0,0,0,10,2.5ZM6.836-10.664a.934.934,0,0,0,0,1.324L8.672-7.5,6.836-5.668a.934.934,0,0,0,0,1.324.937.937,0,0,0,1.324,0L10-6.18l1.836,1.836a.934.934,0,0,0,1.324,0,.937.937,0,0,0,0-1.324L11.32-7.5,13.156-9.34a.934.934,0,0,0,0-1.324.937.937,0,0,0-1.324,0L10-8.828,8.16-10.664A.934.934,0,0,0,6.836-10.664Z" transform="translate(0 17.5)" fill="#707070" opacity="0.67"/>
</svg>
