<svg width="76" height="76" viewBox="0 0 76 76" fill="none" xmlns="http://www.w3.org/2000/svg">
<path opacity="0.25" d="M37.9599 75.9199C58.9246 75.9199 75.9199 58.9246 75.9199 37.9599C75.9199 16.9952 58.9246 0 37.9599 0C16.9952 0 0 16.9952 0 37.9599C0 58.9246 16.9952 75.9199 37.9599 75.9199Z" fill="#1BCCDC"/>
<path d="M54.6307 27.8634C54.4642 27.2755 54.15 26.74 53.7179 26.3079L48.6596 21.2443C47.9889 20.5739 47.0795 20.1974 46.1312 20.1973H26.152C25.6819 20.1973 25.2164 20.29 24.7821 20.4701C24.3479 20.6502 23.9534 20.9142 23.6213 21.2469C23.2893 21.5797 23.0261 21.9747 22.8468 22.4092C22.6675 22.8438 22.5757 23.3095 22.5767 23.7796V58.8299C22.5764 59.2995 22.6687 59.7646 22.8483 60.1986C23.0279 60.6326 23.2912 61.027 23.6232 61.3591C23.9552 61.6913 24.3495 61.9548 24.7833 62.1346C25.2172 62.3144 25.6823 62.4069 26.152 62.4069H51.1879C52.1366 62.4069 53.0464 62.0301 53.7172 61.3592C54.3881 60.6884 54.7649 59.7786 54.7649 58.8299V57.3221L54.6307 27.8634Z" fill="#1BCCDC"/>
<path d="M54.7667 53.0101V54.5179C54.7667 55.4666 54.3898 56.3765 53.719 57.0473C53.0482 57.7181 52.1383 58.095 51.1896 58.095H26.1537C25.205 58.095 24.2952 57.7181 23.6244 57.0473C22.9535 56.3765 22.5767 55.4666 22.5767 54.5179V19.4677C22.5767 18.519 22.9535 17.6092 23.6244 16.9383C24.2952 16.2675 25.205 15.8906 26.1537 15.8906H46.1312C46.6008 15.8905 47.0658 15.9829 47.4996 16.1625C47.9334 16.3422 48.3276 16.6056 48.6595 16.9376L53.7179 21.996C54.1502 22.4279 54.4645 22.9635 54.6307 23.5515L54.7667 53.0101Z" stroke="#23314C" stroke-width="2.763" stroke-linecap="round" stroke-linejoin="round"/>
<path d="M47.7185 53.1584H29.6284C29.1311 53.1584 28.6542 52.9608 28.3025 52.6092C27.9509 52.2575 27.7534 51.7806 27.7534 51.2833V42.6973C27.7534 42.2 27.9509 41.7231 28.3025 41.3715C28.6542 41.0198 29.1311 40.8223 29.6284 40.8223H47.7185C48.2158 40.8223 48.6927 41.0198 49.0444 41.3715C49.396 41.7231 49.5936 42.2 49.5936 42.6973V51.2833C49.5936 51.7806 49.396 52.2575 49.0444 52.6092C48.6927 52.9608 48.2158 53.1584 47.7185 53.1584Z" fill="white"/>
<path d="M45.2714 40.8223H32.0702C29.6831 40.8223 27.748 42.7574 27.748 45.1444V48.8362C27.748 51.2233 29.6831 53.1584 32.0702 53.1584H45.2714C47.6585 53.1584 49.5935 51.2233 49.5935 48.8362V45.1444C49.5935 42.7574 47.6585 40.8223 45.2714 40.8223Z" stroke="#23314C" stroke-width="2.763" stroke-linecap="round" stroke-linejoin="round"/>
<path d="M31.514 24.459H45.8293" stroke="#23314C" stroke-width="2.763" stroke-linecap="round" stroke-linejoin="round"/>
<path d="M31.514 33.2461H45.8293" stroke="#23314C" stroke-width="2.763" stroke-linecap="round" stroke-linejoin="round"/>
</svg>
