<svg xmlns="http://www.w3.org/2000/svg" fill="none" viewBox="0 0 95 31" height="31" width="95">
<path fill="#4285F4" d="M11.8621 10.5142V13.6723H19.4107C19.1796 15.4439 18.5891 16.7405 17.6904 17.652C16.5864 18.7561 14.8661 19.9628 11.8621 19.9628C7.21476 19.9628 3.58165 16.2142 3.58165 11.5669C3.58165 6.9196 7.21476 3.17095 11.8621 3.17095C14.3654 3.17095 16.2013 4.15946 17.5492 5.43041L19.7702 3.20946C17.8958 1.38649 15.3796 0 11.8621 0C5.49449 0 0.141113 5.18649 0.141113 11.5541C0.141113 17.9216 5.49449 23.1081 11.8621 23.1081C15.3026 23.1081 17.8958 21.9784 19.9242 19.873C22.004 17.7932 22.6587 14.8534 22.6587 12.4912C22.6587 11.7595 22.6073 11.0791 22.4918 10.5142H11.8621Z"></path>
<path fill="#EA4335" d="M32.0948 7.94666C27.9739 7.94666 24.6104 11.0791 24.6104 15.4054C24.6104 19.6933 27.9739 22.8642 32.0948 22.8642C36.2158 22.8642 39.5793 19.7061 39.5793 15.4054C39.5793 11.0791 36.2158 7.94666 32.0948 7.94666ZM32.0948 19.9244C29.8354 19.9244 27.884 18.0629 27.884 15.4054C27.884 12.7223 29.8354 10.8865 32.0948 10.8865C34.3543 10.8865 36.3056 12.7223 36.3056 15.4054C36.3056 18.0629 34.3543 19.9244 32.0948 19.9244Z"></path>
<path fill="#4285F4" d="M68.7854 9.61557H68.6698C67.9381 8.7426 66.5259 7.94666 64.7415 7.94666C61.0185 7.94666 57.7705 11.1946 57.7705 15.4054C57.7705 19.5906 61.0185 22.8642 64.7415 22.8642C66.5259 22.8642 67.9381 22.0683 68.6698 21.1696H68.7854V22.2095C68.7854 25.0595 67.2577 26.5872 64.8056 26.5872C62.8029 26.5872 61.5577 25.1494 61.0442 23.9298L58.1942 25.1108C59.0158 27.0879 61.1854 29.5142 64.8056 29.5142C68.6442 29.5142 71.8921 27.2548 71.8921 21.7473V8.33179H68.7854V9.61557ZM65.0239 19.9244C62.7644 19.9244 61.0442 17.9987 61.0442 15.4054C61.0442 12.7737 62.7644 10.8865 65.0239 10.8865C67.2577 10.8865 69.0036 12.8122 69.0036 15.4311C69.0165 18.0372 67.2577 19.9244 65.0239 19.9244Z"></path>
<path fill="#FBBC05" d="M48.7838 7.94666C44.6628 7.94666 41.2993 11.0791 41.2993 15.4054C41.2993 19.6933 44.6628 22.8642 48.7838 22.8642C52.9047 22.8642 56.2682 19.7061 56.2682 15.4054C56.2682 11.0791 52.9047 7.94666 48.7838 7.94666ZM48.7838 19.9244C46.5243 19.9244 44.573 18.0629 44.573 15.4054C44.573 12.7223 46.5243 10.8865 48.7838 10.8865C51.0432 10.8865 52.9946 12.7223 52.9946 15.4054C52.9946 18.0629 51.0432 19.9244 48.7838 19.9244Z"></path>
<path fill="#34A853" d="M74.4595 0.308105H77.6818V22.8642H74.4595V0.308105Z"></path>
<path fill="#EA4335" d="M87.6309 19.9244C85.962 19.9244 84.7809 19.1669 84.0107 17.6649L93.9856 13.544L93.6519 12.6967C93.0356 11.0277 91.1357 7.94666 87.2715 7.94666C83.433 7.94666 80.2363 10.9635 80.2363 15.4054C80.2363 19.5906 83.3944 22.8642 87.6309 22.8642C91.0458 22.8642 93.0228 20.7717 93.8444 19.5649L91.3025 17.8703C90.4552 19.1027 89.2998 19.9244 87.6309 19.9244ZM87.3998 10.7453C88.7221 10.7453 89.8519 11.4257 90.2242 12.3885L83.4843 15.1744C83.4843 12.0419 85.7052 10.7453 87.3998 10.7453Z"></path>
</svg>
