<svg xmlns="http://www.w3.org/2000/svg" fill="none" viewBox="0 0 130 30" height="30" width="130">
<g clip-path="url(#clip0)">
<path fill="#255726" d="M129.05 13.7371V14.3737C129.05 14.3737 128.356 14.648 128.356 15.4658L128.361 29.1252C128.361 29.6066 127.973 30 127.492 30H124.805L118.899 20.678C118.899 20.678 119.024 21.4493 119.024 22.4223V30H115.752V13.7371H117.875C118.956 13.7371 119.743 14.1822 120.313 15.0776C120.794 15.8333 125.256 22.8623 125.256 22.8623C125.256 22.8623 125.095 22.3861 125.095 21.1025V13.7371H129.05ZM66.2235 13.7371V29.1252C66.2235 29.6066 65.8301 30 65.3487 30H62.6676L56.7618 20.678C56.7618 20.678 56.886 21.4493 56.886 22.4223V30H53.6096V13.7371H55.7266C56.8084 13.7371 57.5951 14.1822 58.1645 15.0776C58.6458 15.8333 63.1127 22.8623 63.1127 22.8623C63.1127 22.8623 62.9523 22.3861 62.9523 21.1025V13.7371H66.2235ZM25.7525 13.7371H21.3788V19.9689H17.5537V13.7371H12.4761V14.3737C12.4761 14.3737 13.1697 14.6377 13.1697 15.4658V30H17.5537V22.9451H21.3788V30H25.7525V13.7371ZM39.914 13.7371H30.1728V28.5455C30.1728 29.3892 30.975 30 31.8135 30H39.914C40.3953 30 40.7887 29.6066 40.7887 29.1252V27.029H35.1986C34.8363 27.029 34.5413 26.7288 34.5413 26.3664V22.9451H39.5206V19.9741H34.5413V16.7132H40.7835V14.617C40.7887 14.1304 40.3953 13.7371 39.914 13.7371V13.7371ZM49.1479 13.7371H44.7742V29.1252C44.7742 29.6066 45.1676 30 45.649 30H49.1479V13.7371V13.7371ZM111.167 13.7371H101.42V28.5455C101.42 29.3582 102.222 30 103.066 30H111.167C111.648 30 112.041 29.6066 112.041 29.1252V27.029H106.451C106.089 27.029 105.794 26.7288 105.794 26.3664V22.9451H110.778V19.9741H105.794V16.7132H112.046V14.617C112.046 14.1304 111.648 13.7371 111.167 13.7371V13.7371ZM80.385 13.7371H70.6386V28.5455C70.6386 29.3582 71.4409 30 72.2846 30H80.385C80.8663 30 81.2597 29.6066 81.2597 29.1252V27.029H75.6696C75.3073 27.029 75.0123 26.7288 75.0123 26.3664V22.9451H79.9968V19.9741H75.0123V16.7132H81.2597V14.617C81.2597 14.1304 80.8663 13.7371 80.385 13.7371V13.7371ZM98.8943 13.7371H95.7369C94.9761 13.7371 94.3964 13.9286 93.7908 14.6222C93.1904 15.3157 89.3342 19.7567 89.3342 19.7567V13.7371H84.9605V29.1252C84.9605 29.6066 85.3539 30 85.8353 30H89.3342V22.6294C89.3342 22.6294 92.6158 27.7588 93.1904 28.6594C93.7649 29.56 94.3394 30.0051 95.6489 30.0051H99.2411L93.1024 20.4089L98.8943 13.7371V13.7371Z"></path>
<path fill="#FF0000" d="M4.3239 19.6583C4.10651 19.8188 3.81665 19.6117 3.89947 19.3581C4.01851 18.9958 6.21831 12.2256 6.21831 12.2256L0.152053 7.81565C-0.0653382 7.6552 0.0485335 7.31876 0.312509 7.32394H7.80733C7.80733 7.32394 10.0123 0.55375 10.1262 0.191431C10.209 -0.0621923 10.5661 -0.0673683 10.6489 0.191431C10.7628 0.55375 12.9678 7.31876 12.9678 7.31876H20.4626C20.7266 7.31876 20.8456 7.65002 20.6231 7.81048L17.0051 10.4399H12.7245L11.3995 6.37156L10.0796 10.4451H5.79905L9.26179 12.9606L7.93673 17.0289C7.93673 17.0341 4.54129 19.4978 4.3239 19.6583"></path>
</g>
<defs>
<clipPath id="clip0">
<rect fill="white" height="30" width="129.088"></rect>
</clipPath>
</defs>
</svg>
