<svg width="17" height="18" viewBox="0 0 17 18" fill="none" xmlns="http://www.w3.org/2000/svg">
<path d="M14.1372 9.95793V14.7765C14.1372 14.9505 14.0736 15.1011 13.9465 15.2282C13.8193 15.3554 13.6687 15.4189 13.4947 15.4189H9.6399V11.5641H7.07V15.4189H3.21517C3.04117 15.4189 2.89059 15.3554 2.76343 15.2282C2.63627 15.1011 2.5727 14.9505 2.5727 14.7765V9.95793C2.5727 9.95124 2.57437 9.9412 2.57772 9.92781C2.58106 9.91443 2.58274 9.90439 2.58274 9.8977L8.35495 5.13938L14.1272 9.8977C14.1339 9.91108 14.1372 9.93116 14.1372 9.95793ZM16.3758 9.26526L15.7534 10.0081C15.6999 10.0684 15.6296 10.1052 15.5426 10.1185H15.5125C15.4255 10.1185 15.3552 10.0951 15.3017 10.0483L8.35495 4.25598L1.40822 10.0483C1.32791 10.1018 1.2476 10.1252 1.16729 10.1185C1.08029 10.1052 1.01002 10.0684 0.956477 10.0081L0.334081 9.26526C0.280542 9.19834 0.257118 9.1197 0.263811 9.02935C0.270503 8.93901 0.307311 8.86706 0.374236 8.81352L7.59201 2.80038C7.80617 2.62638 8.06048 2.53938 8.35495 2.53938C8.64942 2.53938 8.90373 2.62638 9.11789 2.80038L11.5673 4.84826V2.89073C11.5673 2.79703 11.5974 2.72007 11.6577 2.65984C11.7179 2.59961 11.7949 2.56949 11.8885 2.56949H13.816C13.9097 2.56949 13.9866 2.59961 14.0469 2.65984C14.1071 2.72007 14.1372 2.79703 14.1372 2.89073V6.98649L16.3357 8.81352C16.4026 8.86706 16.4394 8.93901 16.4461 9.02935C16.4528 9.1197 16.4294 9.19834 16.3758 9.26526Z" fill="white"/>
</svg>
