<svg xmlns="http://www.w3.org/2000/svg" width="68.164" height="72.783" viewBox="0 0 68.164 72.783">
  <g id="icon-error" transform="translate(5366.75 -4104.918)">
    <g id="Group_7770" data-name="Group 7770" transform="translate(1442.632 82.784)">
      <path id="path2784" d="M0-169.076l19.156-19.156h27.09L65.4-169.076v27.09L46.246-122.83H19.156L0-141.986Z" transform="translate(-6808 4217.747)" fill="#fe0056"/>
      <path id="path2788" d="M-74.8-244.439h-4.67a2.714,2.714,0,0,1-2.711-2.581l-1.091-22.266a2.714,2.714,0,0,1,2.71-2.847h6.852A2.714,2.714,0,0,1-71-269.286l-1.091,22.266A2.714,2.714,0,0,1-74.8-244.439Z" transform="translate(-6698.16 4306.655)" fill="#fff"/>
      <path id="path2792" d="M-43.418-86.837h0a4.919,4.919,0,0,1-4.919-4.919h0a4.919,4.919,0,0,1,4.919-4.919A4.919,4.919,0,0,1-38.5-91.757h0A4.919,4.919,0,0,1-43.418-86.837Z" transform="translate(-6731.881 4167.052)" fill="#fff"/>
    </g>
    <g id="Group_7769" data-name="Group 7769" transform="translate(1442.632 81.632)">
      <path id="path2784-2" data-name="path2784" d="M0-169.076l19.156-19.156h27.09L65.4-169.076v27.09L46.246-122.83H19.156L0-141.986Z" transform="translate(-6808 4212.899)" fill="none" stroke="#23314c" stroke-linecap="round" stroke-linejoin="round" stroke-width="2.763"/>
      <path id="path2788-2" data-name="path2788" d="M-74.8-244.439h-4.67a2.714,2.714,0,0,1-2.711-2.581l-1.091-22.266a2.714,2.714,0,0,1,2.71-2.847h6.852A2.714,2.714,0,0,1-71-269.286l-1.091,22.266A2.714,2.714,0,0,1-74.8-244.439Z" transform="translate(-6698.16 4306.655)" fill="none" stroke="#23314c" stroke-linecap="round" stroke-linejoin="round" stroke-width="2.763"/>
      <path id="path2792-2" data-name="path2792" d="M-43.418-86.837h0a4.919,4.919,0,0,1-4.919-4.919h0a4.919,4.919,0,0,1,4.919-4.919A4.919,4.919,0,0,1-38.5-91.757h0A4.919,4.919,0,0,1-43.418-86.837Z" transform="translate(-6731.881 4167.052)" fill="none" stroke="#23314c" stroke-linecap="round" stroke-linejoin="round" stroke-width="2.763"/>
    </g>
  </g>
</svg>
