<svg xmlns="http://www.w3.org/2000/svg" fill="none" viewBox="0 0 1805 714" height="714" width="1805">
<path fill-opacity="0.07" fill="white" d="M1800.5 237.507C1798.02 237.507 1796.01 235.504 1796.01 233.034C1796.01 230.563 1798.02 228.561 1800.5 228.561C1802.99 228.561 1805 230.563 1805 233.034C1805 235.504 1802.99 237.507 1800.5 237.507Z" clip-rule="evenodd" fill-rule="evenodd"></path>
<path fill-opacity="0.07" fill="white" d="M1800.5 206.194C1798.02 206.194 1796.01 204.192 1796.01 201.721C1796.01 199.251 1798.02 197.248 1800.5 197.248C1802.99 197.248 1805 199.251 1805 201.721C1805 204.192 1802.99 206.194 1800.5 206.194Z" clip-rule="evenodd" fill-rule="evenodd"></path>
<path fill-opacity="0.07" fill="white" d="M1800.5 174.883C1798.02 174.883 1796.01 172.88 1796.01 170.41C1796.01 167.939 1798.02 165.937 1800.5 165.937C1802.99 165.937 1805 167.939 1805 170.41C1805 172.88 1802.99 174.883 1800.5 174.883Z" clip-rule="evenodd" fill-rule="evenodd"></path>
<path fill-opacity="0.07" fill="white" d="M1800.5 143.57C1798.02 143.57 1796.01 141.568 1796.01 139.097C1796.01 136.627 1798.02 134.624 1800.5 134.624C1802.99 134.624 1805 136.627 1805 139.097C1805 141.568 1802.99 143.57 1800.5 143.57Z" clip-rule="evenodd" fill-rule="evenodd"></path>
<path fill-opacity="0.07" fill="white" d="M1800.5 112.259C1798.02 112.259 1796.01 110.256 1796.01 107.786C1796.01 105.315 1798.02 103.312 1800.5 103.312C1802.99 103.312 1805 105.315 1805 107.786C1805 110.256 1802.99 112.259 1800.5 112.259Z" clip-rule="evenodd" fill-rule="evenodd"></path>
<path fill-opacity="0.07" fill="white" d="M1800.5 80.9463C1798.02 80.9463 1796.01 78.9436 1796.01 76.4731C1796.01 74.0027 1798.02 72 1800.5 72C1802.99 72 1805 74.0027 1805 76.4731C1805 78.9436 1802.99 80.9463 1800.5 80.9463Z" clip-rule="evenodd" fill-rule="evenodd"></path>
<path fill-opacity="0.07" fill="white" d="M1770.96 237.507C1768.48 237.507 1766.46 235.504 1766.46 233.034C1766.46 230.563 1768.48 228.561 1770.96 228.561C1773.44 228.561 1775.45 230.563 1775.45 233.034C1775.45 235.504 1773.44 237.507 1770.96 237.507Z" clip-rule="evenodd" fill-rule="evenodd"></path>
<path fill-opacity="0.07" fill="white" d="M1770.96 206.194C1768.48 206.194 1766.46 204.192 1766.46 201.721C1766.46 199.251 1768.48 197.248 1770.96 197.248C1773.44 197.248 1775.45 199.251 1775.45 201.721C1775.45 204.192 1773.44 206.194 1770.96 206.194Z" clip-rule="evenodd" fill-rule="evenodd"></path>
<path fill-opacity="0.07" fill="white" d="M1770.96 174.883C1768.48 174.883 1766.46 172.88 1766.46 170.41C1766.46 167.939 1768.48 165.937 1770.96 165.937C1773.44 165.937 1775.45 167.939 1775.45 170.41C1775.45 172.88 1773.44 174.883 1770.96 174.883Z" clip-rule="evenodd" fill-rule="evenodd"></path>
<path fill-opacity="0.07" fill="white" d="M1770.96 143.57C1768.48 143.57 1766.46 141.568 1766.46 139.097C1766.46 136.627 1768.48 134.624 1770.96 134.624C1773.44 134.624 1775.45 136.627 1775.45 139.097C1775.45 141.568 1773.44 143.57 1770.96 143.57Z" clip-rule="evenodd" fill-rule="evenodd"></path>
<path fill-opacity="0.07" fill="white" d="M1770.96 112.259C1768.48 112.259 1766.46 110.256 1766.46 107.786C1766.46 105.315 1768.48 103.312 1770.96 103.312C1773.44 103.312 1775.45 105.315 1775.45 107.786C1775.45 110.256 1773.44 112.259 1770.96 112.259Z" clip-rule="evenodd" fill-rule="evenodd"></path>
<path fill-opacity="0.07" fill="white" d="M1770.96 80.9463C1768.48 80.9463 1766.46 78.9436 1766.46 76.4731C1766.46 74.0027 1768.48 72 1770.96 72C1773.44 72 1775.45 74.0027 1775.45 76.4731C1775.45 78.9436 1773.44 80.9463 1770.96 80.9463Z" clip-rule="evenodd" fill-rule="evenodd"></path>
<path fill-opacity="0.07" fill="white" d="M1741.41 237.507C1738.93 237.507 1736.92 235.504 1736.92 233.034C1736.92 230.563 1738.93 228.561 1741.41 228.561C1743.9 228.561 1745.91 230.563 1745.91 233.034C1745.91 235.504 1743.9 237.507 1741.41 237.507Z" clip-rule="evenodd" fill-rule="evenodd"></path>
<path fill-opacity="0.07" fill="white" d="M1741.41 206.194C1738.93 206.194 1736.92 204.192 1736.92 201.721C1736.92 199.251 1738.93 197.248 1741.41 197.248C1743.9 197.248 1745.91 199.251 1745.91 201.721C1745.91 204.192 1743.9 206.194 1741.41 206.194Z" clip-rule="evenodd" fill-rule="evenodd"></path>
<path fill-opacity="0.07" fill="white" d="M1741.41 174.883C1738.93 174.883 1736.92 172.88 1736.92 170.41C1736.92 167.939 1738.93 165.937 1741.41 165.937C1743.9 165.937 1745.91 167.939 1745.91 170.41C1745.91 172.88 1743.9 174.883 1741.41 174.883Z" clip-rule="evenodd" fill-rule="evenodd"></path>
<path fill-opacity="0.07" fill="white" d="M1741.41 143.57C1738.93 143.57 1736.92 141.568 1736.92 139.097C1736.92 136.627 1738.93 134.624 1741.41 134.624C1743.9 134.624 1745.91 136.627 1745.91 139.097C1745.91 141.568 1743.9 143.57 1741.41 143.57Z" clip-rule="evenodd" fill-rule="evenodd"></path>
<path fill-opacity="0.07" fill="white" d="M1741.41 112.259C1738.93 112.259 1736.92 110.256 1736.92 107.786C1736.92 105.315 1738.93 103.312 1741.41 103.312C1743.9 103.312 1745.91 105.315 1745.91 107.786C1745.91 110.256 1743.9 112.259 1741.41 112.259Z" clip-rule="evenodd" fill-rule="evenodd"></path>
<path fill-opacity="0.07" fill="white" d="M1741.41 80.9463C1738.93 80.9463 1736.92 78.9436 1736.92 76.4731C1736.92 74.0027 1738.93 72 1741.41 72C1743.9 72 1745.91 74.0027 1745.91 76.4731C1745.91 78.9436 1743.9 80.9463 1741.41 80.9463Z" clip-rule="evenodd" fill-rule="evenodd"></path>
<path fill-opacity="0.07" fill="white" d="M1710.59 237.507C1708.1 237.507 1706.09 235.504 1706.09 233.034C1706.09 230.563 1708.1 228.561 1710.59 228.561C1713.07 228.561 1715.08 230.563 1715.08 233.034C1715.08 235.504 1713.07 237.507 1710.59 237.507Z" clip-rule="evenodd" fill-rule="evenodd"></path>
<path fill-opacity="0.07" fill="white" d="M1710.59 206.194C1708.1 206.194 1706.09 204.192 1706.09 201.721C1706.09 199.251 1708.1 197.248 1710.59 197.248C1713.07 197.248 1715.08 199.251 1715.08 201.721C1715.08 204.192 1713.07 206.194 1710.59 206.194Z" clip-rule="evenodd" fill-rule="evenodd"></path>
<path fill-opacity="0.07" fill="white" d="M1710.59 174.883C1708.1 174.883 1706.09 172.88 1706.09 170.41C1706.09 167.939 1708.1 165.937 1710.59 165.937C1713.07 165.937 1715.08 167.939 1715.08 170.41C1715.08 172.88 1713.07 174.883 1710.59 174.883Z" clip-rule="evenodd" fill-rule="evenodd"></path>
<path fill-opacity="0.07" fill="white" d="M1710.59 143.57C1708.1 143.57 1706.09 141.568 1706.09 139.097C1706.09 136.627 1708.1 134.624 1710.59 134.624C1713.07 134.624 1715.08 136.627 1715.08 139.097C1715.08 141.568 1713.07 143.57 1710.59 143.57Z" clip-rule="evenodd" fill-rule="evenodd"></path>
<path fill-opacity="0.07" fill="white" d="M1710.59 112.259C1708.1 112.259 1706.09 110.256 1706.09 107.786C1706.09 105.315 1708.1 103.312 1710.59 103.312C1713.07 103.312 1715.08 105.315 1715.08 107.786C1715.08 110.256 1713.07 112.259 1710.59 112.259Z" clip-rule="evenodd" fill-rule="evenodd"></path>
<path fill-opacity="0.07" fill="white" d="M1710.59 80.9463C1708.1 80.9463 1706.09 78.9436 1706.09 76.4731C1706.09 74.0027 1708.1 72 1710.59 72C1713.07 72 1715.08 74.0027 1715.08 76.4731C1715.08 78.9436 1713.07 80.9463 1710.59 80.9463Z" clip-rule="evenodd" fill-rule="evenodd"></path>
<path fill-opacity="0.07" fill="white" d="M1681.04 237.507C1678.56 237.507 1676.54 235.504 1676.54 233.034C1676.54 230.563 1678.56 228.561 1681.04 228.561C1683.52 228.561 1685.54 230.563 1685.54 233.034C1685.54 235.504 1683.52 237.507 1681.04 237.507Z" clip-rule="evenodd" fill-rule="evenodd"></path>
<path fill-opacity="0.07" fill="white" d="M1681.04 206.194C1678.56 206.194 1676.54 204.192 1676.54 201.721C1676.54 199.251 1678.56 197.248 1681.04 197.248C1683.52 197.248 1685.54 199.251 1685.54 201.721C1685.54 204.192 1683.52 206.194 1681.04 206.194Z" clip-rule="evenodd" fill-rule="evenodd"></path>
<path fill-opacity="0.07" fill="white" d="M1681.04 174.883C1678.56 174.883 1676.54 172.88 1676.54 170.41C1676.54 167.939 1678.56 165.937 1681.04 165.937C1683.52 165.937 1685.54 167.939 1685.54 170.41C1685.54 172.88 1683.52 174.883 1681.04 174.883Z" clip-rule="evenodd" fill-rule="evenodd"></path>
<path fill-opacity="0.07" fill="white" d="M1681.04 143.57C1678.56 143.57 1676.54 141.568 1676.54 139.097C1676.54 136.627 1678.56 134.624 1681.04 134.624C1683.52 134.624 1685.54 136.627 1685.54 139.097C1685.54 141.568 1683.52 143.57 1681.04 143.57Z" clip-rule="evenodd" fill-rule="evenodd"></path>
<path fill-opacity="0.07" fill="white" d="M1681.04 112.259C1678.56 112.259 1676.54 110.256 1676.54 107.786C1676.54 105.315 1678.56 103.312 1681.04 103.312C1683.52 103.312 1685.54 105.315 1685.54 107.786C1685.54 110.256 1683.52 112.259 1681.04 112.259Z" clip-rule="evenodd" fill-rule="evenodd"></path>
<path fill-opacity="0.07" fill="white" d="M1681.04 80.9463C1678.56 80.9463 1676.54 78.9436 1676.54 76.4731C1676.54 74.0027 1678.56 72 1681.04 72C1683.52 72 1685.54 74.0027 1685.54 76.4731C1685.54 78.9436 1683.52 80.9463 1681.04 80.9463Z" clip-rule="evenodd" fill-rule="evenodd"></path>
<path fill-opacity="0.07" fill="white" d="M1651.5 237.507C1649.01 237.507 1647 235.504 1647 233.034C1647 230.563 1649.01 228.561 1651.5 228.561C1653.98 228.561 1655.99 230.563 1655.99 233.034C1655.99 235.504 1653.98 237.507 1651.5 237.507Z" clip-rule="evenodd" fill-rule="evenodd"></path>
<path fill-opacity="0.07" fill="white" d="M1651.5 206.194C1649.01 206.194 1647 204.192 1647 201.721C1647 199.251 1649.01 197.248 1651.5 197.248C1653.98 197.248 1655.99 199.251 1655.99 201.721C1655.99 204.192 1653.98 206.194 1651.5 206.194Z" clip-rule="evenodd" fill-rule="evenodd"></path>
<path fill-opacity="0.07" fill="white" d="M1651.5 174.883C1649.01 174.883 1647 172.88 1647 170.41C1647 167.939 1649.01 165.937 1651.5 165.937C1653.98 165.937 1655.99 167.939 1655.99 170.41C1655.99 172.88 1653.98 174.883 1651.5 174.883Z" clip-rule="evenodd" fill-rule="evenodd"></path>
<path fill-opacity="0.07" fill="white" d="M1651.5 143.57C1649.01 143.57 1647 141.568 1647 139.097C1647 136.627 1649.01 134.624 1651.5 134.624C1653.98 134.624 1655.99 136.627 1655.99 139.097C1655.99 141.568 1653.98 143.57 1651.5 143.57Z" clip-rule="evenodd" fill-rule="evenodd"></path>
<path fill-opacity="0.07" fill="white" d="M1651.5 112.259C1649.01 112.259 1647 110.256 1647 107.786C1647 105.315 1649.01 103.312 1651.5 103.312C1653.98 103.312 1655.99 105.315 1655.99 107.786C1655.99 110.256 1653.98 112.259 1651.5 112.259Z" clip-rule="evenodd" fill-rule="evenodd"></path>
<path fill-opacity="0.07" fill="white" d="M1651.5 80.9463C1649.01 80.9463 1647 78.9436 1647 76.4731C1647 74.0027 1649.01 72 1651.5 72C1653.98 72 1655.99 74.0027 1655.99 76.4731C1655.99 78.9436 1653.98 80.9463 1651.5 80.9463Z" clip-rule="evenodd" fill-rule="evenodd"></path>
<circle stroke-width="20" stroke-opacity="0.1" stroke="white" r="133.5" cy="570.5" cx="22.5"></circle>
<circle stroke-width="10" stroke-opacity="0.04" stroke="white" r="27.5" cy="543.5" cx="784.5"></circle>
<circle stroke-width="10" stroke-opacity="0.06" stroke="white" r="66.5" cy="71.5" cx="1375.5"></circle>
<circle stroke-width="10" stroke-opacity="0.05" stroke="white" transform="matrix(1 0 0 -1 1646.5 520.5)" r="28.5"></circle>
<circle stroke-width="10" stroke-opacity="0.1" stroke="white" r="22.5" cy="238.5" cx="248.5"></circle>
</svg>
