<svg xmlns="http://www.w3.org/2000/svg" xmlns:xlink="http://www.w3.org/1999/xlink" width="250.103" height="145.013" viewBox="0 0 250.103 145.013">
  <defs>
    <filter id="Path_4254" x="64.053" y="0" width="121.997" height="121.997" filterUnits="userSpaceOnUse">
      <feOffset dy="7" input="SourceAlpha"/>
      <feGaussianBlur stdDeviation="5.5" result="blur"/>
      <feFlood flood-opacity="0.051"/>
      <feComposite operator="in" in2="blur"/>
      <feComposite in="SourceGraphic"/>
    </filter>
  </defs>
  <g id="payment-success" transform="translate(-615 -76.56)">
    <g id="Group_7691" data-name="Group 7691" transform="translate(615 163.544)">
      <path id="rms-top-heading-highlight" d="M76.56,51.9a2.388,2.388,0,0,0-.873.707c-.157.239-.949.468-.825.3s.517-.62.593-.729-.37-.37-.446-.544l-.119-.076-.285-.2c-.18-.261-.389-.566-.465-.664s-.451.229-.555.381l0,.152v.087a1.267,1.267,0,0,1-.18.675c-.133.261-.171,1.012-.223,1.034a.342.342,0,0,1-.285-.1c-.057-.076-.351-.37-.479-.49s.47-.4.541-.5.066-.272-.161-.141-.892-.25-1.039-.207.019.468.076.6l.024.131.019.142c-.009.131-.327.207-.711.141l-.313.022h-.052c-.052.3-.161.512-.251.468a1.855,1.855,0,0,0-.825.044l-.009-.022-.166-.272c.289-.044.5-.174.46-.283s-.323-.359-.5-.185a2.675,2.675,0,0,1-1.067.566,9.26,9.26,0,0,1-.977-.044.506.506,0,0,1,.313-.1c.175-.022.688-.218.688-.4s.735-.392.873-.414a1.687,1.687,0,0,0,.6-.239l-.019-.044c-.028-.065-.152-.163-.194-.152a7.125,7.125,0,0,1-2.149.359l-.512-.022a2.9,2.9,0,0,1-.678.653c-.123.065-.4-.25-.46-.294a3.216,3.216,0,0,0-.5-.218c-.138-.054-.465-.25-.384-.316s.384-.185.5-.131l.033.065.176.348a4.6,4.6,0,0,0,.863-.185.71.71,0,0,0,.223-.424c0-.131-.555-.359-.74-.381l-.009-.054c-.166-.707-.655-.3-.745-.065-.166.435-.7.468-1.029.707l-.294.207c-.19.272-.384.37-.432.239l-.024-.131-.043-.239c-.346-.131-.859-.348-1.148-.49l-.047-.163c-.128-.414-.46-.424-.887-.424-.185,0-.4-.185-.55-.152s-.213.25-.337.359l-.043.044c-.161.022-.171.1-.014.174s.446.359.313.457-1.1-.272-.987-.392l.057-.12c.161-.348-.062-.555-.531-.414-.37.109-.47-.141-.7-.163l-.285-.033a9.989,9.989,0,0,0-1.423.239l-.247-.12-.3-.141a7.626,7.626,0,0,0-.939.174,4.547,4.547,0,0,1-1.238-.185c-.185-.033-.645.022-.873.011a2.525,2.525,0,0,0-1.143.087,1.436,1.436,0,0,1-1.366.011l-.517.12-.356.076a10.853,10.853,0,0,0-1.314-.065,12.274,12.274,0,0,0-1.76.294c-.413.1-1.7-.141-2.206-.076l-.5-.229-.37-.163c-.664.141-1.309.283-1.442.316s-.678,0-1,0a7.037,7.037,0,0,1-1.2.044c-.038-.065-.218-.207-.332-.12s-.517.185-.664.054l-.147-.087-.1-.054a.564.564,0,0,0-.389.076c-.081.065-.356.185-.446.12s-.484.054-.569.1a6.759,6.759,0,0,1-.968.185l-.389-.12c-.2-.065-.389-.142-.583-.218-.256-.1-.465-.4-.806-.1-.028.033-.228-.011-.285-.054-.37-.327-.545-.424-.934.076l-.256.327c-.19-.392-.408-.642-.489-.555s-.379.294-.451.185a1.468,1.468,0,0,0-.526-.4c-.166-.033-.588.327-.683.414s-.451-.065-.5.011-.152.109-.119-.087-.617.131-.659.142l-.043.011c-.427.109-.436-.512-.968-.3l-.28.109c-.394-.011-.816-.033-.93-.044s-.531.054-.8.065-1.062-.174-1.21-.011l-.185.087-.1.054a2.876,2.876,0,0,1-.735-.316c-.2-.12-1.262.207-1.366.087s-.522-.3-.65-.185-.6-.131-.678-.076l-.062.054c-.081.076-.157.218-.223.207-.232-.011-.636.141-.607-.218l.009-.1c.28-.12.4-.25.275-.316s-.531-.1-.631.011-.517.392-.512.109l-.014-.131a.326.326,0,0,0-.095-.174l-.228.033c-.251.033-.408-.1-.346-.3l-.408.087-.076.011a.909.909,0,0,1-.6-.011,9.056,9.056,0,0,0-1.546-.076c-.289.011-1.2-.327-1.442-.3s-.873.12-.968-.1a36.264,36.264,0,0,0-5.066-.348l-.009-.011-.365-.6c-.645-.087-1.224-.185-1.285-.207a5.315,5.315,0,0,0-.583-.033c-.228-.022-1.176.044-1.594.076l-.081-.555c-.009-.065-.171-.174-.2-.152l-.242.152a1.772,1.772,0,0,1-.55-.392,3.413,3.413,0,0,0-.6-.348,1.789,1.789,0,0,0-.55-.174.269.269,0,0,1-.266-.185l-.076-.1A.255.255,0,0,0,2.718,46a1.693,1.693,0,0,1-.759.185c-.417.022-.213-.163-.19-.37.014-.12-.247-.25.085-.294a1.59,1.59,0,0,0,.436-.163c.161-.087.133-.174.014-.316L2.172,44.9c.133-.131.389-.392.574-.588s.408-.914.2-.958L2.8,43.38l-.175.022A.793.793,0,0,1,2,43.358c-.166-.109-.123-.958-.062-1.306s.2-1.241.175-1.252a.953.953,0,0,0-.37.327l-.2-.327-.1-.163a2.863,2.863,0,0,1,.261-.62l-.185-.1-.095-.044c-.228.131-.36.1-.3-.076l.014-.142.033-.392a5.306,5.306,0,0,1-.323-1.023,1.284,1.284,0,0,1,.493-.893c.3-.152.3-1.045.076-.98l-.128.12-.133.12C1,36.718.7,36.533.479,36.185L.593,35.9c.038-.087.033-.207.076-.283.109-.207.237-.4.356-.6.133-.229.289.294.446-.022l.043-.087c.185-.044.166-.142-.047-.218l-.009-.087a.81.81,0,0,1,.175-.435c.047-.065.18-.054.256-.109.18-.141.232-.544.057-.61a.517.517,0,0,1-.365-.381,6.074,6.074,0,0,0-1.371-.131c-.043-.033-.038-.174.009-.316s.171-.718.232-.4l.071-.1a1.486,1.486,0,0,1,.047.4l.019.4a2.051,2.051,0,0,0,.038-.577l0-.163c0-.512.014-1.023.028-1.524l0-.109.052-.239.052-.337a.235.235,0,0,0,.081-.12l.038-.283c.009-.065.043.207.052.25s.033.109.038-.1.028-.555.052-.424.081-.141.076-.185a1.487,1.487,0,0,1,.009-.283l.009.033c.033.109.066.522.076-.141v-.011l.057.087c.019.054.081-.152.1-.163s.076.033.1.033a1.345,1.345,0,0,0,.052-.49,4.963,4.963,0,0,1-.052-.795c.014-.272-.095-1.045-.085-1.078a1.788,1.788,0,0,0-.009-.446v-.512c-.028-.011-.062-.109-.076-.218l-.009-.12-.019-.261c.009-.3.014-.805,0-1.121l-.009-.294v-.1c0-.12.028-.1.062.054s.119-.12.119-.174a1.672,1.672,0,0,0-.024-.327l-.009.044-.019.1c-.028.12-.043.12-.038,0l0-.12,0-.12a.707.707,0,0,0,0-.207c-.009.022-.038.044-.057.011s.014-.631.028-.925l.043-.076.019-.065,0-.664a2.253,2.253,0,0,0,.09-.631c-.019-.087-.085.033-.095,0s-.09-.25-.152-.468l-.066.1c-.028.044-.028-.1-.038-.294l-.009-.3c-.019.185-.057.283-.081.218A3.459,3.459,0,0,1,.9,18.879v-.022l.024-.25c-.014-.25-.033-.49-.038-.555S.859,17.921.854,18l-.009.054-.009.076a2.253,2.253,0,0,1-.066.239c-.019.076-.09.185-.1.1a4.718,4.718,0,0,1-.019-.61c.009-.152.09.1.119.109l0-.163a4.089,4.089,0,0,0-.019-.566l-.142-.054c.019-.773.019-1.437,0-1.459s-.057.337-.062.294l-.024-.185c0-.011-.014-.185-.019-.348s.019-.707.028-.838v-.131l0-.12c0-.131-.019-.229-.033-.218L.5,14.2l-.009.022c-.014.033-.024-.022-.028-.109l0-.033c.019-.229,3.135-.185,3.135-.185.242-.327.213-.5-.062-.392l-.157.022-.294.022c-.337-.022-.631-.141-.655-.283l.009-.109L2.5,12.13a9.8,9.8,0,0,0-.854-.86l-.019-.054L1.551,11a2.3,2.3,0,0,0-.166-.958l-.171-.076c-.432-.2-.422-.533-.4-.914l.009-.141c0-.261-.223-.381-.493-.25L.5,8.321c.161-.316-.128-.316-.218-.446-.024-.044-.185.4-.27-.011L0,7.809c.138-.1.275-.185.3-.207a1.468,1.468,0,0,0-.251-.686l.071-.381a1.107,1.107,0,0,0,.071-.294L.185,6.133c-.057-.109-.043-.185.033-.152A.823.823,0,0,0,.783,5.8c.142-.152-.066-.718.033-.762l.028.022c.266.261.5.316.73-.044l.2-.3c.218.218.408.3.432.185a1.4,1.4,0,0,1,.7-.631l.232.544.123.272c.332-.3.545-.566.479-.6s-.232-.152-.213-.239l.019.011a2.348,2.348,0,0,1,.474.054l.076.011a.177.177,0,0,0,.213-.12c.038-.087.308-.033.332-.1s.18-.261.232-.141a.272.272,0,0,0,.5-.044l.119-.152.062-.076a1.053,1.053,0,0,1,.56.141c.175.087.806-.12.934-.011s.493.327.636.044l.119-.2.114-.185a1.069,1.069,0,0,1,.617.12c.119.076.36-.3.5-.3a2.008,2.008,0,0,1,.612.185c.052.054.3.141.36-.022A30.9,30.9,0,0,1,14.7,3.031a2.038,2.038,0,0,0,.821-.065c.152-.054.593.109.669.065l.009-.054.038-.185a6.343,6.343,0,0,1,1.058.359l.052-.512,0-.044c.085-.033.484-.12.887-.2a18.67,18.67,0,0,1,2.1.12l.251.065c.261.065.432.337.446-.109,0-.044.3-.131.308-.12a.63.63,0,0,0,.877-.011c.285-.294.683.12.987-.152l.119-.109c.493.141.953.272,1.025.294a2.142,2.142,0,0,0,.73-.359c.27-.185,1.2.174,1.247.152V2.149l-.019-.522a2.669,2.669,0,0,0,1.5-.1l.323.414.161.207c.332-.131.778-.3.982-.381l.213-.044.066-.011a2.038,2.038,0,0,1,.526,0c.223.022,1-.022,1.228.022s.811-.174.868-.12.3.2.351.131l.052-.065.057-.065c.071-.065.152-.076.171-.022a.916.916,0,0,0,.2.261l.057-.011.413-.087a6.084,6.084,0,0,0,1.006-.2l.062-.044.422-.37c.318.348.645.555.73.446s.351-.3.432-.25.261-.152.27-.566L37,1.3l.109.1a4.617,4.617,0,0,1,.9-.054c.185.011.607.1.621-.022s.636-.141.735-.044.266-.065.251-.446l.664.49c.066.044.432-.131.65-.218l.119-.044c.114-.044.6-.185,1.072-.294s1.693.435,1.788.446.683-.076,1.086-.141a14.317,14.317,0,0,1,2.182.044l.128-.1.3-.207a3.745,3.745,0,0,0,.849.261l.18.011h.327a9.408,9.408,0,0,1,.925-.294A12.2,12.2,0,0,1,51.378.7h.541c.133-.054.256-.022.28.076s.522.054.588-.022.375-.229.484-.141a.989.989,0,0,0,.655.163A5.739,5.739,0,0,1,55.068.506l.1.131c.228.272.493-.261.745.087l.109.152a1.473,1.473,0,0,1,.906-.141c.109.065.446.229.474.152s.175-.218.247-.2.308,0,.365-.12A10.82,10.82,0,0,1,59.532.43l.593.163a2.389,2.389,0,0,0,1.7-.12L62.1.321A3.825,3.825,0,0,1,63.16.6.442.442,0,0,0,63.7.484c.157-.2.882.163.934.087s.251-.272.28-.141.19.294.308.12.968.1,1.319.022l.417.065L67.5.723A3.3,3.3,0,0,1,68.786.495c.043.076.223.239.275.152s.289-.3.422-.3l.047.033.389.3A12.666,12.666,0,0,1,71.485.669c.342.033,1.409-.1,1.66.087L73.439.44c.047-.054.413.1.631.1l.64-.011C75.417.506,76.4.419,76.9.343l.375.348.071.076a4.381,4.381,0,0,1,.821-.054c.209,0,.716.109.74,0s.7-.044.934.185l.37-.272.119-.087c.332.065.726.131.873.152s.7.087.9.087l.18.011a2.611,2.611,0,0,0,.413,0c.142-.022.266-.12.408-.141l.085-.011a.821.821,0,0,0,.489.011,1.659,1.659,0,0,1,.882.272l-.009-.4A6.161,6.161,0,0,1,85.7.811l.451.022.356.011c.4-.141.8-.294.887-.327s.417.152.56.392l.427-.12c.228-.065.631-.12.716-.033.351.348.47-.218.792-.065l.285.131a6.542,6.542,0,0,1,1.148.163L91.4.93,91.828.6a1.96,1.96,0,0,0,1,.2c.09-.065.436-.185.527-.076l.384.4c.019,0,.294-.109.541-.207A5.631,5.631,0,0,1,95.893.876a12.394,12.394,0,0,1,1.47.076c.256.087.911-.229,1.138-.109l0-.011.626-.653A10.488,10.488,0,0,0,101,.713c.2,0,.579-.054.555.131s.764-.163.963-.229a1.912,1.912,0,0,1,.792.022c.152.033.536-.065.574,0s.213.239.285.163a1.7,1.7,0,0,1,.882-.261l.289.131.863.272.2-.12c.261-.152.508-.229.555-.163a3.5,3.5,0,0,0,.607.4l.465-.337.047-.044a1.058,1.058,0,0,1,.441.141,3.027,3.027,0,0,0,1.409-.1l.038-.033.18-.152a.611.611,0,0,1,.3.707l.588-.294.446-.218c-.033.283-.024.359.019.152s.688.12.726.109.323-.044.564-.087a6.9,6.9,0,0,1,1.385.261c.242.054.84-.2.93-.131s.342.261.36.272a.813.813,0,0,0,.247-.152,1.336,1.336,0,0,1,.764-.1l.18.011c.1.011.289-.141.318-.12l.3.229a2.356,2.356,0,0,1,1.257.022l.351.1.142.044a1.143,1.143,0,0,0,.508-.12c.1-.065.536-.076.674-.152a7.372,7.372,0,0,1,1.428.141l.4.033.337.022a1.469,1.469,0,0,0,.773.065A1.269,1.269,0,0,1,123.9,1.2l.213.087c.228.087.413.37.427-.087a.692.692,0,0,1,.251-.022,8.377,8.377,0,0,0,1.551.109l.384-.044a4.948,4.948,0,0,0,.7.229,3.954,3.954,0,0,0,.674-.087,9.124,9.124,0,0,1,1.864.163c.356.109,1.352-.359,1.579-.348a5.2,5.2,0,0,0,1.366-.174c.294-.12.963.392,1.044.381s.508-.25.688-.054l.19.033c.2.044.479-.163.659-.109l.37.1a1.081,1.081,0,0,1,.621-.294l.09.054.171.1c.157.141.361.2.455.131s.346-.163.36-.044.588.141.683.054.5-.207.588-.1.379.4.436.392l.024-.033c.28-.468.707-.065,1.062-.087h.166a1.8,1.8,0,0,1,.655-.087,3.705,3.705,0,0,1,.607.131c.194.076,1.034-.12,1.39-.022l.4-.076c.218-.044.517.152.726.1l.351-.087c.351.065.887.152,1.2.174l.289-.033.5-.065c.564-.033,1.105-.065,1.2-.065a1.121,1.121,0,0,1,.526.327c.142.163.764-.076.868,0s.441.218.508.152l-.014-.044c-.038-.141-.19-.392-.166-.4l.327-.131a.852.852,0,0,0,.294.446.772.772,0,0,0,.427-.109c.09-.065.4-.174.5-.1s.384.022.408-.294l.517.218h.014c-.081.163.128.261.465.218s1.138.337,1.21.283V2.03L153.7,1.67a2.324,2.324,0,0,1,.7.25c.076.076.337.207.36.1a.306.306,0,0,1,.46-.141c.213.141,1.081-.065,1.314-.065a2.1,2.1,0,0,1,.906.359c.047.087.688-.065.773-.163a.505.505,0,0,1,.7.163l.455-.1c.479-.1-.3-.359.052-.392l.356-.033c.408.011,1.38.044,2.153.054l.707.011c.356,0,.707,0,1.062.022l.294.011a1.856,1.856,0,0,0,1.11-.239l.318.359.185.207a1.075,1.075,0,0,1,.37-.588l.147.152.237.239c.289-.065.707-.152.93-.2a7.1,7.1,0,0,0,1.143-.25c.18-.087.835.2,1.067.218a6.135,6.135,0,0,0,1.034.065,6.076,6.076,0,0,1,.911-.229l.237-.109.441-.218c.19.261.36.392.379.294a.5.5,0,0,1,.555-.283,7.879,7.879,0,0,0,1.385.327c.261.011,1.191-.359,1.693-.359l.417.022c.427.033.825-.033,1.233-.022l.28.022a1.444,1.444,0,0,1,.887-.054l.128-.065c.408-.185.526-.1.574.239l0,.022a2.892,2.892,0,0,0,1.157-.424l.612.4.062.033c.066.044.128-.054.133-.229s.8.044.982.1a3.678,3.678,0,0,0,1.034-.033,5.236,5.236,0,0,1,.958-.131c.157.044.768-.141,1.115-.1s1.366,0,1.508.054.455.294.489.218.218-.185.289.022l.1.044.175.065c.228-.022.74-.054,1.138-.076l.232-.131.308-.185a2.04,2.04,0,0,0,.588.207A1.632,1.632,0,0,0,190.994,1a3.73,3.73,0,0,1,.953.163A4.655,4.655,0,0,0,193.214,1c.081-.022.474.4.5.283a.666.666,0,0,1,.569-.392l.237.011.3.033a2.254,2.254,0,0,0,1.01.174c.237-.033.958-.218,1.138-.25s.636.152.659.044.161-.4.242-.392l.038.022c.308.25.564.533,1.086.25L199.157.7a3.378,3.378,0,0,0,.792.076,4.925,4.925,0,0,1,.664.141L200.7.908l.313-.065A3.923,3.923,0,0,1,202.126.8l.247.022.195.011c.261-.185.545-.239.636-.131s.37.25.5.152.64-.3.773-.174a2.285,2.285,0,0,0,1.01.294l.323.054.323.054a3.362,3.362,0,0,1,.854-.174l.2-.087.1-.044a4.409,4.409,0,0,0,1.129-.163l.46.3.247.163c.465-.011.868-.152.892-.3s.6-.044.735.022.712.109.906.152a2.955,2.955,0,0,0,.693-.163c.038.022.209.152.308.218s.83.239.721.131-.09-.218.242-.076l.356-.316c.152-.131.659-.022,1,0l.256.011a1.836,1.836,0,0,0,.455.316c.057.011.536.022,1.006.076L217.015.8l.052-.054c.451.163.783.207.726.109s-.138-.37-.095-.414a3.09,3.09,0,0,1,.674-.12c.3-.044,1.143.229,1.276.163l.066.033.294.131a2.424,2.424,0,0,1,.944.141c.166.087.768-.381,1.148-.6l.37.131.436.152a2.951,2.951,0,0,1,.536-.348,1,1,0,0,0,.313-.109c.119-.076.612.141.745.207s.64.207.541.011.484-.022.593-.044a1.494,1.494,0,0,1,.707.152c.166.12.792.109.749.054A2.945,2.945,0,0,1,228.4.277l.3.185.55.348c.047-.359.285-.468.531-.239l.512-.141A2.886,2.886,0,0,1,232.108.6a1.01,1.01,0,0,0,.953.065c.18-.087.664.131.977.272.157.054-.384.2-.038.316.1.033.289-.141.422-.12.213.022.536.087.6.2l.194.37c.436.12,1.02.294,1.3.381a6.263,6.263,0,0,0,1.352.229c.166-.022.683.131.8.087s.37-.065.342.109.6-.065.707-.1a8.289,8.289,0,0,1,.878.011c.341.011,4.036.435,4.093.4s.237-.033.242.054.195.37.408.3.873.327,1.124.435l.076.414c.038.218.413.25.484.653l.033.185.526.316a.4.4,0,0,1,.085.37h0l.209.141a2.58,2.58,0,0,0-.138.784l.024.2.043.414a2.433,2.433,0,0,0,.213.86l.052.011h.052a.115.115,0,0,1,.114.087c0,.044-.109.174-.223.25l-.095.1c-.019.011,0,.131.014.185l.109.022c.019,0,.033-.065.057-.065l.119-.033c.138-.022.242.022.237.087a1.163,1.163,0,0,0,.247.555l.1.185.062.131c.01.239-.123.348-.3.239s-.607-.033-.46.49a4.51,4.51,0,0,1,.033,1.97c-.147.065-.541.272-.493.294a2.329,2.329,0,0,1,.375.348l.052.163c.147.468.237-.25.389-.011l.085.141c.18.109-.56.381-.621.533a7.8,7.8,0,0,0,.157,1.3l-.119.337c-.128.37.109.99.4,1.034l.251.033c.28.087.4.152.266.163s-.512.152-.512.272.133.522.3.479l.157-.022.085-.022c.1,0-.669.011-.574.054s-.3-.044-.09-.033.474.784.446.849l-.114-.022c-.228-.054-.346.185-.261.446a1.237,1.237,0,0,0,.223.479l.237.2c.019.337.081.544.138.446l.062-.011a.193.193,0,0,1,.2.054.354.354,0,0,1,.01.261c-.1.207-.247.327-.451.283-.043-.011-.128.109-.133.174a.324.324,0,0,0,.1.218l.171.109c.194.109.185.316-.014.468l-.18.011-.147.011c-.209-.174-.375-.076-.375.2l-.033.185c-.043.272.816.283.816.283a4.332,4.332,0,0,1-.574.174c-.119.011-.09.588-.014.9a3.781,3.781,0,0,1,.095,1.426c-.119.076-.014.62.057.718s.19.414.095.5l-.119.065c-.1.065-.223-.239-.337.022l-.014.033c-.1-.022.636-.109.507-.185s-.612.054-.821.12a2.365,2.365,0,0,1-1.058-.348c-.166-.12.047-.12-.081-.163s-.46-.316-.5-.2a2.242,2.242,0,0,0-.1.642c.014.163.413.25.508.25l.043.054c.09.12.014.414.275.37h.038c.071.218-.607.3-.489.12,0,0,.835-.065.863.359l0,.087a1.337,1.337,0,0,0,.579.12l.033.261.024.207c.038.239,0,.37-.081.294s-.4-.152-.451-.076a.363.363,0,0,1-.432.011c-.128-.131-.436-.533-.484-.435l.014.033a2.7,2.7,0,0,1,.218.827l-.033.283c-.209.327-.323.664-.256.751s.351.065.455-.065l.076-.163.047-.1c.014-.141.043-.25.066-.239l.014.022.152.316c.19-.163.389-.261.451-.218s.038.316-.176.512l.138.337.057.131c.152-.054.346.142.432.435a2.2,2.2,0,0,1,.157.686.279.279,0,0,1-.37-.076l-.118-.131-.014-.011c-.062,0-.147.087-.185.174s-.085.414.019.424.417.152.323.239-.327.446-.289.555.194.4.247.316l.043-.011c.152-.054.375.185.536.62l.071.185c-.095.207-.2.414-.228.457a.32.32,0,0,0,.047.316h.085c.213.011.28.109.19.37-.024.065-.085.185-.066.207l.095.131a.244.244,0,0,1-.28.229l-.052-.218-.024-.087c-.308-.044-.3.087.019.272l-.123.381-.066.207a.932.932,0,0,0,.014.566.915.915,0,0,1,.09.62c-.081.141-.47.348-.474.479l.038.1.071.185c.062.239.062.359,0,.261a.484.484,0,0,0-.4-.131.76.76,0,0,1-.441,0c-.095-.033-.36.044-.313.1s.218.294.294.37.323-.12.351-.12.081.1.066.261.379-.011.455-.033a.111.111,0,0,1,.066.207c-.133.087-.493.25-.522.163s-.176-.207-.218-.2-.218.49-.289.479-.308.174-.365.435l.071.261c.062.25.152.4.361.435h.043a.527.527,0,0,1-.038.414,4.272,4.272,0,0,1-.441.512c-.038.065-.028.327-.081.337s-.09.174-.1.2.019.152.1.261a1.875,1.875,0,0,1,.247.838l-.09.152c-.247.414-.185.62.161.882l.266.2a6.912,6.912,0,0,0-.441.816c-.066.174-.275.392-.085.414l-.024.381-.014.163c.024.229.052.566.066.762l.1.131.123.163c-.043.185-.119.522-.175.74l.119.229.3.555c-.251.239-.47.435-.479.446a5.546,5.546,0,0,0,.479,1.1l.228.544.062.163a1.637,1.637,0,0,0-.261-.1.4.4,0,0,0-.2.109,1.514,1.514,0,0,1-.394.261,1.624,1.624,0,0,0-.484.185l-.133.076-.157.109a2.213,2.213,0,0,0-1.006.2c-.37.152-5.35.25-5.682.327l-.313.033-.318.044a13.846,13.846,0,0,1-1.874.152h-.968a3.318,3.318,0,0,0-1.01.6l-.3-.359c-.038-.044-.564.109-.569.1-.157-.381-.47.272-.692-.076l-.076-.131a1.652,1.652,0,0,1-.9.272l-.033.022-.313.229a2.688,2.688,0,0,0-1.02.076c-.161.076-.816-.1-.977-.065s-.934.12-1.352.12a16.054,16.054,0,0,1-1.622.174c-.109-.087-.787.163-1.1.261l-.247-.054-.422-.1c-.432.054-.991.131-1.247.152s-.84.174-.887.109-.489.033-.73.207-1.21-.087-1.428,0l-.076-.044-.346-.218a2.3,2.3,0,0,1-1.233.229l-.308.076-.322.076a4.7,4.7,0,0,0-1.2-.131l-.332.033-.313.033a1.741,1.741,0,0,1-1.11-.087l-.37.163-.266.12a9.263,9.263,0,0,0-1.67.109l-.527-.131-.351-.087c-.474.12-.982.229-1.129.25s-.645-.12-.787-.054a4.373,4.373,0,0,1-.963.022c-.327-.011-1.176.141-1.209.076s-.123-.065-.133.131-.674-.174-.811-.174a9.3,9.3,0,0,0-1.025.044c-.285.033-1.058-.065-1.262-.033a6.181,6.181,0,0,1-1.219-.109c-.266-.033-1.224.022-1.508-.033a4.746,4.746,0,0,0-1.172.3c-.128.022-.531-.087-.688-.076s-.607-.022-.949-.044-1.328-.109-1.447-.109-.422.1-.522-.022-.911.011-1.176.033a7.145,7.145,0,0,0-1.594.272l-.451-.272-.332-.2a8.381,8.381,0,0,0-1.845.163l-.474-.163-.071-.033a.719.719,0,0,1-.835.1,7.538,7.538,0,0,0-2.025.174,12.176,12.176,0,0,1-2.082-.294,10.462,10.462,0,0,0-1.115.131l-.47-.152-.28-.087a.565.565,0,0,1-.683.316c-.214-.109-.806-.261-.944-.152s-.659.348-.773.239a2.021,2.021,0,0,0-1.148-.25l-.318.131a1.23,1.23,0,0,1-.968-.033l-.313-.152a1.068,1.068,0,0,1-.7.141,6.792,6.792,0,0,0-.8-.185,1.736,1.736,0,0,0-.8.185c-.166.1-.726-.011-.878.033a6.968,6.968,0,0,1-.944-.022c-.185-.011-.693-.1-.707-.207s-.119-.4-.19-.37-.27.054-.318-.044-.351-.163-.508-.109l-.085.174c-.071.141-.4.2-.6.3-.564.316-.583.316-1.181-.065l-.095-.054a.514.514,0,0,0-.47.044c-.128.087-.655.25-.83.131s-.693-.392-.716-.283a.828.828,0,0,1-.564.446,15.842,15.842,0,0,0-2.481.065l-.849-.261-.266-.087c-.446.229-.882.316-.972.2s-.493.109-.541.141a3.516,3.516,0,0,1-.849.044c-.4-.011-1.561-.2-1.712-.229a2.585,2.585,0,0,0-.911.261c-.185.1-1.11.054-1.5.294l-.451-.337-.266-.2a1.713,1.713,0,0,1-.92-.022c-.19-.1-.745.283-.944.3s-.806-.141-.825-.25a.376.376,0,0,0-.56-.109l-.19.163-.218.185a1.2,1.2,0,0,0-.655-.054c-.119.054-.489.131-.508.011s-.128-.141-.2.152l-.441-.163-.232-.087a6.107,6.107,0,0,1-.607.131c-.138.022-.659-.174-.83-.141a2.349,2.349,0,0,1-.939-.109c-.185-.1-.84-.044-1.124-.12L148.841,53c-.109-.022-.341.12-.36.1-.218-.229-.323-.033-.493.033-.081.033-.266-.131-.417-.185-.028-.011-.161.1-.161.152l0,.044c.1.054.147.131.109.163a.6.6,0,0,1-.351-.033,2.326,2.326,0,0,0-.92.065h-.228c-.351,0-.835-.218-1.02-.1l-.365.218a2.265,2.265,0,0,0-.816-.218,3.684,3.684,0,0,0-.811.272c-.138.1-.266-.316-.285-.337a3.094,3.094,0,0,0-.726.033c-.37.033-1.57.131-1.84.152s-1.029-.577-1.129-.49-.337.5-.749.544a15.645,15.645,0,0,1-2.675-.577l-.588.446-.161.12a5.871,5.871,0,0,1-.934-.229c-.1-.054-.541.033-.721-.044s-.773.131-.863.141a7.771,7.771,0,0,1-.953-.065,14.582,14.582,0,0,0-2.31.163l-.508-.316-1.257.25c-.066.054-.119.131-.194.141l-.308.054c-.289-.12-.5-.316-.474-.424s-.066-.424-.185-.424-.365.087-.275.185l.01.109.014.142c0,.207-.261.327-.574.261h-.484a6.051,6.051,0,0,1-.991.131c-.323.022-1.262-.142-1.451-.076s-.821-.087-1,0-.778-.065-.877-.022l-.1.011a3.346,3.346,0,0,1-1.385-.1l-.427-.109h-1.432c-.19,0-.379-.381-.612-.131l-.123.131-.071.076a1.612,1.612,0,0,1-.707.283,6.274,6.274,0,0,1-1.461-.3,4.678,4.678,0,0,1-.6-.044,2.6,2.6,0,0,0-.707.022,8.141,8.141,0,0,1-1.058.011,4.748,4.748,0,0,1-1.115-.272c-.014-.044-.185.054-.356.337l-.522-.239c-.142-.076-.531.25-.83.283l-.256.033a1.2,1.2,0,0,0-1.072.239l-.436-.294L107,53.154c-.4-.152-.8-.185-.873-.087s-.432.337-.536.218a.61.61,0,0,0-.716-.065l-.19.087a.741.741,0,0,1-.436-.044l-.047-.468c-.522-.141-.977-.131-1.01.022a.619.619,0,0,1-.607.37l-.223.054c-.175.033-.294.163-.313-.076a.266.266,0,0,0-.436-.2c-.484.327-1.039.1-1.546.163l-.356.044c-.394.054-.773.1-.84.1l-.062-.011-.427-.065c-.579-.087-.9-.218-.707-.272s-.2-.37-.232-.468-.266-.207-.285.011-.209.74-.4.653l-.128-.087-.152-.109a.617.617,0,0,0-.759-.163c-.266.131-1.006.229-1.1.065s-.536-.457-.745-.25v.174l-.01.512a5.352,5.352,0,0,1-1.247-.109,10.759,10.759,0,0,0-1.39.022c-.071-.033-.413-.131-.588-.185a3.9,3.9,0,0,0-1.357.109l-.247-.087-.247-.076c-.152-.294-.455-.468-.669-.37s-.693.381-.669.457l-.009.076,0,.065a.25.25,0,0,1-.218.1,2.309,2.309,0,0,1-.489-.348c-.147-.142-.778.152-.877.163a4.628,4.628,0,0,1-.726-.109l-.024-.076-.076-.25c.27,0,.688-.022.93-.044s.342-.544.109-.577-.92-.011-.92.163l-.1.152c-.123.185-.327.479-.517.49-.522.022-.109-.4-.327-.555l-.033-.022c-.047-.033-.261.131-.47.359s-1.314.218-1.655.229-.721-.533-.821-.327.636.359.678.392a.269.269,0,0,1-.047.327l-.123.022-.152.011a3.851,3.851,0,0,1-.868-.544l-.071-.816c-.009-.109-.37-.316-.389-.3-.887.566-.588-.12-.683-.381l-.009-.033c-.095-.054-.19.054-.209.239s-.232.555-.432.4-.5.533-.569.675-.375.544-.5.566-.8-.033-1.319,0l-.465.022h-.1c-.1.044-.194.011-.2-.065s.014-.25.009-.392.36-.446.569-.424l.166.044.152.022a2.041,2.041,0,0,0,.678.294l.228.033c.114.011.313-.033.342-.1l.128-.239a.762.762,0,0,1,.593-.5l.071-.087c.157-.185.157-.468.346-.61l.37-.272a1.646,1.646,0,0,0-.626-.457c-.128-.022-.541.131-.541.424s-.266,1.012-.569,1.023l-.18.2c-.223.239-.436.261-.773.044Zm3.306-2.144a1.079,1.079,0,0,0-.489-.087c-.024.033.047.185.19.294a2.189,2.189,0,0,0,1.319.022l.389.294a.463.463,0,0,0,.213-.087l.133-.12c.171-.2.1-.392-.142-.424s-1.366.185-1.613.109m-7.39.381c-.351.109-.527.316-.389.479s.768-.163.92-.25a5.092,5.092,0,0,1,1.153-.131c.27.011,1.02-.12.9-.272s-.835-.033-1.01.022a3.983,3.983,0,0,1-.991-.1l-.3.131Zm173.221-25c.161.087.232.011.157-.174s-.332-.849-.465-1.186l-.237.435-.176.327c-.194-.12-.247-.163-.119-.109s.678.62.84.707M131.168,50.563a1.454,1.454,0,0,0-.73.152l.024.044.095.174c-.095.174-.071.359.057.424s.612-.152.854-.207.043-.588-.3-.588m116.17-25.6c-.109-.261-.161-.261-.128,0s.512.544.655.566l.009-.261.01-.12c.114-.239-.024-.25-.3-.033l-.095-.065ZM70.2,49.856c-.574.131-.873.239-.655.239a4.386,4.386,0,0,1,1.039.435c.166.087.683.229.683.065a.408.408,0,0,0-.527-.337l-.062-.044Zm24.954,1.132c-.123-.022-.057.261.142.642l.27.12.332.163a1.439,1.439,0,0,0,.9.25l.047-.087.062-.12c-.024-.174-.341-.294-.707-.25l-.2-.087-.223-.109a1.665,1.665,0,0,0-.621-.522m80.4.37c.161-.065.2-.207.076-.3s-.474-.392-.545-.479-.46.011-.379.239.683.61.849.544m-88.546.065c-.047-.272-.076-.294-.062-.065s-.076.882.147.86-.033-.512-.085-.795M.759,32.854c.024.044.033-.076.028-.272h0C.74,32.56.73,32.386.735,32.1v-.131c0-.2-.024-.141-.038.109a3.982,3.982,0,0,0,.062.773M3.064,37.6a.33.33,0,0,0-.242-.261l-.1-.065c-.1-.054-.138-.239-.294-.065-.123.141-.218.229-.024.392.157.141-.142.588.247.555.142-.011.266-.327.384-.5Z" transform="matrix(1, -0.017, 0.017, 1, 0, 4.349)" fill="#1bccdc"/>
      <path id="Path_4391" data-name="Path 4391" d="M-79.82.28a14.444,14.444,0,0,1-5.52-1,9,9,0,0,1-3.9-2.96A8.087,8.087,0,0,1-90.78-8.4h7.28a3.532,3.532,0,0,0,1.08,2.38,3.472,3.472,0,0,0,2.4.82,3.753,3.753,0,0,0,2.4-.7,2.341,2.341,0,0,0,.88-1.94,2.3,2.3,0,0,0-.7-1.72,5.647,5.647,0,0,0-1.72-1.12,27.667,27.667,0,0,0-2.9-1,31.576,31.576,0,0,1-4.44-1.68,8.2,8.2,0,0,1-2.96-2.48,6.91,6.91,0,0,1-1.24-4.28,7.36,7.36,0,0,1,2.84-6.14,11.67,11.67,0,0,1,7.4-2.22,11.8,11.8,0,0,1,7.48,2.22,7.947,7.947,0,0,1,3.04,6.18h-7.4a2.894,2.894,0,0,0-1-2.14A3.523,3.523,0,0,0-80.7-23a2.941,2.941,0,0,0-2,.66,2.38,2.38,0,0,0-.76,1.9,2.355,2.355,0,0,0,1.28,2.12,20.982,20.982,0,0,0,4,1.64,36.992,36.992,0,0,1,4.42,1.76,8.414,8.414,0,0,1,2.94,2.44,6.532,6.532,0,0,1,1.24,4.12A8.085,8.085,0,0,1-70.8-4,8.544,8.544,0,0,1-74.34-.88,12.119,12.119,0,0,1-79.82.28Zm36.48-22.6V0h-6.84V-3.04A7.507,7.507,0,0,1-53-.66a8.606,8.606,0,0,1-3.94.9A8.825,8.825,0,0,1-61.46-.9,7.686,7.686,0,0,1-64.5-4.2a11.23,11.23,0,0,1-1.08-5.08V-22.32h6.8V-10.2a4.9,4.9,0,0,0,1.16,3.48A4.067,4.067,0,0,0-54.5-5.48a4.117,4.117,0,0,0,3.16-1.24,4.9,4.9,0,0,0,1.16-3.48V-22.32Zm3.56,11.16a12.49,12.49,0,0,1,1.42-6.08,9.863,9.863,0,0,1,3.96-4,11.857,11.857,0,0,1,5.82-1.4,11.066,11.066,0,0,1,7.02,2.2,10.38,10.38,0,0,1,3.7,6.2h-7.28A3.5,3.5,0,0,0-28.7-16.8a3.588,3.588,0,0,0-3,1.46,6.754,6.754,0,0,0-1.12,4.18A6.754,6.754,0,0,0-31.7-6.98a3.588,3.588,0,0,0,3,1.46,3.5,3.5,0,0,0,3.56-2.56h7.28a10.479,10.479,0,0,1-3.72,6.16,10.953,10.953,0,0,1-7,2.24,11.857,11.857,0,0,1-5.82-1.4,9.863,9.863,0,0,1-3.96-4A12.49,12.49,0,0,1-39.78-11.16Zm24.2,0a12.49,12.49,0,0,1,1.42-6.08,9.863,9.863,0,0,1,3.96-4,11.857,11.857,0,0,1,5.82-1.4,11.066,11.066,0,0,1,7.02,2.2,10.38,10.38,0,0,1,3.7,6.2H-.94A3.5,3.5,0,0,0-4.5-16.8a3.588,3.588,0,0,0-3,1.46,6.754,6.754,0,0,0-1.12,4.18A6.754,6.754,0,0,0-7.5-6.98a3.588,3.588,0,0,0,3,1.46A3.5,3.5,0,0,0-.94-8.08H6.34A10.479,10.479,0,0,1,2.62-1.92a10.953,10.953,0,0,1-7,2.24,11.857,11.857,0,0,1-5.82-1.4,9.863,9.863,0,0,1-3.96-4A12.49,12.49,0,0,1-15.58-11.16Zm46.6-.36a17.461,17.461,0,0,1-.12,2H15.42a4.651,4.651,0,0,0,1.34,3.18,4.094,4.094,0,0,0,2.9,1.1A3.6,3.6,0,0,0,23.22-7.4H30.5a9.99,9.99,0,0,1-2.02,3.96A10.113,10.113,0,0,1,24.82-.68a11.756,11.756,0,0,1-4.92,1,11.972,11.972,0,0,1-5.84-1.4,9.958,9.958,0,0,1-4-4,12.349,12.349,0,0,1-1.44-6.08,12.49,12.49,0,0,1,1.42-6.08,9.829,9.829,0,0,1,3.98-4,12.056,12.056,0,0,1,5.88-1.4,11.935,11.935,0,0,1,5.76,1.36A9.765,9.765,0,0,1,29.6-17.4,11.777,11.777,0,0,1,31.02-11.52Zm-7-1.8a3.517,3.517,0,0,0-1.2-2.8,4.417,4.417,0,0,0-3-1.04,4.332,4.332,0,0,0-2.9,1,4.441,4.441,0,0,0-1.46,2.84ZM43.7.32a12.829,12.829,0,0,1-5.2-1,8.881,8.881,0,0,1-3.6-2.74,7.207,7.207,0,0,1-1.48-3.9h6.76a2.6,2.6,0,0,0,1.08,1.88,3.821,3.821,0,0,0,2.36.72,3.368,3.368,0,0,0,1.98-.5,1.531,1.531,0,0,0,.7-1.3,1.5,1.5,0,0,0-1-1.42,20.2,20.2,0,0,0-3.24-1.02,30.419,30.419,0,0,1-4-1.18A6.911,6.911,0,0,1,35.3-12.1a5.342,5.342,0,0,1-1.16-3.62,6.147,6.147,0,0,1,1.06-3.5,7.137,7.137,0,0,1,3.12-2.5,11.947,11.947,0,0,1,4.9-.92,9.823,9.823,0,0,1,6.62,2.08,8.093,8.093,0,0,1,2.78,5.52H46.3a2.724,2.724,0,0,0-1.02-1.84,3.538,3.538,0,0,0-2.26-.68,3.125,3.125,0,0,0-1.84.46,1.469,1.469,0,0,0-.64,1.26,1.538,1.538,0,0,0,1.02,1.44,16.337,16.337,0,0,0,3.18.96,34.789,34.789,0,0,1,4.04,1.26,6.969,6.969,0,0,1,2.74,2,5.659,5.659,0,0,1,1.22,3.7,5.873,5.873,0,0,1-1.1,3.5A7.275,7.275,0,0,1,48.48-.56,12.085,12.085,0,0,1,43.7.32Zm22.32,0a12.829,12.829,0,0,1-5.2-1,8.881,8.881,0,0,1-3.6-2.74,7.207,7.207,0,0,1-1.48-3.9H62.5a2.6,2.6,0,0,0,1.08,1.88,3.821,3.821,0,0,0,2.36.72,3.368,3.368,0,0,0,1.98-.5,1.531,1.531,0,0,0,.7-1.3,1.5,1.5,0,0,0-1-1.42,20.2,20.2,0,0,0-3.24-1.02,30.419,30.419,0,0,1-4-1.18,6.911,6.911,0,0,1-2.76-1.96,5.342,5.342,0,0,1-1.16-3.62,6.147,6.147,0,0,1,1.06-3.5,7.137,7.137,0,0,1,3.12-2.5,11.947,11.947,0,0,1,4.9-.92,9.823,9.823,0,0,1,6.62,2.08,8.093,8.093,0,0,1,2.78,5.52H68.62a2.724,2.724,0,0,0-1.02-1.84,3.538,3.538,0,0,0-2.26-.68,3.125,3.125,0,0,0-1.84.46,1.469,1.469,0,0,0-.64,1.26,1.538,1.538,0,0,0,1.02,1.44,16.337,16.337,0,0,0,3.18.96,34.789,34.789,0,0,1,4.04,1.26,6.969,6.969,0,0,1,2.74,2,5.659,5.659,0,0,1,1.22,3.7,5.873,5.873,0,0,1-1.1,3.5A7.275,7.275,0,0,1,70.8-.56,12.085,12.085,0,0,1,66.02.32Zm22.24-29.4-.8,19.16h-5.8l-.8-19.16ZM84.66.32A4.146,4.146,0,0,1,81.72-.74a3.435,3.435,0,0,1-1.14-2.62,3.542,3.542,0,0,1,1.14-2.68,4.1,4.1,0,0,1,2.94-1.08,4.047,4.047,0,0,1,2.9,1.08A3.542,3.542,0,0,1,88.7-3.36,3.435,3.435,0,0,1,87.56-.74,4.091,4.091,0,0,1,84.66.32Z" transform="translate(123.057 42.739)" fill="#fff"/>
    </g>
    <g id="Group_7692" data-name="Group 7692" transform="translate(695.553 86.06)">
      <g transform="matrix(1, 0, 0, 1, -80.55, -9.5)" filter="url(#Path_4254)">
        <path id="Path_4254-2" data-name="Path 4254" d="M45,89.5A44.5,44.5,0,1,1,89.5,45,44.549,44.549,0,0,1,45,89.5" transform="translate(80.05 9)" fill="#fff"/>
      </g>
      <g id="Group_7686" data-name="Group 7686" transform="translate(22.184 14.789)">
        <g id="Group_7689" data-name="Group 7689" transform="translate(0 0)">
          <path id="Path_4255" data-name="Path 4255" d="M45.834,41.025A3.345,3.345,0,0,0,42.5,37.691a3.334,3.334,0,0,0,0-6.668H27.967l1.875-7.077c1.128-4.254-.86-8.121-3.156-9.266-3.5-1.747-4.217.588-4.6,3.039-1.2,7.555-3.1,12.354-9.118,16.363l-.44-.925a1.925,1.925,0,0,0-1.918-1.919H3.3a1.926,1.926,0,0,0-1.919,1.919v21.75A1.925,1.925,0,0,0,3.3,56.824h7.307a1.924,1.924,0,0,0,1.918-1.918l.426-.895c2.869,2.11,8.61,3.686,11.932,3.686h15.08a3.334,3.334,0,0,0,0-6.668H42.5a3.335,3.335,0,0,0,0-6.67,3.343,3.343,0,0,0,3.334-3.334" transform="translate(-1.381 -0.108)" fill="#1bccdc"/>
          <path id="Path_4256" data-name="Path 4256" d="M26.95,25.475H41.484a3.334,3.334,0,1,1,0,6.668,3.334,3.334,0,1,1,0,6.667,3.336,3.336,0,0,1,0,6.671H38.946a3.334,3.334,0,1,1,0,6.667H23.868c-3.494,0-9.668-1.74-12.358-4.014" transform="translate(-0.365 1.037)" fill="none" stroke="#23314c" stroke-linecap="round" stroke-linejoin="round" stroke-width="2.763"/>
          <path id="Path_4257" data-name="Path 4257" d="M11.51,30.377c6.38-4.069,8.332-8.919,9.558-16.66.386-2.452,1.106-4.787,4.6-3.039,2.3,1.145,4.285,5.013,3.157,9.266L26.95,27.022" transform="translate(-0.365 -0.509)" fill="none" stroke="#23314c" stroke-linecap="round" stroke-linejoin="round" stroke-width="2.763"/>
          <line id="Line_505" data-name="Line 505" x1="4.544" transform="translate(36.575 33.18)" fill="none" stroke="#23314c" stroke-linecap="round" stroke-linejoin="round" stroke-width="2.763"/>
          <line id="Line_506" data-name="Line 506" x1="4.544" transform="translate(36.575 39.848)" fill="none" stroke="#23314c" stroke-linecap="round" stroke-linejoin="round" stroke-width="2.763"/>
          <line id="Line_507" data-name="Line 507" x1="2.007" transform="translate(36.575 46.518)" fill="none" stroke="#23314c" stroke-linecap="round" stroke-linejoin="round" stroke-width="2.763"/>
          <path id="Rectangle_6046" data-name="Rectangle 6046" d="M1.743,0H9.4a1.743,1.743,0,0,1,1.743,1.743v22.1A1.744,1.744,0,0,1,9.4,25.586H1.743A1.743,1.743,0,0,1,0,23.843V1.743A1.743,1.743,0,0,1,1.743,0Z" transform="translate(0.001 26.726)" fill="none" stroke="#23314c" stroke-linecap="round" stroke-linejoin="round" stroke-width="2.763"/>
          <line id="Line_508" data-name="Line 508" y2="19.305" transform="translate(11.145 29.868)" fill="none" stroke="#23314c" stroke-linecap="round" stroke-linejoin="round" stroke-width="2.763"/>
          <line id="Line_509" data-name="Line 509" y2="0.007" transform="translate(5.826 32.72)" fill="none" stroke="#23314c" stroke-linecap="round" stroke-linejoin="round" stroke-width="2.763"/>
          <path id="Path_4258" data-name="Path 4258" d="M14.974,6.212l-1.921-1.7m21.507,1.7,1.921-1.7" transform="translate(-0.21 -1.067)" fill="none" stroke="#23314c" stroke-linecap="round" stroke-linejoin="round" stroke-width="2.763"/>
          <line id="Line_510" data-name="Line 510" y1="2.568" transform="translate(24.557)" fill="none" stroke="#23314c" stroke-linecap="round" stroke-linejoin="round" stroke-width="2.763"/>
          <line id="Line_511" data-name="Line 511" x2="2.568" y2="0.107" transform="translate(8.694 12.794)" fill="none" stroke="#23314c" stroke-linecap="round" stroke-linejoin="round" stroke-width="2.763"/>
          <line id="Line_512" data-name="Line 512" x1="2.568" y2="0.107" transform="translate(37.853 12.794)" fill="none" stroke="#23314c" stroke-linecap="round" stroke-linejoin="round" stroke-width="2.763"/>
        </g>
      </g>
    </g>
  </g>
</svg>
