<svg xmlns="http://www.w3.org/2000/svg" xmlns:xlink="http://www.w3.org/1999/xlink" width="328.854" height="190.682" viewBox="0 0 328.854 190.682">
  <defs>
    <filter id="Path_4254" x="89.417" y="0" width="150.02" height="150.02" filterUnits="userSpaceOnUse">
      <feOffset dy="7" input="SourceAlpha"/>
      <feGaussianBlur stdDeviation="5.5" result="blur"/>
      <feFlood flood-opacity="0.051"/>
      <feComposite operator="in" in2="blur"/>
      <feComposite in="SourceGraphic"/>
    </filter>
  </defs>
  <g id="payment-success" transform="translate(-615 -76.56)">
    <g id="Group_7691" data-name="Group 7691" transform="translate(615 190.942)">
      <path id="rms-top-heading-highlight" d="M100.667,68.245a3.14,3.14,0,0,0-1.148.93c-.206.315-1.247.615-1.085.4s.68-.816.78-.959-.486-.487-.586-.716l-.156-.1-.374-.258c-.237-.343-.511-.744-.611-.873s-.592.3-.73.5l.006.2v.114a1.665,1.665,0,0,1-.237.887c-.175.343-.224,1.331-.293,1.36a.449.449,0,0,1-.374-.129c-.075-.1-.462-.487-.63-.644s.617-.53.711-.658.087-.358-.212-.186-1.172-.329-1.366-.272.025.615.1.787l.031.172.025.186c-.012.172-.43.272-.935.186l-.412.029H93.1c-.069.4-.212.673-.331.615a2.439,2.439,0,0,0-1.085.057l-.012-.029-.218-.358c.38-.057.655-.229.6-.372s-.424-.472-.655-.243a3.517,3.517,0,0,1-1.4.744,12.176,12.176,0,0,1-1.285-.057.665.665,0,0,1,.412-.129c.231-.029.9-.286.9-.53s.967-.515,1.148-.544a2.219,2.219,0,0,0,.786-.315l-.025-.057c-.037-.086-.2-.215-.256-.2a9.369,9.369,0,0,1-2.825.472l-.674-.029a3.819,3.819,0,0,1-.892.859c-.162.086-.524-.329-.6-.386a4.229,4.229,0,0,0-.655-.286c-.181-.072-.611-.329-.505-.415s.505-.243.655-.172l.044.086.231.458a6.047,6.047,0,0,0,1.135-.243.933.933,0,0,0,.293-.558c0-.172-.73-.472-.973-.5L86.9,67c-.218-.93-.861-.4-.979-.086-.218.572-.923.615-1.353.93l-.387.272c-.249.358-.505.487-.568.315l-.031-.172-.056-.315c-.455-.172-1.129-.458-1.509-.644l-.062-.215c-.168-.544-.6-.558-1.166-.558-.243,0-.53-.243-.723-.2s-.281.329-.443.472l-.056.057c-.212.029-.225.129-.019.229s.586.472.412.6-1.447-.358-1.3-.515l.075-.157c.212-.458-.081-.73-.7-.544-.486.143-.617-.186-.917-.215l-.374-.043a13.133,13.133,0,0,0-1.871.315l-.324-.157-.4-.186a10.027,10.027,0,0,0-1.235.229,5.979,5.979,0,0,1-1.628-.243c-.243-.043-.848.029-1.148.014a3.319,3.319,0,0,0-1.5.114,1.888,1.888,0,0,1-1.8.014l-.68.157-.468.1a14.27,14.27,0,0,0-1.728-.086,16.139,16.139,0,0,0-2.314.386c-.543.129-2.239-.186-2.9-.1l-.661-.3-.486-.215c-.873.186-1.721.372-1.9.415s-.892,0-1.316,0a9.253,9.253,0,0,1-1.572.057c-.05-.086-.287-.272-.437-.157s-.68.243-.873.072l-.193-.114-.131-.072a.742.742,0,0,0-.511.1c-.106.086-.468.243-.586.157s-.636.072-.748.129a8.887,8.887,0,0,1-1.272.243l-.511-.157c-.262-.086-.511-.186-.767-.286-.337-.129-.611-.53-1.06-.129-.037.043-.3-.014-.374-.072-.486-.429-.717-.558-1.229.1l-.337.429c-.249-.515-.536-.844-.642-.73s-.5.386-.592.243a1.93,1.93,0,0,0-.692-.53c-.218-.043-.773.429-.9.544s-.592-.086-.661.014-.2.143-.156-.114-.811.172-.867.186l-.056.014c-.561.143-.574-.673-1.272-.4l-.368.143c-.518-.014-1.073-.043-1.222-.057s-.7.072-1.054.086-1.4-.229-1.59-.014l-.243.114-.137.072a3.782,3.782,0,0,1-.967-.415c-.268-.157-1.659.272-1.8.115s-.686-.4-.854-.243-.792-.172-.892-.1l-.081.072c-.106.1-.206.286-.293.272-.306-.014-.836.186-.8-.286l.012-.129c.368-.157.53-.329.362-.415s-.7-.129-.829.014-.68.515-.674.143l-.019-.172a.429.429,0,0,0-.125-.229l-.3.043c-.331.043-.536-.129-.455-.4l-.536.115-.1.014a1.2,1.2,0,0,1-.786-.014,11.907,11.907,0,0,0-2.033-.1c-.38.014-1.584-.429-1.9-.4s-1.148.157-1.272-.129-6.567-.487-6.661-.458l-.012-.014-.48-.787c-.848-.114-1.609-.243-1.69-.272a6.989,6.989,0,0,0-.767-.043c-.3-.029-1.547.057-2.1.1l-.106-.73c-.012-.086-.225-.229-.268-.2l-.318.2a2.33,2.33,0,0,1-.723-.515,4.488,4.488,0,0,0-.792-.458,2.352,2.352,0,0,0-.723-.229.353.353,0,0,1-.349-.243l-.1-.129a.335.335,0,0,0-.349-.029,2.226,2.226,0,0,1-1,.243c-.549.029-.281-.215-.249-.487.019-.157-.324-.329.112-.386a2.091,2.091,0,0,0,.574-.215c.212-.114.175-.229.019-.415l-.175-.186c.175-.172.511-.515.755-.773s.536-1.2.268-1.259l-.193.029-.231.029a1.042,1.042,0,0,1-.829-.057c-.218-.143-.162-1.259-.081-1.717s.262-1.632.231-1.646a1.253,1.253,0,0,0-.486.429l-.262-.429L1.9,53.432a3.765,3.765,0,0,1,.343-.816L2,52.488l-.125-.057c-.3.172-.474.129-.393-.1l.019-.186.044-.515a6.977,6.977,0,0,1-.424-1.345,1.688,1.688,0,0,1,.649-1.174c.4-.2.393-1.374.1-1.288l-.168.157-.175.157c-.206.143-.6-.1-.892-.558l.15-.372c.05-.114.044-.272.1-.372.143-.272.312-.53.468-.787.175-.3.38.386.586-.029L1.99,45.9c.243-.057.218-.186-.062-.286L1.915,45.5a1.065,1.065,0,0,1,.231-.572c.062-.086.237-.072.337-.143.237-.186.306-.716.075-.8a.68.68,0,0,1-.48-.5,7.986,7.986,0,0,0-1.8-.172c-.056-.043-.05-.229.012-.415s.225-.945.306-.53l.094-.129a1.954,1.954,0,0,1,.062.53l.025.53a2.7,2.7,0,0,0,.05-.759l.006-.215c.006-.673.019-1.345.037-2l.006-.143.069-.315.069-.444a.309.309,0,0,0,.106-.157l.05-.372c.012-.086.056.272.069.329s.044.143.05-.129.037-.73.069-.558.106-.186.1-.243a1.956,1.956,0,0,1,.012-.372l.012.043c.044.143.087.687.1-.186v-.014l.075.114c.025.072.106-.2.131-.215s.1.043.137.043a1.769,1.769,0,0,0,.069-.644,6.526,6.526,0,0,1-.069-1.045c.019-.358-.125-1.374-.112-1.417a2.351,2.351,0,0,0-.012-.587v-.673c-.037-.014-.081-.143-.1-.286l-.012-.157-.025-.343c.012-.4.019-1.059,0-1.474l-.012-.386v-.129c.006-.157.037-.129.081.072s.156-.157.156-.229a2.2,2.2,0,0,0-.031-.429l-.012.057-.025.129c-.037.157-.056.157-.05,0L1.771,30l.006-.157a.929.929,0,0,0-.006-.272c-.012.029-.05.057-.075.014s.019-.83.037-1.216l.056-.1.025-.086-.006-.873a2.962,2.962,0,0,0,.118-.83c-.025-.114-.112.043-.125,0s-.118-.329-.2-.615L1.516,26c-.037.057-.037-.129-.05-.386l-.012-.4c-.025.243-.075.372-.106.286a4.549,4.549,0,0,1-.162-.673v-.029l.031-.329c-.019-.329-.044-.644-.05-.73s-.037-.172-.044-.072l-.012.072-.012.1a2.963,2.963,0,0,1-.087.315c-.025.1-.118.243-.131.129a6.2,6.2,0,0,1-.025-.8c.012-.2.118.129.156.143l.006-.215a5.376,5.376,0,0,0-.025-.744L.8,22.591c.025-1.016.025-1.889,0-1.918s-.075.444-.081.386l-.031-.243c0-.014-.019-.243-.025-.458s.025-.93.037-1.1v-.172l.006-.157c-.006-.172-.025-.3-.044-.286l-.012.029L.642,18.7c-.019.043-.031-.029-.037-.143l.006-.043c.025-.3,4.122-.243,4.122-.243.318-.429.281-.658-.081-.515l-.206.029-.387.029c-.443-.029-.829-.186-.861-.372l.012-.143.081-1.345A12.879,12.879,0,0,0,2.17,14.819l-.025-.072-.106-.286A3.026,3.026,0,0,0,1.821,13.2L1.6,13.1c-.568-.258-.555-.7-.53-1.2l.012-.186c-.006-.343-.293-.5-.649-.329l.231-.444c.212-.415-.168-.415-.287-.587-.031-.057-.243.53-.355-.014L0,10.268c.181-.129.362-.243.4-.272a1.93,1.93,0,0,0-.331-.9l.094-.5a1.455,1.455,0,0,0,.094-.386L.243,8.064c-.075-.143-.056-.243.044-.2a1.082,1.082,0,0,0,.742-.243c.187-.2-.087-.945.044-1l.037.029c.349.343.655.415.96-.057l.262-.4c.287.286.536.4.568.243a1.836,1.836,0,0,1,.923-.83l.306.716.162.358c.437-.4.717-.744.63-.787s-.306-.2-.281-.315l.025.014a3.088,3.088,0,0,1,.624.072l.1.014a.232.232,0,0,0,.281-.157c.05-.114.405-.043.437-.129s.237-.343.306-.186a.358.358,0,0,0,.655-.057l.156-.2.081-.1a1.385,1.385,0,0,1,.736.186c.231.114,1.06-.157,1.229-.014s.649.429.836.057l.156-.258.15-.243a1.405,1.405,0,0,1,.811.157c.156.1.474-.4.661-.4a2.64,2.64,0,0,1,.8.243c.069.072.4.186.474-.029a40.628,40.628,0,0,1,6.168-.558A2.679,2.679,0,0,0,20.407,3.9c.2-.072.78.143.879.086l.012-.072.05-.243a8.34,8.34,0,0,1,1.391.472l.069-.673.006-.057c.112-.043.636-.157,1.166-.258a24.549,24.549,0,0,1,2.757.157l.331.086c.343.086.568.444.586-.143,0-.057.393-.172.405-.157a.829.829,0,0,0,1.154-.014c.374-.386.9.157,1.3-.2l.156-.143c.649.186,1.254.358,1.347.386a2.816,2.816,0,0,0,.96-.472c.355-.243,1.578.229,1.64.2V2.826l-.025-.687A3.51,3.51,0,0,0,36.56,2.01l.424.544.212.272c.437-.172,1.023-.4,1.291-.5l.281-.057.087-.014a2.68,2.68,0,0,1,.692,0c.293.029,1.316-.029,1.615.029s1.066-.229,1.141-.157.393.258.462.172l.069-.086.075-.086c.094-.086.2-.1.225-.029a1.2,1.2,0,0,0,.262.343l.075-.014.543-.114a8,8,0,0,0,1.322-.258L45.416,2l.555-.487c.418.458.848.73.96.587s.462-.4.568-.329.343-.2.355-.744l.792.687.143.129a6.071,6.071,0,0,1,1.179-.072c.243.014.8.129.817-.029s.836-.186.967-.057.349-.086.331-.587l.873.644c.087.057.568-.172.854-.286l.156-.057c.15-.057.786-.243,1.41-.386s2.227.572,2.351.587.9-.1,1.428-.186a18.825,18.825,0,0,1,2.869.057l.168-.129.4-.272a4.925,4.925,0,0,0,1.116.343l.237.014h.43a12.37,12.37,0,0,1,1.216-.386A16.047,16.047,0,0,1,67.556.923h.711c.175-.072.337-.029.368.1s.686.072.773-.029.493-.3.636-.186a1.3,1.3,0,0,0,.861.215,7.547,7.547,0,0,1,1.5-.358l.137.172c.3.358.649-.343.979.114l.143.2A1.937,1.937,0,0,1,74.859.966c.143.086.586.3.624.2s.231-.286.324-.258.405,0,.48-.157a14.228,14.228,0,0,1,1.99-.186l.78.215A3.142,3.142,0,0,0,81.289.622l.362-.2a5.03,5.03,0,0,1,1.4.372.582.582,0,0,0,.7-.157c.206-.258,1.16.215,1.229.114s.331-.358.368-.186.249.386.405.157,1.272.129,1.734.029l.549.086.717.114a4.337,4.337,0,0,1,1.69-.3c.056.1.293.315.362.2s.38-.4.555-.4l.062.043.511.4A16.654,16.654,0,0,1,93.993.88c.449.043,1.852-.129,2.183.114l.387-.415c.062-.072.543.129.829.129l.842-.014c.929-.029,2.22-.143,2.875-.243l.493.458.094.1a5.761,5.761,0,0,1,1.079-.072c.274,0,.942.143.973,0s.923-.057,1.229.243l.486-.358.156-.114c.437.086.954.172,1.148.2s.917.114,1.185.114l.237.014a3.433,3.433,0,0,0,.543,0c.187-.029.349-.157.536-.186l.112-.014a1.079,1.079,0,0,0,.642.014,2.181,2.181,0,0,1,1.16.358l-.012-.53a8.1,8.1,0,0,1,1.522.386l.592.029.468.014c.524-.186,1.048-.386,1.166-.429s.549.2.736.515l.561-.157c.3-.086.829-.157.942-.043.462.458.617-.286,1.042-.086l.374.172a8.6,8.6,0,0,1,1.509.215l.094-.072.568-.429a2.577,2.577,0,0,0,1.316.258c.119-.086.574-.243.692-.1l.505.53c.025,0,.387-.143.711-.272a7.4,7.4,0,0,1,2.12-.057,16.3,16.3,0,0,1,1.933.1c.337.114,1.2-.3,1.5-.143l.006-.014.823-.859a13.79,13.79,0,0,0,2.457.7c.262,0,.761-.072.73.172s1-.215,1.266-.3a2.514,2.514,0,0,1,1.042.029c.2.043.7-.086.755,0s.281.315.374.215a2.231,2.231,0,0,1,1.16-.343l.38.172,1.135.358.262-.157c.343-.2.667-.3.73-.215a4.606,4.606,0,0,0,.8.53l.611-.444.062-.057a1.391,1.391,0,0,1,.58.186,3.98,3.98,0,0,0,1.852-.129l.05-.043.237-.2a.8.8,0,0,1,.393.93L146,1.252l.586-.286c-.044.372-.031.472.025.2s.9.157.954.143.424-.057.742-.114a9.067,9.067,0,0,1,1.821.343c.318.072,1.1-.258,1.222-.172s.449.343.474.358a1.07,1.07,0,0,0,.324-.2,1.756,1.756,0,0,1,1-.129l.237.014c.137.014.38-.186.418-.157l.4.3a3.1,3.1,0,0,1,1.653.029l.462.129.187.057a1.5,1.5,0,0,0,.667-.157c.131-.086.7-.1.886-.2a9.693,9.693,0,0,1,1.877.186l.524.043.443.029a1.931,1.931,0,0,0,1.017.086,1.668,1.668,0,0,1,1-.172l.281.114c.3.114.543.487.561-.114a.91.91,0,0,1,.331-.029,11.015,11.015,0,0,0,2.039.143l.505-.057a6.506,6.506,0,0,0,.923.3,5.2,5.2,0,0,0,.886-.114,12,12,0,0,1,2.451.215c.468.143,1.777-.472,2.077-.458a6.844,6.844,0,0,0,1.8-.229c.387-.157,1.266.515,1.372.5s.667-.329.9-.072l.249.043c.262.057.63-.215.867-.143l.486.129a1.421,1.421,0,0,1,.817-.386l.118.072.225.129c.206.186.474.258.6.172s.455-.215.474-.057.773.186.9.072.655-.272.773-.129.5.53.574.515l.031-.043c.368-.615.929-.086,1.4-.114h.218a2.371,2.371,0,0,1,.861-.114,4.872,4.872,0,0,1,.8.172c.256.1,1.36-.157,1.827-.029l.524-.1c.287-.057.68.2.954.129l.462-.114c.462.086,1.166.2,1.572.229l.38-.043.655-.086c.742-.043,1.453-.086,1.572-.086a1.474,1.474,0,0,1,.692.429c.187.215,1-.1,1.141,0s.58.286.667.2l-.019-.057c-.05-.186-.249-.515-.218-.53l.43-.172a1.12,1.12,0,0,0,.387.587,1.015,1.015,0,0,0,.561-.143c.118-.086.53-.229.661-.129s.505.029.536-.386l.68.286h.019c-.106.215.168.343.611.286s1.5.444,1.59.372V2.669l-.019-.472a3.056,3.056,0,0,1,.923.329c.1.1.443.272.474.129a.4.4,0,0,1,.6-.186c.281.186,1.422-.086,1.728-.086a2.763,2.763,0,0,1,1.191.472c.062.114.9-.086,1.017-.215a.664.664,0,0,1,.917.215l.6-.129c.63-.129-.393-.472.069-.515l.468-.043c.536.014,1.815.057,2.831.072l.929.014c.468,0,.929,0,1.4.029l.387.014a2.441,2.441,0,0,0,1.459-.315l.418.472.243.272a1.414,1.414,0,0,1,.486-.773l.193.2.312.315c.38-.086.929-.2,1.222-.258a9.34,9.34,0,0,0,1.5-.329c.237-.114,1.1.258,1.4.286a8.067,8.067,0,0,0,1.36.086,7.989,7.989,0,0,1,1.2-.3l.312-.143.58-.286c.249.343.474.515.5.386a.657.657,0,0,1,.73-.372,10.36,10.36,0,0,0,1.821.429c.343.014,1.565-.472,2.227-.472l.549.029c.561.043,1.085-.043,1.622-.029l.368.029a1.9,1.9,0,0,1,1.166-.072l.168-.086c.536-.243.692-.129.755.315l.006.029a3.8,3.8,0,0,0,1.522-.558l.8.53.081.043c.087.057.168-.072.175-.3s1.048.057,1.291.129a4.836,4.836,0,0,0,1.36-.043,6.885,6.885,0,0,1,1.26-.172c.206.057,1.01-.186,1.466-.129s1.8,0,1.983.072.6.386.642.286.287-.243.38.029l.137.057.231.086c.3-.029.973-.072,1.5-.1l.306-.172.405-.243a2.682,2.682,0,0,0,.773.272,2.145,2.145,0,0,0,.592-.186,4.9,4.9,0,0,1,1.254.215,6.12,6.12,0,0,0,1.665-.215c.106-.029.624.53.661.372a.876.876,0,0,1,.748-.515l.312.014.4.043a2.964,2.964,0,0,0,1.328.229c.312-.043,1.26-.286,1.5-.329s.836.2.867.057.212-.53.318-.515l.05.029c.405.329.742.7,1.428.329l.206-.1a4.442,4.442,0,0,0,1.042.1,6.475,6.475,0,0,1,.873.186l.112-.014.412-.086a5.159,5.159,0,0,1,1.466-.057l.324.029.256.014c.343-.243.717-.315.836-.172s.487.329.655.2.842-.4,1.017-.229a3,3,0,0,0,1.328.386l.424.072.424.072a4.421,4.421,0,0,1,1.123-.229l.268-.114.131-.057a5.8,5.8,0,0,0,1.484-.215l.6.4.324.215c.611-.014,1.141-.2,1.173-.4s.786-.057.967.029.936.143,1.191.2a3.886,3.886,0,0,0,.911-.215c.05.029.274.2.405.286s1.091.315.948.172-.119-.286.318-.1L281.35.98c.2-.172.867-.029,1.316,0L283,.994a2.414,2.414,0,0,0,.6.415c.075.014.7.029,1.322.1l.424-.458.069-.072c.592.215,1.029.272.954.143s-.181-.487-.125-.544a4.063,4.063,0,0,1,.886-.157c.4-.057,1.5.3,1.678.215l.087.043.387.172a3.187,3.187,0,0,1,1.241.186c.218.114,1.01-.5,1.509-.787l.486.172.574.2a3.88,3.88,0,0,1,.7-.458,1.31,1.31,0,0,0,.412-.143c.156-.1.8.186.979.272s.842.272.711.014.636-.029.78-.057a1.965,1.965,0,0,1,.929.2c.218.157,1.042.143.985.072a3.872,3.872,0,0,1,1.721-.157l.393.243.723.458c.062-.472.374-.615.7-.315L302.8.565a3.794,3.794,0,0,1,2.389.229,1.328,1.328,0,0,0,1.254.086c.237-.114.873.172,1.285.358.206.072-.505.258-.05.415.131.043.38-.186.555-.157.281.029.7.114.786.258l.256.487c.574.157,1.341.386,1.709.5a8.235,8.235,0,0,0,1.777.3c.218-.029.9.172,1.054.114s.487-.086.449.143.786-.086.929-.129a10.9,10.9,0,0,1,1.154.014c.449.014,5.307.572,5.382.53s.312-.043.318.072.256.487.536.4,1.148.429,1.478.572l.1.544c.05.286.543.329.636.859l.044.243.692.415a.529.529,0,0,1,.112.487h.006l.274.186a3.393,3.393,0,0,0-.181,1.03l.031.258.056.544a3.2,3.2,0,0,0,.281,1.131l.069.014h.069a.151.151,0,0,1,.15.114c.006.057-.143.229-.293.329l-.125.129c-.025.014-.006.172.019.243l.143.029c.025,0,.044-.086.075-.086l.156-.043c.181-.029.318.029.312.114a1.53,1.53,0,0,0,.324.73l.131.243.081.172c.013.315-.162.458-.4.315s-.8-.043-.6.644a5.93,5.93,0,0,1,.044,2.59c-.193.086-.711.358-.649.386a3.063,3.063,0,0,1,.493.458l.069.215c.193.615.312-.329.511-.014l.112.186c.237.143-.736.5-.817.7a10.26,10.26,0,0,0,.206,1.7l-.156.444c-.168.487.143,1.3.53,1.36l.331.043c.368.114.524.2.349.215s-.674.2-.674.358.175.687.393.63l.206-.029.112-.029c.131,0-.879.014-.755.072s-.4-.057-.118-.043.624,1.03.586,1.116l-.15-.029c-.3-.072-.455.243-.343.587a1.628,1.628,0,0,0,.293.63l.312.258c.025.444.106.716.181.587l.081-.014a.254.254,0,0,1,.262.072.465.465,0,0,1,.013.343c-.137.272-.324.429-.593.372-.056-.014-.168.143-.175.229a.426.426,0,0,0,.131.286l.225.143c.256.143.243.415-.019.615l-.237.014-.193.014c-.274-.229-.493-.1-.493.258l-.044.243c-.056.358,1.073.372,1.073.372a5.7,5.7,0,0,1-.755.229c-.156.014-.118.773-.019,1.188a4.972,4.972,0,0,1,.125,1.875c-.156.1-.019.816.075.945s.25.544.125.658l-.156.086c-.131.086-.293-.315-.443.029l-.019.043c-.131-.029.836-.143.667-.243s-.8.072-1.079.157a3.109,3.109,0,0,1-1.391-.458c-.218-.157.062-.157-.106-.215s-.6-.415-.661-.258a2.949,2.949,0,0,0-.137.844c.019.215.543.329.667.329l.056.072c.119.157.019.544.362.487h.05c.094.286-.8.4-.642.157,0,0,1.1-.086,1.135.472l.006.114a1.758,1.758,0,0,0,.761.157l.044.343.031.272c.05.315.006.487-.106.386s-.53-.2-.592-.1a.477.477,0,0,1-.568.014c-.168-.172-.574-.7-.636-.572l.019.043a3.552,3.552,0,0,1,.287,1.088l-.044.372c-.275.429-.424.873-.337.988s.461.086.6-.086l.1-.215.062-.129c.019-.186.056-.329.087-.315l.019.029.2.415c.249-.215.511-.343.592-.286s.05.415-.231.673l.181.444.075.172c.2-.072.455.186.568.572a2.893,2.893,0,0,1,.206.9.367.367,0,0,1-.487-.1l-.156-.172-.019-.014c-.081,0-.193.114-.243.229s-.112.544.025.558.549.2.424.315-.43.587-.38.73.256.53.324.415l.056-.014c.2-.072.493.243.7.816l.094.243c-.125.272-.262.544-.3.6a.42.42,0,0,0,.062.415h.112c.281.014.368.143.249.487-.031.086-.112.243-.087.272l.125.172a.32.32,0,0,1-.368.3l-.069-.286-.031-.114c-.405-.057-.393.114.025.358l-.162.5-.087.272a1.226,1.226,0,0,0,.019.744,1.2,1.2,0,0,1,.118.816c-.106.186-.617.458-.624.63l.05.129.094.243c.081.315.081.472-.006.343a.636.636,0,0,0-.524-.172,1,1,0,0,1-.58,0c-.125-.043-.474.057-.412.129s.287.386.387.487.424-.157.462-.157.106.129.087.343.5-.014.6-.043a.147.147,0,0,1,.087.272c-.175.114-.649.329-.686.215s-.231-.272-.287-.258-.287.644-.38.63-.405.229-.48.572l.093.343c.081.329.2.53.474.572h.056a.692.692,0,0,1-.05.544,5.617,5.617,0,0,1-.58.673c-.05.086-.037.429-.106.444s-.119.229-.137.258.025.2.131.343a2.466,2.466,0,0,1,.324,1.1l-.119.2c-.324.544-.243.816.212,1.159l.349.258a9.089,9.089,0,0,0-.58,1.073c-.087.229-.362.515-.112.544l-.031.5-.019.215c.031.3.069.744.087,1l.137.172.162.215c-.056.243-.156.687-.231.973l.156.3.393.73c-.331.315-.617.572-.63.587a7.292,7.292,0,0,0,.63,1.445l.3.716.081.215a2.153,2.153,0,0,0-.343-.129.523.523,0,0,0-.268.143,1.991,1.991,0,0,1-.518.343,2.136,2.136,0,0,0-.636.243l-.175.1-.206.143a2.91,2.91,0,0,0-1.322.258c-.486.2-7.035.329-7.472.429l-.411.043-.418.057a18.2,18.2,0,0,1-2.464.2h-1.272a4.362,4.362,0,0,0-1.328.787l-.4-.472c-.05-.057-.742.143-.748.129-.206-.5-.617.358-.911-.1l-.1-.172a2.172,2.172,0,0,1-1.185.358l-.044.029-.412.3a3.535,3.535,0,0,0-1.341.1c-.212.1-1.073-.129-1.285-.086s-1.229.157-1.777.157a21.109,21.109,0,0,1-2.133.229c-.143-.114-1.035.215-1.447.343l-.324-.072-.555-.129c-.568.072-1.3.172-1.64.2s-1.1.229-1.166.143-.642.043-.96.272-1.59-.115-1.877,0l-.1-.057-.455-.286a3.023,3.023,0,0,1-1.622.3l-.405.1-.424.1a6.176,6.176,0,0,0-1.584-.172l-.437.043-.412.043a2.289,2.289,0,0,1-1.459-.114l-.487.215-.349.157a12.18,12.18,0,0,0-2.2.143l-.692-.172-.462-.114c-.624.157-1.291.3-1.484.329s-.848-.157-1.035-.072a5.75,5.75,0,0,1-1.266.029c-.43-.014-1.547.186-1.59.1s-.162-.086-.175.172-.886-.229-1.067-.229a12.234,12.234,0,0,0-1.347.057c-.374.043-1.391-.086-1.659-.043a8.127,8.127,0,0,1-1.6-.143c-.349-.043-1.609.029-1.983-.043a6.24,6.24,0,0,0-1.54.4c-.168.029-.7-.114-.9-.1s-.8-.029-1.247-.057-1.746-.143-1.9-.143-.555.129-.686-.029-1.2.014-1.547.043a9.4,9.4,0,0,0-2.1.358l-.592-.358-.437-.258a11.02,11.02,0,0,0-2.426.215l-.624-.215-.094-.043a.945.945,0,0,1-1.1.129,9.911,9.911,0,0,0-2.663.229,16.01,16.01,0,0,1-2.738-.386,13.758,13.758,0,0,0-1.466.172l-.617-.2-.368-.115a.744.744,0,0,1-.9.415c-.281-.143-1.06-.343-1.241-.2s-.867.458-1.017.315a2.658,2.658,0,0,0-1.509-.329l-.418.172a1.618,1.618,0,0,1-1.272-.043l-.412-.2a1.4,1.4,0,0,1-.923.186,8.93,8.93,0,0,0-1.048-.243,2.282,2.282,0,0,0-1.054.243c-.218.129-.954-.014-1.154.043a9.163,9.163,0,0,1-1.241-.029c-.243-.014-.911-.129-.929-.272s-.156-.53-.249-.487-.355.072-.418-.057-.462-.215-.667-.143l-.112.229c-.094.186-.53.258-.792.4-.742.415-.767.415-1.553-.086l-.125-.072a.676.676,0,0,0-.617.057c-.168.115-.861.329-1.091.172s-.911-.515-.942-.372a1.089,1.089,0,0,1-.742.587,20.83,20.83,0,0,0-3.262.086l-1.116-.343-.349-.114c-.586.3-1.16.415-1.278.258s-.649.143-.711.186a4.624,4.624,0,0,1-1.116.057c-.53-.014-2.052-.258-2.251-.3a3.4,3.4,0,0,0-1.2.343c-.243.129-1.459.072-1.971.386l-.592-.444-.349-.258a2.252,2.252,0,0,1-1.21-.029c-.249-.129-.979.372-1.241.4s-1.06-.186-1.085-.329a.494.494,0,0,0-.736-.143l-.25.215-.287.243a1.575,1.575,0,0,0-.861-.072c-.156.072-.642.172-.667.014s-.168-.186-.262.2l-.58-.215-.306-.114a8.031,8.031,0,0,1-.8.172c-.181.029-.867-.229-1.091-.186a3.088,3.088,0,0,1-1.235-.143c-.243-.129-1.1-.057-1.478-.157l-.337-.057c-.143-.029-.449.157-.474.129-.287-.3-.424-.043-.649.043-.106.043-.349-.172-.549-.243-.037-.014-.212.129-.212.2l-.006.057c.131.072.193.172.143.215a.791.791,0,0,1-.462-.043,3.058,3.058,0,0,0-1.21.086h-.3c-.462,0-1.1-.286-1.341-.129l-.48.286a2.979,2.979,0,0,0-1.073-.286,4.844,4.844,0,0,0-1.066.358c-.181.129-.349-.415-.374-.444a4.067,4.067,0,0,0-.954.043c-.486.043-2.064.172-2.42.2s-1.353-.759-1.484-.644-.443.658-.985.716a20.571,20.571,0,0,1-3.518-.759l-.773.587-.212.157a7.72,7.72,0,0,1-1.229-.3c-.137-.072-.711.043-.948-.057s-1.017.172-1.135.186a10.218,10.218,0,0,1-1.254-.086,19.173,19.173,0,0,0-3.037.215l-.667-.415-1.653.329c-.087.072-.156.172-.256.186l-.405.072c-.38-.157-.661-.415-.624-.558s-.087-.558-.243-.558-.48.114-.362.243l.013.143.019.186c-.006.272-.343.429-.755.343h-.636a7.956,7.956,0,0,1-1.3.172c-.424.029-1.659-.186-1.908-.1s-1.079-.114-1.316,0-1.023-.086-1.154-.029l-.131.014a4.4,4.4,0,0,1-1.821-.129l-.561-.143h-1.883c-.249,0-.5-.5-.8-.172l-.162.172-.094.1a2.12,2.12,0,0,1-.929.372,8.249,8.249,0,0,1-1.921-.4,6.151,6.151,0,0,1-.786-.057,3.421,3.421,0,0,0-.929.029,10.7,10.7,0,0,1-1.391.014,6.243,6.243,0,0,1-1.466-.358c-.019-.057-.243.072-.468.444l-.686-.315c-.187-.1-.7.329-1.091.372l-.337.043a1.572,1.572,0,0,0-1.41.315l-.574-.386-.324-.215c-.53-.2-1.054-.243-1.148-.114s-.568.444-.7.286a.8.8,0,0,0-.942-.086l-.249.114a.974.974,0,0,1-.574-.057l-.062-.615c-.686-.186-1.285-.172-1.328.029a.814.814,0,0,1-.8.487l-.293.072c-.231.043-.387.215-.412-.1a.35.35,0,0,0-.574-.258c-.636.429-1.366.129-2.033.215l-.468.057c-.518.072-1.017.129-1.1.129l-.081-.014-.561-.086c-.761-.114-1.179-.286-.929-.358s-.262-.487-.306-.615-.349-.272-.374.014-.274.973-.524.859l-.168-.114-.2-.143a.812.812,0,0,0-1-.215c-.349.172-1.322.3-1.447.086s-.7-.6-.979-.329v.229l-.012.673a7.037,7.037,0,0,1-1.64-.143,14.146,14.146,0,0,0-1.827.029c-.094-.043-.543-.172-.773-.243a5.127,5.127,0,0,0-1.784.143l-.324-.114-.324-.1c-.2-.386-.6-.615-.879-.487s-.911.5-.879.6l-.012.1-.006.086a.329.329,0,0,1-.287.129,3.036,3.036,0,0,1-.642-.458c-.193-.186-1.023.2-1.154.215a6.085,6.085,0,0,1-.954-.143l-.031-.1-.1-.329c.355,0,.9-.029,1.222-.057s.449-.716.143-.759-1.21-.014-1.21.215l-.131.2c-.162.243-.43.63-.68.644-.686.029-.143-.53-.43-.73l-.044-.029c-.062-.043-.343.172-.617.472s-1.728.286-2.177.3-.948-.7-1.079-.429.836.472.892.515a.354.354,0,0,1-.062.429l-.162.029-.2.014a5.063,5.063,0,0,1-1.141-.716l-.094-1.073c-.012-.143-.486-.415-.511-.4-1.166.744-.773-.157-.9-.5l-.012-.043c-.125-.072-.249.072-.274.315s-.306.73-.568.53-.661.7-.748.887-.493.716-.655.744-1.054-.043-1.734,0l-.611.029h-.131c-.137.057-.256.014-.262-.086s.019-.329.012-.515.474-.587.748-.558l.218.057.2.029a2.683,2.683,0,0,0,.892.386l.3.043c.15.014.412-.043.449-.129l.168-.315a1,1,0,0,1,.78-.658l.094-.114c.206-.243.206-.615.455-.8l.486-.358a2.164,2.164,0,0,0-.823-.6c-.168-.029-.711.172-.711.558s-.349,1.331-.748,1.345l-.237.258c-.293.315-.574.343-1.017.057Zm4.347-2.819a1.419,1.419,0,0,0-.642-.114c-.031.043.062.243.249.386a2.878,2.878,0,0,0,1.734.029l.511.386a.608.608,0,0,0,.281-.114l.175-.157c.225-.258.137-.515-.187-.558s-1.8.243-2.12.143m-9.717.5c-.462.143-.692.415-.511.63s1.01-.215,1.21-.329a6.7,6.7,0,0,1,1.516-.172c.355.014,1.341-.157,1.185-.358s-1.1-.043-1.328.029a5.237,5.237,0,0,1-1.3-.129l-.393.172ZM323.062,33.052c.212.114.306.014.206-.229s-.437-1.116-.611-1.56l-.312.572-.231.429c-.256-.157-.324-.215-.156-.143s.892.816,1.1.93M172.47,66.485a1.911,1.911,0,0,0-.96.2l.031.057.125.229c-.125.229-.094.472.075.558s.8-.2,1.123-.272.056-.773-.393-.773M325.22,32.823c-.143-.343-.212-.343-.168,0s.674.716.861.744l.012-.343.013-.157c.15-.315-.031-.329-.4-.043l-.125-.086ZM92.3,65.554c-.755.172-1.148.315-.861.315a5.767,5.767,0,0,1,1.366.572c.218.115.9.3.9.086a.536.536,0,0,0-.692-.444l-.081-.057Zm32.811,1.488c-.162-.029-.075.343.187.844l.355.157.437.215a1.892,1.892,0,0,0,1.179.329l.062-.114.081-.157c-.031-.229-.449-.386-.929-.329l-.262-.114-.293-.143a2.19,2.19,0,0,0-.817-.687m105.718.487c.212-.086.262-.272.1-.4s-.624-.515-.717-.63-.6.014-.5.315.9.8,1.116.716m-116.427.086c-.062-.358-.1-.386-.081-.086s-.1,1.159.193,1.131-.044-.673-.112-1.045M1,43.2c.031.057.044-.1.037-.358H1.029c-.056-.029-.069-.258-.062-.63V42.04c-.006-.258-.031-.186-.05.143A5.236,5.236,0,0,0,1,43.2m3.031,6.24a.434.434,0,0,0-.318-.343l-.137-.086c-.131-.072-.181-.315-.387-.086-.162.186-.287.3-.031.515.206.186-.187.773.324.73.187-.014.349-.429.505-.658Z" transform="matrix(1, -0.017, 0.017, 1, 0, 5.719)" fill="#1bccdc"/>
      <path id="Path_4391" data-name="Path 4391" d="M-76.369,9.525A18.993,18.993,0,0,1-83.627,8.21a11.831,11.831,0,0,1-5.128-3.892A10.633,10.633,0,0,1-90.78-1.888h9.572a4.645,4.645,0,0,0,1.42,3.129,4.565,4.565,0,0,0,3.156,1.078,4.935,4.935,0,0,0,3.156-.92,3.078,3.078,0,0,0,1.157-2.551,3.019,3.019,0,0,0-.92-2.262A7.425,7.425,0,0,0-75.5-4.886,36.378,36.378,0,0,0-79.314-6.2,41.519,41.519,0,0,1-85.152-8.41a10.787,10.787,0,0,1-3.892-3.261,9.086,9.086,0,0,1-1.63-5.628,9.677,9.677,0,0,1,3.734-8.073,15.345,15.345,0,0,1,9.73-2.919q6.1,0,9.835,2.919a10.449,10.449,0,0,1,4,8.126h-9.73a3.805,3.805,0,0,0-1.315-2.814,4.632,4.632,0,0,0-3.1-1.026,3.868,3.868,0,0,0-2.63.868,3.13,3.13,0,0,0-1,2.5,3.1,3.1,0,0,0,1.683,2.788,27.589,27.589,0,0,0,5.26,2.156A48.64,48.64,0,0,1-68.4-10.461a11.064,11.064,0,0,1,3.866,3.208A8.588,8.588,0,0,1-62.9-1.836a10.63,10.63,0,0,1-1.6,5.733A11.235,11.235,0,0,1-69.163,8,15.935,15.935,0,0,1-76.369,9.525ZM-28.4-20.191V9.157H-37.4v-4A9.87,9.87,0,0,1-41.1,8.289a11.316,11.316,0,0,1-5.181,1.183,11.6,11.6,0,0,1-5.943-1.5,10.107,10.107,0,0,1-4-4.339,14.766,14.766,0,0,1-1.42-6.68V-20.191H-48.7V-4.255A6.441,6.441,0,0,0-47.179.321a5.348,5.348,0,0,0,4.1,1.63A5.414,5.414,0,0,0-38.921.321,6.441,6.441,0,0,0-37.4-4.255V-20.191Zm4.681,14.674a16.422,16.422,0,0,1,1.867-7.994,12.968,12.968,0,0,1,5.207-5.26,15.591,15.591,0,0,1,7.653-1.841,14.55,14.55,0,0,1,9.23,2.893A13.648,13.648,0,0,1,5.1-9.567H-4.471a4.607,4.607,0,0,0-4.681-3.366,4.718,4.718,0,0,0-3.945,1.92,8.881,8.881,0,0,0-1.473,5.5A8.881,8.881,0,0,0-13.1-.021,4.718,4.718,0,0,0-9.152,1.9,4.607,4.607,0,0,0-4.471-1.468H5.1A13.778,13.778,0,0,1,.21,6.632a14.4,14.4,0,0,1-9.2,2.945,15.591,15.591,0,0,1-7.653-1.841,12.968,12.968,0,0,1-5.207-5.26A16.422,16.422,0,0,1-23.721-5.517Zm31.82,0a16.422,16.422,0,0,1,1.867-7.994,12.968,12.968,0,0,1,5.207-5.26,15.591,15.591,0,0,1,7.653-1.841,14.55,14.55,0,0,1,9.23,2.893,13.648,13.648,0,0,1,4.865,8.152H27.349a4.607,4.607,0,0,0-4.681-3.366,4.718,4.718,0,0,0-3.945,1.92,8.881,8.881,0,0,0-1.473,5.5,8.881,8.881,0,0,0,1.473,5.5A4.718,4.718,0,0,0,22.668,1.9a4.607,4.607,0,0,0,4.681-3.366h9.572a13.778,13.778,0,0,1-4.891,8.1,14.4,14.4,0,0,1-9.2,2.945,15.591,15.591,0,0,1-7.653-1.841,12.968,12.968,0,0,1-5.207-5.26A16.422,16.422,0,0,1,8.1-5.517Zm61.273-.473a22.958,22.958,0,0,1-.158,2.63H48.86A6.116,6.116,0,0,0,50.622.82a5.383,5.383,0,0,0,3.813,1.446,4.726,4.726,0,0,0,4.681-2.84h9.572a13.135,13.135,0,0,1-2.656,5.207A13.3,13.3,0,0,1,61.22,8.263a15.458,15.458,0,0,1-6.469,1.315,15.742,15.742,0,0,1-7.679-1.841,13.094,13.094,0,0,1-5.26-5.26,16.237,16.237,0,0,1-1.893-7.994,16.422,16.422,0,0,1,1.867-7.994,12.924,12.924,0,0,1,5.233-5.26,15.853,15.853,0,0,1,7.731-1.841,15.694,15.694,0,0,1,7.574,1.788,12.84,12.84,0,0,1,5.181,5.1A15.485,15.485,0,0,1,69.372-5.991Zm-9.2-2.367a4.624,4.624,0,0,0-1.578-3.682,5.808,5.808,0,0,0-3.945-1.367,5.7,5.7,0,0,0-3.813,1.315,5.84,5.84,0,0,0-1.92,3.734ZM86.045,9.577a16.868,16.868,0,0,1-6.837-1.315,11.677,11.677,0,0,1-4.734-3.6A9.477,9.477,0,0,1,72.528-.468h8.889A3.417,3.417,0,0,0,82.837,2a5.024,5.024,0,0,0,3.1.947,4.429,4.429,0,0,0,2.6-.657,2.013,2.013,0,0,0,.92-1.709,1.972,1.972,0,0,0-1.315-1.867,26.563,26.563,0,0,0-4.26-1.341,40,40,0,0,1-5.26-1.552A9.087,9.087,0,0,1,75-6.753a7.023,7.023,0,0,1-1.525-4.76,8.082,8.082,0,0,1,1.394-4.6,9.384,9.384,0,0,1,4.1-3.287,15.709,15.709,0,0,1,6.443-1.21q5.522,0,8.7,2.735a10.642,10.642,0,0,1,3.655,7.258h-8.31a3.582,3.582,0,0,0-1.341-2.419,4.652,4.652,0,0,0-2.972-.894,4.108,4.108,0,0,0-2.419.6,1.931,1.931,0,0,0-.842,1.657,2.022,2.022,0,0,0,1.341,1.893,21.481,21.481,0,0,0,4.181,1.262,45.743,45.743,0,0,1,5.312,1.657,9.163,9.163,0,0,1,3.6,2.63,7.441,7.441,0,0,1,1.6,4.865,7.722,7.722,0,0,1-1.446,4.6A9.566,9.566,0,0,1,92.33,8.42,15.89,15.89,0,0,1,86.045,9.577Zm29.348,0a16.868,16.868,0,0,1-6.837-1.315,11.677,11.677,0,0,1-4.734-3.6,9.477,9.477,0,0,1-1.946-5.128h8.889A3.417,3.417,0,0,0,112.185,2a5.024,5.024,0,0,0,3.1.947,4.429,4.429,0,0,0,2.6-.657,2.013,2.013,0,0,0,.92-1.709A1.972,1.972,0,0,0,117.5-1.283a26.563,26.563,0,0,0-4.26-1.341,40,40,0,0,1-5.26-1.552,9.087,9.087,0,0,1-3.629-2.577,7.023,7.023,0,0,1-1.525-4.76,8.082,8.082,0,0,1,1.394-4.6,9.384,9.384,0,0,1,4.1-3.287,15.709,15.709,0,0,1,6.443-1.21q5.522,0,8.7,2.735a10.642,10.642,0,0,1,3.655,7.258h-8.31a3.582,3.582,0,0,0-1.341-2.419,4.652,4.652,0,0,0-2.972-.894,4.108,4.108,0,0,0-2.419.6,1.931,1.931,0,0,0-.842,1.657,2.022,2.022,0,0,0,1.341,1.893,21.481,21.481,0,0,0,4.181,1.262,45.743,45.743,0,0,1,5.312,1.657,9.163,9.163,0,0,1,3.6,2.63,7.441,7.441,0,0,1,1.6,4.865,7.722,7.722,0,0,1-1.446,4.6,9.566,9.566,0,0,1-4.155,3.182A15.89,15.89,0,0,1,115.393,9.577ZM144.636-29.08,143.584-3.887h-7.626L134.906-29.08ZM139.9,9.577a5.451,5.451,0,0,1-3.866-1.394,4.516,4.516,0,0,1-1.5-3.445,4.658,4.658,0,0,1,1.5-3.524A5.392,5.392,0,0,1,139.9-.205a5.322,5.322,0,0,1,3.813,1.42,4.658,4.658,0,0,1,1.5,3.524,4.516,4.516,0,0,1-1.5,3.445A5.379,5.379,0,0,1,139.9,9.577Z" transform="translate(133.22 47.04)" fill="#fff"/>
    </g>
    <g id="Group_7692" data-name="Group 7692" transform="translate(720.917 86.06)">
      <g transform="matrix(1, 0, 0, 1, -105.92, -9.5)" filter="url(#Path_4254)">
        <path id="Path_4254-2" data-name="Path 4254" d="M59.01,117.52a58.51,58.51,0,1,1,58.51-58.51,58.577,58.577,0,0,1-58.51,58.51" transform="translate(105.42 9)" fill="#fff"/>
      </g>
      <g id="Group_7686" data-name="Group 7686" transform="translate(29.169 19.446)">
        <g id="Group_7689" data-name="Group 7689" transform="translate(0 0)">
          <path id="Path_4255" data-name="Path 4255" d="M59.831,49.512a4.4,4.4,0,0,0-4.384-4.384,4.384,4.384,0,0,0,0-8.768H36.338L38.8,27.054c1.483-5.593-1.131-10.678-4.15-12.184-4.6-2.3-5.544.773-6.052,4C27.029,28.8,24.53,35.11,16.613,40.383l-.579-1.217a2.532,2.532,0,0,0-2.522-2.523H3.9a2.533,2.533,0,0,0-2.523,2.523v28.6A2.532,2.532,0,0,0,3.9,70.286h9.608a2.53,2.53,0,0,0,2.522-2.522l.56-1.176c3.772,2.775,11.321,4.847,15.689,4.847H52.113a4.384,4.384,0,0,0,0-8.768h3.335a4.385,4.385,0,0,0,0-8.771,4.4,4.4,0,0,0,4.384-4.384" transform="translate(-1.381 4.29)" fill="#1bccdc"/>
          <path id="Path_4256" data-name="Path 4256" d="M31.812,25.475h19.11a4.384,4.384,0,1,1,0,8.768,4.383,4.383,0,1,1,0,8.766,4.386,4.386,0,0,1,0,8.772H47.585a4.383,4.383,0,1,1,0,8.766H27.759c-4.594,0-12.712-2.287-16.249-5.278" transform="translate(3.145 9.385)" fill="none" stroke="#23314c" stroke-linecap="round" stroke-linejoin="round" stroke-width="2.763"/>
          <path id="Path_4257" data-name="Path 4257" d="M11.51,36.771c8.389-5.35,10.955-11.728,12.567-21.906.508-3.224,1.454-6.294,6.051-4,3.018,1.506,5.634,6.592,4.151,12.184L31.812,32.36" transform="translate(3.145 2.501)" fill="none" stroke="#23314c" stroke-linecap="round" stroke-linejoin="round" stroke-width="2.763"/>
          <line id="Line_505" data-name="Line 505" x1="5.975" transform="translate(48.092 43.628)" fill="none" stroke="#23314c" stroke-linecap="round" stroke-linejoin="round" stroke-width="2.763"/>
          <line id="Line_506" data-name="Line 506" x1="5.975" transform="translate(48.092 52.395)" fill="none" stroke="#23314c" stroke-linecap="round" stroke-linejoin="round" stroke-width="2.763"/>
          <line id="Line_507" data-name="Line 507" x1="2.639" transform="translate(48.092 61.166)" fill="none" stroke="#23314c" stroke-linecap="round" stroke-linejoin="round" stroke-width="2.763"/>
          <path id="Rectangle_6046" data-name="Rectangle 6046" d="M1.743,0H12.91a1.743,1.743,0,0,1,1.743,1.743V31.9a1.744,1.744,0,0,1-1.744,1.744H1.743A1.743,1.743,0,0,1,0,31.9V1.743A1.743,1.743,0,0,1,1.743,0Z" transform="translate(0.001 35.142)" fill="none" stroke="#23314c" stroke-linecap="round" stroke-linejoin="round" stroke-width="2.763"/>
          <line id="Line_508" data-name="Line 508" y2="25.383" transform="translate(14.655 39.272)" fill="none" stroke="#23314c" stroke-linecap="round" stroke-linejoin="round" stroke-width="2.763"/>
          <line id="Line_509" data-name="Line 509" y2="0.009" transform="translate(7.66 43.023)" fill="none" stroke="#23314c" stroke-linecap="round" stroke-linejoin="round" stroke-width="2.763"/>
          <path id="Path_4258" data-name="Path 4258" d="M15.579,6.749l-2.526-2.24m28.28,2.24,2.526-2.24" transform="translate(3.834 0.017)" fill="none" stroke="#23314c" stroke-linecap="round" stroke-linejoin="round" stroke-width="2.763"/>
          <line id="Line_510" data-name="Line 510" y1="3.377" transform="translate(32.29)" fill="none" stroke="#23314c" stroke-linecap="round" stroke-linejoin="round" stroke-width="2.763"/>
          <line id="Line_511" data-name="Line 511" x2="3.377" y2="0.14" transform="translate(11.431 16.822)" fill="none" stroke="#23314c" stroke-linecap="round" stroke-linejoin="round" stroke-width="2.763"/>
          <line id="Line_512" data-name="Line 512" x1="3.377" y2="0.14" transform="translate(49.772 16.822)" fill="none" stroke="#23314c" stroke-linecap="round" stroke-linejoin="round" stroke-width="2.763"/>
        </g>
      </g>
    </g>
  </g>
</svg>
