<svg width="81" height="56" viewBox="0 0 81 56" fill="none" xmlns="http://www.w3.org/2000/svg">
<path d="M2.32067 0.826807C1.69344 2.22898 1.19212 3.68415 0.822645 5.17512C0.424955 7.31911 0.276818 9.50194 0.381196 11.68C1.34856 25.1609 6.4223 37.0975 16.6385 45.817C27.0635 54.7133 39.6054 57.352 53.0321 53.1739C59.7085 51.0603 65.9051 47.6567 71.2706 43.1562C72.2541 42.346 73.261 41.5543 74.8987 40.2381C74.8424 43.1204 74.7987 45.32 74.7545 47.5183L75.6175 47.7144C76.0404 47.2425 76.4018 46.7188 76.6929 46.1558C77.7912 43.1585 78.8459 40.1449 79.8572 37.1151C80.5099 35.1686 81.207 33.0728 79.5979 31.3438C77.8686 29.487 75.5334 29.8192 73.4784 30.6296C70.6571 31.7754 67.9072 33.0896 65.2436 34.5652C64.6933 34.8603 64.5708 35.9584 64.2542 36.6869C64.9822 36.9998 65.7861 37.687 66.4205 37.5547C68.3889 37.143 70.2928 36.4199 72.2637 35.8041C72.258 36.0839 72.3164 36.2899 72.2415 36.3653C57.4465 51.44 39.2925 56.0519 21.4527 45.4877C20.5778 44.9694 19.7595 44.3611 19.0109 43.6728C8.32045 33.803 2.69931 21.6277 2.59762 7.03336C2.72173 5.07418 2.99305 3.12712 3.40929 1.20865L2.32067 0.826807Z" fill="#FE0056"/>
</svg>
