<svg id="review-logo-google" xmlns="http://www.w3.org/2000/svg" width="126.234" height="55.224" viewBox="0 0 126.234 55.224">
  <path id="Path_4047" data-name="Path 4047" d="M189.7,68.817a10.417,10.417,0,1,1-10.417-10.384A10.256,10.256,0,0,1,189.7,68.817m-4.56,0a5.872,5.872,0,1,0-5.857,6.292,5.98,5.98,0,0,0,5.857-6.292" transform="translate(-135.679 -46.949)" fill="#ea4335"/>
  <path id="Path_4048" data-name="Path 4048" d="M304.04,68.817a10.417,10.417,0,1,1-10.417-10.384A10.256,10.256,0,0,1,304.04,68.817m-4.56,0a5.872,5.872,0,1,0-5.857,6.292,5.98,5.98,0,0,0,5.857-6.292" transform="translate(-227.548 -46.949)" fill="#fbbc05"/>
  <path id="Path_4049" data-name="Path 4049" d="M417.407,59.06V77.7c0,7.668-4.522,10.8-9.869,10.8a9.888,9.888,0,0,1-9.2-6.119l3.97-1.653a5.736,5.736,0,0,0,5.229,3.684c3.422,0,5.543-2.111,5.543-6.086V76.836h-.159a7.069,7.069,0,0,1-5.468,2.36,10.391,10.391,0,0,1,0-20.763,7.2,7.2,0,0,1,5.468,2.322h.159v-1.69h4.331ZM413.4,68.854c0-3.656-2.439-6.329-5.543-6.329-3.146,0-5.782,2.673-5.782,6.329a5.959,5.959,0,0,0,5.782,6.255c3.1,0,5.543-2.636,5.543-6.255" transform="translate(-319.38 -46.949)" fill="#4285f4"/>
  <rect id="Rectangle_4911" data-name="Rectangle 4911" width="4.448" height="30.43" transform="translate(100.719 1.185)" fill="#34a853"/>
  <path id="Path_4050" data-name="Path 4050" d="M560.273,72.215l3.539,2.36a10.335,10.335,0,0,1-8.651,4.6,10.16,10.16,0,0,1-10.3-10.384c0-6.175,4.443-10.384,9.794-10.384,5.389,0,8.024,4.288,8.886,6.606l.473,1.18-13.881,5.749a5.285,5.285,0,0,0,5.033,3.146A5.926,5.926,0,0,0,560.273,72.215Zm-10.894-3.736,9.279-3.853a4.02,4.02,0,0,0-3.853-2.2,5.7,5.7,0,0,0-5.426,6.053" transform="translate(-437.776 -46.93)" fill="#ea4335"/>
  <path id="Path_4051" data-name="Path 4051" d="M16.353,19.166V14.761H31.2a14.587,14.587,0,0,1,.22,2.659c0,3.305-.9,7.392-3.815,10.3a14.744,14.744,0,0,1-11.245,4.522A16.35,16.35,0,0,1,0,16.123,16.35,16.35,0,0,1,16.357,0,15.363,15.363,0,0,1,27.406,4.443L24.3,7.551a11.23,11.23,0,0,0-7.945-3.146A11.566,11.566,0,0,0,4.789,16.123,11.566,11.566,0,0,0,16.353,27.841a10.787,10.787,0,0,0,8.141-3.225,9.131,9.131,0,0,0,2.387-5.454Z" transform="translate(0 0)" fill="#4285f4"/>
  <path id="Path_4052" data-name="Path 4052" d="M2.689,236.744H1.351V226.329H4.9a3.243,3.243,0,0,1,2.3.895,2.985,2.985,0,0,1,.248,4.113A3.125,3.125,0,0,1,5.662,232.4l-.028.044,2.921,4.23v.065H6.97l-2.8-4.215H2.689Zm0-9.128v3.663H4.839a1.95,1.95,0,0,0,1.382-.531,1.735,1.735,0,0,0,.566-1.315,1.84,1.84,0,0,0-1.86-1.816Zm9.884,9.36A3.407,3.407,0,0,1,9.984,235.9a3.79,3.79,0,0,1-1.016-2.717,3.842,3.842,0,0,1,.991-2.711,3.27,3.27,0,0,1,2.52-1.09A3.248,3.248,0,0,1,15,230.407a4.1,4.1,0,0,1,.937,2.87l-.014.141h-5.59a2.316,2.316,0,0,0,.7,1.686,2.241,2.241,0,0,0,3.6-.626l1.191.582a3.554,3.554,0,0,1-1.33,1.416,3.682,3.682,0,0,1-1.926.493Zm-2.137-4.651h4.084a1.773,1.773,0,0,0-.6-1.229,2.107,2.107,0,0,0-1.46-.487,1.937,1.937,0,0,0-1.3.466,2.215,2.215,0,0,0-.725,1.243Zm10.038,4.419H19.136l-2.878-7.123h1.454l2.092,5.522h.03l2.124-5.522h1.424Zm5.508-9.58a.943.943,0,1,1-.276-.668.913.913,0,0,1,.276.661Zm-.276,2.456v7.123H24.369v-7.13Zm4.87,7.362a3.4,3.4,0,0,1-2.588-1.076,3.787,3.787,0,0,1-1.016-2.717,3.839,3.839,0,0,1,.991-2.711,3.533,3.533,0,0,1,5.048-.072,4.1,4.1,0,0,1,.937,2.87l-.014.141h-5.6a2.315,2.315,0,0,0,.7,1.686,2.255,2.255,0,0,0,3.6-.634l1.2.575a3.566,3.566,0,0,1-1.33,1.416,3.68,3.68,0,0,1-1.927.508Zm-2.138-4.651h4.085a1.772,1.772,0,0,0-.6-1.229,2.109,2.109,0,0,0-1.461-.487,1.933,1.933,0,0,0-1.3.466,2.225,2.225,0,0,0-.721,1.236Zm16.673-2.7-2.3,7.116H41.448l-1.774-5.465-1.759,5.465H36.563l-2.3-7.13h1.4l1.584,5.38h.014l1.759-5.38H40.4l1.758,5.38h.014l1.57-5.38Zm6.323,5.134a1.928,1.928,0,0,1-.814,1.569,3.52,3.52,0,0,1-3.939.074,3.092,3.092,0,0,1-1.164-1.475l1.192-.51a2.211,2.211,0,0,0,.763.991,1.86,1.86,0,0,0,1.1.356,1.939,1.939,0,0,0,1.069-.276.8.8,0,0,0,.425-.654c0-.455-.35-.79-1.046-1l-1.222-.306q-2.079-.522-2.079-2.006a1.849,1.849,0,0,1,.793-1.557,3.631,3.631,0,0,1,3.735-.139,2.464,2.464,0,0,1,1.069,1.206l-1.192.494a1.5,1.5,0,0,0-.661-.708,2.073,2.073,0,0,0-1.025-.255,1.707,1.707,0,0,0-.937.262.754.754,0,0,0-.415.639q0,.611,1.148.872l1.076.276q2.126.537,2.127,2.151" transform="translate(-1.085 -181.761)" fill="#6f7073"/>
  <path id="Path_4053" data-name="Path 4053" d="M286.173,221.558l1.977,3.729,4.157.727-2.936,3.032.593,4.178-3.791-1.855-3.791,1.855.593-4.178-2.936-3.032,4.157-.727Z" transform="translate(-225.003 -178.015)" fill="#f5b402"/>
  <path id="Path_4054" data-name="Path 4054" d="M360.506,221.558l1.977,3.729,4.157.727-2.936,3.032.593,4.178-3.791-1.855-3.791,1.855.593-4.178-2.936-3.032,4.157-.727Z" transform="translate(-284.727 -178.015)" fill="#f5b402"/>
  <path id="Path_4055" data-name="Path 4055" d="M434.84,221.558l1.976,3.729,4.157.727-2.936,3.032.593,4.178-3.791-1.855-3.791,1.855.593-4.178-2.936-3.032,4.157-.727Z" transform="translate(-344.452 -178.015)" fill="#f5b402"/>
  <path id="Path_4056" data-name="Path 4056" d="M509.173,221.558l1.977,3.729,4.157.727-2.936,3.032.593,4.178-3.791-1.855-3.791,1.855.593-4.178-2.936-3.032,4.157-.727Z" transform="translate(-404.176 -178.015)" fill="#f5b402"/>
  <path id="Path_4057" data-name="Path 4057" d="M583.506,221.558l1.977,3.729,4.157.727-2.936,3.032.593,4.178-3.791-1.855-3.791,1.855.593-4.178-2.936-3.032,4.157-.727Z" transform="translate(-463.901 -178.015)" fill="#f5b402"/>
</svg>
