<svg width="200" height="34" viewBox="0 0 200 34" fill="none" xmlns="http://www.w3.org/2000/svg">
<g clip-path="url(#clip0_3428_445)">
<path d="M78.5107 3.00511C78.5107 1.27871 79.9083 -0.0366488 81.5525 -0.0366488C83.1967 -0.0366488 84.5943 1.36092 84.5943 3.00511C84.5943 4.64931 83.1967 6.04688 81.5525 6.04688C79.8261 6.04688 78.5107 4.64931 78.5107 3.00511Z" fill="#003479"/>
<path d="M126.521 23.2297C126.521 21.5033 127.919 20.188 129.563 20.188C131.207 20.188 132.605 21.5855 132.605 23.2297C132.605 24.8739 131.207 26.2715 129.563 26.2715C127.837 26.2715 126.521 24.9561 126.521 23.2297Z" fill="#009FE3"/>
<path d="M28.6093 21.9144C25.9786 21.9144 24.17 19.8591 24.17 16.8996C24.17 13.94 25.9786 11.8848 28.6093 11.8848C31.24 11.8848 33.0487 13.94 33.0487 16.8996C33.0487 19.9413 31.24 21.9144 28.6093 21.9144ZM28.6093 7.36323C23.1013 7.36323 19.073 11.3915 19.073 16.8174C19.073 22.2432 23.1013 26.2715 28.6093 26.2715C34.1996 26.2715 38.2279 22.2432 38.2279 16.8174C38.2279 11.3915 34.1174 7.36323 28.6093 7.36323Z" fill="#003479"/>
<path d="M72.5916 17.393C72.345 16.982 72.0984 16.6531 71.8518 16.4065L71.6874 16.2421L71.8518 16.0776C72.0984 15.831 72.345 15.5022 72.5916 15.0911L77.442 7.85667H71.5229L67.8235 13.5291C67.5769 13.858 67.1658 14.0224 66.5903 14.0224H65.7682V3.25292C65.7682 1.11547 64.4529 0.786627 62.9731 0.786627H60.5068V26.1895H65.7682V18.5439H66.2615C66.837 18.5439 67.248 18.6262 67.4947 18.955L70.372 24.463C71.1941 25.9428 72.0162 26.1895 73.496 26.1895H77.5242L74.4825 21.2569L72.5916 17.393Z" fill="#003479"/>
<path d="M98.1589 7.36342C95.446 7.36342 93.8018 8.51435 92.8153 9.58308L92.4864 9.91192L92.4042 9.50087C92.1576 8.43215 91.1711 7.85668 89.7735 7.85668H87.3894V26.1895H92.6508V17.6396C92.6508 16.8175 92.7331 16.0777 92.9797 15.42C93.5552 13.4469 95.1994 12.2138 97.1724 12.2138C98.8166 12.2138 99.4742 13.0359 99.4742 15.3378V23.3121C99.4742 25.2029 100.379 26.1072 102.269 26.1072H104.736V14.4335C104.653 9.82971 102.434 7.36342 98.1589 7.36342Z" fill="#003479"/>
<path d="M81.6348 7.77464H79.1685V21.9147V26.1074H81.7992H81.8814H83.1146H84.3477V10.5698C84.3477 8.67895 83.4434 7.77464 81.6348 7.77464Z" fill="#003479"/>
<path d="M49.0795 21.9142C46.4488 21.9142 44.6402 19.8589 44.6402 16.8994C44.6402 13.9398 46.4488 11.8846 49.0795 11.8846C51.7102 11.8846 53.5189 13.9398 53.5189 16.8994C53.6011 19.9412 51.7925 21.9142 49.0795 21.9142ZM49.0795 7.36306C43.5715 7.36306 39.5432 11.3913 39.5432 16.8172C39.5432 22.243 43.5715 26.3535 49.0795 26.3535C54.6698 26.3535 58.6981 22.3252 58.6981 16.8994C58.6981 11.4735 54.6698 7.36306 49.0795 7.36306Z" fill="#003479"/>
<path d="M161.131 21.9151C158.501 21.9151 156.692 19.8598 156.692 16.9003C156.692 13.9407 158.501 11.8855 161.131 11.8855C163.762 11.8855 165.571 13.9407 165.571 16.9003C165.571 19.942 163.762 21.9151 161.131 21.9151ZM161.131 7.36392C155.623 7.36392 151.595 11.3922 151.595 16.818C151.595 22.2439 155.623 26.2722 161.131 26.2722C166.639 26.3544 170.75 22.4083 170.75 16.9003C170.75 11.3922 166.639 7.36392 161.131 7.36392Z" fill="#009FE3"/>
<path d="M115.669 21.1753C112.792 21.1753 111.806 18.709 111.806 16.3249C111.806 15.2562 112.052 11.9678 115.423 11.9678C117.067 11.9678 119.287 12.461 119.287 16.4893C119.287 20.3532 117.314 21.1753 115.669 21.1753ZM122 7.69287C121.013 7.69287 120.273 8.10392 119.862 8.84381L119.698 9.09044L119.451 8.84381C118.629 8.10392 117.067 7.28183 114.601 7.28183C109.75 7.28183 106.462 10.9813 106.462 16.4071C106.462 21.833 109.833 25.6968 114.765 25.6968C116.409 25.6968 117.725 25.2858 118.793 24.5459L119.204 24.217V24.7103C119.204 27.1766 117.642 28.492 114.765 28.492C113.368 28.492 112.134 28.1631 111.23 27.8343C110.161 27.5054 109.504 27.7521 109.01 28.903L108.599 29.8895L108.024 31.3693L108.353 31.5337C110.161 32.5202 112.545 33.0957 114.765 33.0957C119.204 33.0957 124.384 30.7938 124.384 24.3815V7.52845L122 7.69287Z" fill="#003479"/>
<path d="M9.12556 21.7485H4.85064V16.6515C4.85064 15.5828 5.26167 15.0073 6.16598 14.8429H9.04332C11.0986 14.8429 12.414 16.1583 12.414 18.2957C12.4962 20.4332 11.263 21.7485 9.12556 21.7485ZM4.85064 8.01949V6.70413C4.85064 5.55319 5.34387 4.97773 6.4126 4.89552H8.55008C10.4409 4.89552 11.5096 6.04645 11.5096 7.85507C11.5096 9.25264 10.7697 10.979 8.63227 10.979H4.7684L4.85064 8.01949ZM14.5514 13.1165L13.8115 12.7054L14.4692 12.13C15.2091 11.4723 16.5244 9.91031 16.5244 7.36181C16.5244 3.33353 13.4004 0.785027 8.63227 0.785027H3.20645H2.54878C1.15121 0.867235 0.000244141 2.01817 0.000244141 3.41574V26.0234H2.54878H8.7967C14.1403 26.0234 17.5932 23.1461 17.5932 18.6246C17.511 16.2405 16.4422 14.103 14.5514 13.1165Z" fill="#003479"/>
<path d="M194.015 7.4458C191.878 7.4458 189.74 8.43232 188.425 10.1587L188.014 10.652L187.685 10.0765C186.699 8.35011 185.054 7.4458 182.753 7.4458C180.286 7.4458 178.724 8.76116 177.902 9.58326L177.409 10.1587L177.245 9.41884C176.998 8.43232 176.094 7.85685 174.696 7.85685H172.476V26.1074H177.491V18.0509C177.491 17.311 177.573 16.6533 177.738 15.9134C178.231 13.9404 179.546 11.8851 181.684 12.0496C183.081 12.214 183.739 13.2005 183.739 15.2557V26.1074H188.754V18.0509C188.754 17.1466 188.836 16.4889 189.001 15.8312C189.412 13.9404 190.809 12.0496 192.864 12.0496C194.426 12.0496 195.002 12.9539 195.002 15.2557V23.3945C195.002 25.2031 195.824 26.0252 197.633 26.0252H200.017V14.3514C200.099 9.74768 198.126 7.4458 194.015 7.4458Z" fill="#009FE3"/>
<path d="M148.635 19.7764C148.635 19.7764 146.498 22.0782 143.621 22.0782C141.072 22.0782 138.442 20.5163 138.442 16.9812C138.442 13.9395 140.497 11.802 143.374 11.802C144.278 11.802 145.347 12.1309 145.512 12.7063V12.7885C145.923 14.1039 147.074 14.1039 147.32 14.1039H150.033V11.7198C150.033 8.59584 146.005 7.44491 143.292 7.44491C137.537 7.44491 133.344 11.4732 133.344 16.9812C133.344 22.4893 137.455 26.5176 143.21 26.5176C148.142 26.5176 150.855 23.2292 150.855 23.2292L151.02 23.0648L148.882 19.4475L148.635 19.7764Z" fill="#009FE3"/>
</g>
<defs>
<clipPath id="clip0_3428_445">
<rect width="200" height="33.147" fill="white"/>
</clipPath>
</defs>
</svg>
