<svg id="review-logo-trustpilot" xmlns="http://www.w3.org/2000/svg" width="116.405" height="55.224" viewBox="0 0 116.405 55.224">
  <rect id="Rectangle_4904" data-name="Rectangle 4904" width="21.826" height="21.826" transform="translate(0 33.398)" fill="#21b685"/>
  <rect id="Rectangle_4905" data-name="Rectangle 4905" width="21.826" height="21.826" transform="translate(23.645 33.398)" fill="#21b685"/>
  <rect id="Rectangle_4906" data-name="Rectangle 4906" width="21.826" height="21.826" transform="translate(47.29 33.398)" fill="#21b685"/>
  <rect id="Rectangle_4907" data-name="Rectangle 4907" width="21.826" height="21.826" transform="translate(70.934 33.398)" fill="#21b685"/>
  <rect id="Rectangle_4908" data-name="Rectangle 4908" width="21.826" height="21.826" transform="translate(94.579 33.398)" fill="#21b685"/>
  <path id="Path_4019" data-name="Path 4019" d="M22.039,176.227l3.319-.841,1.387,4.274Zm7.639-5.525H23.835l-1.8-5.5-1.8,5.5H14.4l4.729,3.41-1.8,5.5,4.729-3.41,2.91-2.092,4.706-3.41Z" transform="translate(-11.126 -128.119)" fill="#fff"/>
  <path id="Path_4020" data-name="Path 4020" d="M126.039,176.227l3.319-.841,1.387,4.274Zm7.639-5.525h-5.843l-1.8-5.5-1.8,5.5H118.4l4.729,3.41-1.8,5.5,4.729-3.41,2.91-2.092,4.706-3.41Z" transform="translate(-91.481 -128.119)" fill="#fff"/>
  <path id="Path_4021" data-name="Path 4021" d="M230.039,176.227l3.319-.841,1.387,4.274Zm7.639-5.525h-5.843l-1.8-5.5-1.8,5.5H222.4l4.729,3.41-1.8,5.5,4.729-3.41,2.91-2.092,4.706-3.41Z" transform="translate(-171.837 -128.119)" fill="#fff"/>
  <path id="Path_4022" data-name="Path 4022" d="M334.039,176.227l3.319-.841,1.387,4.274Zm7.639-5.525h-5.843l-1.8-5.5-1.8,5.5H326.4l4.729,3.41-1.8,5.5,4.729-3.41,2.91-2.092,4.706-3.41Z" transform="translate(-252.192 -128.119)" fill="#fff"/>
  <path id="Path_4023" data-name="Path 4023" d="M438.039,176.227l3.319-.841,1.387,4.274Zm7.639-5.525h-5.843l-1.8-5.5-1.8,5.5H430.4l4.729,3.41-1.8,5.5,4.729-3.41,2.91-2.092,4.706-3.41Z" transform="translate(-332.547 -128.119)" fill="#fff"/>
  <path id="Path_4024" data-name="Path 4024" d="M133.7,46.3h11.709v2.205h-4.593V60.782h-2.524V48.505h-4.57V46.3Zm11.209,4h2.16v2.023h.045a2.781,2.781,0,0,1,.387-.841,4.383,4.383,0,0,1,.7-.75,3.463,3.463,0,0,1,.932-.546,2.737,2.737,0,0,1,1.023-.2,3.555,3.555,0,0,1,.568.023c.091.023.2.023.318.045v2.228c-.159-.023-.318-.045-.5-.068a3.682,3.682,0,0,0-.5-.023,2.715,2.715,0,0,0-1.114.227,2.9,2.9,0,0,0-.909.682,3.727,3.727,0,0,0-.614,1.114,4.611,4.611,0,0,0-.227,1.546v5.025h-2.274Zm16.733,10.481h-2.274V59.327h-.045A3.119,3.119,0,0,1,158.05,60.6a3.463,3.463,0,0,1-1.705.477,3.807,3.807,0,0,1-2.978-1.023,4.488,4.488,0,0,1-.932-3.092V50.3h2.319v6.434a2.96,2.96,0,0,0,.523,1.955,1.871,1.871,0,0,0,1.478.568,2.715,2.715,0,0,0,1.2-.227,2.351,2.351,0,0,0,.8-.591,2.256,2.256,0,0,0,.432-.909,4.453,4.453,0,0,0,.136-1.137V50.3h2.319Zm3.933-3.365a1.667,1.667,0,0,0,.773,1.41,3.014,3.014,0,0,0,1.591.409c.2,0,.455-.023.75-.045a2.749,2.749,0,0,0,.773-.182,1.384,1.384,0,0,0,.591-.409.96.96,0,0,0,.2-.728,1.03,1.03,0,0,0-.318-.728,2.318,2.318,0,0,0-.773-.455,9.3,9.3,0,0,0-1.091-.3c-.409-.091-.818-.159-1.228-.273a11.244,11.244,0,0,1-1.25-.341,3.943,3.943,0,0,1-1.069-.546,2.375,2.375,0,0,1-.75-.887,2.9,2.9,0,0,1-.273-1.319,2.421,2.421,0,0,1,.409-1.432,3.161,3.161,0,0,1,1.046-.932,4.955,4.955,0,0,1,1.41-.5,8.763,8.763,0,0,1,1.5-.136,6.854,6.854,0,0,1,1.546.182,3.92,3.92,0,0,1,1.341.568,3.231,3.231,0,0,1,1,1,3.353,3.353,0,0,1,.5,1.5h-2.41a1.472,1.472,0,0,0-.75-1.114,3.322,3.322,0,0,0-1.364-.273,5.675,5.675,0,0,0-.568.045,2.015,2.015,0,0,0-.637.159,1.261,1.261,0,0,0-.5.318.757.757,0,0,0-.2.568.834.834,0,0,0,.3.682,2.288,2.288,0,0,0,.773.432,9.3,9.3,0,0,0,1.091.3c.409.091.818.159,1.25.273a10.852,10.852,0,0,1,1.228.341,4.087,4.087,0,0,1,1.091.546,2.82,2.82,0,0,1,.773.864,2.486,2.486,0,0,1,.3,1.3,2.78,2.78,0,0,1-.432,1.591,3.281,3.281,0,0,1-1.114,1.046,5.439,5.439,0,0,1-1.5.591,8.024,8.024,0,0,1-1.637.182A6.814,6.814,0,0,1,166.1,60.9a4.1,4.1,0,0,1-1.455-.682,3.38,3.38,0,0,1-.978-1.137,3.6,3.6,0,0,1-.364-1.614h2.274Zm7.616-7.116h1.751V47.164h2.319V50.3h2.092v1.728h-2.092v5.593a5.344,5.344,0,0,0,.023.637,1.334,1.334,0,0,0,.136.455.7.7,0,0,0,.341.273,1.518,1.518,0,0,0,.614.091h.477a1.731,1.731,0,0,0,.477-.068v1.773c-.25.023-.5.045-.75.091-.25.023-.5.045-.75.045a5.223,5.223,0,0,1-1.478-.182,1.892,1.892,0,0,1-.864-.5,1.973,1.973,0,0,1-.432-.841,8.126,8.126,0,0,1-.136-1.16V52.029h-1.751V50.3Zm7.776,0h2.183v1.41h.045a2.7,2.7,0,0,1,1.364-1.3,4.384,4.384,0,0,1,1.887-.387,4.952,4.952,0,0,1,2.16.432,4.176,4.176,0,0,1,1.523,1.2,5.042,5.042,0,0,1,.909,1.773,7.511,7.511,0,0,1,.3,2.16,7.658,7.658,0,0,1-.273,2.046,5.009,5.009,0,0,1-.841,1.751,4.027,4.027,0,0,1-1.41,1.2,4.259,4.259,0,0,1-2,.455,5.189,5.189,0,0,1-1.023-.091,4.852,4.852,0,0,1-.978-.3,4.166,4.166,0,0,1-.864-.523,2.615,2.615,0,0,1-.659-.75h-.045v5.229h-2.319V50.3Zm8.048,5.252a5.66,5.66,0,0,0-.182-1.387,3.325,3.325,0,0,0-.546-1.182,3.214,3.214,0,0,0-.909-.841,2.492,2.492,0,0,0-1.25-.318,2.553,2.553,0,0,0-2.205,1.023,4.44,4.44,0,0,0-.75,2.706,6.119,6.119,0,0,0,.182,1.478,3.453,3.453,0,0,0,.568,1.159,2.786,2.786,0,0,0,.932.773,2.993,2.993,0,0,0,2.592-.045,2.918,2.918,0,0,0,.909-.841,3.261,3.261,0,0,0,.5-1.182A5.284,5.284,0,0,0,189.015,55.553Zm4.07-9.253H195.4v2.205h-2.319Zm0,4H195.4V60.782h-2.319Zm4.388-4h2.319V60.782h-2.319Zm9.39,14.755a5.646,5.646,0,0,1-2.228-.409,4.794,4.794,0,0,1-1.66-1.137,4.629,4.629,0,0,1-1.023-1.751,6.933,6.933,0,0,1-.364-2.228,6.324,6.324,0,0,1,.364-2.205,5.154,5.154,0,0,1,1.023-1.751,4.794,4.794,0,0,1,1.66-1.137,5.807,5.807,0,0,1,2.228-.409,5.646,5.646,0,0,1,2.228.409,4.794,4.794,0,0,1,1.66,1.137,4.63,4.63,0,0,1,1.023,1.751,6.9,6.9,0,0,1,.364,2.205,6.364,6.364,0,0,1-.364,2.228,5.154,5.154,0,0,1-1.023,1.751,4.794,4.794,0,0,1-1.66,1.137A5.806,5.806,0,0,1,206.862,61.055Zm0-1.819a2.656,2.656,0,0,0,2.273-1.16,3.519,3.519,0,0,0,.546-1.182,5.3,5.3,0,0,0,.182-1.341,5.443,5.443,0,0,0-.182-1.341,3.325,3.325,0,0,0-.546-1.182,3.022,3.022,0,0,0-.932-.841,2.986,2.986,0,0,0-2.683,0,3.022,3.022,0,0,0-.932.841,3.519,3.519,0,0,0-.546,1.182,5.442,5.442,0,0,0-.182,1.341,5.3,5.3,0,0,0,.182,1.341,3.519,3.519,0,0,0,.546,1.182,2.763,2.763,0,0,0,.932.841A2.722,2.722,0,0,0,206.862,59.236Zm5.957-8.935h1.751V47.164h2.319V50.3h2.092v1.728h-2.092v5.593a5.341,5.341,0,0,0,.023.637,1.335,1.335,0,0,0,.136.455.7.7,0,0,0,.341.273,1.518,1.518,0,0,0,.614.091h.477a1.731,1.731,0,0,0,.477-.068v1.773c-.25.023-.5.045-.75.091-.25.023-.5.045-.75.045a5.223,5.223,0,0,1-1.478-.182,1.892,1.892,0,0,1-.864-.5,1.974,1.974,0,0,1-.432-.841,8.138,8.138,0,0,1-.136-1.16V52.029H212.8V50.3Z" transform="translate(-103.303 -36.251)"/>
  <path id="Path_4025" data-name="Path 4025" d="M27.692,12.149H17.12L13.846,2.1,10.572,12.149H0l8.571,6.229L5.3,28.428l8.549-6.207,8.571,6.207L19.143,18.379l8.549-6.229Z" transform="translate(0 -2.1)" fill="#21b685"/>
  <path id="Path_4026" data-name="Path 4026" d="M66.925,75.974,66.2,73.7l-5.3,3.842Z" transform="translate(-47.054 -57.421)" fill="#00562f"/>
</svg>
