<svg id="review-logo-tripadvisor" xmlns="http://www.w3.org/2000/svg" width="115.697" height="83.714" viewBox="0 0 115.697 83.714">
  <path id="Path_4032" data-name="Path 4032" d="M875.068,148.384a.841.841,0,1,0,.841.841A.842.842,0,0,0,875.068,148.384Zm0,1.549a.708.708,0,1,1,.709-.708A.708.708,0,0,1,875.068,149.932Zm.274-.852a.24.24,0,0,0-.269-.244H874.8v.766h.132v-.277h.144l.139.277h.142l-.153-.306A.225.225,0,0,0,875.342,149.081Zm-.274.126h-.13v-.254h.13c.089,0,.142.044.142.126S875.155,149.207,875.068,149.207ZM773.74,139.873v-2.034h-3.118v12.1h3.118v-7.256c0-1.314.843-1.959,2.157-1.959H777.6v-2.885h-1.458A2.3,2.3,0,0,0,773.74,139.873Zm6.784-6.82a1.9,1.9,0,1,0,1.885,1.909A1.873,1.873,0,0,0,780.524,133.053Zm-1.555,16.886h3.111v-12.1h-3.111Zm17.932-6.05a6.255,6.255,0,0,1-6.255,6.255,6.017,6.017,0,0,1-3.671-1.229v4.576h-3.111V137.839h3.111v1.024a6.017,6.017,0,0,1,3.671-1.228A6.254,6.254,0,0,1,796.9,143.889Zm-3.131,0a3.4,3.4,0,1,0-3.4,3.4A3.4,3.4,0,0,0,793.77,143.889Zm57.208-1.061-1.815-.5c-1.195-.311-1.659-.677-1.659-1.309,0-.615.654-1.045,1.59-1.045a1.461,1.461,0,0,1,1.589,1.33v.069h2.868v-.069c0-2.2-1.79-3.671-4.457-3.671-2.64,0-4.559,1.474-4.559,3.506,0,1.581,1.047,2.772,2.875,3.266l1.739.475c1.321.366,1.812.772,1.812,1.5,0,.766-.709,1.282-1.766,1.282a1.7,1.7,0,0,1-1.842-1.732v-.069h-3.044v.069c0,2.482,2,4.217,4.861,4.217,2.758,0,4.76-1.694,4.76-4.027C853.928,144.976,853.416,143.479,850.977,142.828Zm-43.039-4.989h3.111v12.1h-3.111v-1.024a6.018,6.018,0,0,1-3.671,1.229,6.255,6.255,0,1,1,0-12.509,6.018,6.018,0,0,1,3.671,1.229Zm0,6.05h0a3.4,3.4,0,1,0-3.4,3.4A3.4,3.4,0,0,0,807.938,143.889Zm14.346-10.356h3.111v16.408h-3.111v-1.024a6.017,6.017,0,0,1-3.671,1.229,6.255,6.255,0,1,1,0-12.509,6.018,6.018,0,0,1,3.671,1.229Zm0,10.356a3.4,3.4,0,1,0-3.4,3.4A3.4,3.4,0,0,0,822.284,143.889Zm17.557,6.05h3.111v-12.1h-3.111Zm1.556-16.886a1.9,1.9,0,1,0,1.885,1.909A1.873,1.873,0,0,0,841.4,133.053Zm25.98,10.836a6.255,6.255,0,1,1-6.255-6.255A6.255,6.255,0,0,1,867.376,143.889Zm-2.857,0a3.4,3.4,0,1,0-3.4,3.4A3.4,3.4,0,0,0,864.52,143.889Zm-92.373-10.356H760.212v2.775h4.418v13.631h3.1V136.308h4.418v-2.775ZM832.5,146.625l-2.768-8.786h-3.268l4.151,12.1h3.744l4.176-12.1h-3.268Zm39.43-6.752v-2.034h-3.118v12.1h3.118v-7.256c0-1.314.843-1.959,2.157-1.959H875.8v-2.885H874.34A2.3,2.3,0,0,0,871.935,139.873Z" transform="translate(-760.212 -90.219)"/>
  <ellipse id="Ellipse_449" data-name="Ellipse 449" cx="20.252" cy="20.252" rx="20.252" ry="20.252" transform="translate(37.597 0)" fill="#34e0a1"/>
  <path id="Path_4033" data-name="Path 4033" d="M120.888,194.248l2.444-2.659h-5.419a16.932,16.932,0,0,0-19.048,0H93.432l2.444,2.659a7.47,7.47,0,1,0,10.11,11l2.394,2.607,2.394-2.6a7.472,7.472,0,1,0,10.114-11ZM100.91,204.824a5.055,5.055,0,1,1,5.055-5.055A5.054,5.054,0,0,1,100.91,204.824Zm7.472-5.2c0-3.326-2.419-6.182-5.612-7.4a14.585,14.585,0,0,1,11.221,0C110.8,193.443,108.382,196.3,108.382,199.622Zm7.469,5.2a5.055,5.055,0,1,1,5.055-5.055A5.054,5.054,0,0,1,115.851,204.824Zm0-7.707a2.65,2.65,0,1,0,2.65,2.65A2.649,2.649,0,0,0,115.851,197.117Zm-12.291,2.652a2.65,2.65,0,1,1-2.65-2.65A2.649,2.649,0,0,1,103.56,199.769Z" transform="translate(-50.531 -177.948)"/>
  <ellipse id="Ellipse_451" data-name="Ellipse 451" cx="8.263" cy="8.263" rx="8.263" ry="8.263" transform="translate(0 67.188)" fill="#34e0a1"/>
  <ellipse id="Ellipse_452" data-name="Ellipse 452" cx="8.263" cy="8.263" rx="8.263" ry="8.263" transform="translate(24.794 67.188)" fill="#34e0a1"/>
  <ellipse id="Ellipse_453" data-name="Ellipse 453" cx="8.263" cy="8.263" rx="8.263" ry="8.263" transform="translate(49.585 67.188)" fill="#34e0a1"/>
  <ellipse id="Ellipse_454" data-name="Ellipse 454" cx="8.263" cy="8.263" rx="8.263" ry="8.263" transform="translate(74.377 67.188)" fill="#34e0a1"/>
  <ellipse id="Ellipse_455" data-name="Ellipse 455" cx="8.263" cy="8.263" rx="8.263" ry="8.263" transform="translate(99.171 67.188)" fill="#34e0a1"/>
</svg>
