<svg id="review-logo-facebook" xmlns="http://www.w3.org/2000/svg" width="158.785" height="50.427" viewBox="0 0 158.785 50.427">
  <path id="Path_4034" data-name="Path 4034" d="M15.338,0a15.34,15.34,0,0,0-3.706,30.225v-10.2H8.467V15.338h3.166v-2.02c0-5.221,2.362-7.638,7.485-7.638a16.957,16.957,0,0,1,3.332.38v4.246c-.362-.037-.994-.055-1.773-.055-2.515,0-3.485.951-3.485,3.43v1.657H22.2l-.859,4.687H17.2v10.54A15.339,15.339,0,0,0,15.338,0" transform="translate(0)" fill="#0866ff"/>
  <path id="Path_4035" data-name="Path 4035" d="M408.129,56.161h3.933V49.8l5.488,6.363h4.813l-6.389-7.334,5.458-6.359h-4.379l-4.99,5.861V35.39l-3.933.516Zm-9.071-14.044c-4.366,0-7.4,2.937-7.4,7.2s3.032,7.2,7.4,7.2,7.4-2.937,7.4-7.2S403.425,42.117,399.058,42.117Zm0,11.037c-2.023,0-3.409-1.564-3.409-3.842s1.386-3.842,3.409-3.842,3.409,1.564,3.409,3.842-1.386,3.842-3.409,3.842M383.074,42.117c-4.366,0-7.4,2.937-7.4,7.2s3.032,7.2,7.4,7.2,7.4-2.937,7.4-7.2S387.44,42.117,383.074,42.117Zm0,11.037c-2.023,0-3.409-1.564-3.409-3.842s1.386-3.842,3.409-3.842,3.409,1.564,3.409,3.842-1.386,3.842-3.409,3.842M368.021,42.117a5.068,5.068,0,0,0-4.271,2.023V35.39l-3.938.511V56.156H363.3l.069-2.114a5.168,5.168,0,0,0,4.648,2.465c3.734,0,6.467-3.032,6.467-7.2S371.768,42.117,368.021,42.117Zm-.931,11.037c-2.023,0-3.409-1.564-3.409-3.842s1.386-3.842,3.409-3.842,3.409,1.564,3.409,3.842-1.386,3.842-3.409,3.842m-15.161.178c-2.088,0-3.587-.97-4.1-2.642h9.69a9.315,9.315,0,0,0,.16-1.525c0-4.405-2.465-7.048-6.606-7.048a6.806,6.806,0,0,0-7.074,7.2c0,4.314,3.032,7.2,7.533,7.2a9.12,9.12,0,0,0,6.012-2.075l-1.417-2.5A7.16,7.16,0,0,1,351.928,53.332Zm-.879-8.157a2.714,2.714,0,0,1,2.98,2.816V48h-6.281a3.2,3.2,0,0,1,3.3-2.829M337.842,56.512a7.9,7.9,0,0,0,5.432-2.131l-1.538-2.586a5.8,5.8,0,0,1-3.5,1.308,3.515,3.515,0,0,1-3.639-3.786,3.515,3.515,0,0,1,3.639-3.786,5.63,5.63,0,0,1,3.205,1.079L343,43.967a7.921,7.921,0,0,0-5.164-1.845,7.2,7.2,0,1,0,0,14.39M325.336,42.468l-.069,2.131a5.152,5.152,0,0,0-4.648-2.478c-3.747,0-6.467,3.032-6.467,7.2s2.738,7.2,6.467,7.2a5.163,5.163,0,0,0,4.648-2.465l.069,2.114h3.491V42.468ZM321.55,53.155c-2.023,0-3.409-1.564-3.409-3.842s1.386-3.842,3.409-3.842,3.409,1.564,3.409,3.842-1.39,3.842-3.409,3.842m-7.693-10.661h-3.539v-1.17c0-1.75.684-2.421,2.461-2.421.55,0,1,.013,1.252.039v-3a11.959,11.959,0,0,0-2.352-.269c-3.617,0-5.285,1.707-5.285,5.393v1.425h-2.235V45.8h2.235V56.156h3.929V45.8h2.928Z" transform="translate(-263.578 -30.668)" fill="#0866ff"/>
  <path id="Path_4036" data-name="Path 4036" d="M175.374,238.251l2.443,6.941,7.356.179-5.846,4.469,2.1,7.052-6.057-4.179-6.057,4.179,2.1-7.052-5.846-4.469,7.356-.179Z" transform="translate(-143.484 -206.465)" fill="#0866ff"/>
  <path id="Path_4037" data-name="Path 4037" d="M353.4,238.251l2.443,6.941,7.356.179-5.846,4.469,2.1,7.052-6.057-4.179-6.057,4.179,2.1-7.052-5.846-4.469,7.356-.179Z" transform="translate(-297.754 -206.465)" fill="#0866ff"/>
  <path id="Path_4038" data-name="Path 4038" d="M531.417,238.251l2.444,6.941,7.356.179-5.846,4.469,2.1,7.052-6.057-4.179-6.057,4.179,2.1-7.052-5.846-4.469,7.356-.179Z" transform="translate(-452.025 -206.465)" fill="#0866ff"/>
  <path id="Path_4039" data-name="Path 4039" d="M709.439,238.251l2.444,6.941,7.356.179-5.846,4.469,2.1,7.052-6.057-4.179-6.057,4.179,2.1-7.052-5.846-4.469,7.356-.179Z" transform="translate(-606.296 -206.465)" fill="#0866ff"/>
  <path id="Path_4040" data-name="Path 4040" d="M887.461,238.251l2.444,6.941,7.356.179-5.846,4.469,2.1,7.052-6.057-4.179-6.057,4.179,2.1-7.052-5.846-4.469,7.356-.179Z" transform="translate(-760.566 -206.465)" fill="#0866ff"/>
</svg>
