<svg id="review-logo-yelp" xmlns="http://www.w3.org/2000/svg" width="106.793" height="63.997" viewBox="0 0 106.793 63.997">
  <path id="path817" d="M102.674,31.241l1.744-.4c.036-.008.1-.022.171-.045a1.887,1.887,0,0,0,1.377-2.25l-.007-.03a1.87,1.87,0,0,0-.3-.637,2.418,2.418,0,0,0-.712-.6,6.651,6.651,0,0,0-1.012-.459l-1.912-.686c-1.073-.392-2.146-.773-3.231-1.145-.7-.245-1.3-.461-1.814-.619q-.148-.04-.293-.088a5.2,5.2,0,0,0-1.436-.268,1.738,1.738,0,0,0-.724.129,1.859,1.859,0,0,0-.63.44,3.772,3.772,0,0,0-.247.305,3.572,3.572,0,0,0-.367.718,9.578,9.578,0,0,0-.524,3.2,6.046,6.046,0,0,0,.584,3.1,1.835,1.835,0,0,0,.523.557,2.255,2.255,0,0,0,1.2.33,6.191,6.191,0,0,0,1.807-.241l5.795-1.313Zm19.46-9.088a9.725,9.725,0,0,0-1.894-2.65,2.9,2.9,0,0,0-.322-.272,2.788,2.788,0,0,0-.687-.385,1.878,1.878,0,0,0-.761-.124,1.757,1.757,0,0,0-.71.2,5.182,5.182,0,0,0-1.171.859c-.066.065-.149.138-.224.206-.394.364-.834.814-1.356,1.337-.808.8-1.6,1.607-2.394,2.42L111.2,25.183a6.5,6.5,0,0,0-.7.848,2.364,2.364,0,0,0-.374.846,1.9,1.9,0,0,0,.017.7l.007.03a1.924,1.924,0,0,0,2.239,1.43q.088-.012.175-.033l7.54-1.711a6.134,6.134,0,0,0,1.732-.564,2.2,2.2,0,0,0,.933-.811,1.8,1.8,0,0,0,.221-.726,6.03,6.03,0,0,0-.852-3.04Zm-13.5,3.112a4.333,4.333,0,0,0,.594-2.5c.165-2.743.338-5.487.476-8.231a28.121,28.121,0,0,0,.1-3.113,4.506,4.506,0,0,0-.614-2.566c-.981-1.251-3.074-1.148-4.5-.953q-.661.09-1.31.242c-.434.1-.866.213-1.286.347-1.37.44-3.3,1.249-3.622,2.8a4.517,4.517,0,0,0,.588,2.571,28.5,28.5,0,0,0,1.479,2.753c1.349,2.408,2.722,4.8,4.091,7.2A4.435,4.435,0,0,0,106.28,25.8c.053.022.106.041.161.059a1.95,1.95,0,0,0,1.111.073l.066-.014a1.94,1.94,0,0,0,.892-.527c.045-.041.085-.083.126-.128Zm-.654,7.344a1.762,1.762,0,0,0-1.942-.642,1.8,1.8,0,0,0-.241.1,2.346,2.346,0,0,0-.343.21,4.485,4.485,0,0,0-.82.824,1.982,1.982,0,0,1-.189.242l-1.213,1.636c-.686.919-1.366,1.838-2.037,2.772-.44.6-.818,1.114-1.119,1.563-.056.085-.115.179-.168.256a5,5,0,0,0-.668,1.3,1.665,1.665,0,0,0-.073.732,1.842,1.842,0,0,0,.258.723c.073.11.151.217.235.32a3.678,3.678,0,0,0,.609.55,10.714,10.714,0,0,0,2.718,1.3,9.759,9.759,0,0,0,2.48.465,3.226,3.226,0,0,0,.431-.008q.2-.018.4-.055a3.826,3.826,0,0,0,.387-.11,1.882,1.882,0,0,0,.658-.413,1.677,1.677,0,0,0,.4-.617,5.031,5.031,0,0,0,.294-1.425c0-.092.018-.2.028-.3.048-.536.07-1.169.1-1.909.06-1.14.106-2.274.143-3.412l.078-2.024a4.724,4.724,0,0,0-.129-1.445,2.144,2.144,0,0,0-.277-.628Zm13.692,3.167a5.117,5.117,0,0,0-1.177-.88c-.081-.045-.178-.1-.266-.157-.471-.279-1.038-.571-1.7-.924-1.019-.55-2.037-1.084-3.067-1.614l-1.817-.946a2.081,2.081,0,0,1-.279-.136,4.587,4.587,0,0,0-1.1-.386,2.383,2.383,0,0,0-.4-.041,2.069,2.069,0,0,0-.261.015,1.732,1.732,0,0,0-1.457,1.415,2.166,2.166,0,0,0,.027.679,4.73,4.73,0,0,0,.528,1.356l.969,1.786c.541,1.007,1.087,2.008,1.648,3.006.361.65.663,1.207.944,1.669.053.087.113.18.16.261a5.214,5.214,0,0,0,.9,1.155,1.768,1.768,0,0,0,1.412.468,3.819,3.819,0,0,0,.4-.069,3.7,3.7,0,0,0,.772-.3,9.609,9.609,0,0,0,2.022-1.485,10.516,10.516,0,0,0,1.866-2.34,2.756,2.756,0,0,0,.179-.385,3.857,3.857,0,0,0,.122-.373,3.694,3.694,0,0,0,.067-.389,1.81,1.81,0,0,0-.088-.76,1.685,1.685,0,0,0-.392-.627Z" transform="translate(-16.209 -7.785)" fill="#ff1a1a"/>
  <path id="path819" d="M45.984,19.77A2.7,2.7,0,0,1,48.678,17.1a2.758,2.758,0,0,1,2.7,2.7V40.657a2.705,2.705,0,0,1-4.611,1.888,2.62,2.62,0,0,1-.779-1.888ZM43.478,32.658a2.693,2.693,0,0,1-.672,1.741,2.662,2.662,0,0,1-1.854.745q-2.89.016-5.779.021t-5.779.021a4.825,4.825,0,0,0,1.262,2.031,5.232,5.232,0,0,0,1.1.788,4.1,4.1,0,0,0,2.02.56,6.333,6.333,0,0,0,2.886-.788l.074-.038a7.193,7.193,0,0,1,1.967-.77,2.353,2.353,0,0,1,1.915.477,2,2,0,0,1,.653,2.134,4.058,4.058,0,0,1-1.873,2.175,9.342,9.342,0,0,1-1.474.683,11.309,11.309,0,0,1-4.063.623,9.187,9.187,0,0,1-1.054-.041,9.722,9.722,0,0,1-1.115-.208A8.015,8.015,0,0,1,30,42.252a9.276,9.276,0,0,1-1.537-.85,10,10,0,0,1-1.346-1.14A10.28,10.28,0,0,1,26,38.9a9.669,9.669,0,0,1-1.558-5.823,10.031,10.031,0,0,1,1.98-5.594,4.434,4.434,0,0,1,.429-.538c.063-.072.125-.14.182-.209a8.448,8.448,0,0,1,4.353-2.618l.046-.014a9.614,9.614,0,0,1,5.158,0,10.129,10.129,0,0,1,4.4,2.632,8.12,8.12,0,0,1,.611.747A9.791,9.791,0,0,1,43.223,30.8l0,.011a6.838,6.838,0,0,1,.252,1.843ZM31.119,29.24a4.655,4.655,0,0,0-1.642,2.61h9.179a4.8,4.8,0,0,0-1.663-2.611A4.856,4.856,0,0,0,34.046,28.2a4.776,4.776,0,0,0-2.928,1.035Zm34.907-5.492a8.283,8.283,0,0,0-6.148,2.778v-.063a2.686,2.686,0,0,0-5.369.146V46.52A2.615,2.615,0,0,0,55.3,48.4a2.738,2.738,0,0,0,3.819,0A2.615,2.615,0,0,0,59.9,46.52V40.3a8.323,8.323,0,0,0,6.148,2.778c4.822,0,8.738-4.29,8.738-9.636-.021-5.345-3.937-9.7-8.759-9.7Zm-1.178,15a5.283,5.283,0,1,1,4.968-5.262A5.118,5.118,0,0,1,64.848,38.75ZM20.4,34.834l-.884,1.907c-.4.828-.8,1.678-1.18,2.527l-.366.8c-1.684,3.674-3.68,8.036-8.035,8.961-2.106.457-5.285-.165-6.464-2.113A2.5,2.5,0,0,1,6.3,43.2a4.789,4.789,0,0,1,1.058.421,2.89,2.89,0,0,0,1.827.45,2.623,2.623,0,0,0,1.474-1.1,5.132,5.132,0,0,0,1.094-2.052l-.031-.071q-.015-.037-.032-.073c-.548-1-1.027-1.9-1.426-2.65q-.337-.635-.679-1.266l-.918-1.711c-.672-1.251-.785-1.458-1.082-2Q6.6,31.336,5.517,29.571c-.779-1.286-1.579-2.714-.926-4.228a2.59,2.59,0,0,1,3.158-1.449c1.355.4,1.956,1.669,2.516,2.852.1.215.2.426.305.628.905,1.761,1.789,3.523,2.673,5.284.078.175.2.413.342.7.129.259.279.56.437.891l.234.479c.091.187.171.347.23.474q.616-1.506,1.241-3t1.243-3a6.457,6.457,0,0,1,.258-.593c.125-.274.284-.624.458-1.023l.178-.422c.546-1.306,1.2-2.878,2.665-3.307a2.624,2.624,0,0,1,2.843.974,2.57,2.57,0,0,1,.462,1.43,8.179,8.179,0,0,1-.989,3.292c-.112.248-.221.484-.315.707l-.056.121c-.129.285-.479,1.055-1.082,2.324-.217.454-.426.91-.637,1.371Z" transform="translate(-3.096 -9.146)" fill-rule="evenodd"/>
  <path id="Path_4027" data-name="Path 4027" d="M18.41,0H1.79A1.79,1.79,0,0,0,0,1.79V18.41A1.79,1.79,0,0,0,1.79,20.2H18.41a1.79,1.79,0,0,0,1.79-1.79V1.79A1.79,1.79,0,0,0,18.41,0M14.173,15.706,10.1,13.565,6.027,15.706,6.8,11.171l-3.3-3.212L8.063,7.3,10.1,3.17,12.136,7.3l4.554.662-3.3,3.212Z" transform="translate(0 43.798)" fill="#ff1a1a"/>
  <path id="Path_4028" data-name="Path 4028" d="M103.077,0H86.457a1.79,1.79,0,0,0-1.79,1.79V18.41a1.79,1.79,0,0,0,1.79,1.79h16.62a1.79,1.79,0,0,0,1.79-1.79V1.79A1.79,1.79,0,0,0,103.077,0M98.84,15.706l-4.073-2.141-4.073,2.141.778-4.535-3.3-3.212L92.73,7.3,94.767,3.17,96.8,7.3l4.554.662-3.3,3.212Z" transform="translate(-63.019 43.798)" fill="#ff1a1a"/>
  <path id="Path_4029" data-name="Path 4029" d="M187.743,0h-16.62a1.79,1.79,0,0,0-1.79,1.79V18.41a1.79,1.79,0,0,0,1.79,1.79h16.62a1.79,1.79,0,0,0,1.79-1.79V1.79A1.79,1.79,0,0,0,187.743,0m-4.237,15.706-4.073-2.141-4.073,2.141.778-4.535-3.3-3.212L177.4,7.3l2.037-4.126L181.469,7.3l4.554.662-3.3,3.212Z" transform="translate(-126.036 43.798)" fill="#ff1a1a"/>
  <path id="Path_4030" data-name="Path 4030" d="M272.41,0H255.79A1.79,1.79,0,0,0,254,1.79V18.41a1.79,1.79,0,0,0,1.79,1.79h16.62a1.79,1.79,0,0,0,1.79-1.79V1.79A1.79,1.79,0,0,0,272.41,0m-4.237,15.706L264.1,13.565l-4.073,2.141.778-4.535-3.3-3.212,4.554-.662L264.1,3.17,266.136,7.3l4.554.662-3.3,3.212Z" transform="translate(-189.055 43.798)" fill="#ff1a1a"/>
  <path id="Path_4031" data-name="Path 4031" d="M357.077,0h-16.62a1.79,1.79,0,0,0-1.79,1.79V18.41a1.79,1.79,0,0,0,1.79,1.79h16.62a1.79,1.79,0,0,0,1.79-1.79V1.79A1.79,1.79,0,0,0,357.077,0M352.84,15.706l-4.073-2.141-4.073,2.141.778-4.535-3.3-3.212L346.73,7.3l2.037-4.126L350.8,7.3l4.554.662-3.3,3.212Z" transform="translate(-252.074 43.798)" fill="#ff1a1a"/>
</svg>
