<svg xmlns="http://www.w3.org/2000/svg" width="45.589" height="47.577" viewBox="0 0 45.589 47.577">
  <g id="rms-icon-increases-loyalty" transform="translate(-665 -433.999)">
    <path id="Path_3764" data-name="Path 3764" d="M44.208,26.164A21.413,21.413,0,1,0,22.8,47.577,21.413,21.413,0,0,0,44.208,26.164" transform="translate(665 434)" fill="#fe0056"/>
    <circle id="Ellipse_425" data-name="Ellipse 425" cx="21.413" cy="21.413" r="21.413" transform="translate(666.382 435.381)" fill="none" stroke="#23314c" stroke-linecap="round" stroke-linejoin="round" stroke-width="2.763"/>
    <path id="Path_3765" data-name="Path 3765" d="M31.272,25.144l-7.564,7.563L22.517,33.9l-1.193-1.192L13.76,25.144a6.191,6.191,0,0,1,8.757-8.755,6.191,6.191,0,0,1,8.755,8.755" transform="translate(665 434)" fill="#fff"/>
    <path id="Path_3766" data-name="Path 3766" d="M31.272,25.144l-7.564,7.563L22.517,33.9l-1.193-1.192L13.76,25.144a6.191,6.191,0,0,1,8.757-8.755,6.191,6.191,0,0,1,8.755,8.755Z" transform="translate(665 434)" fill="none" stroke="#23314c" stroke-linecap="round" stroke-linejoin="round" stroke-width="2.763"/>
  </g>
</svg>
