<svg width="455" height="76" viewBox="0 0 455 76" fill="none" xmlns="http://www.w3.org/2000/svg">
<g clip-path="url(#clip0_3792_338)">
<path d="M140.538 71.2913C139.954 71.4868 139.418 71.8026 138.964 72.2183C138.684 72.5231 137.246 72.8407 137.471 72.6298C137.695 72.4189 138.398 71.8278 138.535 71.6874C138.672 71.547 137.853 71.2299 137.711 71.0122L137.493 70.9159L136.971 70.6767C136.638 70.3513 136.251 69.9717 136.11 69.8501C135.969 69.7285 135.294 70.1541 135.107 70.3503L135.119 70.5431L135.121 70.6531C135.13 70.9695 135.018 71.2773 134.808 71.5137C134.571 71.8488 134.519 72.801 134.424 72.8306C134.243 72.8523 134.059 72.8116 133.904 72.7154C133.802 72.6171 133.257 72.2573 133.021 72.1102C132.786 71.9632 133.868 71.5857 133.996 71.4595C134.124 71.3333 134.111 71.1124 133.699 71.2855C133.286 71.4585 132.069 70.9961 131.802 71.0557C131.535 71.1152 131.847 71.6481 131.953 71.8113L131.999 71.9756L132.037 72.154C132.023 72.3193 131.441 72.4262 130.74 72.3551L130.17 72.3928L130.07 72.3945C129.977 72.7822 129.787 73.0475 129.623 72.9953C129.122 72.9436 128.616 72.9708 128.123 73.0758L128.106 73.0481L127.8 72.7081C128.326 72.6442 128.703 72.4717 128.632 72.3359C128.561 72.2001 128.037 71.8909 127.721 72.1173C127.128 72.4809 126.474 72.7349 125.79 72.8674C125.315 72.8754 124.019 72.8695 124.01 72.8426C124.186 72.7518 124.381 72.7058 124.578 72.7089C124.898 72.6755 125.826 72.4116 125.822 72.1776C125.818 71.9436 127.152 71.6549 127.402 71.6266C127.776 71.5731 128.141 71.4659 128.485 71.3081L128.449 71.2537C128.356 71.1503 128.229 71.0839 128.091 71.0667C126.812 71.3813 125.503 71.5562 124.186 71.5882L123.253 71.5761C122.89 71.918 122.479 72.2038 122.032 72.4241C121.808 72.5109 121.3 72.1194 121.187 72.0663C120.889 71.96 120.585 71.873 120.276 71.8058C120.024 71.741 119.424 71.5031 119.569 71.4177C119.852 71.2865 120.162 71.2246 120.473 71.2372L120.534 71.3192L120.862 71.7548C121.39 71.7039 121.914 71.6168 122.43 71.4941C122.529 71.4345 122.616 71.3555 122.684 71.2619C122.752 71.1683 122.801 71.0619 122.827 70.9492C122.824 70.7842 121.808 70.5113 121.472 70.4891L121.453 70.4203C121.138 69.5254 120.255 70.0546 120.096 70.3604C119.805 70.9165 118.828 70.9751 118.237 71.2923L117.706 71.5634C117.366 71.9143 117.014 72.0443 116.925 71.8767L116.879 71.7125L116.796 71.4138C116.162 71.2595 115.225 70.9994 114.695 70.8293L114.606 70.6238C114.364 70.1037 113.759 70.1 112.982 70.1132C112.645 70.119 112.244 69.8917 111.978 69.9372C111.713 69.9828 111.595 70.2609 111.373 70.4027L111.296 70.459C111.003 70.492 110.987 70.5883 111.274 70.6804C111.561 70.7726 112.094 71.1216 111.854 71.2497C111.614 71.3778 109.848 70.9387 110.045 70.7803L110.143 70.6266C110.429 70.1806 110.019 69.9285 109.167 70.1191C108.495 70.2685 108.309 69.9546 107.893 69.9337L107.375 69.9015C106.507 69.9721 105.644 70.0869 104.789 70.2455L104.337 70.1012L103.781 69.9316C103.272 69.9812 102.505 70.0913 102.075 70.1816C101.318 70.1898 100.561 70.1242 99.8168 69.9859C99.4791 69.9507 98.6423 70.0339 98.228 70.027C97.5313 69.9638 96.829 70.0129 96.1479 70.1724C95.351 70.4827 94.4703 70.5026 93.6601 70.2286L92.7207 70.3967L92.0744 70.5077C91.3915 70.4643 90.3197 70.4375 89.68 70.4654C88.6089 70.5528 87.5429 70.6951 86.4863 70.8918C85.7374 71.0285 83.3833 70.7655 82.4686 70.86L81.5477 70.5856L80.8702 70.3901C79.6642 70.5896 78.4923 70.7886 78.251 70.8347C78.0097 70.8808 77.016 70.8557 76.428 70.8657C75.7051 70.9393 74.9784 70.97 74.2519 70.9577C74.1726 70.8835 74.0752 70.8314 73.9695 70.8065C73.8638 70.7816 73.7534 70.7849 73.6493 70.8159C73.2674 70.9771 72.8431 71.0086 72.4415 70.9054L72.1716 70.8L71.9895 70.7341C71.7483 70.71 71.505 70.7486 71.2832 70.8461C71.0362 70.9815 70.7541 71.0393 70.4737 71.0119C70.1226 70.9834 69.7694 71.0317 69.4388 71.1535C68.8578 71.2718 68.271 71.3599 67.6808 71.4175L66.9702 71.2775C66.6058 71.2007 66.2592 71.1106 65.9035 71.0196C65.4354 70.9035 65.0489 70.524 64.4334 70.9206C64.2557 70.9437 64.075 70.9202 63.9091 70.8524C63.2281 70.4499 62.907 70.3313 62.2108 70.9813L61.7519 71.4033C61.3974 70.9091 60.995 70.6029 60.85 70.7184C60.7049 70.8339 60.1653 71.1021 60.0329 70.9663C59.746 70.7397 59.4172 70.5719 59.0653 70.4727C58.6198 70.5653 58.1988 70.751 57.8302 71.0178C57.6513 71.1449 57.0078 70.9488 56.9144 71.0474C56.8211 71.146 56.6408 71.1901 56.6966 70.9411C56.7523 70.692 55.5764 71.1251 55.4996 71.1404L55.4218 71.1558C54.6472 71.307 54.6158 70.5213 53.6533 70.7997L53.1456 70.9464C52.4284 70.9446 51.6589 70.9307 51.4517 70.9202C51.2444 70.9097 50.4859 71.0056 49.9931 71.028C49.5003 71.0504 48.0543 70.8399 47.7929 71.0514L47.4577 71.1671L47.2689 71.2394C46.8083 71.1613 46.3572 71.0349 45.9231 70.8621C45.5495 70.7164 43.6276 71.1632 43.437 71.0144C43.2464 70.8656 42.4804 70.6446 42.25 70.8005C42.0196 70.9565 41.1472 70.6542 41.0133 70.7215L40.9025 70.7924C40.7572 70.8949 40.6222 71.0733 40.5009 71.0613C40.0777 71.0545 39.347 71.26 39.3902 70.8041L39.4051 70.6798C39.9125 70.5192 40.1337 70.3504 39.8983 70.2713C39.5194 70.1785 39.1224 70.1901 38.7496 70.3049C38.5789 70.4458 37.8161 70.8209 37.8189 70.4587L37.7901 70.2962C37.7588 70.2049 37.6962 70.1277 37.6134 70.0781L37.1991 70.1262C36.7418 70.175 36.454 70.0148 36.5615 69.7509L35.8204 69.8735L35.6826 69.8899C35.3252 69.9767 34.9525 69.9782 34.5944 69.8944C33.657 69.821 32.7161 69.8036 31.7767 69.8423C31.2499 69.8652 29.5756 69.4655 29.1441 69.5009C28.7126 69.5362 27.5577 69.6799 27.38 69.4068C27.2023 69.1338 18.272 69.0925 18.1475 69.1227L18.1303 69.109L17.4524 68.3623C16.2755 68.2722 15.2194 68.1662 15.1069 68.1401C14.9945 68.114 14.4675 68.1229 14.0442 68.1171C13.621 68.1113 11.9032 68.2085 11.1459 68.2664L10.987 67.5689C10.9686 67.4862 10.6723 67.3532 10.6128 67.3822L10.175 67.5827C9.81477 67.4778 9.47411 67.3147 9.16654 67.0997C8.80952 66.9289 8.43912 66.7877 8.05904 66.6774C7.73364 66.5702 7.39673 66.5017 7.05528 66.4734C6.96119 66.4828 6.8663 66.4668 6.78048 66.4271C6.69466 66.3874 6.62104 66.3255 6.56731 66.2476L6.42423 66.128C6.27163 66.058 6.09756 66.0509 5.93976 66.1083C5.49796 66.2702 5.03221 66.3573 4.56173 66.3658C3.80221 66.4067 4.16921 66.1654 4.20776 65.9026C4.23118 65.7502 3.75337 65.5933 4.35644 65.528C4.62752 65.4836 4.89293 65.4097 5.14792 65.3075C5.44005 65.1925 5.38616 65.0824 5.16712 64.9071L4.92207 64.7322C5.16127 64.5631 5.62157 64.2201 5.95443 63.9704C6.28728 63.7207 6.67774 62.7998 6.3048 62.7511L6.03728 62.7837L5.71776 62.8171C5.33909 62.9168 4.93963 62.9045 4.56782 62.7816C4.26548 62.6487 4.3222 61.5725 4.4277 61.1295C4.5615 60.6067 4.65942 60.0753 4.72076 59.5391C4.46871 59.6278 4.24048 59.7734 4.0538 59.9645L3.68376 59.5567L3.49924 59.3528C3.61353 59.067 3.76906 58.7995 3.96088 58.5587L3.62177 58.4405L3.44784 58.3884C3.03564 58.5604 2.79394 58.5235 2.90214 58.2976L2.92509 58.1182L2.97659 57.6172C2.71689 57.2163 2.51204 56.7824 2.36749 56.3272C2.41197 56.0797 2.51517 55.8466 2.66844 55.6473C2.8217 55.448 3.02055 55.2884 3.24828 55.1819C3.798 54.9795 3.76979 53.8496 3.36519 53.9385L3.13477 54.0945L2.89535 54.2506C2.6127 54.3934 2.05565 54.1648 1.65121 53.7336L1.85212 53.3721C1.91925 53.2609 1.90767 53.109 1.98404 53.0117C2.17958 52.7463 2.40737 52.4944 2.61915 52.2427C2.85622 51.9486 3.15247 52.6057 3.43067 52.2009L3.5068 52.0896C3.84287 52.0288 3.80376 51.9055 3.41611 51.815L3.39724 51.7053C3.36844 51.5408 3.55468 51.3165 3.70787 51.1489C3.79246 51.0644 4.0347 51.0743 4.17153 51.003C4.49649 50.8184 4.58282 50.3068 4.2584 50.2293C4.11498 50.2156 3.97757 50.1649 3.85957 50.0822C3.74158 49.9995 3.64704 49.8877 3.58519 49.7576C2.75549 49.6504 1.91859 49.6095 1.08239 49.6351C1.00874 49.5983 1.01663 49.4151 1.10266 49.2386C1.18868 49.0621 1.39819 48.3233 1.51699 48.7214L1.64488 48.5952C1.70884 48.7571 1.74099 48.9297 1.73955 49.1037L1.78322 49.6131C1.85129 49.3754 1.87054 49.1263 1.83979 48.881L1.84527 48.6738C1.84326 48.0257 1.84917 47.3734 1.86446 46.7429L1.87112 46.6048L1.96602 46.3031L2.05876 45.8744C2.09352 45.8598 2.19506 45.772 2.20317 45.7199L2.26609 45.3607C2.28168 45.2774 2.34854 45.6214 2.37148 45.676C2.39441 45.7306 2.43382 45.813 2.43837 45.5508C2.44291 45.2887 2.47847 44.85 2.52922 45.0111C2.57998 45.1723 2.67318 44.8296 2.66324 44.7748C2.65053 44.6554 2.6542 44.5349 2.67416 44.4165L2.69186 44.4572C2.7542 44.5942 2.82411 45.1172 2.82681 44.2759L2.82657 44.2619L2.92844 44.3702C2.96462 44.4386 3.07216 44.1747 3.10593 44.1601C3.13969 44.1455 3.24462 44.1987 3.29662 44.1979C3.38023 44.002 3.41107 43.7877 3.38608 43.5762C3.30872 43.247 3.26943 42.91 3.26898 42.5719C3.28912 42.2264 3.07349 41.2518 3.09078 41.2095C3.11588 41.0212 3.10687 40.8299 3.06417 40.6448L3.05315 39.9968C3.00092 39.9837 2.93881 39.8607 2.91046 39.7231L2.89088 39.5714L2.8332 39.2383C2.84364 38.852 2.84186 38.2179 2.80906 37.8183L2.78574 37.4466L2.78363 37.3226C2.79004 37.1704 2.83352 37.1977 2.8968 37.3897C2.96008 37.5817 3.11022 37.234 3.10904 37.165C3.11181 37.0256 3.09497 36.8865 3.05901 36.7517L3.04294 36.807L3.01005 36.9316C2.96063 37.0845 2.93463 37.085 2.94105 36.9328L2.94747 36.7807L2.95388 36.6285C2.95984 36.4493 2.94895 36.3385 2.94043 36.3667C2.93558 36.375 2.92891 36.3822 2.92093 36.3877C2.91295 36.3932 2.90385 36.3968 2.89429 36.3983C2.88473 36.3998 2.87495 36.3991 2.86568 36.3964C2.8564 36.3936 2.84785 36.3888 2.84067 36.3824C2.82907 35.9919 2.83712 35.6012 2.86478 35.2116L2.94108 35.1103L2.97466 35.0267L2.94744 34.1899C3.05087 33.9351 3.10202 33.6621 3.09784 33.3871C3.06097 33.2777 2.94353 33.4308 2.92484 33.3901C2.90614 33.3494 2.75545 33.0758 2.63875 32.8018L2.51986 32.9278C2.4688 32.9837 2.46575 32.8047 2.44454 32.557L2.42098 32.1713C2.38995 32.4059 2.32706 32.531 2.27867 32.4498C2.17801 32.2438 2.09892 32.0279 2.04265 31.8056L2.04218 31.7776L2.07979 31.4599C2.0484 31.1433 2.00925 30.8409 1.99889 30.761C1.98853 30.6812 1.94408 30.5969 1.93771 30.6931L1.92189 30.7623L1.90659 30.8626C1.87536 30.966 1.83662 31.067 1.79069 31.1647C1.75739 31.2653 1.63067 31.4015 1.6118 31.2918C1.57191 31.0367 1.55579 30.7784 1.56367 30.5204C1.57739 30.3271 1.72978 30.6416 1.78202 30.6547L1.7875 30.4475C1.79557 30.2078 1.77976 29.9678 1.74031 29.7311L1.48014 29.6665C1.51026 29.0508 1.49978 28.4338 1.44874 27.8195C1.40504 27.7793 1.356 28.2482 1.34306 28.1934L1.29608 27.9602C1.29585 27.9462 1.26611 27.7266 1.25359 27.5198C1.24781 27.164 1.26046 26.8082 1.29148 26.4538L1.28868 26.2888L1.29509 26.1367C1.28329 25.9718 1.25516 25.8473 1.2304 25.8617L1.21388 25.89L1.19735 25.9183C1.17205 25.9597 1.15388 25.891 1.14301 25.7811L1.15131 25.74C1.18138 25.4494 6.85633 25.4089 6.85633 25.4089C7.29029 24.9874 7.23455 24.7683 6.73583 24.9108L6.45131 24.9437L5.91578 24.9808C5.30231 24.9632 4.76374 24.8213 4.7177 24.6431L4.73235 24.5048L4.82225 23.2029C4.31866 22.8187 3.79328 22.4639 3.24874 22.1403L3.21257 22.0719L3.06087 21.7984C3.07636 21.3729 2.96474 20.9523 2.74025 20.5905L2.42755 20.4958C1.63734 20.2611 1.64706 19.8329 1.67387 19.3503L1.68782 19.171C1.6732 18.8401 1.27361 18.6949 0.782434 18.8693L1.09518 18.4368C1.38238 18.0318 0.855375 18.0408 0.68557 17.8786C0.641635 17.8244 0.35724 18.3944 0.193332 17.873L0.168295 17.8124C0.416187 17.6842 0.664317 17.5699 0.716841 17.541C0.769365 17.5121 0.614344 17.1016 0.249068 16.6797L0.370857 16.1945C0.403749 16.0699 0.513641 15.944 0.494533 15.8203L0.469204 15.6837C0.366858 15.5474 0.387226 15.451 0.525923 15.4897C0.883734 15.5001 1.23766 15.4132 1.54995 15.2382C1.80566 15.0408 1.41348 14.3302 1.59354 14.2722L1.64602 14.2993C2.13564 14.622 2.55982 14.6839 2.97508 14.2217L3.33152 13.8295C3.73621 14.0987 4.08108 14.2029 4.1215 14.0501C4.44341 13.6471 4.8869 13.3589 5.3859 13.2284L5.82061 13.9102L6.05148 14.2514C6.64491 13.8552 7.03229 13.5175 6.91059 13.4786C6.78889 13.4396 6.48431 13.2928 6.51649 13.1852L6.55173 13.1986C6.84104 13.1961 7.13017 13.2142 7.4169 13.2529L7.55514 13.2646C7.62804 13.2811 7.70428 13.2748 7.77344 13.2464C7.8426 13.218 7.90131 13.1689 7.94155 13.1059C8.00868 12.9948 8.50186 13.0554 8.53945 12.9717C8.57704 12.8881 8.86182 12.6352 8.9594 12.7855C9.02063 12.8463 9.09423 12.8931 9.17519 12.9229C9.25615 12.9526 9.34257 12.9645 9.42856 12.9578C9.51455 12.9512 9.59809 12.926 9.67349 12.8841C9.74888 12.8423 9.81436 12.7846 9.86547 12.7151L10.0811 12.5134L10.1914 12.4115C10.5395 12.3967 10.887 12.4517 11.2134 12.5732C11.5353 12.6777 12.6789 12.3962 12.9132 12.5303C13.1476 12.6643 13.8202 12.929 14.0711 12.5656L14.2829 12.3139L14.4859 12.0764C14.8663 12.04 15.2501 12.0854 15.6115 12.2093C15.8292 12.3057 16.261 11.8122 16.521 11.8078C16.9007 11.8357 17.2759 11.9079 17.6389 12.0228C17.7401 12.0901 18.195 12.1924 18.2945 11.9837C21.1249 11.6044 23.9736 11.3763 26.8283 11.3004C27.3285 11.3353 27.8311 11.2988 28.3209 11.192C28.5957 11.1183 29.4033 11.3117 29.5403 11.2543L29.5562 11.185L29.6212 10.9499C30.2742 11.0488 30.9201 11.1898 31.5549 11.3721L31.6439 10.7224L31.652 10.6673C31.8063 10.6236 32.5304 10.5003 33.2627 10.3918C33.9951 10.2833 36.4445 10.5028 37.0833 10.4789L37.5427 10.5541C38.0191 10.6291 38.336 10.9678 38.3524 10.4023C38.3515 10.3473 38.8936 10.2281 38.9108 10.2408C39.1551 10.3827 39.4341 10.4539 39.7165 10.4467C39.999 10.4394 40.2739 10.3539 40.5106 10.1996C41.0222 9.81878 41.7572 10.3304 42.3073 9.97599L42.5209 9.83431C43.424 9.99801 44.2628 10.1498 44.3933 10.1746C44.855 10.0809 45.3005 9.92002 45.7155 9.69698C46.2036 9.45462 47.9043 9.88084 47.9908 9.85136L47.9904 9.82836L47.9352 9.16711C48.8464 9.29285 49.7736 9.23492 50.6621 8.99671L51.258 9.51073L51.5564 9.76774C52.1536 9.59254 52.9669 9.35765 53.3362 9.25434L53.7243 9.19273L53.845 9.17667C54.1636 9.1424 54.4845 9.13694 54.804 9.16037C55.2105 9.18147 56.6266 9.10138 57.0415 9.15034C57.4565 9.1993 58.5148 8.90423 58.6199 8.97146C58.7251 9.03869 59.1681 9.21021 59.2617 9.1256L59.3603 9.0409L59.4589 8.9562C59.5875 8.87099 59.7332 8.85151 59.7694 8.92291C59.871 9.05323 59.996 9.16341 60.1381 9.24774L60.2378 9.23204L60.987 9.10927C61.6009 9.05281 62.2109 8.9596 62.8137 8.83015L62.9248 8.77324L63.6858 8.29117C64.2723 8.72233 64.8727 8.97119 65.0254 8.83356C65.1781 8.69592 65.6579 8.4367 65.806 8.5032C65.9542 8.5697 66.2778 8.30212 66.2859 7.77783L67.3971 8.42113L67.5992 8.54173C68.1397 8.47233 68.6842 8.43968 69.229 8.44401C69.5663 8.45228 70.3371 8.5492 70.3606 8.39676C70.384 8.24432 71.5145 8.19809 71.6986 8.319C71.8827 8.43991 72.1812 8.22777 72.147 7.74621L73.3666 8.34566C73.7714 8.29841 74.1687 8.20024 74.5489 8.05348L74.764 7.99481C74.9701 7.93629 75.848 7.74231 76.7097 7.58963C77.8157 7.61769 78.9133 7.789 79.9753 8.09927C80.1563 8.0962 81.2176 7.97813 81.9502 7.88665C83.2737 7.81214 84.6002 7.80795 85.9242 7.87411L86.1551 7.74615L86.7036 7.47474C87.2111 7.62087 87.7302 7.72282 88.2552 7.77946L88.5835 7.78789L89.1835 7.77769C89.7939 7.61527 90.5508 7.42335 90.8611 7.37706C91.1715 7.33077 92.7423 7.23505 93.5803 7.2208L94.5653 7.20406C94.8061 7.13094 95.0308 7.16813 95.077 7.29539C95.1231 7.42264 96.0281 7.34824 96.1475 7.24918C96.2668 7.15012 96.8246 6.94759 97.0255 7.0552C97.4011 7.21471 97.8108 7.27723 98.2169 7.23701C98.8987 7.0595 99.5926 6.93236 100.293 6.85661L100.486 7.01838C100.907 7.35633 101.38 6.67208 101.844 7.10533L102.047 7.29493C102.574 7.10407 103.136 7.03333 103.694 7.08788C103.895 7.16748 104.511 7.36408 104.561 7.26619C104.612 7.16831 104.877 6.98475 105.006 7.01056C105.135 7.03637 105.567 7.00102 105.668 6.84725C105.77 6.69349 107.438 6.74815 108.42 6.62142L109.504 6.81006C110.534 7.00763 111.598 6.93755 112.593 6.6065L113.09 6.405C113.747 6.44533 114.397 6.55429 115.031 6.7301C115.195 6.78245 115.369 6.79445 115.539 6.7651C115.708 6.73575 115.868 6.6659 116.005 6.56151C116.285 6.30866 117.615 6.74119 117.706 6.64261C117.798 6.54403 118.159 6.28982 118.213 6.45494C118.231 6.51023 118.263 6.56008 118.305 6.59981C118.348 6.63955 118.399 6.66786 118.456 6.6821C118.512 6.69634 118.571 6.69604 118.627 6.68122C118.683 6.66641 118.735 6.63757 118.777 6.5974C118.989 6.37273 120.541 6.69145 121.177 6.5846L121.939 6.65468L122.934 6.7478C123.693 6.52904 124.48 6.41803 125.27 6.418C125.349 6.51668 125.681 6.7111 125.773 6.6025C125.984 6.39896 126.248 6.26041 126.536 6.20343L126.622 6.24297L127.337 6.61693C128.278 6.55992 129.565 6.52404 130.187 6.55448C131.194 6.4744 132.208 6.49404 133.211 6.61309L133.741 6.20398C133.825 6.13352 134.494 6.31521 134.892 6.30845L136.057 6.27462C137.344 6.22475 139.13 6.08435 140.035 5.97293L140.725 6.40234L140.857 6.50013C141.353 6.43416 141.854 6.40093 142.354 6.40064C142.734 6.39418 143.657 6.51654 143.701 6.37774C144.276 6.25336 144.876 6.32559 145.405 6.58284L146.074 6.22639L146.288 6.11271C146.889 6.18551 147.612 6.25524 147.88 6.2787C148.147 6.30216 149.152 6.36711 149.523 6.3608L149.851 6.36923C150.101 6.37875 150.352 6.37449 150.602 6.35646C150.861 6.32406 151.083 6.19623 151.342 6.16483L151.497 6.1482C151.79 6.21076 152.094 6.21038 152.387 6.14707C152.941 6.14112 153.49 6.24926 154 6.46475L153.974 5.95504C154.686 6.01791 155.392 6.13024 156.089 6.2912L156.91 6.30524L157.558 6.30823C158.281 6.11688 159.003 5.91156 159.166 5.86677C159.556 5.89768 159.921 6.06923 160.194 6.34945L160.97 6.18421C161.394 6.06962 161.837 6.04809 162.269 6.12111C162.916 6.55124 163.12 5.83057 163.71 6.01359L164.231 6.16979C164.932 6.18332 165.631 6.24059 166.324 6.34126L166.453 6.27005L167.232 5.84268C167.822 6.02794 168.442 6.10154 169.059 6.05969C169.222 5.9739 169.85 5.81218 170.017 5.94339L170.725 6.44149C170.76 6.44089 171.259 6.29438 171.706 6.16274C172.679 6.02982 173.662 5.99467 174.642 6.05782C175.243 6.10262 176.852 5.99223 177.322 6.11229C177.791 6.23235 178.975 5.7941 179.392 5.93905L179.401 5.9249L180.527 5.07852C181.649 5.36044 182.789 5.56697 183.938 5.69672C184.301 5.69054 184.991 5.6098 184.952 5.84453C184.913 6.07926 186.34 5.61388 186.7 5.52473C187.179 5.45571 187.665 5.45688 188.144 5.5282C188.421 5.5645 189.118 5.4286 189.189 5.51043C189.259 5.59226 189.583 5.80382 189.71 5.70863C190.215 5.48251 190.759 5.36063 191.312 5.35031L191.842 5.50635L193.419 5.82462L193.78 5.66645C194.252 5.46538 194.699 5.36074 194.787 5.44227C195.144 5.63786 195.517 5.80221 195.902 5.93346L196.742 5.49206L196.827 5.4356C197.102 5.44727 197.373 5.50312 197.63 5.601C198.488 5.68618 199.353 5.62955 200.193 5.4334L200.261 5.39122L200.586 5.19265C200.683 5.21085 200.775 5.24895 200.857 5.30455C200.938 5.36014 201.008 5.43203 201.06 5.51569C201.113 5.59935 201.147 5.69297 201.162 5.79067C201.177 5.88838 201.171 5.98804 201.145 6.0834L202.21 5.69319L203.017 5.40339C202.963 5.76241 202.982 5.85912 203.055 5.59579C203.129 5.33247 204.31 5.72651 204.38 5.71132C204.449 5.69613 204.966 5.64634 205.406 5.58384C206.254 5.61864 207.099 5.71493 207.933 5.87197C208.376 5.93347 209.458 5.59798 209.624 5.67819C209.789 5.7584 210.251 5.99862 210.285 6.01204C210.443 5.96686 210.593 5.89929 210.731 5.8114C211.179 5.66696 211.652 5.61669 212.12 5.66376L212.448 5.67218C212.639 5.68295 212.972 5.48422 213.025 5.51034L213.583 5.79094C214.338 5.64304 215.115 5.63934 215.872 5.78002L216.513 5.89316L216.773 5.94376C217.087 5.93913 217.399 5.88246 217.695 5.77605C217.874 5.68997 218.669 5.65946 218.918 5.56219C219.788 5.54795 220.658 5.59299 221.521 5.69699L222.248 5.72565L222.862 5.74323C223.324 5.8507 223.802 5.87073 224.271 5.80229C224.711 5.63881 225.182 5.57445 225.65 5.6138L226.041 5.71719C226.458 5.82013 226.8 6.17342 226.816 5.59398C226.966 5.56247 227.12 5.55044 227.274 5.55819C228.213 5.64928 229.158 5.67933 230.101 5.64817L230.8 5.58127C231.223 5.69393 231.651 5.78348 232.083 5.84954C232.494 5.8306 232.903 5.7869 233.308 5.71868C234.443 5.68706 235.579 5.73695 236.707 5.86797C237.675 5.78304 238.634 5.6192 239.575 5.37807C240.41 5.36765 241.241 5.27951 242.059 5.11478C242.593 4.95367 243.821 5.58498 243.968 5.56548C244.114 5.54598 244.886 5.23277 245.218 5.47519L245.565 5.51031C245.929 5.55914 246.434 5.28849 246.763 5.35191L247.439 5.46445C247.776 5.24271 248.163 5.10826 248.565 5.07321L248.73 5.13942L249.043 5.25813C249.163 5.34012 249.299 5.39591 249.443 5.4219C249.586 5.4479 249.733 5.44352 249.875 5.40904C250.046 5.3061 250.502 5.19131 250.53 5.34289C250.557 5.49446 251.604 5.50368 251.775 5.39074C252.102 5.21592 252.482 5.16541 252.844 5.24853C253.083 5.45352 253.355 5.61787 253.647 5.73502L253.69 5.69329C254.189 5.09162 254.975 5.58841 255.623 5.55039L255.923 5.54529C256.312 5.45074 256.712 5.40696 257.113 5.41503C257.485 5.44165 257.855 5.49047 258.222 5.56123C258.577 5.65521 260.102 5.37722 260.752 5.4902L261.476 5.37786C261.876 5.31606 262.421 5.55486 262.801 5.47938L263.438 5.35852C264.078 5.43066 265.056 5.52407 265.618 5.54251L266.145 5.49255L267.05 5.39413C268.078 5.33566 269.062 5.27691 269.226 5.27413C269.574 5.33197 269.904 5.46795 270.192 5.67182C270.455 5.87442 271.581 5.54818 271.773 5.64495C271.965 5.74172 272.578 5.90735 272.7 5.82224L272.673 5.76768C272.601 5.58985 272.32 5.27354 272.365 5.26278L272.962 5.08758C273.075 5.32974 273.267 5.52591 273.507 5.64347C273.773 5.64763 274.037 5.59612 274.282 5.49226C274.567 5.35769 274.884 5.30918 275.196 5.35269C275.388 5.44946 275.896 5.36879 275.933 4.96805L276.878 5.22806L276.904 5.22762C276.761 5.43712 277.143 5.55466 277.755 5.48923C278.367 5.42381 279.835 5.88099 279.961 5.80983L279.96 5.73283L279.926 5.27828C280.364 5.32505 280.795 5.42418 281.209 5.57355C281.349 5.6712 281.827 5.82513 281.868 5.6864C281.908 5.54767 282.319 5.32061 282.703 5.49315C283.502 5.54096 284.304 5.49947 285.094 5.36947C285.668 5.41297 286.229 5.55752 286.752 5.79642C287.232 5.83029 287.713 5.75119 288.156 5.56549C288.31 5.45283 289.146 5.3416 289.43 5.7509L290.257 5.6128C291.127 5.47398 289.705 5.16705 290.348 5.1111L290.996 5.05909C291.739 5.06046 293.511 5.07135 294.918 5.06143L296.205 5.05355C296.853 5.04253 297.492 5.03167 298.14 5.04866L298.677 5.05354C299.365 5.09326 300.054 4.97904 300.693 4.71919L301.279 5.16434L301.621 5.42061C301.741 5.09604 301.976 4.82709 302.282 4.66516L302.553 4.8536L302.991 5.14626C303.516 5.0543 304.274 4.93138 304.679 4.86948C305.378 4.79281 306.071 4.67514 306.756 4.51708C307.411 4.53669 308.063 4.61804 308.704 4.76005C309.33 4.81406 309.959 4.83109 310.588 4.81104C311.133 4.67443 311.685 4.5682 312.241 4.49285L312.671 4.34751L313.466 4.05791C313.818 4.38303 314.131 4.54676 314.163 4.41816C314.28 4.26936 314.436 4.15564 314.613 4.08945C314.79 4.02327 314.982 4.00719 315.168 4.04298C316.002 4.22109 316.847 4.34506 317.697 4.4141C318.173 4.42003 319.858 3.92225 320.774 3.90667L321.534 3.92175C322.312 3.94954 323.033 3.85525 323.78 3.85557L324.29 3.8749C324.815 3.72561 325.366 3.69336 325.904 3.78045L326.136 3.69349C326.875 3.44685 327.092 3.55318 327.186 3.97572L327.195 4.00357C327.921 3.92468 328.629 3.73099 329.294 3.42973L330.417 3.92079L330.529 3.95989C330.651 4.01283 330.761 3.88693 330.766 3.66578C330.772 3.44462 332.218 3.69611 332.556 3.75938C333.185 3.7968 333.815 3.77234 334.439 3.68637C335.015 3.58381 335.597 3.51878 336.181 3.4917C336.467 3.54186 337.578 3.2889 338.209 3.33319C338.84 3.37748 340.697 3.2909 340.957 3.35549C341.217 3.42009 341.792 3.7134 341.852 3.61636C341.911 3.51933 342.248 3.37556 342.379 3.63541L342.57 3.68718L342.892 3.76474C343.306 3.72968 344.237 3.67284 344.963 3.62949L345.383 3.4573L345.94 3.21377C346.288 3.33523 346.649 3.41701 347.016 3.45756C347.294 3.42236 347.568 3.35768 347.834 3.2646C348.418 3.27045 349 3.32986 349.573 3.44209C350.347 3.4345 351.118 3.35205 351.875 3.19589C352.022 3.16539 352.748 3.6912 352.798 3.53832C352.916 3.37715 353.071 3.24624 353.249 3.15629C353.428 3.06633 353.625 3.01987 353.825 3.0207L354.257 3.02736L354.811 3.05896C355.411 3.22161 356.034 3.28569 356.655 3.24868C357.086 3.20034 358.395 2.94301 358.722 2.89644C359.05 2.84986 359.883 3.06977 359.923 2.93104C359.964 2.79231 360.209 2.41604 360.355 2.42356L360.424 2.45039C360.699 2.67202 361.028 2.81537 361.377 2.86525C361.726 2.91513 362.082 2.8697 362.408 2.73376L362.691 2.62891C363.169 2.69375 363.652 2.71899 364.135 2.7044C364.393 2.686 365.174 2.85177 365.347 2.86285L365.501 2.84621L366.07 2.75352C366.742 2.65649 367.421 2.62651 368.099 2.66401L368.549 2.68438L368.903 2.69236C369.374 2.45029 369.891 2.37548 370.057 2.50769C370.187 2.60178 370.335 2.66642 370.493 2.69709C370.65 2.72776 370.812 2.72373 370.967 2.68527C371.198 2.55731 372.127 2.27945 372.372 2.44034C372.963 2.65781 373.588 2.77303 374.218 2.78106L374.806 2.84008L375.394 2.8991C375.903 2.769 376.422 2.68617 376.945 2.65166L377.315 2.53536L377.495 2.47728C378.185 2.45916 378.872 2.37817 379.547 2.23533L380.392 2.60708L380.844 2.80645C381.69 2.77807 382.422 2.58657 382.462 2.39284C382.501 2.19911 383.549 2.31935 383.801 2.39808C384.054 2.47681 385.103 2.51398 385.454 2.56303C385.881 2.52749 386.303 2.45504 386.717 2.34651C386.787 2.37333 387.1 2.53305 387.283 2.61297C387.465 2.69289 388.8 2.88727 388.599 2.75565C388.397 2.62403 388.43 2.48244 389.038 2.64815L389.679 2.23714C390.281 2.12835 390.897 2.11789 391.502 2.20614L391.968 2.21222C392.23 2.37528 392.511 2.50493 392.804 2.59813C392.904 2.61043 393.781 2.60954 394.637 2.667L395.216 2.21602L395.315 2.14532C396.14 2.33837 396.745 2.3831 396.64 2.26085C396.534 2.1386 396.382 1.7961 396.458 1.73979C396.861 1.65012 397.27 1.59232 397.682 1.56693C398.234 1.50253 399.769 1.82154 400.009 1.73444L400.13 1.77338L400.668 1.92929C401.244 1.89959 401.821 1.95038 402.383 2.08018C402.685 2.18508 403.775 1.57338 404.46 1.28665L405.137 1.4402L405.935 1.61968C406.244 1.43898 406.567 1.28586 406.903 1.16211C407.097 1.13627 407.288 1.08667 407.47 1.01442C407.935 1.00906 408.396 1.09009 408.831 1.25336C409.074 1.33225 410.001 1.49554 409.816 1.25062C409.631 1.0057 410.697 1.20764 410.895 1.17726C411.332 1.15883 411.769 1.21674 412.186 1.34838C412.632 1.46747 413.099 1.48178 413.552 1.39018C414.33 1.20023 415.134 1.13524 415.933 1.19765L416.481 1.4224L417.489 1.8464C417.567 1.38994 417.996 1.24459 418.45 1.52996L419.38 1.3351C420.483 1.13912 421.615 1.19545 422.692 1.49986C423.247 1.72076 423.862 1.73969 424.43 1.55335C425.04 1.53818 425.646 1.6452 426.214 1.86811C426.501 1.93226 425.519 2.12801 426.152 2.26928C426.334 2.3072 426.676 2.08132 426.919 2.10421C427.296 2.09476 427.67 2.17335 428.011 2.33371L428.373 2.79669C429.17 2.93518 430.236 3.13713 430.748 3.23946C431.563 3.38572 432.387 3.46869 433.215 3.4876C433.514 3.4545 434.462 3.63145 434.677 3.57278C434.892 3.51411 435.349 3.47832 435.301 3.70021C435.253 3.92209 436.388 3.59871 436.586 3.55433C436.784 3.50995 437.571 3.55158 438.186 3.54113C438.801 3.53067 445.547 3.96716 445.649 3.92441C445.751 3.88166 446.08 3.87607 446.09 3.98593C446.157 4.12129 446.267 4.23099 446.402 4.29838C446.538 4.36577 446.691 4.38716 446.84 4.3593C447.546 4.43574 448.238 4.60945 448.896 4.8755L449.043 5.39715C449.117 5.67198 449.799 5.70139 449.938 6.20918L450.002 6.44216L450.968 6.82585C451.042 6.87506 451.099 6.94726 451.128 7.03146C451.158 7.11566 451.159 7.20722 451.132 7.2922L451.141 7.29205L451.524 7.46459C451.375 7.7763 451.296 8.1165 451.291 8.46184L451.338 8.70911L451.425 9.23178C451.47 9.6204 451.61 9.99198 451.832 10.3142L451.933 10.3265L452.033 10.3248C452.133 10.3231 452.234 10.3764 452.241 10.4313C452.249 10.4861 452.045 10.6556 451.841 10.7552L451.67 10.8821C451.635 10.8967 451.664 11.0472 451.7 11.1157L451.9 11.1403C451.935 11.1397 451.96 11.0562 451.999 11.0556L452.214 11.0109C452.464 10.9786 452.655 11.0314 452.648 11.1135C452.721 11.3888 452.883 11.6321 453.109 11.8059L453.294 12.0368L453.409 12.1999C453.431 12.4996 453.192 12.6447 452.861 12.5093C452.53 12.3739 451.754 12.4871 452.033 13.1436C452.313 13.8 452.395 15.5641 452.136 15.6425C451.877 15.721 451.157 16.0043 451.242 16.0298C451.486 16.1497 451.717 16.2935 451.932 16.4593L452.03 16.6646C452.308 17.2531 452.457 16.3403 452.738 16.6386L452.897 16.815C453.227 16.9474 451.886 17.3153 451.777 17.5102C451.667 17.7051 452.013 18.6785 452.09 19.1464L451.881 19.577C451.84 19.7119 451.827 19.8538 451.844 19.9937C451.86 20.1337 451.905 20.2688 451.976 20.3906C452.047 20.5123 452.142 20.6182 452.256 20.7014C452.37 20.7847 452.5 20.8436 452.637 20.8745L453.096 20.9078C453.608 21.0091 453.825 21.0884 453.583 21.1065C453.342 21.1246 452.654 21.3154 452.656 21.4674C452.659 21.6194 452.909 22.1253 453.21 22.0651L453.495 22.0323L453.649 22.0017C453.3 22.0034 452.951 22.0324 452.606 22.0884C452.77 22.1266 452.052 22.0428 452.441 22.0502C452.83 22.0576 453.322 23.0285 453.271 23.1114L453.064 23.0869C452.648 23.025 452.437 23.3317 452.598 23.66C452.714 23.8791 452.823 24.1563 453.015 24.2601L453.451 24.5008C453.492 24.9272 453.61 25.1873 453.711 25.0615L453.822 25.0456C453.884 25.0303 453.948 25.028 454.011 25.0388C454.074 25.0497 454.133 25.0734 454.186 25.1084C454.22 25.1564 454.239 25.2125 454.243 25.2707C454.247 25.3289 454.235 25.3871 454.209 25.4391C454.126 25.5754 454.004 25.6836 453.859 25.7499C453.713 25.8161 453.552 25.8375 453.394 25.8111C453.316 25.7984 453.164 25.9531 453.156 26.0362C453.164 26.0929 453.185 26.147 453.217 26.1943C453.249 26.2416 453.292 26.2809 453.342 26.3091L453.655 26.4419C454.011 26.5738 453.999 26.8361 453.639 27.0353L453.311 27.0549L453.044 27.0734C452.66 26.8589 452.36 26.985 452.366 27.333L452.31 27.568C452.238 27.9144 453.802 27.9008 453.802 27.9008C453.459 27.9978 453.111 28.0775 452.761 28.1395C452.545 28.1572 452.609 28.8863 452.754 29.284C452.899 29.6816 453.172 30.9774 452.958 31.087C452.744 31.1967 452.945 31.8735 453.073 31.9953C453.201 32.1172 453.428 32.5135 453.257 32.6264L453.042 32.7131C452.863 32.7992 452.631 32.42 452.43 32.7515L452.405 32.7929C452.223 32.768 453.559 32.6353 453.325 32.5432C452.821 32.5137 452.316 32.5738 451.833 32.7206C451.17 32.6983 450.515 32.5602 449.9 32.3124C449.597 32.1655 449.983 32.1589 449.749 32.1079C449.515 32.0568 448.904 31.7221 448.829 31.8754C448.715 32.1327 448.655 32.4104 448.653 32.6917C448.682 32.8982 449.41 32.9959 449.582 32.993L449.661 33.0606C449.828 33.2099 449.696 33.5842 450.169 33.5211L450.238 33.52C450.373 33.7938 449.139 33.9248 449.351 33.6871C449.351 33.6871 450.869 33.5783 450.931 34.1154L450.941 34.2252C451.284 34.3256 451.641 34.3709 451.998 34.3593L452.064 34.6893L452.111 34.9505C452.185 35.2494 452.128 35.4194 451.97 35.325C451.813 35.2307 451.233 35.1445 451.148 35.239C451.027 35.3027 450.894 35.3383 450.758 35.343C450.622 35.3478 450.486 35.3215 450.362 35.2664C450.126 35.1053 449.555 34.6039 449.472 34.7303L449.498 34.7709C449.634 35.1267 449.96 35.4803 449.916 35.8121L449.862 36.1711C449.489 36.5916 449.29 37.0221 449.412 37.13C449.548 37.1809 449.694 37.1987 449.838 37.1818C449.982 37.1649 450.12 37.1139 450.24 37.033L450.374 36.8236L450.458 36.6981C450.481 36.5187 450.531 36.3798 450.574 36.3961L450.601 36.4236L450.884 36.819C451.117 36.6368 451.404 36.535 451.7 36.529C451.801 36.5823 451.776 36.9278 451.391 37.1824L451.649 37.6052L451.752 37.7685C452.027 37.6948 452.386 37.9367 452.547 38.3061C452.709 38.6755 452.924 39.0999 452.847 39.1703C452.737 39.2174 452.616 39.234 452.497 39.2185C452.378 39.2029 452.266 39.1557 452.171 39.0817L451.953 38.9204L451.926 38.9068C451.858 38.9187 451.793 38.945 451.735 38.9841C451.678 39.0232 451.629 39.0742 451.593 39.1336C451.517 39.2589 451.446 39.6602 451.636 39.671C451.826 39.6818 452.4 39.8511 452.228 39.961C452.057 40.0709 451.638 40.5362 451.713 40.67C451.789 40.8037 452.076 41.1739 452.169 41.0623L452.247 41.047C452.522 40.9733 452.933 41.2694 453.236 41.8164L453.37 42.0482C453.202 42.3131 453.016 42.5784 452.965 42.6343C452.929 42.7005 452.919 42.7777 452.936 42.8512C452.953 42.9246 452.996 42.9892 453.058 43.0328L453.213 43.0302C453.602 43.0375 453.725 43.1595 453.566 43.4933C453.524 43.577 453.415 43.7299 453.449 43.7574L453.625 43.9194C453.593 44.0231 453.524 44.1112 453.43 44.1664C453.337 44.2216 453.226 44.2401 453.12 44.2181L453.015 43.9438L452.97 43.8345C452.408 43.7891 452.428 43.9538 453.011 44.1789L452.794 44.6657L452.678 44.9298C452.631 45.0447 452.611 45.1685 452.617 45.2923C452.624 45.4162 452.658 45.537 452.716 45.6464C452.818 45.7447 453.037 46.2341 452.893 46.4296C452.75 46.6251 452.046 46.8851 452.04 47.0513L452.111 47.1741L452.245 47.4059C452.362 47.704 452.365 47.859 452.241 47.737C452.022 47.6066 451.766 47.5529 451.513 47.5844C451.25 47.6436 450.977 47.6482 450.713 47.598C450.539 47.5599 450.058 47.6641 450.145 47.7317C450.318 47.894 450.5 48.0474 450.689 48.1915C450.837 48.289 451.273 48.0296 451.325 48.0287C451.377 48.0278 451.474 48.1502 451.452 48.3576C451.429 48.5651 452.143 48.3319 452.28 48.3025C452.418 48.2732 452.637 48.4485 452.406 48.5625C452.174 48.6764 451.511 48.8948 451.459 48.7856C451.36 48.6563 451.216 48.57 451.055 48.5444C450.977 48.5598 450.665 49.1712 450.538 49.1604C450.391 49.1926 450.254 49.2609 450.14 49.359C450.025 49.4571 449.937 49.5821 449.883 49.7227L450.017 50.0515C450.054 50.2016 450.139 50.3355 450.259 50.4329C450.379 50.5303 450.528 50.5859 450.683 50.5913L450.761 50.59C450.802 50.6741 450.818 50.7683 450.808 50.8614C450.797 50.9546 450.76 51.0427 450.7 51.1152C450.455 51.3558 450.191 51.5771 449.911 51.7768C449.844 51.861 449.866 52.1917 449.772 52.2063C449.677 52.2209 449.611 52.4301 449.586 52.4575C449.56 52.485 449.623 52.6499 449.773 52.7854C450.034 53.08 450.197 53.4485 450.24 53.8398L450.079 54.0356C449.639 54.5672 449.755 54.8273 450.392 55.1476L450.88 55.3874C450.592 55.7157 450.331 56.066 450.098 56.435C449.98 56.658 449.606 56.9435 449.951 56.9616L449.916 57.4454L449.893 57.6528C449.941 57.9421 450.006 58.3681 450.031 58.6157L450.224 58.7775L450.452 58.9807C450.378 59.216 450.247 59.6464 450.148 59.9231L450.369 60.2095L450.925 60.9002C450.472 61.208 450.079 61.4657 450.062 61.48C450.298 61.9829 450.602 62.4512 450.964 62.8721L451.391 63.5541L451.507 63.7591C451.35 63.7105 451.191 63.6718 451.029 63.6432C450.897 63.6625 450.771 63.7119 450.661 63.7875C450.439 63.9321 450.2 64.0474 449.949 64.1307C449.648 64.1786 449.354 64.2622 449.072 64.3797L448.832 64.4838L448.549 64.6267C447.929 64.6181 447.312 64.7124 446.723 64.9058C446.052 65.1102 436.985 65.3884 436.382 65.4957L435.812 65.5464L435.234 65.6112C434.623 65.7046 433.095 65.8266 431.826 65.8622L430.064 65.8922C429.42 66.0666 428.805 66.3324 428.237 66.6815L427.676 66.2359C427.328 66.2591 426.983 66.3064 426.642 66.3775C426.349 65.8993 425.793 66.737 425.379 66.2989L425.238 66.1363C424.725 66.3736 424.168 66.5006 423.603 66.5092L423.544 66.5382L422.979 66.8379C422.357 66.7986 421.733 66.8428 421.123 66.9694C420.831 67.0744 419.635 66.8707 419.343 66.9167C419.051 66.9627 417.645 67.0976 416.883 67.1105C416.121 67.1235 414.134 67.4884 413.933 67.3817C413.256 67.4173 412.585 67.54 411.939 67.7467L411.489 67.6854L410.718 67.5745C409.933 67.6568 408.915 67.7701 408.449 67.8061C407.916 67.9013 407.377 67.9566 406.836 67.9715C406.377 67.9468 405.919 68.0451 405.511 68.2561C405.082 68.4845 403.309 68.1835 402.911 68.3003L402.772 68.2477L402.136 67.9824C401.418 68.238 400.656 68.3495 399.895 68.3106L399.335 68.4202L398.749 68.5301C398.022 68.4213 397.287 68.3785 396.553 68.4024L395.953 68.4536L395.384 68.5043C394.713 68.634 394.021 68.6081 393.361 68.4287L392.691 68.6471L392.209 68.8074C391.194 68.8067 390.179 68.87 389.172 68.997L388.21 68.8484L387.569 68.7492C386.707 68.9159 385.786 69.0696 385.518 69.1012C385.041 69.059 384.562 69.0441 384.083 69.0565C383.501 69.1207 382.915 69.14 382.331 69.1143C381.73 69.1105 380.192 69.3298 380.132 69.2517C380.073 69.1737 379.906 69.1726 379.893 69.4209C379.88 69.6691 378.662 69.2207 378.412 69.225C378.162 69.2292 377.066 69.2619 376.547 69.3117C376.029 69.3615 374.62 69.2614 374.247 69.3098C373.504 69.3277 372.762 69.2942 372.024 69.2095C371.54 69.1768 369.796 69.2754 369.277 69.2152C368.556 69.2903 367.844 69.4317 367.15 69.6375C366.918 69.6695 366.181 69.5439 365.896 69.5588C365.612 69.5736 364.79 69.5496 364.167 69.5331C363.545 69.5167 361.746 69.4363 361.53 69.4399C361.314 69.4436 360.763 69.577 360.58 69.4281C359.866 69.3592 359.146 69.3852 358.438 69.5055C357.465 69.5595 356.497 69.6914 355.544 69.8998L354.717 69.5688L354.113 69.331C352.989 69.3323 351.867 69.4206 350.757 69.5951L349.889 69.4028L349.758 69.364C349.533 69.5004 349.279 69.5846 349.016 69.6105C348.754 69.6365 348.489 69.6034 348.241 69.5138C347.006 69.4921 345.773 69.5871 344.556 69.7975C343.285 69.7721 342.017 69.6694 340.758 69.49C340.619 69.4643 339.645 69.5919 338.731 69.6895L337.872 69.511L337.361 69.4097C337.215 69.5893 337.022 69.7242 336.803 69.7987C336.584 69.8732 336.348 69.8843 336.123 69.8308C335.569 69.6475 334.98 69.5915 334.401 69.6671C334.161 69.7952 333.209 70.1285 332.998 69.991C332.328 69.7495 331.613 69.6535 330.903 69.7095L330.327 69.8844C329.75 70.0485 329.138 70.0447 328.564 69.8733L327.991 69.69C327.588 69.8596 327.151 69.9285 326.716 69.8907C326.456 69.8261 325.529 69.7039 325.261 69.6814C324.764 69.6838 324.272 69.7714 323.805 69.9402C323.274 69.9971 322.739 70.0199 322.205 70.0084C321.93 70.0681 320.832 70.0038 320.486 70.0097C320.14 70.0155 319.223 69.9071 319.194 69.7695C319.166 69.632 318.97 69.2632 318.84 69.3064C318.711 69.3496 318.35 69.3838 318.261 69.2613C317.977 69.1099 317.648 69.0665 317.334 69.139L317.183 69.3626C317.056 69.5438 316.453 69.6231 316.09 69.7673C315.068 70.1848 315.034 70.1854 313.937 69.7209L313.763 69.6548C313.479 69.5808 313.178 69.6053 312.909 69.7243C312.432 69.9208 311.911 69.9866 311.4 69.915C311.077 69.7555 310.13 69.4365 310.094 69.5792C309.972 69.7397 309.819 69.874 309.644 69.9741C309.469 70.0741 309.275 70.1379 309.075 70.1616C307.568 70.1327 306.061 70.1861 304.56 70.3214L303.008 70.0167L302.522 69.9149C301.978 70.1926 301.359 70.29 300.755 70.193C300.598 70.0577 299.858 70.3463 299.773 70.3888C299.262 70.4594 298.745 70.4866 298.228 70.4701C297.494 70.4685 295.382 70.2704 295.105 70.2331C294.541 70.2787 293.985 70.3995 293.453 70.5922C292.536 70.6678 291.626 70.8077 290.729 71.0107L289.901 70.5976L289.413 70.3578C288.859 70.4645 288.29 70.4646 287.736 70.3583C287.388 70.2402 286.386 70.7394 286.024 70.7736C285.506 70.8001 284.989 70.7 284.519 70.4821C284.384 70.3539 284.212 70.2728 284.028 70.251C283.844 70.2292 283.658 70.268 283.497 70.3614L283.155 70.5743L282.759 70.8151C282.364 70.7153 281.953 70.6944 281.549 70.7536C281.334 70.8263 280.662 70.9337 280.626 70.7833C280.589 70.6329 280.39 70.6083 280.266 70.9825L279.462 70.7891L279.037 70.6863C278.685 70.7613 278.194 70.8387 277.934 70.8701C277.675 70.9015 276.731 70.6695 276.419 70.7168C275.846 70.7619 275.27 70.7252 274.707 70.6078C274.368 70.4896 273.177 70.5788 272.657 70.4906L272.19 70.4436C271.99 70.419 271.571 70.6061 271.536 70.5787C271.132 70.2955 270.949 70.5477 270.637 70.635C270.491 70.6785 270.15 70.4782 269.873 70.4139C269.821 70.4008 269.581 70.5429 269.582 70.6119L269.574 70.6671C269.757 70.733 269.845 70.8275 269.778 70.8707C269.565 70.9053 269.347 70.895 269.138 70.8406C268.578 70.7996 268.014 70.8371 267.464 70.952L267.049 70.9591C266.41 70.97 265.524 70.7089 265.19 70.8667L264.529 71.154C264.046 71.0037 263.544 70.9194 263.039 70.9032C262.538 70.9845 262.046 71.1083 261.567 71.2733C261.32 71.4016 261.077 70.8816 261.042 70.8551C260.601 70.8402 260.159 70.8614 259.721 70.9186C259.048 70.9711 256.865 71.1322 256.373 71.1686C255.882 71.205 254.487 70.4695 254.307 70.5835C253.942 70.9584 253.468 71.2078 252.953 71.2957C251.313 71.1814 249.682 70.9649 248.069 70.6476L247.007 71.2308L246.716 71.3878C246.143 71.3343 245.574 71.2471 245.011 71.1267C244.82 71.0609 244.027 71.1844 243.697 71.094C243.167 71.0921 242.64 71.1613 242.128 71.2997C241.955 71.3167 241.005 71.2908 240.391 71.2462C238.986 71.2613 237.582 71.3543 236.187 71.5248L235.257 71.1405L232.973 71.4964C232.871 71.5825 232.751 71.6456 232.622 71.6814L232.062 71.7599C231.533 71.6169 231.139 71.3755 231.189 71.2366C231.239 71.0977 231.059 70.7007 230.843 70.7044C230.627 70.708 230.18 70.8256 230.347 70.9468L230.366 71.0846L230.395 71.2631C230.391 71.5253 229.927 71.6852 229.356 71.6119L228.475 71.6269C227.878 71.7269 227.277 71.7923 226.673 71.8225C226.086 71.8605 224.37 71.6826 224.028 71.7675C223.686 71.8523 222.532 71.6829 222.205 71.7985C221.878 71.9141 220.787 71.7396 220.604 71.7977L220.424 71.8147C219.583 71.9109 218.733 71.8835 217.9 71.7336L217.12 71.6088L214.511 71.6532C214.165 71.6591 213.812 71.1819 213.394 71.5071L213.172 71.6759L213.044 71.7782C212.643 71.9812 212.209 72.1099 211.763 72.158C210.866 72.1201 209.974 72.0061 209.096 71.8173C208.802 71.7942 208.206 71.8324 208.008 71.7807C207.578 71.7566 207.147 71.7733 206.721 71.8306C206.47 71.8489 205.349 71.909 204.795 71.8774C204.109 71.8332 203.428 71.7293 202.759 71.5669C202.732 71.5123 202.424 71.6416 202.119 72.0049L201.164 71.721C200.903 71.6254 200.202 72.0545 199.658 72.1047L199.192 72.1537C198.524 72.0367 197.836 72.1544 197.245 72.4869L196.444 72.1284L195.992 71.929C195.48 71.7521 194.928 71.7234 194.401 71.846C194.265 71.9724 193.622 72.2864 193.429 72.1386C193.231 72.0313 193.011 71.9701 192.786 71.9595C192.56 71.949 192.336 71.9894 192.128 72.0777L191.784 72.1936C191.519 72.2362 191.247 72.222 190.988 72.1521L190.892 71.5606C189.939 71.3977 189.11 71.4258 189.052 71.6198C188.927 71.7886 188.76 71.9221 188.567 72.0076C188.375 72.093 188.164 72.1275 187.954 72.1076L187.549 72.1835C187.23 72.23 187.017 72.3997 186.978 72.0932C186.939 71.7868 186.487 71.7015 186.179 71.8588C185.305 72.2877 184.289 72.0149 183.366 72.1136L182.719 72.1796C182.003 72.2608 181.313 72.3276 181.192 72.3296L181.08 72.3175L180.301 72.2478C179.246 72.1557 178.664 71.9995 179.009 71.9246C179.353 71.8497 178.638 71.4618 178.576 71.3388C178.513 71.2158 178.087 71.085 178.058 71.3616C178.028 71.6382 177.694 72.3051 177.346 72.201L177.111 72.0949L176.833 71.9616C176.635 71.8185 176.405 71.7267 176.163 71.6947C175.921 71.6627 175.675 71.6913 175.447 71.7781C174.966 71.9513 173.621 72.0992 173.449 71.8951C173.276 71.691 172.463 71.3327 172.087 71.6012L172.091 71.8222L172.085 72.4705C171.325 72.4995 170.565 72.4663 169.811 72.3711C169.196 72.2815 167.401 72.467 167.28 72.4421C167.159 72.4172 166.526 72.2899 166.205 72.2263C165.378 72.1852 164.549 72.2457 163.737 72.4063L163.287 72.3039L162.836 72.2116C162.695 72.0284 162.505 71.8891 162.288 71.8097C162.071 71.7303 161.836 71.7142 161.61 71.7633C161.223 71.8799 160.357 72.2677 160.402 72.363L160.386 72.4633L160.379 72.5464C160.268 72.6402 160.126 72.6871 159.981 72.6772C159.667 72.5683 159.366 72.4255 159.083 72.2514C158.812 72.0769 157.67 72.4684 157.487 72.4856C157.044 72.4717 156.602 72.4332 156.163 72.37L156.118 72.2708L155.974 71.9561C156.466 71.9477 157.226 71.9068 157.667 71.8723C158.107 71.8378 158.277 71.1728 157.854 71.1379C157.431 71.1031 156.178 71.1524 156.182 71.3734L156.004 71.5695C155.783 71.8073 155.414 72.1867 155.072 72.2055C154.123 72.2497 154.864 71.6989 154.461 71.5157L154.4 71.4887C154.313 71.4492 153.928 71.6618 153.553 71.9583C152.572 72.2197 151.557 72.3347 150.543 72.2995C149.912 72.3382 149.218 71.6458 149.042 71.9109C148.865 72.176 150.206 72.3462 150.285 72.3899C150.364 72.4336 150.411 72.6639 150.206 72.8054L149.982 72.8372L149.706 72.8559C149.153 72.6933 148.619 72.4713 148.113 72.1938L147.966 71.162C147.946 71.0243 147.285 70.7734 147.251 70.788C145.648 71.5325 146.178 70.6542 145.999 70.3262L145.981 70.2855C145.807 70.2194 145.637 70.3603 145.606 70.5919C145.575 70.8235 145.195 71.2991 144.829 71.1153C144.463 70.9315 143.924 71.8068 143.807 71.9879C143.567 72.2957 143.261 72.546 142.912 72.7203C142.696 72.738 141.451 72.7041 140.512 72.7611L139.666 72.8035L139.485 72.8066C139.296 72.8648 139.131 72.8266 139.121 72.7298C139.11 72.6329 139.141 72.4123 139.129 72.2295C139.117 72.0466 139.776 71.6533 140.157 71.6738L140.458 71.7237L140.735 71.747C141.13 71.9209 141.548 72.039 141.976 72.0981L142.392 72.132C142.607 72.1508 142.823 72.1039 143.011 71.9974L143.239 71.6935C143.353 71.5078 143.509 71.3519 143.695 71.2385C143.881 71.1251 144.091 71.0574 144.309 71.0411L144.437 70.9289C144.718 70.69 144.712 70.331 145.055 70.1462L145.723 69.7897C145.381 69.5283 144.99 69.338 144.573 69.2301C144.339 69.2061 143.591 69.4118 143.597 69.7848C143.603 70.1578 143.135 71.0751 142.582 71.1025L142.258 71.356C142.06 71.5119 141.819 71.6031 141.567 71.6172C141.316 71.6313 141.066 71.5677 140.851 71.435L140.538 71.2913ZM146.512 68.4729C146.221 68.3929 145.92 68.3608 145.62 68.3781C145.577 68.4198 145.71 68.6106 145.972 68.7442C146.764 68.9116 147.582 68.9073 148.372 68.7314L149.087 69.0913C149.222 69.0772 149.353 69.0376 149.474 68.9747L149.713 68.8186C150.02 68.5653 149.895 68.3154 149.445 68.285C148.996 68.2546 146.961 68.5613 146.511 68.4729M133.062 69.1847C132.425 69.3336 132.11 69.601 132.364 69.8037C132.619 70.0065 133.761 69.5729 134.035 69.4583C134.727 69.3355 135.429 69.2684 136.132 69.2576C136.624 69.2632 137.986 69.074 137.767 68.8847C137.548 68.6953 136.246 68.8695 135.927 68.9439C135.324 68.9657 134.719 68.9345 134.12 68.8506L133.579 69.0249L133.062 69.1847ZM447.97 32.1541C448.266 32.2591 448.394 32.1609 448.252 31.9283C448.11 31.6956 447.633 30.8635 447.38 30.4426L446.958 31.001L446.645 31.4204C446.288 31.2745 446.192 31.2211 446.426 31.2861C446.66 31.3511 447.675 32.0511 447.97 32.1601M239.954 67.9047C239.502 67.8932 239.052 67.9664 238.627 68.1203L238.671 68.1746L238.848 68.3926C238.679 68.6166 238.726 68.8498 238.957 68.9289C239.484 68.8972 240.005 68.8004 240.508 68.6405C240.938 68.5642 240.573 67.8952 239.951 67.9057M450.956 31.8823C450.75 31.5547 450.656 31.5563 450.723 31.8863C450.789 32.2162 451.667 32.5594 451.927 32.583L451.938 32.2517L451.953 32.0994C452.155 31.7959 451.904 31.7831 451.399 32.0678L451.225 31.9878L450.956 31.8823ZM128.911 68.8962C127.868 69.0789 127.327 69.2232 127.724 69.2164C128.373 69.3274 129.01 69.5011 129.625 69.7353C129.927 69.8402 130.874 70.0041 130.871 69.7971C130.793 69.618 130.649 69.4756 130.469 69.3992C130.29 69.3228 130.087 69.3182 129.904 69.3864L129.791 69.3333L128.911 68.8962ZM174.378 69.5576C174.153 69.5335 174.284 69.8903 174.651 70.3662L175.145 70.5099L175.749 70.7067C176.264 70.9319 176.825 71.031 177.386 70.9959L177.47 70.8845L177.58 70.7306C177.533 70.5103 176.952 70.3691 176.288 70.4354L175.923 70.3316L175.514 70.2005C175.184 69.9063 174.795 69.687 174.372 69.5577M320.796 67.5377C321.089 67.4497 321.155 67.2695 320.927 67.1493C320.7 67.0292 320.055 66.664 319.924 66.5592C319.793 66.4544 319.086 66.5875 319.238 66.871C319.662 67.2703 320.214 67.5054 320.796 67.5337M159.55 70.3579C159.458 70.0143 159.406 69.9882 159.437 70.2768C159.468 70.5653 159.318 71.3961 159.723 71.3612C160.129 71.3263 159.652 70.7142 159.551 70.3578M2.08959 49.5119C2.13352 49.5662 2.14789 49.4109 2.13572 49.166L2.12672 49.1662C2.04825 49.1395 2.02251 48.9199 2.0304 48.5606L2.02763 48.3976C2.01442 48.1498 1.98159 48.2194 1.96098 48.5368C1.95833 48.8669 2.00163 49.1958 2.08962 49.5139M6.39181 55.4535C6.37246 55.3158 6.17988 55.167 5.94518 55.13L5.75377 55.0502C5.5716 54.9843 5.49867 54.7545 5.21636 54.9764C4.9944 55.1592 4.82129 55.2732 5.18186 55.4771C5.4699 55.6512 4.93551 56.2255 5.64276 56.1694C5.90152 56.151 6.11972 55.7472 6.33198 55.5235L6.39181 55.4535Z" fill="#FE0056"/>
</g>
<defs>
<clipPath id="clip0_3792_338">
<rect width="454.932" height="75.911" fill="white"/>
</clipPath>
</defs>
</svg>
