<svg xmlns="http://www.w3.org/2000/svg" width="64.636" height="65.411" viewBox="0 0 64.636 65.411">
  <g id="Group_7767" data-name="Group 7767" transform="translate(-660.181 -2869.967)">
    <g id="Group_7766" data-name="Group 7766" transform="translate(-61.819 83.668)">
      <path id="Path_4389" data-name="Path 4389" d="M46.168,4.841V57.126a3.456,3.456,0,0,1-3.461,3.45H4.83a3.441,3.441,0,0,1-3.448-3.45V4.841A3.458,3.458,0,0,1,4.83,1.391H42.719A3.456,3.456,0,0,1,46.168,4.841Z" transform="translate(722 2791.134)" fill="#fe0056"/>
    </g>
    <g id="Group_7765" data-name="Group 7765">
      <path id="Path_4390" data-name="Path 4390" d="M10.179,3.913l-.011,11.74V44.729L6.445,54.288a1.457,1.457,0,0,1-2.714,0L0,44.729V3.913C0,1.753,2.273,0,5.089,0s5.09,1.748,5.09,3.913" transform="translate(713.25 2877.318)" fill="#fe0056"/>
      <line id="Line_550" data-name="Line 550" x2="10.885" transform="translate(669.376 2881.128)" fill="none" stroke="#23314c" stroke-linecap="round" stroke-linejoin="round" stroke-width="2.763"/>
      <line id="Line_551" data-name="Line 551" x1="13.036" transform="translate(685.482 2920.765)" fill="none" stroke="#23314c" stroke-linecap="round" stroke-linejoin="round" stroke-width="2.763"/>
      <path id="Path_4385" data-name="Path 4385" d="M45,59.567a3.444,3.444,0,0,0,1.011-2.442V4.844A3.451,3.451,0,0,0,42.562,1.39H4.682a3.435,3.435,0,0,0-2.141.744" transform="translate(660.333 2869.968)" fill="none" stroke="#23314c" stroke-linecap="round" stroke-linejoin="round" stroke-width="2.763"/>
      <path id="Path_4386" data-name="Path 4386" d="M2.69,2.048A3.447,3.447,0,0,0,1.382,4.755V57.038A3.449,3.449,0,0,0,4.831,60.49H42.71a3.439,3.439,0,0,0,2.437-1.009" transform="translate(660.181 2870.054)" fill="none" stroke="#23314c" stroke-linecap="round" stroke-linejoin="round" stroke-width="2.763"/>
      <rect id="Rectangle_6063" data-name="Rectangle 6063" width="10.171" height="26.082" transform="translate(713.261 2886.995)" fill="none" stroke="#23314c" stroke-linecap="round" stroke-linejoin="round" stroke-width="2.763"/>
      <path id="Path_4387" data-name="Path 4387" d="M57.264,38.281H47.092l5.089,13.036Z" transform="translate(666.165 2874.797)" fill="none" stroke="#23314c" stroke-linecap="round" stroke-linejoin="round" stroke-width="2.763"/>
      <path id="Path_4388" data-name="Path 4388" d="M57.263,17.029H47.092V5.294c0-2.161,2.279-3.912,5.089-3.912S57.27,3.133,57.27,5.294Z" transform="translate(666.165 2869.967)" fill="none" stroke="#23314c" stroke-linecap="round" stroke-linejoin="round" stroke-width="2.763"/>
      <rect id="Rectangle_6064" data-name="Rectangle 6064" width="29.417" height="16.074" rx="1.999" transform="translate(669.102 2888.674)" fill="#fff" stroke="#23314c" stroke-linecap="round" stroke-linejoin="round" stroke-width="2.763"/>
      <line id="Line_552" data-name="Line 552" x2="29.417" transform="translate(669.102 2913.834)" fill="none" stroke="#23314c" stroke-linecap="round" stroke-linejoin="round" stroke-width="2.763"/>
    </g>
  </g>
</svg>
