<svg xmlns="http://www.w3.org/2000/svg" width="59.813" height="62.528" viewBox="0 0 59.813 62.528">
  <g id="red-yellow-blue-up-arrows" transform="translate(-215.229 -2417.281)">
    <path id="Path_3940" data-name="Path 3940" d="M22.262,59.268V18.891h-1.45a2.246,2.246,0,0,1-1.476-3.941l10.233-8.9a2.244,2.244,0,0,1,2.95,0l10.233,8.9a2.246,2.246,0,0,1-1.476,3.941H39.829V59.268a2.411,2.411,0,0,1-2.411,2.411H24.671a2.411,2.411,0,0,1-2.409-2.411" transform="translate(214.199 2418.13)" fill="#1bccdc"/>
    <path id="Path_3941" data-name="Path 3941" d="M22.646,61.633V51.506H24.1a2.246,2.246,0,0,0,1.476-3.941l-10.233-8.9a2.244,2.244,0,0,0-2.95,0l-10.234,8.9A2.246,2.246,0,0,0,3.63,51.506H5.08V61.633a2.411,2.411,0,0,0,2.411,2.411H20.239a2.412,2.412,0,0,0,2.408-2.411" transform="translate(215.445 2415.764)" fill="#fe0056"/>
    <path id="Path_3942" data-name="Path 3942" d="M57.01,60.716V38.855h1.45a2.246,2.246,0,0,0,1.476-3.941L49.7,26.011a2.244,2.244,0,0,0-2.95,0l-10.233,8.9a2.246,2.246,0,0,0,1.476,3.941h1.45V60.716a2.411,2.411,0,0,0,2.411,2.411H54.6a2.412,2.412,0,0,0,2.408-2.411" transform="translate(212.953 2416.682)" fill="#f7ba00"/>
    <path id="Path_3943" data-name="Path 3943" d="M39.369,61.306a2.4,2.4,0,0,1-1.6.607H25.023a2.4,2.4,0,0,1-1.6-.607" transform="translate(213.847 2413.082)" fill="none" stroke="#23314c" stroke-linecap="round" stroke-linejoin="round" stroke-width="2.763"/>
    <path id="Path_3944" data-name="Path 3944" d="M22.262,37.124V14.779h-1.45a2.246,2.246,0,0,1-1.476-3.941l10.233-8.9a2.244,2.244,0,0,1,2.95,0l10.233,8.9a2.246,2.246,0,0,1-1.476,3.941H39.829V25.389" transform="translate(214.199 2417.428)" fill="none" stroke="#23314c" stroke-linecap="round" stroke-linejoin="round" stroke-width="2.763"/>
    <path id="Path_3945" data-name="Path 3945" d="M22.646,57.521V47.394H24.1a2.246,2.246,0,0,0,1.476-3.941l-10.233-8.9a2.244,2.244,0,0,0-2.95,0l-10.234,8.9A2.246,2.246,0,0,0,3.63,47.394H5.08V57.521a2.411,2.411,0,0,0,2.411,2.411H20.239A2.412,2.412,0,0,0,22.646,57.521Z" transform="translate(215.445 2415.063)" fill="none" stroke="#23314c" stroke-linecap="round" stroke-linejoin="round" stroke-width="2.763"/>
    <path id="Path_3946" data-name="Path 3946" d="M57.01,56.6V34.742h1.45A2.246,2.246,0,0,0,59.935,30.8L49.7,21.9a2.244,2.244,0,0,0-2.95,0L36.519,30.8a2.246,2.246,0,0,0,1.476,3.941h1.45V56.6a2.411,2.411,0,0,0,2.411,2.411H54.6A2.412,2.412,0,0,0,57.01,56.6Z" transform="translate(212.953 2415.98)" fill="none" stroke="#23314c" stroke-linecap="round" stroke-linejoin="round" stroke-width="2.763"/>
  </g>
</svg>
