<svg xmlns="http://www.w3.org/2000/svg" width="548.41" height="149.332" viewBox="0 0 548.41 149.332">
  <g id="rms-ratings" transform="translate(-1080 -333.944)">
    <g id="capterra-rating">
      <path id="Rectangle_4673" data-name="Rectangle 4673" d="M13.32,0h95.3a13.321,13.321,0,0,1,13.321,13.321V133.253a13.32,13.32,0,0,1-13.32,13.32H13.32A13.32,13.32,0,0,1,0,133.253V13.32A13.32,13.32,0,0,1,13.32,0Z" transform="translate(1505.09 335.324)" fill="#fff"/>
      <path id="Path_3685" data-name="Path 3685" d="M571.666,2.76A10.874,10.874,0,0,1,582.54,13.634V135.7a10.874,10.874,0,0,1-10.874,10.874H474.232A10.874,10.874,0,0,1,463.358,135.7V13.634A10.874,10.874,0,0,1,474.232,2.76Zm0-2.76H474.232A13.649,13.649,0,0,0,460.6,13.634V135.7a13.649,13.649,0,0,0,13.634,13.634h97.434A13.649,13.649,0,0,0,585.3,135.7V13.634A13.649,13.649,0,0,0,571.666,0" transform="translate(1043.11 333.944)" fill="#044d80"/>
      <path id="Path_3686" data-name="Path 3686" d="M512.232,43.555h17.1v-6.4Z" transform="translate(1038.976 330.969)" fill="#ff9d28"/>
      <path id="Path_3687" data-name="Path 3687" d="M530.818,36.891V59.519L538.9,33.874Z" transform="translate(1037.487 331.231)" fill="#68c5ed"/>
      <path id="Path_3688" data-name="Path 3688" d="M530.255,44.113H523.8l6.46,16.207Z" transform="translate(1038.049 330.411)" fill="#044d80"/>
      <path id="Path_3689" data-name="Path 3689" d="M512.232,44.113l12.3,4.158-1.663-4.158Z" transform="translate(1038.976 330.411)" fill="#e54747"/>
      <path id="Path_3690" data-name="Path 3690" d="M573.023,157.927H473.2a10.573,10.573,0,0,1-10.573-10.573V128.37H583.6v18.984a10.573,10.573,0,0,1-10.573,10.573" transform="translate(1042.948 323.663)" fill="#044d80"/>
      <path id="Path_3691" data-name="Path 3691" d="M499.7,148.647a2.2,2.2,0,0,1-.365.274,3.887,3.887,0,0,1-.67.335,5.568,5.568,0,0,1-1.019.289,7.245,7.245,0,0,1-1.37.121,6.706,6.706,0,0,1-2.587-.471,4.7,4.7,0,0,1-1.8-1.339,5.431,5.431,0,0,1-1.035-2.024,9.158,9.158,0,0,1-.335-2.572,8.784,8.784,0,0,1,.365-2.588,5.776,5.776,0,0,1,1.08-2.054,4.833,4.833,0,0,1,1.8-1.354,6.191,6.191,0,0,1,2.541-.488,6.646,6.646,0,0,1,1.293.122,6.733,6.733,0,0,1,1.02.3,4.324,4.324,0,0,1,.715.365,3.39,3.39,0,0,1,.427.319,1.331,1.331,0,0,1,.289.35.91.91,0,0,1,.121.441,1.21,1.21,0,0,1-.274.73,5.142,5.142,0,0,1-.608.685q-.229-.229-.5-.456a3.633,3.633,0,0,0-.625-.411,3.556,3.556,0,0,0-.775-.289,3.78,3.78,0,0,0-.974-.122,2.891,2.891,0,0,0-2.6,1.37,4.113,4.113,0,0,0-.547,1.385,7.885,7.885,0,0,0-.167,1.6,8.386,8.386,0,0,0,.167,1.659,3.822,3.822,0,0,0,.578,1.4,2.986,2.986,0,0,0,1.065.973,3.3,3.3,0,0,0,1.628.366,3.62,3.62,0,0,0,.944-.122,3.943,3.943,0,0,0,.761-.319,4.785,4.785,0,0,0,.579-.381c.167-.137.3-.258.411-.35.075.091.152.2.258.319a2.92,2.92,0,0,1,.274.381c.091.137.152.273.228.41a.922.922,0,0,1,.091.365.864.864,0,0,1-.091.411,2.438,2.438,0,0,1-.29.365m9.5-1.415a4.023,4.023,0,0,0,.427,2.131,2.849,2.849,0,0,1-.625.182,3.937,3.937,0,0,1-.608.061,1.683,1.683,0,0,1-1-.259,1.169,1.169,0,0,1-.442-.746,3.212,3.212,0,0,1-1.081.731,4,4,0,0,1-1.628.289,3.813,3.813,0,0,1-1-.137,2.581,2.581,0,0,1-.913-.456,2.468,2.468,0,0,1-.67-.837,2.945,2.945,0,0,1-.259-1.279,2.46,2.46,0,0,1,.456-1.537,3.232,3.232,0,0,1,1.142-.928,5.426,5.426,0,0,1,1.476-.472,14.419,14.419,0,0,1,1.462-.167,4.406,4.406,0,0,1,.441-.015h.4v-.335a1.239,1.239,0,0,0-.38-1.02,2.036,2.036,0,0,0-1.233-.3,3.729,3.729,0,0,0-1.416.258,10.023,10.023,0,0,0-1.217.593,2.5,2.5,0,0,1-.411-.7,1.625,1.625,0,0,1-.152-.563.675.675,0,0,1,.289-.5,2.928,2.928,0,0,1,.791-.442,6.6,6.6,0,0,1,1.157-.319,7.74,7.74,0,0,1,1.369-.121,5.985,5.985,0,0,1,1.69.2,2.768,2.768,0,0,1,1.126.624,2.416,2.416,0,0,1,.624,1.065,5.453,5.453,0,0,1,.183,1.491Zm-2.373-2.146h-.259a1.436,1.436,0,0,0-.258.016c-.3.03-.609.061-.913.106a2.505,2.505,0,0,0-.807.259,1.791,1.791,0,0,0-.579.487,1.224,1.224,0,0,0-.228.761,1.341,1.341,0,0,0,.289.883,1.227,1.227,0,0,0,1,.365,2.427,2.427,0,0,0,.67-.092,2.082,2.082,0,0,0,.563-.243,1.7,1.7,0,0,0,.381-.32.564.564,0,0,0,.137-.319Zm6.985-3.652a3.558,3.558,0,0,1,.928-.716,3.121,3.121,0,0,1,1.583-.365,3.762,3.762,0,0,1,1.308.228,2.932,2.932,0,0,1,1.1.746,3.679,3.679,0,0,1,.761,1.37,6.392,6.392,0,0,1,.29,2.1,7.111,7.111,0,0,1-.335,2.389,4.016,4.016,0,0,1-.853,1.476,3.027,3.027,0,0,1-1.171.775,3.857,3.857,0,0,1-1.294.229,3.343,3.343,0,0,1-.928-.122,3.081,3.081,0,0,1-.67-.274,2.077,2.077,0,0,1-.426-.289,1.49,1.49,0,0,1-.182-.2v4.566h-2.526V140.627a.9.9,0,0,1,.228-.03c.075-.016.167-.016.258-.03.107,0,.213-.016.35-.016a2.44,2.44,0,0,1,1.051.2.985.985,0,0,1,.533.685m3.348,3.424a5.588,5.588,0,0,0-.091-1.035,2.726,2.726,0,0,0-.3-.837,1.548,1.548,0,0,0-.578-.548,1.771,1.771,0,0,0-.883-.2,1.608,1.608,0,0,0-1.08.29.909.909,0,0,0-.3.654v3.942a1.963,1.963,0,0,0,.533.35,1.837,1.837,0,0,0,.882.2,1.5,1.5,0,0,0,1.385-.745,4.069,4.069,0,0,0,.441-2.07m4.566,3.2a3.209,3.209,0,0,1-.167-.776,7.436,7.436,0,0,1-.03-.821v-8.6a1.645,1.645,0,0,1,.274-.03c.091-.016.183-.016.274-.03s.2-.016.289-.016a2.651,2.651,0,0,1,.593.061,1.119,1.119,0,0,1,.533.229,1.165,1.165,0,0,1,.4.456,1.755,1.755,0,0,1,.152.745V140.6h2.6v1.872h-2.588v3.957c0,.867.35,1.293,1.051,1.293a1.7,1.7,0,0,0,.487-.076q.229-.091.411-.182a1.648,1.648,0,0,0,.319-.213c.092-.076.153-.137.2-.167a5.842,5.842,0,0,1,.427.7,1.364,1.364,0,0,1,.152.563.682.682,0,0,1-.2.472,1.989,1.989,0,0,1-.548.426,2.931,2.931,0,0,1-.852.32,4.97,4.97,0,0,1-1.1.121,3.189,3.189,0,0,1-1.8-.442,2.747,2.747,0,0,1-.883-1.187m11.307-.244a2.744,2.744,0,0,0,.821-.107,3.988,3.988,0,0,0,.639-.243,2.975,2.975,0,0,0,.487-.32c.137-.121.259-.228.365-.319a5.226,5.226,0,0,1,.472.715,1.524,1.524,0,0,1,.244.716.944.944,0,0,1-.456.746,3.62,3.62,0,0,1-1.111.517,6.045,6.045,0,0,1-1.674.213,6.608,6.608,0,0,1-1.719-.228,3.751,3.751,0,0,1-2.572-2.268,5.907,5.907,0,0,1-.41-2.36,5.032,5.032,0,0,1,.365-2.008,4.077,4.077,0,0,1,.959-1.4,3.924,3.924,0,0,1,1.37-.822,4.881,4.881,0,0,1,1.552-.258,4.4,4.4,0,0,1,1.765.32,3.1,3.1,0,0,1,1.172.867,3.381,3.381,0,0,1,.654,1.247,5.238,5.238,0,0,1,.2,1.476v.258a2.418,2.418,0,0,1-.015.319c0,.107-.016.213-.016.32a.929.929,0,0,1-.03.243h-5.463a2.874,2.874,0,0,0,.639,1.7,2.174,2.174,0,0,0,1.765.67m.852-3.759a2.715,2.715,0,0,0-.35-1.446,1.345,1.345,0,0,0-1.233-.563,1.526,1.526,0,0,0-1.218.533,2.175,2.175,0,0,0-.456,1.476Zm6.666-2.572a4.192,4.192,0,0,1,.29-.365,1.839,1.839,0,0,1,.456-.365,3.51,3.51,0,0,1,.593-.274,2.067,2.067,0,0,1,.7-.106c.152,0,.3.015.472.03a1.961,1.961,0,0,1,.456.137.885.885,0,0,1,.35.273.685.685,0,0,1,.137.427,2.569,2.569,0,0,1-.2.928,7.348,7.348,0,0,1-.411.9,3.243,3.243,0,0,0-.624-.4,1.856,1.856,0,0,0-.746-.137,1.391,1.391,0,0,0-.959.335,1.035,1.035,0,0,0-.4.806v6h-2.527v-9.055a.953.953,0,0,1,.229-.03c.075-.015.167-.015.258-.03.091,0,.213-.015.35-.015a2.2,2.2,0,0,1,1.035.228,1.106,1.106,0,0,1,.533.715m7.168,0a4.343,4.343,0,0,1,.289-.365,1.862,1.862,0,0,1,.457-.365,3.505,3.505,0,0,1,.593-.274,2.064,2.064,0,0,1,.7-.106c.152,0,.3.015.472.03a1.961,1.961,0,0,1,.456.137.885.885,0,0,1,.35.273.684.684,0,0,1,.136.427,2.55,2.55,0,0,1-.2.928,7.346,7.346,0,0,1-.41.9,3.246,3.246,0,0,0-.625-.4,1.848,1.848,0,0,0-.745-.137,1.391,1.391,0,0,0-.959.335,1.035,1.035,0,0,0-.4.806v6H545.3v-9.055a.946.946,0,0,1,.228-.03c.076-.015.167-.015.259-.03.091,0,.213-.015.35-.015a2.2,2.2,0,0,1,1.035.228,1.109,1.109,0,0,1,.533.715m12.038,5.753a4.032,4.032,0,0,0,.426,2.131,2.829,2.829,0,0,1-.624.182,3.937,3.937,0,0,1-.609.061,1.683,1.683,0,0,1-1-.259,1.173,1.173,0,0,1-.442-.746,3.209,3.209,0,0,1-1.08.731,4,4,0,0,1-1.628.289,3.813,3.813,0,0,1-1-.137,2.585,2.585,0,0,1-.913-.456,2.48,2.48,0,0,1-.67-.837,2.945,2.945,0,0,1-.258-1.279,2.466,2.466,0,0,1,.456-1.537,3.24,3.24,0,0,1,1.142-.928,5.422,5.422,0,0,1,1.476-.472,14.4,14.4,0,0,1,1.461-.167,4.415,4.415,0,0,1,.442-.015h.4v-.335a1.236,1.236,0,0,0-.381-1.02,2.037,2.037,0,0,0-1.233-.3,3.72,3.72,0,0,0-1.415.258,9.967,9.967,0,0,0-1.218.593,2.492,2.492,0,0,1-.41-.7,1.631,1.631,0,0,1-.153-.563.674.674,0,0,1,.29-.5,2.93,2.93,0,0,1,.791-.442,6.588,6.588,0,0,1,1.156-.319,7.752,7.752,0,0,1,1.37-.121,5.974,5.974,0,0,1,1.689.2,2.762,2.762,0,0,1,1.126.624,2.417,2.417,0,0,1,.625,1.065,5.492,5.492,0,0,1,.182,1.491Zm-2.374-2.146h-.258a1.437,1.437,0,0,0-.259.016c-.3.03-.609.061-.913.106a2.505,2.505,0,0,0-.807.259,1.788,1.788,0,0,0-.578.487,1.219,1.219,0,0,0-.229.761,1.342,1.342,0,0,0,.29.883,1.228,1.228,0,0,0,1,.365,2.416,2.416,0,0,0,.669-.092,2.088,2.088,0,0,0,.564-.243,1.668,1.668,0,0,0,.38-.32.564.564,0,0,0,.137-.319Z" transform="translate(1040.715 322.99)" fill="#fff"/>
      <path id="Path_3692" data-name="Path 3692" d="M484.026,78.725l2.4,4.867,5.371.781-3.887,3.789.917,5.35-4.8-2.526-4.8,2.526.918-5.35-3.888-3.789,5.371-.781Z" transform="translate(1041.857 327.639)" fill="#ffbb01"/>
      <path id="Path_3693" data-name="Path 3693" d="M505.863,78.725l2.4,4.867,5.371.781-3.887,3.789.917,5.35-4.8-2.526-4.8,2.526.918-5.35-3.888-3.789,5.371-.781Z" transform="translate(1040.108 327.639)" fill="#ffbb01"/>
      <path id="Path_3694" data-name="Path 3694" d="M527.7,78.725l2.4,4.867,5.371.781-3.887,3.789.917,5.35-4.8-2.526-4.8,2.526.917-5.35-3.887-3.789,5.371-.781Z" transform="translate(1038.359 327.639)" fill="#ffbb01"/>
      <path id="Path_3695" data-name="Path 3695" d="M549.538,78.725l2.4,4.867,5.371.781-3.887,3.789.917,5.35-4.8-2.526-4.8,2.526.918-5.35-3.888-3.789,5.371-.781Z" transform="translate(1036.61 327.639)" fill="#ffbb01"/>
      <path id="Path_3696" data-name="Path 3696" d="M571.376,78.725l2.4,4.867,5.371.781-3.887,3.789.917,5.35-4.8-2.526-4.8,2.526.918-5.35L563.6,84.373l5.371-.781Z" transform="translate(1034.861 327.639)" fill="#ffbb01"/>
      <path id="Path_3697" data-name="Path 3697" d="M526.47,65.569a21.915,21.915,0,1,1,21.914-21.914A21.939,21.939,0,0,1,526.47,65.569m0-41.989a20.075,20.075,0,1,0,20.074,20.075A20.1,20.1,0,0,0,526.47,23.58" transform="translate(1039.59 332.203)" fill="#044d80"/>
      <path id="Path_3698" data-name="Path 3698" d="M525.093,107.163h-4.7v2.079a2.194,2.194,0,0,1,.845-.542,3.2,3.2,0,0,1,1.175-.212,3.243,3.243,0,0,1,1.876.512,3.015,3.015,0,0,1,1.091,1.326,4.449,4.449,0,0,1,.346,1.763,3.854,3.854,0,0,1-.994,2.795,3.708,3.708,0,0,1-2.8,1.032,4.921,4.921,0,0,1-2.094-.415,3.2,3.2,0,0,1-1.371-1.152,3.32,3.32,0,0,1-.526-1.7h2.515a1.344,1.344,0,0,0,.437.776,1.374,1.374,0,0,0,.948.309,1.242,1.242,0,0,0,1.054-.454,1.921,1.921,0,0,0,.347-1.2,1.615,1.615,0,0,0-.361-1.131,1.593,1.593,0,0,0-1.9-.143,1.158,1.158,0,0,0-.436.655H518.06V104.9h7.034Z" transform="translate(1038.519 325.542)" fill="#ffbb01"/>
      <path id="Path_3699" data-name="Path 3699" d="M528.26,116.363a1.291,1.291,0,0,1-.43-.987,1.331,1.331,0,0,1,.43-1.009,1.691,1.691,0,0,1,2.2,0,1.337,1.337,0,0,1,.429,1.009,1.3,1.3,0,0,1-.429.987,1.714,1.714,0,0,1-2.2,0" transform="translate(1037.727 324.817)" fill="#ffbb01"/>
      <path id="Path_3700" data-name="Path 3700" d="M533.321,106.165a4.246,4.246,0,0,1,6.462,0,8.876,8.876,0,0,1,0,8.2,4.246,4.246,0,0,1-6.462,0,8.891,8.891,0,0,1,0-8.2m4.6,1.74a1.554,1.554,0,0,0-2.741,0,6.482,6.482,0,0,0-.333,2.343,9.784,9.784,0,0,0,.121,1.694,2.176,2.176,0,0,0,.49,1.085,1.643,1.643,0,0,0,2.183,0,2.169,2.169,0,0,0,.491-1.085,9.894,9.894,0,0,0,.12-1.694,6.55,6.55,0,0,0-.33-2.343" transform="translate(1037.366 325.561)" fill="#ffbb01"/>
    </g>
    <g id="getapp-rating">
      <rect id="Rectangle_4674" data-name="Rectangle 4674" width="121.941" height="146.573" rx="13.321" transform="translate(1363.854 335.324)" fill="#fff"/>
      <path id="Path_3701" data-name="Path 3701" d="M418.133,2.76a10.874,10.874,0,0,1,10.874,10.874V135.7a10.874,10.874,0,0,1-10.874,10.874H320.7A10.874,10.874,0,0,1,309.825,135.7V13.634A10.874,10.874,0,0,1,320.7,2.76Zm0-2.76H320.7a13.649,13.649,0,0,0-13.634,13.634V135.7A13.649,13.649,0,0,0,320.7,149.332h97.434A13.649,13.649,0,0,0,431.767,135.7V13.634A13.649,13.649,0,0,0,418.133,0" transform="translate(1055.407 333.944)" fill="#17cfcf"/>
      <path id="Path_3702" data-name="Path 3702" d="M419.49,157.927H319.668A10.573,10.573,0,0,1,309.1,147.354V128.37H430.062v18.984a10.572,10.572,0,0,1-10.573,10.573" transform="translate(1055.244 323.663)" fill="#17cfcf"/>
      <path id="Path_3703" data-name="Path 3703" d="M330.493,78.725l2.4,4.867,5.371.781-3.887,3.789.917,5.35-4.8-2.526-4.8,2.526.918-5.35-3.888-3.789,5.371-.781Z" transform="translate(1054.153 327.639)" fill="#ffbb01"/>
      <path id="Path_3704" data-name="Path 3704" d="M352.33,78.725l2.4,4.867,5.371.781-3.888,3.789.918,5.35-4.8-2.526-4.8,2.526.917-5.35-3.887-3.789,5.371-.781Z" transform="translate(1052.404 327.639)" fill="#ffbb01"/>
      <path id="Path_3705" data-name="Path 3705" d="M374.168,78.725l2.4,4.867,5.371.781-3.888,3.789.918,5.35-4.8-2.526-4.8,2.526.917-5.35-3.887-3.789,5.371-.781Z" transform="translate(1050.655 327.639)" fill="#ffbb01"/>
      <path id="Path_3706" data-name="Path 3706" d="M396.005,78.725l2.4,4.867,5.371.781-3.887,3.789.917,5.35-4.8-2.526-4.8,2.526.917-5.35-3.887-3.789,5.371-.781Z" transform="translate(1048.906 327.639)" fill="#ffbb01"/>
      <path id="Path_3707" data-name="Path 3707" d="M417.843,78.725l2.4,4.867,5.371.781-3.887,3.789.917,5.35-4.8-2.526-4.8,2.526.918-5.35-3.888-3.789,5.371-.781Z" transform="translate(1047.158 327.639)" fill="#ffbb01"/>
      <path id="Path_3708" data-name="Path 3708" d="M372.936,65.569a21.915,21.915,0,1,1,21.915-21.914,21.939,21.939,0,0,1-21.915,21.914m0-41.989a20.075,20.075,0,1,0,20.075,20.075A20.1,20.1,0,0,0,372.936,23.58" transform="translate(1051.887 332.203)" fill="#17cfcf"/>
      <path id="Path_3709" data-name="Path 3709" d="M363.833,113.971v-2.079l4.761-6.809h2.877v6.658h1.235v2.23H371.47v1.958h-2.576v-1.958Zm5.242-6.056-2.531,3.826h2.531Z" transform="translate(1050.86 325.528)" fill="#ffbb01"/>
      <path id="Path_3710" data-name="Path 3710" d="M375.4,116.363a1.291,1.291,0,0,1-.43-.987,1.331,1.331,0,0,1,.43-1.009,1.542,1.542,0,0,1,1.107-.407,1.525,1.525,0,0,1,1.093.407,1.333,1.333,0,0,1,.429,1.009,1.293,1.293,0,0,1-.429.987,1.544,1.544,0,0,1-1.093.4,1.561,1.561,0,0,1-1.107-.4" transform="translate(1049.969 324.817)" fill="#ffbb01"/>
      <path id="Path_3711" data-name="Path 3711" d="M380.1,107.627a2.727,2.727,0,0,1,.421-1.484,2.911,2.911,0,0,1,1.28-1.069,4.977,4.977,0,0,1,2.109-.4,4.92,4.92,0,0,1,2.1.4,2.915,2.915,0,0,1,1.273,1.069,2.735,2.735,0,0,1,.422,1.484,2.577,2.577,0,0,1-.385,1.416,2.732,2.732,0,0,1-1.032.95,2.96,2.96,0,0,1,1.25,1.076,2.92,2.92,0,0,1,.437,1.6,3.138,3.138,0,0,1-.542,1.845,3.424,3.424,0,0,1-1.469,1.183,5.4,5.4,0,0,1-4.113,0,3.428,3.428,0,0,1-1.468-1.183,3.139,3.139,0,0,1-.542-1.845,2.944,2.944,0,0,1,.436-1.619,2.873,2.873,0,0,1,1.235-1.062,2.5,2.5,0,0,1-1.416-2.366m2.666,3.864a1.341,1.341,0,0,0-.437,1.062,1.368,1.368,0,0,0,.43,1.04,1.606,1.606,0,0,0,1.153.407,1.551,1.551,0,0,0,1.137-.407,1.39,1.39,0,0,0,.414-1.04,1.357,1.357,0,0,0-.43-1.055,1.6,1.6,0,0,0-1.121-.392,1.674,1.674,0,0,0-1.145.385m2.086-4.428a1.308,1.308,0,0,0-.941-.339,1.209,1.209,0,0,0-1.3,1.311,1.208,1.208,0,0,0,.362.925,1.312,1.312,0,0,0,.935.339,1.3,1.3,0,0,0,.934-.346,1.234,1.234,0,0,0,.362-.935,1.262,1.262,0,0,0-.354-.957" transform="translate(1049.578 325.561)" fill="#ffbb01"/>
      <path id="Path_3712" data-name="Path 3712" d="M390.1,44.2l-8.068-8.068a.685.685,0,0,0-.957,0l-1.593,1.593,6.474,6.474a.686.686,0,0,1,0,.956l-6.674,6.674,1.594,1.593a.684.684,0,0,0,.956,0l8.247-8.247a.69.69,0,0,0,.02-.976" transform="translate(1049.623 331.066)" fill="#009c9c"/>
      <path id="Path_3713" data-name="Path 3713" d="M375.83,36.736l-.578-.578a.684.684,0,0,0-.956,0L372.7,37.751l1.056,1.056,2.072,2.072,2.072-2.072Z" transform="translate(1050.15 331.064)" fill="#40e3e3"/>
      <path id="Path_3714" data-name="Path 3714" d="M375.635,49.84l-2.072,2.072-1.056,1.056,1.594,1.593a.684.684,0,0,0,.956,0l.578-.578,2.072-2.072Z" transform="translate(1050.166 329.953)" fill="#40e3e3"/>
      <path id="Path_3715" data-name="Path 3715" d="M379.453,44.452a.684.684,0,0,1,0,.956l-3.546,3.546,2.073,2.072,5.617-5.618a.684.684,0,0,0,0-.956l-5.418-5.418-2.092,2.072Z" transform="translate(1049.894 330.818)" fill="#1abab8"/>
      <path id="Path_3716" data-name="Path 3716" d="M364.887,44.4l5.618-5.618-2.072-2.072-.6-.578a.687.687,0,0,0-.957,0L358.631,44.4a.686.686,0,0,0,0,.956l8.069,8.069a.686.686,0,0,0,.956,0l.6-.578,2.072-2.072-5.418-5.419a.667.667,0,0,1-.02-.956" transform="translate(1051.293 331.066)" fill="#87f0f0"/>
      <path id="Path_3717" data-name="Path 3717" d="M371.688,44.653l2.47-2.47-2.072-2.072-1.056-1.056-5.577,5.618a.684.684,0,0,0,0,.956l5.4,5.4,1.056-1.056,2.072-2.072-2.291-2.291a.684.684,0,0,1,0-.956" transform="translate(1050.746 330.816)" fill="#40e3e3"/>
      <path id="Path_3718" data-name="Path 3718" d="M372.232,45.882l2.291,2.291,2.471-2.47a.686.686,0,0,0,0-.956L374.7,42.455l-2.47,2.471a.726.726,0,0,0,0,.956" transform="translate(1050.202 330.544)" fill="#17cfcf"/>
      <path id="Path_3719" data-name="Path 3719" d="M341.615,141.5a5.64,5.64,0,0,1,.4-1.966,4.5,4.5,0,0,1,1.027-1.525,4.694,4.694,0,0,1,1.672-.983,8.2,8.2,0,0,1,4.9.044,5.048,5.048,0,0,1,1.614.968,3.28,3.28,0,0,1,.836,1.159,3.482,3.482,0,0,1,.279,1.013.4.4,0,0,1-.133.351.525.525,0,0,1-.352.132H350.4a.458.458,0,0,1-.308-.1.527.527,0,0,1-.162-.205c-.029-.044-.087-.146-.19-.308a1.964,1.964,0,0,0-.484-.5,3.423,3.423,0,0,0-2.215-.675,3.127,3.127,0,0,0-2.157.719,2.71,2.71,0,0,0-.866,1.951c-.029.454-.029.938-.029,1.466s0,1.013.029,1.467a2.731,2.731,0,0,0,.866,2.156,3.328,3.328,0,0,0,2.142.675,4.876,4.876,0,0,0,1.217-.146,2.519,2.519,0,0,0,.954-.47,2.029,2.029,0,0,0,.631-.851,3.241,3.241,0,0,0,.22-1.291v-.147h-2.186a.423.423,0,0,1-.338-.146.477.477,0,0,1-.147-.338v-1.276a.489.489,0,0,1,.485-.484H352a.488.488,0,0,1,.484.484v1.966a5.365,5.365,0,0,1-.338,1.981,4.23,4.23,0,0,1-1.027,1.555,4.807,4.807,0,0,1-1.7,1.027,7.949,7.949,0,0,1-4.753,0,4.523,4.523,0,0,1-1.658-.982A4.388,4.388,0,0,1,342,146.663a6.06,6.06,0,0,1-.382-1.98c0-.221-.015-.485-.029-.749v-1.687c0-.279.015-.513.029-.748" transform="translate(1052.643 322.999)" fill="#fff"/>
      <path id="Path_3720" data-name="Path 3720" d="M359.065,142.338a2.327,2.327,0,0,0-.894.146,1.7,1.7,0,0,0-.616.4,1.569,1.569,0,0,0-.382.543,1.509,1.509,0,0,0-.161.557h4.049a3.489,3.489,0,0,0-.132-.557,1.571,1.571,0,0,0-.323-.543,1.6,1.6,0,0,0-.587-.4,2.372,2.372,0,0,0-.954-.146m-4.386,2.684a5.952,5.952,0,0,1,.308-1.892,4.54,4.54,0,0,1,.88-1.556,4,4,0,0,1,1.394-1.027,4.53,4.53,0,0,1,1.8-.382,4.277,4.277,0,0,1,1.8.367,4.321,4.321,0,0,1,1.408,1,4.643,4.643,0,0,1,.9,1.452,4.715,4.715,0,0,1,.307,1.746v.807a.488.488,0,0,1-.484.484h-5.985a1.71,1.71,0,0,0,.161.719,1.546,1.546,0,0,0,.454.513,2.33,2.33,0,0,0,.66.323,2.75,2.75,0,0,0,.777.1,2.939,2.939,0,0,0,.939-.117,1.86,1.86,0,0,0,.587-.293,2.264,2.264,0,0,1,.323-.205.854.854,0,0,1,.337-.059h1.438a.515.515,0,0,1,.352.146.373.373,0,0,1,.132.338,1.5,1.5,0,0,1-.279.646,2.808,2.808,0,0,1-.778.777,4.848,4.848,0,0,1-1.291.646,5.191,5.191,0,0,1-1.761.264,4.766,4.766,0,0,1-1.8-.352,3.886,3.886,0,0,1-1.394-.982,4.476,4.476,0,0,1-.88-1.541,5.286,5.286,0,0,1-.308-1.922" transform="translate(1051.594 322.719)" fill="#fff"/>
      <path id="Path_3721" data-name="Path 3721" d="M368.57,146.033a1.258,1.258,0,0,0,.293.88,1.426,1.426,0,0,0,1.1.338h1.085a.488.488,0,0,1,.484.484v1.189a.488.488,0,0,1-.484.484h-1.335a3.711,3.711,0,0,1-2.582-.821,3.257,3.257,0,0,1-.91-2.494v-3.858h-1.188a.424.424,0,0,1-.338-.147.477.477,0,0,1-.147-.338v-1.188a.423.423,0,0,1,.147-.338.477.477,0,0,1,.338-.147h1.188v-2.919a.489.489,0,0,1,.485-.484h1.364a.488.488,0,0,1,.484.484v2.919h2.318a.5.5,0,0,1,.469.485v1.188a.489.489,0,0,1-.484.485h-2.318Z" transform="translate(1050.803 322.998)" fill="#fff"/>
      <path id="Path_3722" data-name="Path 3722" d="M381.025,144.743l-1.98-5.105-1.966,5.105Zm-1-7.878a.563.563,0,0,1,.425.146,1.421,1.421,0,0,1,.265.455l4.386,11.34a.366.366,0,0,1,.015.118.488.488,0,0,1-.484.484h-1.292a.675.675,0,0,1-.5-.146.908.908,0,0,1-.19-.293l-.778-2h-5.662l-.778,2a1,1,0,0,1-.19.293.633.633,0,0,1-.5.146h-1.291a.488.488,0,0,1-.485-.484.287.287,0,0,1,.015-.118l4.387-11.34a1.4,1.4,0,0,1,.264-.455.583.583,0,0,1,.425-.146Z" transform="translate(1050.129 322.983)" fill="#fff"/>
      <path id="Path_3723" data-name="Path 3723" d="M393.95,145.522a5.654,5.654,0,0,0,0-1,2.351,2.351,0,0,0-.718-1.672,2.4,2.4,0,0,0-2.964,0,2.138,2.138,0,0,0-.689,1.482,3.45,3.45,0,0,0-.029.674c0,.236.015.455.029.675a2.167,2.167,0,0,0,.689,1.467,2.137,2.137,0,0,0,1.482.543,2.256,2.256,0,0,0,1.482-.513,2.343,2.343,0,0,0,.718-1.658m-1.658,4.342a4.492,4.492,0,0,1-1-.1,3.681,3.681,0,0,1-.778-.264,3.34,3.34,0,0,1-.557-.366,2.908,2.908,0,0,1-.381-.352v3.814a.488.488,0,0,1-.485.484h-1.349a.488.488,0,0,1-.484-.484V140.841a.488.488,0,0,1,.484-.484h1.364a.489.489,0,0,1,.485.484v.411a2.166,2.166,0,0,1,.381-.352,3.845,3.845,0,0,1,.572-.352,3.779,3.779,0,0,1,.777-.264,4.561,4.561,0,0,1,1-.1,3.7,3.7,0,0,1,2.861,1.291,4.377,4.377,0,0,1,.807,1.35,5.375,5.375,0,0,1,.338,1.585c.014.176.014.381.014.63s0,.455-.014.631a4.863,4.863,0,0,1-.338,1.584,4.371,4.371,0,0,1-.807,1.35,3.889,3.889,0,0,1-1.233.938,4.122,4.122,0,0,1-1.658.323" transform="translate(1048.984 322.717)" fill="#fff"/>
      <path id="Path_3724" data-name="Path 3724" d="M404.967,145.522a5.648,5.648,0,0,0,0-1,2.351,2.351,0,0,0-.718-1.672,2.4,2.4,0,0,0-2.964,0,2.138,2.138,0,0,0-.689,1.482,3.452,3.452,0,0,0-.029.674c0,.235.015.455.029.675a2.167,2.167,0,0,0,.689,1.467,2.136,2.136,0,0,0,1.482.543,2.256,2.256,0,0,0,1.482-.513,2.343,2.343,0,0,0,.718-1.658m-1.672,4.327a4.492,4.492,0,0,1-1-.1,3.68,3.68,0,0,1-.778-.264,3.026,3.026,0,0,1-.557-.351,2.908,2.908,0,0,1-.381-.352v3.814a.5.5,0,0,1-.485.484h-1.364a.488.488,0,0,1-.484-.484V140.841a.488.488,0,0,1,.484-.484H400.1a.488.488,0,0,1,.485.484v.411a2.845,2.845,0,0,1,.381-.352,4.613,4.613,0,0,1,.557-.352,3.787,3.787,0,0,1,.778-.264,4.548,4.548,0,0,1,1-.1,3.7,3.7,0,0,1,2.861,1.291,4.36,4.36,0,0,1,.807,1.35,5.376,5.376,0,0,1,.338,1.584c.015.177.015.382.015.631s0,.455-.015.631a4.864,4.864,0,0,1-.338,1.584,4.349,4.349,0,0,1-.807,1.35,4.049,4.049,0,0,1-1.233.939,3.922,3.922,0,0,1-1.628.352" transform="translate(1048.104 322.717)" fill="#fff"/>
    </g>
    <g id="gw-rating">
      <path id="Rectangle_4675" data-name="Rectangle 4675" d="M13.321,0h95.3a13.321,13.321,0,0,1,13.321,13.321V133.253a13.32,13.32,0,0,1-13.32,13.32H13.32A13.32,13.32,0,0,1,0,133.253V13.321A13.321,13.321,0,0,1,13.321,0Z" transform="translate(1222.616 335.324)" fill="#fff"/>
      <path id="Path_3725" data-name="Path 3725" d="M264.6,2.76a10.874,10.874,0,0,1,10.874,10.874V135.7A10.874,10.874,0,0,1,264.6,146.572H167.166A10.874,10.874,0,0,1,156.293,135.7V13.634A10.874,10.874,0,0,1,167.166,2.76Zm0-2.76H167.166a13.648,13.648,0,0,0-13.633,13.634V135.7a13.648,13.648,0,0,0,13.633,13.634H264.6A13.649,13.649,0,0,0,278.234,135.7V13.634A13.649,13.649,0,0,0,264.6,0" transform="translate(1067.703 333.944)" fill="#ff492c"/>
      <path id="Path_3726" data-name="Path 3726" d="M265.957,157.927H166.135a10.573,10.573,0,0,1-10.573-10.573V128.37H276.529v18.984a10.572,10.572,0,0,1-10.573,10.573" transform="translate(1067.541 323.663)" fill="#ff492c"/>
      <path id="Path_3727" data-name="Path 3727" d="M176.96,78.725l2.4,4.867,5.371.781-3.887,3.789.917,5.35-4.8-2.526-4.8,2.526.917-5.35-3.887-3.789,5.371-.781Z" transform="translate(1066.45 327.639)" fill="#ffbb01"/>
      <path id="Path_3728" data-name="Path 3728" d="M198.8,78.725l2.4,4.867,5.371.781-3.887,3.789.917,5.35-4.8-2.526-4.8,2.526.917-5.35-3.887-3.789,5.371-.781Z" transform="translate(1064.701 327.639)" fill="#ffbb01"/>
      <path id="Path_3729" data-name="Path 3729" d="M220.635,78.725l2.4,4.867,5.371.781-3.887,3.789.917,5.35-4.8-2.526-4.8,2.526.917-5.35-3.887-3.789,5.371-.781Z" transform="translate(1062.952 327.639)" fill="#ffbb01"/>
      <path id="Path_3730" data-name="Path 3730" d="M242.473,78.725l2.4,4.867,5.371.781-3.887,3.789.917,5.35-4.8-2.526-4.8,2.526.917-5.35L234.7,84.373l5.371-.781Z" transform="translate(1061.203 327.639)" fill="#ffbb01"/>
      <path id="Path_3731" data-name="Path 3731" d="M264.31,78.725l2.4,4.867,5.371.781L268.2,88.162l.917,5.35-4.8-2.526-4.8,2.526.918-5.35-3.888-3.789,5.371-.781Z" transform="translate(1059.454 327.639)" fill="#ffbb01"/>
      <path id="Path_3732" data-name="Path 3732" d="M219.4,65.569a21.915,21.915,0,1,1,21.914-21.914A21.939,21.939,0,0,1,219.4,65.569m0-41.989a20.075,20.075,0,1,0,20.074,20.075A20.1,20.1,0,0,0,219.4,23.58" transform="translate(1064.184 332.203)" fill="#ff492c"/>
      <path id="Path_3733" data-name="Path 3733" d="M210.3,113.971v-2.079l4.761-6.809h2.877v6.658h1.235v2.23h-1.235v1.958h-2.576v-1.958Zm5.242-6.056-2.531,3.826h2.531Z" transform="translate(1063.157 325.528)" fill="#ffbb01"/>
      <path id="Path_3734" data-name="Path 3734" d="M221.87,116.363a1.291,1.291,0,0,1-.43-.987,1.331,1.331,0,0,1,.43-1.009,1.542,1.542,0,0,1,1.107-.407,1.525,1.525,0,0,1,1.093.407,1.333,1.333,0,0,1,.429,1.009,1.293,1.293,0,0,1-.429.987,1.544,1.544,0,0,1-1.093.4,1.561,1.561,0,0,1-1.107-.4" transform="translate(1062.265 324.817)" fill="#ffbb01"/>
      <path id="Path_3735" data-name="Path 3735" d="M230.134,113.86a1.152,1.152,0,0,0,1.129-.708,5.811,5.811,0,0,0,.332-2.305,2.169,2.169,0,0,1-.9.724,3.1,3.1,0,0,1-1.28.256,3.616,3.616,0,0,1-1.718-.4,2.848,2.848,0,0,1-1.182-1.19,4.427,4.427,0,0,1,.03-3.864,3.159,3.159,0,0,1,1.31-1.28,4.22,4.22,0,0,1,2.012-.453,3.418,3.418,0,0,1,3.118,1.385,7.633,7.633,0,0,1,.889,4.083,12.333,12.333,0,0,1-.354,3.231,3.616,3.616,0,0,1-1.189,1.935,3.58,3.58,0,0,1-2.283.663,3.914,3.914,0,0,1-1.95-.453,3.188,3.188,0,0,1-1.235-1.19,3.674,3.674,0,0,1-.489-1.626h2.38a1.293,1.293,0,0,0,1.386,1.19m.873-4.451a1.429,1.429,0,0,0,.377-1.047,1.508,1.508,0,0,0-.392-1.115,1.424,1.424,0,0,0-1.054-.391,1.387,1.387,0,0,0-1.048.4,1.512,1.512,0,0,0-.384,1.093,1.446,1.446,0,0,0,.384,1.046,1.465,1.465,0,0,0,1.108.4,1.35,1.35,0,0,0,1.009-.385" transform="translate(1061.893 325.563)" fill="#ffbb01"/>
      <path id="Path_3736" data-name="Path 3736" d="M229.374,41.187h-5.3V40.94a4.175,4.175,0,0,1,.541-2.229,4.522,4.522,0,0,1,1.886-1.566l.409-.205c.729-.369.918-.688.918-1.065,0-.451-.393-.779-1.025-.779a1.845,1.845,0,0,0-1.713,1.189l-1.017-1.017a2.757,2.757,0,0,1,1.058-1.155,2.941,2.941,0,0,1,1.6-.451,3.013,3.013,0,0,1,1.878.582,1.9,1.9,0,0,1,.795,1.614c0,1.09-.615,1.754-1.763,2.344l-.648.328c-.688.344-1.024.656-1.122,1.205h3.5Zm-.466,1.671h-5.8l-2.894,5.017h5.8l2.9,5.016,2.894-5.016Zm-8.189,8.369a6.689,6.689,0,1,1,0-13.377l2.3-4.795a11.712,11.712,0,1,0,4.6,20.951l-2.542-4.393a6.668,6.668,0,0,1-4.352,1.614" transform="translate(1063.261 331.314)" fill="#ff492c"/>
      <path id="Path_3737" data-name="Path 3737" d="M190.183,149.616a3.971,3.971,0,0,1-1.654-1.557,4.535,4.535,0,0,1-.587-2.318v-4.923a4.517,4.517,0,0,1,.587-2.327,3.99,3.99,0,0,1,1.654-1.548,5.781,5.781,0,0,1,4.895-.009,3.969,3.969,0,0,1,2.231,3.635v.212a.17.17,0,0,1-.192.192h-1.462a.169.169,0,0,1-.192-.192v-.173a2.442,2.442,0,0,0-.779-1.876,2.9,2.9,0,0,0-2.049-.72,2.853,2.853,0,0,0-2.067.75,2.647,2.647,0,0,0-.778,2V145.8a2.6,2.6,0,0,0,.808,2,2.979,2.979,0,0,0,2.115.75,2.9,2.9,0,0,0,2.01-.663,2.317,2.317,0,0,0,.741-1.818v-1.48a.068.068,0,0,0-.077-.077h-2.6a.17.17,0,0,1-.192-.192v-1.192a.17.17,0,0,1,.192-.192h4.327a.17.17,0,0,1,.192.192v2.442a4.46,4.46,0,0,1-1.26,3.4,4.759,4.759,0,0,1-3.414,1.193,5.293,5.293,0,0,1-2.452-.548" transform="translate(1064.947 323.021)" fill="#fff"/>
      <path id="Path_3738" data-name="Path 3738" d="M203,148.385a.064.064,0,0,0,.057.029h5.789a.17.17,0,0,1,.192.192v1.212a.17.17,0,0,1-.192.192h-8.057a.17.17,0,0,1-.192-.192v-1.173a.313.313,0,0,1,.1-.231q.653-.751,3-3.52l1.327-1.6q1.788-2.135,1.788-3.308a1.865,1.865,0,0,0-.605-1.453,2.307,2.307,0,0,0-1.606-.547,2.24,2.24,0,0,0-1.6.558,1.842,1.842,0,0,0-.577,1.461v.577a.17.17,0,0,1-.192.192h-1.481a.169.169,0,0,1-.192-.192v-.826a3.275,3.275,0,0,1,.567-1.77,3.426,3.426,0,0,1,1.433-1.183,4.853,4.853,0,0,1,2.039-.413,4.763,4.763,0,0,1,2.153.461,3.441,3.441,0,0,1,1.424,1.27,3.4,3.4,0,0,1,.5,1.827,6.479,6.479,0,0,1-1.731,3.769q-.769.981-1.827,2.2T203,148.318a.059.059,0,0,0,0,.067" transform="translate(1063.938 323.021)" fill="#fff"/>
      <path id="Path_3739" data-name="Path 3739" d="M212.636,150.635a1.3,1.3,0,1,1,.885.346,1.2,1.2,0,0,1-.885-.346" transform="translate(1062.998 322.049)" fill="#fff"/>
      <path id="Path_3740" data-name="Path 3740" d="M219.011,149.743a3.72,3.72,0,0,1-1.424-2.01,7.7,7.7,0,0,1-.289-2.327,8.421,8.421,0,0,1,.289-2.326,3.652,3.652,0,0,1,1.433-1.961,4.24,4.24,0,0,1,2.49-.731,4.376,4.376,0,0,1,2.52.731,3.341,3.341,0,0,1,1.4,1.845,2.742,2.742,0,0,1,.155.636c0,.1-.059.166-.174.192l-1.442.211h-.039c-.089,0-.154-.058-.192-.173l-.057-.307a1.885,1.885,0,0,0-.751-1.1,2.355,2.355,0,0,0-1.442-.442,2.242,2.242,0,0,0-1.4.442,2.018,2.018,0,0,0-.75,1.174,7.75,7.75,0,0,0-.174,1.827,7.643,7.643,0,0,0,.174,1.807,2.132,2.132,0,0,0,.759,1.212,2.2,2.2,0,0,0,1.395.443,2.4,2.4,0,0,0,1.453-.443,1.876,1.876,0,0,0,.759-1.153.045.045,0,0,0,.01-.049.042.042,0,0,1,.01-.048v-.077a.162.162,0,0,1,.211-.116l1.442.231c.1.027.154.077.154.155v.076a1.231,1.231,0,0,1-.1.423,3.262,3.262,0,0,1-1.4,1.886,4.47,4.47,0,0,1-2.52.711,4.188,4.188,0,0,1-2.5-.741" transform="translate(1062.597 322.701)" fill="#fff"/>
      <path id="Path_3741" data-name="Path 3741" d="M230.127,149.762a3.782,3.782,0,0,1-1.481-2.009,7.4,7.4,0,0,1-.346-2.347,7.1,7.1,0,0,1,.327-2.308,3.78,3.78,0,0,1,1.481-1.991,4.366,4.366,0,0,1,2.52-.721,4.1,4.1,0,0,1,2.413.721,3.951,3.951,0,0,1,1.472,1.971,6.941,6.941,0,0,1,.346,2.308,7.355,7.355,0,0,1-.346,2.366,3.812,3.812,0,0,1-1.462,2.009,4.172,4.172,0,0,1-2.442.721,4.294,4.294,0,0,1-2.481-.721m3.827-1.307a2.376,2.376,0,0,0,.828-1.222,6.646,6.646,0,0,0,.211-1.808,7,7,0,0,0-.192-1.788,2.364,2.364,0,0,0-.827-1.222,2.276,2.276,0,0,0-1.4-.432,2.211,2.211,0,0,0-1.365.432,2.37,2.37,0,0,0-.828,1.222,6.151,6.151,0,0,0-.211,1.788,6.362,6.362,0,0,0,.211,1.808,2.252,2.252,0,0,0,.818,1.222,2.318,2.318,0,0,0,1.414.432,2.182,2.182,0,0,0,1.346-.432" transform="translate(1061.716 322.701)" fill="#fff"/>
      <path id="Path_3742" data-name="Path 3742" d="M252.675,141.283a3.351,3.351,0,0,1,.846,2.433v6.423a.17.17,0,0,1-.192.193h-1.442a.17.17,0,0,1-.192-.193V144.1a2.153,2.153,0,0,0-.529-1.528,1.841,1.841,0,0,0-1.414-.568,1.949,1.949,0,0,0-1.441.557,2.028,2.028,0,0,0-.558,1.5v6.077a.17.17,0,0,1-.192.193h-1.442a.17.17,0,0,1-.192-.193V144.1a2.153,2.153,0,0,0-.529-1.528,2.057,2.057,0,0,0-2.827-.01,2.1,2.1,0,0,0-.529,1.5v6.077a.171.171,0,0,1-.193.193h-1.461a.17.17,0,0,1-.192-.193v-9.4a.17.17,0,0,1,.192-.192h1.461a.17.17,0,0,1,.193.192v.654a.067.067,0,0,0,.029.058c.019.013.041.006.068-.019a3.013,3.013,0,0,1,2.461-1.02,3.478,3.478,0,0,1,1.673.375,2.6,2.6,0,0,1,1.077,1.106q.058.077.116,0a2.877,2.877,0,0,1,1.221-1.115,3.841,3.841,0,0,1,1.683-.366,3.061,3.061,0,0,1,2.307.876" transform="translate(1060.763 322.699)" fill="#fff"/>
    </g>
    <g id="google-rating">
      <rect id="Rectangle_4676" data-name="Rectangle 4676" width="121.941" height="146.573" rx="13.32" transform="translate(1081.381 335.324)" fill="#fff"/>
      <path id="Path_3743" data-name="Path 3743" d="M111.068,2.76a10.874,10.874,0,0,1,10.874,10.874V135.7a10.874,10.874,0,0,1-10.874,10.874H13.634A10.874,10.874,0,0,1,2.76,135.7V13.634A10.874,10.874,0,0,1,13.634,2.76Zm0-2.76H13.634A13.649,13.649,0,0,0,0,13.634V135.7a13.649,13.649,0,0,0,13.634,13.634h97.434A13.649,13.649,0,0,0,124.7,135.7V13.634A13.649,13.649,0,0,0,111.068,0" transform="translate(1080 333.944)" fill="#4285f4"/>
      <path id="Path_3744" data-name="Path 3744" d="M112.425,157.927H12.6A10.573,10.573,0,0,1,2.03,147.354V128.37H123v18.984a10.572,10.572,0,0,1-10.573,10.573" transform="translate(1079.838 323.663)" fill="#4285f4"/>
      <path id="Path_3745" data-name="Path 3745" d="M23.427,78.725l2.4,4.867,5.371.781-3.887,3.789.917,5.35-4.8-2.526-4.8,2.526.917-5.35-3.887-3.789,5.371-.781Z" transform="translate(1078.746 327.639)" fill="#ffbb01"/>
      <path id="Path_3746" data-name="Path 3746" d="M45.265,78.725l2.4,4.867,5.371.781-3.887,3.789.917,5.35-4.8-2.526-4.8,2.526.917-5.35-3.887-3.789,5.371-.781Z" transform="translate(1076.997 327.639)" fill="#ffbb01"/>
      <path id="Path_3747" data-name="Path 3747" d="M67.1,78.725l2.4,4.867,5.371.781L70.99,88.162l.917,5.35-4.8-2.526-4.8,2.526.917-5.35-3.887-3.789,5.371-.781Z" transform="translate(1075.248 327.639)" fill="#ffbb01"/>
      <path id="Path_3748" data-name="Path 3748" d="M88.94,78.725l2.4,4.867,5.371.781-3.887,3.789.917,5.35-4.8-2.526-4.8,2.526.917-5.35-3.887-3.789,5.371-.781Z" transform="translate(1073.499 327.639)" fill="#ffbb01"/>
      <path id="Path_3749" data-name="Path 3749" d="M110.777,78.725l2.4,4.867,5.371.781-3.887,3.789.917,5.35-4.8-2.526-4.8,2.526.917-5.35L103,84.373l5.371-.781Z" transform="translate(1071.75 327.639)" fill="#ffbb01"/>
      <path id="Path_3750" data-name="Path 3750" d="M65.871,65.569A21.915,21.915,0,1,1,87.785,43.655,21.939,21.939,0,0,1,65.871,65.569m0-41.989A20.075,20.075,0,1,0,85.945,43.655,20.1,20.1,0,0,0,65.871,23.58" transform="translate(1076.479 332.203)" fill="#4285f4"/>
      <path id="Path_3751" data-name="Path 3751" d="M64.5,107.163H59.8v2.079a2.183,2.183,0,0,1,.844-.542,3.2,3.2,0,0,1,1.175-.212A3.243,3.243,0,0,1,63.69,109a3.017,3.017,0,0,1,1.092,1.326,4.45,4.45,0,0,1,.346,1.763,3.855,3.855,0,0,1-.994,2.795,3.7,3.7,0,0,1-2.8,1.032,4.925,4.925,0,0,1-2.095-.415,3.2,3.2,0,0,1-1.37-1.152,3.33,3.33,0,0,1-.527-1.7h2.515a1.354,1.354,0,0,0,.437.776,1.378,1.378,0,0,0,.949.309,1.243,1.243,0,0,0,1.054-.454,1.926,1.926,0,0,0,.346-1.2,1.615,1.615,0,0,0-.361-1.131,1.592,1.592,0,0,0-1.9-.143,1.158,1.158,0,0,0-.436.655H57.462V104.9H64.5Z" transform="translate(1075.407 325.542)" fill="#ffbb01"/>
      <path id="Path_3752" data-name="Path 3752" d="M67.661,116.363a1.291,1.291,0,0,1-.43-.987,1.331,1.331,0,0,1,.43-1.009,1.542,1.542,0,0,1,1.107-.407,1.525,1.525,0,0,1,1.093.407,1.333,1.333,0,0,1,.429,1.009,1.293,1.293,0,0,1-.429.987,1.544,1.544,0,0,1-1.093.4,1.561,1.561,0,0,1-1.107-.4" transform="translate(1074.615 324.817)" fill="#ffbb01"/>
      <path id="Path_3753" data-name="Path 3753" d="M72.723,106.165a4.246,4.246,0,0,1,6.462,0,8.883,8.883,0,0,1,0,8.2,4.246,4.246,0,0,1-6.462,0,8.884,8.884,0,0,1,0-8.2m4.6,1.74a1.554,1.554,0,0,0-2.741,0,6.484,6.484,0,0,0-.332,2.343,9.788,9.788,0,0,0,.121,1.694,2.168,2.168,0,0,0,.489,1.085,1.644,1.644,0,0,0,2.184,0,2.161,2.161,0,0,0,.49-1.085,9.882,9.882,0,0,0,.121-1.694,6.528,6.528,0,0,0-.331-2.343" transform="translate(1074.256 325.561)" fill="#ffbb01"/>
      <path id="Path_3754" data-name="Path 3754" d="M68.04,43.188v4.654h6.467a5.541,5.541,0,0,1-2.415,3.615l3.9,3.026a11.741,11.741,0,0,0,3.582-8.837,13.843,13.843,0,0,0-.218-2.458Z" transform="translate(1074.551 330.485)" fill="#4285f4"/>
      <path id="Path_3755" data-name="Path 3755" d="M60.372,48.049l-.879.673L56.38,51.147a12.013,12.013,0,0,0,10.726,6.631,11.47,11.47,0,0,0,7.953-2.906l-3.9-3.026a7.224,7.224,0,0,1-10.781-3.79Z" transform="translate(1075.484 330.096)" fill="#34a853"/>
      <path id="Path_3756" data-name="Path 3756" d="M56.268,39.709a11.9,11.9,0,0,0,0,10.77c0,.011,4-3.1,4-3.1a7,7,0,0,1,0-4.566Z" transform="translate(1075.597 330.764)" fill="#fbbc05"/>
      <path id="Path_3757" data-name="Path 3757" d="M67.106,37.285a6.556,6.556,0,0,1,4.6,1.791l3.441-3.44a11.527,11.527,0,0,0-8.04-3.135,12,12,0,0,0-10.727,6.631l4,3.1A7.174,7.174,0,0,1,67.106,37.285Z" transform="translate(1075.484 331.341)" fill="#ea4335"/>
      <path id="Path_3758" data-name="Path 3758" d="M62.259,145.935a4.913,4.913,0,1,1-4.913-4.9,4.837,4.837,0,0,1,4.913,4.9m-2.151,0a2.77,2.77,0,1,0-2.762,2.968,2.82,2.82,0,0,0,2.762-2.968" transform="translate(1075.801 322.649)" fill="#fff"/>
      <path id="Path_3759" data-name="Path 3759" d="M73.781,145.935a4.913,4.913,0,1,1-4.913-4.9,4.837,4.837,0,0,1,4.913,4.9m-2.151,0a2.77,2.77,0,1,0-2.762,2.968,2.82,2.82,0,0,0,2.762-2.968" transform="translate(1074.878 322.649)" fill="#fff"/>
      <path id="Path_3760" data-name="Path 3760" d="M84.863,141.332v8.793c0,3.617-2.133,5.094-4.655,5.094a4.665,4.665,0,0,1-4.342-2.887l1.873-.779a2.7,2.7,0,0,0,2.466,1.738c1.614,0,2.614-1,2.614-2.87v-.7h-.075a3.336,3.336,0,0,1-2.579,1.113,4.9,4.9,0,0,1,0-9.793,3.4,3.4,0,0,1,2.579,1.095h.075v-.8h2.043Zm-1.89,4.62a2.759,2.759,0,0,0-2.614-2.985,2.978,2.978,0,0,0,0,5.935,2.737,2.737,0,0,0,2.614-2.95" transform="translate(1073.955 322.649)" fill="#fff"/>
      <rect id="Rectangle_4677" data-name="Rectangle 4677" width="2.097" height="14.353" transform="translate(1160.088 458.828)" fill="#fff"/>
      <path id="Path_3761" data-name="Path 3761" d="M97.594,147.547l1.67,1.112a4.874,4.874,0,0,1-4.081,2.171,4.792,4.792,0,0,1-4.861-4.9,4.654,4.654,0,0,1,4.62-4.9,4.548,4.548,0,0,1,4.191,3.116l.224.557-6.548,2.711a2.492,2.492,0,0,0,2.374,1.484A2.8,2.8,0,0,0,97.594,147.547Zm-5.139-1.763,4.377-1.818a1.9,1.9,0,0,0-1.818-1.038,2.687,2.687,0,0,0-2.559,2.855" transform="translate(1072.766 322.649)" fill="#fff"/>
      <path id="Path_3762" data-name="Path 3762" d="M43.129,144.189v-2.078h7a6.81,6.81,0,0,1-7,8.248,7.606,7.606,0,1,1,0-15.211,7.25,7.25,0,0,1,5.212,2.1l-1.466,1.466a5.3,5.3,0,0,0-3.748-1.484,5.528,5.528,0,0,0,0,11.055,5.084,5.084,0,0,0,3.84-1.522,4.306,4.306,0,0,0,1.127-2.572Z" transform="translate(1077.164 323.12)" fill="#fff"/>
    </g>
  </g>
</svg>
