<svg width="152" height="152" viewBox="0 0 152 152" fill="none" xmlns="http://www.w3.org/2000/svg">
<g filter="url(#filter0_d_3448_3075)">
<path d="M75.79 138.878C38.202 138.878 7.62134 108.298 7.62134 70.7097C7.62134 33.1216 38.202 2.54102 75.79 2.54102C113.378 2.54102 143.959 33.1216 143.959 70.7097C143.959 108.298 113.378 138.878 75.79 138.878Z" fill="white"/>
</g>
<path d="M62.5265 106.757L104.155 79.5518C104.394 79.3958 104.59 79.1828 104.726 78.932C104.861 78.6812 104.932 78.4005 104.932 78.1154C104.932 77.8302 104.861 77.5496 104.726 77.2988C104.59 77.048 104.394 76.835 104.155 76.679L61.6945 48.9415C61.4338 48.7712 61.1317 48.675 60.8205 48.6633C60.5093 48.6516 60.2008 48.7249 59.928 48.8751C59.6553 49.0254 59.4286 49.2471 59.2723 49.5165C59.1159 49.7858 59.0358 50.0926 59.0406 50.404L59.8722 105.347C59.8769 105.654 59.9639 105.954 60.124 106.216C60.2842 106.478 60.5117 106.692 60.7828 106.836C61.0539 106.98 61.3587 107.049 61.6654 107.035C61.9721 107.021 62.2695 106.925 62.5265 106.757" fill="#1BCCDC"/>
<path d="M62.5264 101.046L104.155 73.8409C104.394 73.6848 104.59 73.4718 104.725 73.221C104.861 72.9702 104.932 72.6896 104.932 72.4045C104.932 72.1193 104.861 71.8387 104.725 71.5879C104.59 71.3371 104.394 71.1241 104.155 70.968L61.6944 43.2306C61.4337 43.0603 61.1316 42.9641 60.8204 42.9524C60.5092 42.9407 60.2007 43.0139 59.9279 43.1642C59.6552 43.3145 59.4285 43.5362 59.2721 43.8055C59.1158 44.0749 59.0357 44.3817 59.0405 44.6931L59.8721 99.6361C59.8768 99.9431 59.9639 100.243 60.1241 100.505C60.2843 100.767 60.5118 100.981 60.7829 101.125C61.054 101.269 61.3588 101.338 61.6654 101.324C61.9721 101.31 62.2694 101.214 62.5264 101.046Z" stroke="#23314C" stroke-width="3.81067" stroke-linecap="round" stroke-linejoin="round"/>
<defs>
<filter id="filter0_d_3448_3075" x="-4.76837e-07" y="0.00056982" width="151.58" height="151.581" filterUnits="userSpaceOnUse" color-interpolation-filters="sRGB">
<feFlood flood-opacity="0" result="BackgroundImageFix"/>
<feColorMatrix in="SourceAlpha" type="matrix" values="0 0 0 0 0 0 0 0 0 0 0 0 0 0 0 0 0 0 127 0" result="hardAlpha"/>
<feOffset dy="5.08089"/>
<feGaussianBlur stdDeviation="3.81067"/>
<feColorMatrix type="matrix" values="0 0 0 0 0 0 0 0 0 0 0 0 0 0 0 0 0 0 0.051 0"/>
<feBlend mode="normal" in2="BackgroundImageFix" result="effect1_dropShadow_3448_3075"/>
<feBlend mode="normal" in="SourceGraphic" in2="effect1_dropShadow_3448_3075" result="shape"/>
</filter>
</defs>
</svg>
