<svg xmlns="http://www.w3.org/2000/svg" xmlns:xlink="http://www.w3.org/1999/xlink" width="93" height="93" viewBox="0 0 93 93">
  <defs>
    <filter id="Path_4097" x="0" y="0" width="93" height="93" filterUnits="userSpaceOnUse">
      <feOffset dy="7" input="SourceAlpha"/>
      <feGaussianBlur stdDeviation="5.5" result="blur"/>
      <feFlood flood-opacity="0.051"/>
      <feComposite operator="in" in2="blur"/>
      <feComposite in="SourceGraphic"/>
    </filter>
  </defs>
  <g id="Group_7006" data-name="Group 7006" transform="translate(-1135.5 -893.5)">
    <g transform="matrix(1, 0, 0, 1, 1135.5, 893.5)" filter="url(#Path_4097)">
      <path id="Path_4097-2" data-name="Path 4097" d="M30.5,60.5a30,30,0,1,1,30-30,30.034,30.034,0,0,1-30,30" transform="translate(16 9)" fill="#fff"/>
    </g>
    <g id="Group_6976" data-name="Group 6976" transform="translate(1171.782 917.094)">
      <path id="Path_4110" data-name="Path 4110" d="M1531.055,48.867c5.523,0,8.5,3.156,8.5,7.1a5.935,5.935,0,0,1-3.945,5.881v.143a6.117,6.117,0,0,1,4.411,6.312c0,4.411-3.156,7.567-8.643,7.567-5.451,0-9.4-2.582-9.575-8.5h5.953a3.129,3.129,0,0,0,3.407,3.407,2.73,2.73,0,0,0,2.941-2.941c0-2.331-1.4-3.264-4.59-3.264h-1.148V59.59h1.148c2.08,0,4.088-.5,4.088-2.869a2.481,2.481,0,0,0-2.69-2.725c-1.973,0-2.69,1.435-2.8,2.869h-5.989c.215-5.164,3.586-8,8.93-8" transform="translate(-1521.803 -46.06)" fill="#3dcc4b"/>
      <path id="Path_4114" data-name="Path 4114" d="M1531.055,12c5.523,0,8.5,3.156,8.5,7.1a5.935,5.935,0,0,1-3.945,5.881v.143a6.117,6.117,0,0,1,4.411,6.312c0,4.411-3.156,7.567-8.643,7.567-5.451,0-9.4-2.582-9.575-8.5h5.953a3.129,3.129,0,0,0,3.407,3.407,2.73,2.73,0,0,0,2.941-2.941c0-2.331-1.4-3.264-4.59-3.264h-1.148V22.723h1.148c2.08,0,4.088-.5,4.088-2.869a2.481,2.481,0,0,0-2.69-2.725c-1.973,0-2.69,1.435-2.8,2.869h-5.989C1522.341,14.833,1525.712,12,1531.055,12Z" transform="translate(-1521.803 -12)" fill="none" stroke="#23314c" stroke-linecap="round" stroke-linejoin="round" stroke-width="2.5"/>
    </g>
  </g>
</svg>
