<svg width="599" height="568" viewBox="0 0 599 568" fill="none" xmlns="http://www.w3.org/2000/svg">
<circle cx="355.328" cy="361.739" r="323.327" fill="white"/>
<path d="M4.83374 516.503H169.222C169.335 513.38 170.462 513.637 171.701 511.673C173.022 509.612 170.526 507.889 173.537 504.653C175.453 502.56 179.22 502.85 180.831 500.129C183.825 495.025 188.253 495.621 188.253 495.621C188.253 495.621 192.665 495.041 195.659 500.129C196.271 501.159 196.963 501.739 197.688 502.173C197.994 501.964 198.284 501.803 198.574 501.674C198.509 498.422 196.819 494.993 201.665 489.728C205.883 485.139 214.175 485.815 217.717 479.745C224.302 468.539 234.043 469.811 234.043 469.811C234.043 469.811 243.768 468.539 250.37 479.745C252.108 482.708 254.169 483.996 256.311 485.058C259.708 483.046 262.751 483.432 262.751 483.432C262.751 483.432 264.603 483.191 267.034 484.044L311.697 287.825C305.74 294.072 301.795 296.39 299.815 297.244C298.253 298.306 296.675 298.693 295.113 298.596C295.001 298.596 294.872 298.564 294.759 298.564C294.63 298.564 294.518 298.548 294.389 298.532C294.324 298.532 294.244 298.532 294.18 298.516C289.897 297.807 284.471 292.703 285.002 279.05C285.083 276.748 285.324 274.236 285.791 271.434C287.771 259.504 292.199 242.839 296.482 231.827C296.482 231.827 296.756 232.213 297.512 232.76C300.33 225.37 302.504 220.234 302.504 220.234C302.504 220.234 298.317 212.699 299.267 206.854C299.799 203.634 300.99 201.332 302.616 199.802C302.375 199.094 302.471 198.289 302.971 197.645C303.631 196.791 304.79 196.55 305.724 196.985C305.353 195.262 304.677 193.958 303.502 193.62C301.022 192.911 299.766 189.916 299.267 188.371L295.967 187.356L296.16 186.487C293.89 185.779 291.668 185.167 289.494 184.668C289.349 184.635 289.221 184.603 289.076 184.571C288.174 184.362 287.272 184.185 286.387 184.007C285.968 183.927 285.566 183.863 285.163 183.798C284.567 183.685 283.956 183.589 283.36 183.492C282.668 183.396 281.991 183.299 281.331 183.219C281.025 183.186 280.719 183.138 280.413 183.106C279.464 182.993 278.514 182.913 277.58 182.848C277.58 182.848 277.548 182.848 277.531 182.848C252.946 181.045 237.28 192.171 231.451 195.487C231.177 195.648 230.92 195.793 230.678 195.906C228.939 196.791 227.378 196.566 226.379 196.276C225.397 195.97 223.997 195.246 222.87 193.507C218.506 186.857 221.002 167.553 224.447 153.03C224.48 152.869 224.512 152.708 224.56 152.563C228.006 138.137 234.333 120.361 240.967 117.109C242.706 116.272 244.251 116.449 245.249 116.739C246.248 117.045 247.584 117.801 248.808 119.508C252.028 123.984 270.624 150.454 302.681 158.955L302.922 157.924L331.195 166.538C334.48 167.553 336.959 170.048 337.893 172.914L343.56 148.038C344.526 143.82 346.684 139.875 349.582 136.559C348.68 131.439 349.646 125.578 352.512 120.2C356.038 126.367 362.785 128.782 370.271 124.451C379.336 119.218 393.344 113.406 406.804 120.651C410.072 122.406 413.051 124.499 415.643 126.802L528.493 126.85C540.166 126.85 547.556 136.43 544.9 148.135L465.749 495.91C465.137 498.615 464.01 501.207 462.529 503.606C462.754 510.272 462.625 514.877 462.561 516.519H547.798C549.36 516.519 550.615 517.791 550.615 519.337C550.615 520.882 549.344 522.171 547.798 522.171H4.83374C3.27197 522.171 2.00006 520.899 2.00006 519.337C2.00006 517.775 3.27197 516.519 4.83374 516.519V516.503ZM446.702 515.988C446.09 516.181 445.462 516.358 444.85 516.503H447.78C447.458 516.358 447.104 516.197 446.718 515.988H446.702ZM321.599 197.291C321.551 197.757 321.47 198.337 321.374 198.981C322.098 199.142 322.71 199.641 323.032 200.317C323.676 200.768 324.223 201.267 324.61 201.863C327.347 206.033 323.853 214.76 318.266 219.671C317.622 220.234 317.075 220.733 316.592 221.2C315.948 223.986 315.465 226.014 315.368 226.578C315.014 228.558 317.912 233.485 315.014 233.276C314.547 233.243 313.903 233.098 313.162 232.905C313.13 234.016 313.114 235.24 313.066 236.544C314.225 236.512 314.627 236.351 314.627 236.351C314.563 238.798 314.418 241.567 314.209 244.498C317.139 240.521 320.456 236.625 324.111 233.211L333.031 194.038C330.97 196.163 327.589 197.017 324.175 195.986L321.792 195.262C321.728 195.986 321.663 196.679 321.599 197.323V197.291Z" fill="white"/>
<path d="M352.996 81.1891L356.087 93.9892L345.187 86.5184C325.19 97.322 299.863 91.4935 286.741 72.3176C272.734 51.8214 277.999 23.8545 298.495 9.84687C318.991 -4.16074 346.958 1.08809 360.982 21.5843C374.104 40.7602 370.32 66.4892 352.996 81.1891Z" fill="white"/>
<path d="M561.339 237.495H568.214V230.604C568.214 229.123 569.422 227.932 570.903 227.932C572.384 227.932 573.592 229.123 573.592 230.604V237.495H580.467C581.948 237.495 583.156 238.687 583.156 240.168C583.156 241.649 581.964 242.857 580.467 242.857H573.592V249.716C573.592 251.197 572.4 252.405 570.903 252.405C569.406 252.405 568.214 251.197 568.214 249.716V242.857H561.339C559.858 242.857 558.65 241.649 558.65 240.168C558.65 238.687 559.858 237.495 561.339 237.495Z" fill="#A3EAF0"/>
<path d="M550.615 529.466C550.615 531.028 549.344 532.3 547.798 532.3H4.83374C3.27197 532.3 2.00006 531.028 2.00006 529.466C2.00006 527.904 3.27197 526.648 4.83374 526.648H547.798C549.36 526.648 550.615 527.92 550.615 529.466Z" fill="#D9D9D9"/>
<path d="M171.701 521.816C173.022 519.755 170.526 518.032 173.537 514.796C175.453 512.703 179.22 512.993 180.83 510.272C183.825 505.168 188.253 505.764 188.253 505.764C188.253 505.764 192.665 505.184 195.659 510.272C197.269 512.993 199.491 512.558 201.407 514.651C204.386 517.92 201.729 520.029 203.082 522.106C204.386 524.183 207.284 523.474 207.284 527.226H169.222C169.222 523.474 170.397 523.909 171.718 521.832L171.701 521.816Z" fill="#3DCC4B"/>
<path d="M197.64 515.311C200.554 510.755 195.08 507.003 201.649 499.855C205.867 495.266 214.159 495.942 217.701 489.872C224.286 478.666 234.027 479.938 234.027 479.938C234.027 479.938 243.752 478.666 250.353 489.872C253.896 495.942 258.79 494.96 263.009 499.549C269.578 506.697 263.749 511.367 266.663 515.955C269.578 520.528 275.921 518.966 275.921 527.226H192.166C192.166 518.982 194.709 519.9 197.64 515.311Z" fill="#309A39"/>
<path d="M236.781 518.741C238.874 515.472 234.977 512.815 239.663 507.695C242.657 504.443 248.566 504.91 251.126 500.595C255.796 492.625 262.751 493.559 262.751 493.559C262.751 493.559 269.69 492.625 274.36 500.595C276.887 504.91 280.381 504.234 283.376 507.502C288.077 512.59 283.875 515.923 285.984 519.175C288.077 522.46 292.57 521.333 292.57 527.21H232.9C232.9 521.333 234.72 521.993 236.797 518.741H236.781Z" fill="#3DCC4B"/>
<path d="M188.784 523.217C189.766 521.687 187.915 520.431 190.137 518.032C191.554 516.487 194.339 516.696 195.547 514.683C197.752 510.9 201.037 511.318 201.037 511.318C201.037 511.318 204.289 510.9 206.527 514.683C207.703 516.696 209.361 516.358 210.778 517.92C213 520.319 211.019 521.913 212.018 523.41C213.016 524.972 215.125 524.457 215.125 527.21H186.949C186.949 524.44 187.802 524.763 188.784 523.201V523.217Z" fill="#BDD796"/>
<path d="M462.448 513.621C461.707 506.553 459.55 500.692 456.587 495.846L453.882 501.562L454.768 493.254C449.084 485.477 441.259 480.566 434.046 477.572L433.515 482.692L432.114 476.799C423.227 473.45 415.853 472.838 415.853 472.838C415.788 481.903 417.35 489.502 419.733 495.975L424.418 497.472L420.425 497.858C424.112 506.826 429.474 513.363 434.61 517.936L443.836 518.435L437.846 520.625C444.141 525.439 449.326 527.339 449.326 527.339H462.416C462.416 527.339 462.722 522.154 462.416 513.621H462.448Z" fill="#BDD796"/>
<g opacity="0.21" style="mix-blend-mode:screen">
<path d="M429.651 486.782C426.769 484.045 420.731 477.686 420.731 477.686C420.731 477.686 427.864 482.387 430.697 485.076C454.559 507.633 459.55 526.229 459.775 527.066L458.841 527.324H457.811C457.151 525.07 451.403 507.52 429.635 486.766L429.651 486.782Z" fill="white"/>
</g>
<path d="M465.684 506.037C463.028 517.726 451.274 527.29 439.585 527.29L293.841 527.209C282.152 527.209 274.762 517.629 277.419 505.924L356.586 158.181C359.259 146.476 371.012 136.896 382.685 136.912L528.445 136.977C540.118 136.977 547.508 146.556 544.851 158.262L465.7 506.037H465.684Z" fill="#A9A9A9"/>
<path d="M452.594 506.037C449.938 517.726 438.2 527.29 426.495 527.29L280.751 527.209C269.062 527.209 261.672 517.629 264.329 505.924L343.48 158.181C346.152 146.476 357.906 136.896 369.595 136.912L515.339 136.977C527.028 136.977 534.418 146.556 531.745 158.262L452.578 506.037H452.594Z" fill="#BBBBBB"/>
<path d="M448.054 499.516L524.242 164.767L348.085 164.67L271.993 499.516H448.054Z" fill="#EDEDED"/>
<path d="M368.452 499.226L358.614 428.415L359.484 499.226H310.473L318.057 387.133L335.977 359.971C335.977 359.971 383.973 368.955 409.138 376.715C412.31 422.313 416.126 465.736 419.298 499.226H368.468H368.452Z" fill="#23314C"/>
<path d="M399.736 229.959C399.736 229.959 382.411 226.819 365.28 228.51C348.165 230.2 331.533 380.822 331.533 380.822C331.533 380.822 365.715 388.921 395.678 382.449C405.516 356.253 399.736 229.959 399.736 229.959Z" fill="white"/>
<path d="M370.642 230.409C370.642 230.409 370.288 232.937 378.579 234.177C386.871 235.401 390.736 232.599 390.736 232.599L392.539 216.096L372.445 213.906L370.642 230.409Z" fill="#FDA78E"/>
<g opacity="0.4" style="mix-blend-mode:multiply">
<path d="M372.171 216.452L372.397 214.487C372.622 214.31 372.864 214.133 373.153 213.988L392.555 216.097L391.717 223.794C381.944 225.066 374.602 218.835 372.187 216.452H372.171Z" fill="#F0B896"/>
</g>
<path d="M362.398 176.779C362.398 176.779 360.015 174.396 357.407 174.879C354.799 175.346 353.044 179.629 353.656 184.572C354.267 189.547 358.067 192.59 361.304 192.719C364.524 192.864 362.414 176.779 362.414 176.779H362.398Z" fill="#FDA78E"/>
<g opacity="0.3" style="mix-blend-mode:multiply">
<path d="M361.287 192.718C364.507 192.863 362.398 176.778 362.398 176.778C362.398 176.778 361.142 175.539 359.452 175.023C359.323 175.989 359.242 176.795 359.162 177.374C359.162 177.374 358.083 184.072 358.711 192.026C359.58 192.444 360.45 192.686 361.287 192.718Z" fill="#F0B896"/>
</g>
<path d="M360.692 177.697C360.692 177.697 354.96 213.119 377.726 218.013C396.226 221.974 408.253 206.711 408.253 206.711C408.253 206.711 418.944 209.19 421.729 200.238C424.515 191.286 416.175 185.651 409.96 194.345C409.96 194.345 413.647 189.934 414.886 183.01C416.126 176.087 421.15 156.203 394.1 150.39C363.171 143.757 361.416 172.03 360.692 177.697Z" fill="#FDA78E"/>
<g opacity="0.4" style="mix-blend-mode:multiply">
<path d="M363.091 165.846C364.282 162.352 366.118 158.746 369 155.783L374.635 156.17L409.976 163.029L415.998 172.013C416.094 174.219 415.949 176.328 415.708 178.179L411.989 189.627C412.874 181.899 408.865 178.662 406.852 175.41C404.824 172.142 406.015 168.036 406.015 168.036C388.514 174.267 367.969 167.633 363.091 165.862V165.846Z" fill="#F0B896"/>
</g>
<path d="M409.058 195.666C409.058 195.666 412.262 185.925 411.554 182.302C410.862 178.68 406.37 172.384 409.541 166.25C401.62 165.654 379.932 170.5 357.278 158.183C348.455 153.321 346.845 140.875 352.448 130.361C355.974 136.528 362.72 138.943 370.207 134.612C379.272 129.379 393.28 123.567 406.74 130.812C419.025 137.413 427.542 148.909 425.384 157.201C432.726 162.869 436.172 176.264 422.18 194.651C422.18 194.651 420.667 189.564 416.207 190.143C414.661 190.433 411.538 191.625 409.058 195.682V195.666Z" fill="#0A3043"/>
<path d="M369.354 200.672C368.452 203.972 371.254 207.611 375.617 208.802C379.996 209.994 384.247 208.303 385.148 205.003C381.155 201.992 374.071 200.189 369.354 200.672Z" fill="white"/>
<path d="M298.269 307.87C298.269 307.87 307.72 306.84 327.315 278.084C327.315 278.084 345.364 242.775 337.941 234.129C314.193 243.725 299.251 281.191 299.251 281.191L298.285 307.87H298.269Z" fill="#1BCCDC"/>
<path d="M313.275 235.837C313.275 235.837 313.21 272.659 308.783 289.05C304.387 305.456 299.155 309.449 294.147 308.628C289.156 307.807 282.555 300.996 285.759 281.547C288.963 262.097 302.471 230.347 302.471 230.347C302.471 230.347 298.285 222.811 299.235 216.967C300.201 211.122 303.26 208.208 307.334 207.741C311.407 207.274 321.873 207.854 324.61 212.008C327.347 216.178 323.853 224.905 318.266 229.815C312.921 234.501 313.275 235.837 313.275 235.837Z" fill="#FDA78E"/>
<path d="M296.884 196.841L303.405 169.309C270.866 161.033 252.012 134.161 248.759 129.637C247.536 127.93 246.199 127.174 245.201 126.868C244.219 126.578 242.673 126.401 240.918 127.238C234.221 130.522 227.812 148.636 224.399 163.143C220.97 177.665 218.474 196.97 222.821 203.62C223.948 205.359 225.365 206.083 226.331 206.389C227.329 206.679 228.891 206.904 230.63 206.019C236.942 202.766 259.692 184.878 296.868 196.825L296.884 196.841Z" fill="#F7F2E6"/>
<path d="M298.961 197.548C298.961 197.548 300.088 202.765 303.453 203.747C306.851 204.729 306.126 213.456 305.547 218.044C304.983 222.649 303.663 234.081 302.52 234.789C301.409 235.53 298.816 237.333 300.99 238.38C303.131 239.458 312.116 243.178 314.998 243.403C317.896 243.612 314.998 238.686 315.352 236.705C315.706 234.709 320.971 213.359 321.583 207.434C322.227 201.509 322.629 191.221 322.629 191.221L298.929 197.548H298.961Z" fill="#F7BA00"/>
<path d="M333.401 196.565L339.02 198.288C339.97 198.578 340.936 198.127 341.145 197.258L341.789 194.537C341.983 193.667 341.355 192.717 340.389 192.411L334.737 190.721L333.385 196.581L333.401 196.565Z" fill="#F7F2E6"/>
<path d="M227.684 164.172C222.87 184.507 222.612 202.057 227.072 203.442C231.532 204.81 239.067 189.434 243.881 169.131C248.695 148.812 248.985 131.246 244.525 129.878C240.049 128.509 232.514 143.869 227.7 164.188L227.684 164.172Z" fill="#CDCDCD"/>
<path d="M244.911 158.068C244.332 161.578 243.639 165.185 242.77 168.775C241.916 172.43 240.918 175.989 239.839 179.45C234.768 177.856 231.226 172.527 231.66 166.827C231.918 163.784 233.222 161.128 235.396 159.373C237.505 157.634 240.178 156.925 242.931 157.392C243.591 157.505 244.267 157.795 244.911 158.052V158.068Z" fill="#F7BA00"/>
<path d="M295.918 197.484L324.175 206.098C329.038 207.579 333.803 205.228 334.85 200.849L338.054 187.308C339.068 182.929 335.993 178.179 331.131 176.698L302.858 168.084L295.918 197.5V197.484Z" fill="#F7BA00"/>
<g opacity="0.2" style="mix-blend-mode:multiply">
<path d="M222.821 203.636C218.458 196.986 220.954 177.681 224.399 163.158C224.432 162.997 224.464 162.836 224.512 162.691L341.484 195.859L341.162 197.244C340.936 198.113 339.986 198.58 339.036 198.274L335.72 197.26L334.882 200.85C333.836 205.229 329.07 207.596 324.208 206.099L295.951 197.485L296.144 196.616C259.354 185.087 236.958 202.798 230.679 206.035C228.94 206.92 227.378 206.695 226.38 206.405C225.398 206.099 223.997 205.374 222.87 203.636H222.821Z" fill="#333333"/>
</g>
<path d="M302.939 207.771C302.166 208.753 302.343 210.186 303.325 210.975L308.123 214.711C309.105 215.484 310.538 215.306 311.311 214.324C312.1 213.326 311.923 211.893 310.941 211.12L306.143 207.385C305.16 206.612 303.727 206.789 302.939 207.787V207.771Z" fill="#FDA78E"/>
<path d="M323.225 211.024C322.968 209.687 321.663 208.834 320.327 209.108L316.785 209.639C315.449 209.897 314.595 211.201 314.869 212.537C315.127 213.874 316.431 214.727 317.767 214.453L321.309 213.922C322.646 213.648 323.499 212.36 323.241 211.024H323.225Z" fill="#FDA78E"/>
<path d="M302.037 213.199C301.264 214.198 301.425 215.614 302.423 216.403L307.205 220.155C308.203 220.928 309.62 220.751 310.393 219.752C311.182 218.77 311.005 217.337 310.006 216.548L305.241 212.813C304.226 212.04 302.809 212.201 302.037 213.199Z" fill="#FDA78E"/>
<path d="M301.135 218.623C300.362 219.621 300.539 221.038 301.521 221.827L306.303 225.563C307.301 226.335 308.734 226.174 309.507 225.176C310.28 224.178 310.103 222.745 309.121 221.972L304.339 218.237C303.341 217.464 301.908 217.625 301.135 218.623Z" fill="#FDA78E"/>
<path d="M301.361 224.615C300.701 225.468 300.846 226.692 301.699 227.352L305.805 230.556C306.658 231.216 307.882 231.071 308.542 230.218C309.218 229.365 309.057 228.141 308.22 227.465L304.098 224.261C303.245 223.584 302.021 223.729 301.361 224.599V224.615Z" fill="#FDA78E"/>
<path d="M365.28 228.51C365.28 228.51 348.02 265.171 337.313 407.566C337.313 407.566 325.56 413.748 300.926 407.034C300.926 407.034 319.039 346.786 325.495 294.877C331.952 242.968 330.567 237.188 340.582 232.664C350.596 228.139 365.28 228.526 365.28 228.526V228.51Z" fill="#1BCCDC"/>
<path d="M399.736 229.959C399.736 229.959 367.551 322.039 373.347 406.745C403.391 426.308 438.008 402.269 438.008 402.269C438.008 402.269 420.683 379.1 422.164 330.041C423.726 278.229 436.172 251.631 429.684 243.355C423.179 235.079 399.752 229.943 399.752 229.943L399.736 229.959Z" fill="#1BCCDC"/>
<path d="M305.547 245.85C298.253 244.481 296.45 241.938 296.45 241.938C292.167 252.95 287.739 269.615 285.759 281.545C282.539 300.995 289.253 307.806 294.357 308.643C299.461 309.464 304.774 305.487 309.25 289.08C312.196 278.245 314.289 258.634 314.627 246.478C314.627 246.478 312.824 247.219 305.547 245.85Z" fill="#1BCCDC"/>
<path d="M420.586 343.146L416.947 346.946C416.947 346.946 412.729 348.282 408.43 350.311C409.09 356.301 411.65 361.421 416.303 366.009C420.152 363.127 424.257 359.183 428.492 353.837C421.536 341.987 420.586 343.146 420.586 343.146Z" fill="#FFB56A"/>
<path d="M426.238 240.313C426.238 240.313 459.389 265.06 475.216 283.672C501.863 315.02 423.066 359.088 423.066 359.088C423.066 359.088 416.513 346.771 418.719 342.488C430.199 320.14 449.439 303.685 451.612 301.206C436.719 297.165 424.257 284.896 424.257 284.896L426.222 240.297L426.238 240.313Z" fill="#1BCCDC"/>
<path d="M380.27 241.02C380.27 241.02 372.413 299.53 444.351 338.461L450.888 353.064L433.483 355.496C433.483 355.496 364.314 320.927 374.973 240.553L380.286 241.036L380.27 241.02Z" fill="#23314C"/>
<path d="M382.235 234.21L375.891 233.389L373.057 236.464L374.957 240.553L380.27 241.02L384.054 237.607L382.235 234.21Z" fill="#23314C"/>
<path d="M360.981 31.7269C346.974 11.2307 318.991 5.98184 298.495 19.9895C277.998 33.9971 272.733 61.964 286.741 82.4602C299.847 101.636 325.19 107.465 345.187 96.661L356.087 104.132L352.995 91.3317C370.304 76.6156 374.104 50.9028 360.981 31.7269Z" fill="#1BCCDC"/>
<path d="M175.373 104.195C175.936 104.195 176.468 103.938 176.822 103.455C177.385 102.65 177.208 101.539 176.403 100.975L175.824 100.557C175.019 99.9931 173.908 100.17 173.344 100.975C172.781 101.78 172.958 102.891 173.763 103.455L174.342 103.873C174.664 104.099 175.019 104.195 175.373 104.195Z" fill="#A3EAF0"/>
<path d="M211.728 129.893C212.291 129.893 212.839 129.635 213.177 129.136C213.74 128.331 213.547 127.22 212.742 126.657L211.551 125.819C210.762 125.256 209.635 125.449 209.071 126.254C208.508 127.059 208.701 128.17 209.506 128.734L210.697 129.571C211.003 129.796 211.357 129.893 211.728 129.893ZM202.647 123.469C203.211 123.469 203.758 123.211 204.096 122.712C204.66 121.907 204.466 120.796 203.661 120.232L202.47 119.395C201.665 118.832 200.554 119.025 199.99 119.814C199.427 120.619 199.62 121.73 200.409 122.293L201.6 123.131C201.922 123.356 202.277 123.453 202.631 123.453L202.647 123.469ZM193.55 117.044C194.114 117.044 194.661 116.787 194.999 116.288C195.563 115.483 195.369 114.372 194.564 113.808L193.373 112.971C192.584 112.424 191.457 112.601 190.893 113.406C190.33 114.211 190.523 115.322 191.328 115.885L192.52 116.722C192.826 116.948 193.18 117.044 193.55 117.044ZM184.453 110.62C185.017 110.62 185.564 110.363 185.902 109.864C186.466 109.059 186.273 107.948 185.468 107.384L184.276 106.547C183.471 105.983 182.36 106.16 181.797 106.965C181.233 107.77 181.426 108.881 182.215 109.445L183.407 110.282C183.729 110.508 184.083 110.604 184.437 110.604L184.453 110.62Z" fill="#A3EAF0"/>
<path d="M220.213 135.898C220.777 135.898 221.324 135.641 221.662 135.142C222.226 134.337 222.049 133.226 221.244 132.662L220.664 132.26C219.875 131.696 218.748 131.873 218.185 132.678C217.621 133.483 217.798 134.594 218.603 135.158L219.183 135.56C219.489 135.786 219.859 135.882 220.213 135.882V135.898Z" fill="#A3EAF0"/>
<path d="M241.273 297.453C241.273 304.602 235.46 310.414 228.328 310.414C221.195 310.414 215.367 304.602 215.367 297.453C215.367 290.305 221.179 284.492 228.328 284.492C235.476 284.492 241.273 290.321 241.273 297.453ZM236.314 297.453C236.314 293.058 232.739 289.467 228.328 289.467C223.916 289.467 220.342 293.058 220.342 297.453C220.342 301.849 223.916 305.439 228.328 305.439C232.739 305.439 236.314 301.865 236.314 297.453Z" fill="#A3EAF0"/>
<path d="M168.964 450.811C168.964 457.959 163.152 463.772 156.019 463.772C148.887 463.772 143.058 457.959 143.058 450.811C143.058 443.662 148.871 437.85 156.019 437.85C163.168 437.85 168.964 443.678 168.964 450.811ZM163.989 450.811C163.989 446.415 160.415 442.825 156.003 442.825C151.592 442.825 148.017 446.415 148.017 450.811C148.017 455.206 151.592 458.797 156.003 458.797C160.415 458.797 163.989 455.222 163.989 450.811Z" fill="#A3EAF0"/>
<path d="M241.804 388.18C243.14 388.18 244.203 389.258 244.203 390.579C244.203 391.899 243.14 392.962 241.804 392.962H217.862C216.542 392.962 215.463 391.915 215.463 390.579C215.463 389.242 216.542 388.18 217.862 388.18H241.804Z" fill="#A3EAF0"/>
<path d="M207.622 388.18C208.943 388.18 210.021 389.258 210.021 390.579C210.021 391.899 208.943 392.962 207.622 392.962H203.227C201.907 392.962 200.844 391.915 200.844 390.579C200.844 389.242 201.907 388.18 203.227 388.18H207.622Z" fill="#A3EAF0"/>
<path d="M74.1957 308.145C74.1957 310.351 75.9829 312.122 78.1726 312.122C80.3623 312.122 82.1655 310.335 82.1655 308.145C82.1655 305.955 80.3784 304.168 78.1726 304.168C75.9668 304.168 74.1957 305.955 74.1957 308.145Z" fill="#A3EAF0"/>
<path d="M116.138 386.023H123.013V379.132C123.013 377.65 124.221 376.459 125.702 376.459C127.183 376.459 128.391 377.65 128.391 379.132V386.023H135.266C136.747 386.023 137.955 387.214 137.955 388.696C137.955 390.177 136.763 391.384 135.266 391.384H128.391V398.243C128.391 399.725 127.2 400.932 125.702 400.932C124.205 400.932 123.013 399.725 123.013 398.243V391.384H116.138C114.657 391.384 113.45 390.177 113.45 388.696C113.45 387.214 114.657 386.023 116.138 386.023Z" fill="#A3EAF0"/>
<path d="M153.411 156.847C153.54 156.896 153.685 156.944 153.83 156.96L155.295 157.185C156.261 157.33 157.179 156.67 157.324 155.688C157.469 154.722 156.841 153.82 155.826 153.659L154.361 153.434C153.395 153.289 152.477 153.949 152.332 154.931C152.204 155.752 152.67 156.541 153.411 156.847ZM164.601 158.538C164.73 158.586 164.875 158.635 165.02 158.651L166.485 158.876C167.451 159.021 168.369 158.361 168.514 157.379C168.658 156.413 168.014 155.495 167.016 155.35L165.551 155.125C164.585 154.98 163.667 155.64 163.522 156.622C163.394 157.443 163.86 158.232 164.601 158.538ZM175.807 160.228C175.936 160.277 176.081 160.325 176.226 160.341L177.691 160.567C178.657 160.712 179.575 160.051 179.72 159.069C179.865 158.103 179.204 157.202 178.222 157.041L176.757 156.815C175.791 156.67 174.873 157.33 174.728 158.313C174.6 159.134 175.067 159.923 175.807 160.228ZM186.997 161.919C187.126 161.967 187.271 162.016 187.416 162.032L188.881 162.257C189.847 162.402 190.765 161.742 190.91 160.76C191.055 159.794 190.394 158.876 189.412 158.731L187.947 158.506C186.981 158.361 186.063 159.021 185.918 160.003C185.79 160.824 186.257 161.613 186.997 161.903V161.919ZM198.187 163.626C198.316 163.674 198.461 163.722 198.606 163.738L200.071 163.964C201.037 164.109 201.955 163.449 202.1 162.466C202.245 161.5 201.617 160.599 200.602 160.438L199.137 160.212C198.171 160.067 197.253 160.728 197.108 161.71C196.98 162.531 197.447 163.32 198.187 163.626Z" fill="#A3EAF0"/>
<path d="M209.377 165.316C209.505 165.364 209.65 165.412 209.795 165.428L210.504 165.525C211.47 165.67 212.371 164.994 212.516 164.028C212.661 163.046 212.017 162.144 211.019 161.999L210.311 161.902C209.344 161.757 208.443 162.434 208.298 163.4C208.169 164.221 208.636 164.994 209.377 165.3V165.316Z" fill="#A3EAF0"/>
<path d="M207.896 207.015C208.266 207.305 208.733 207.45 209.232 207.385L209.941 207.289C210.923 207.16 211.599 206.274 211.487 205.292C211.374 204.326 210.472 203.634 209.49 203.746L208.782 203.843C207.799 203.972 207.123 204.857 207.236 205.839C207.3 206.323 207.542 206.725 207.896 207.015Z" fill="#A3EAF0"/>
<path d="M138.599 215.758C138.969 216.048 139.436 216.193 139.919 216.129L141.416 215.935C142.399 215.807 143.075 214.921 142.962 213.955C142.833 212.973 141.948 212.281 140.966 212.409L139.468 212.603C138.486 212.731 137.81 213.617 137.923 214.583C137.987 215.066 138.228 215.469 138.583 215.758H138.599ZM150.143 214.293C150.513 214.583 150.98 214.728 151.463 214.664L152.961 214.47C153.943 214.341 154.619 213.456 154.506 212.49C154.377 211.508 153.492 210.832 152.51 210.944L151.012 211.137C150.03 211.266 149.354 212.152 149.467 213.118C149.531 213.601 149.773 214.003 150.127 214.293H150.143ZM161.687 212.844C162.057 213.134 162.524 213.279 163.007 213.214L164.521 213.021C165.503 212.892 166.179 212.007 166.067 211.041C165.938 210.059 165.052 209.382 164.086 209.495L162.573 209.688C161.591 209.817 160.914 210.703 161.027 211.669C161.091 212.152 161.333 212.57 161.687 212.844ZM173.247 211.379C173.618 211.669 174.085 211.814 174.568 211.749L176.065 211.556C177.047 211.427 177.723 210.542 177.611 209.576C177.482 208.594 176.596 207.901 175.614 208.03L174.101 208.223C173.119 208.352 172.442 209.238 172.555 210.204C172.62 210.687 172.861 211.089 173.215 211.379H173.247ZM184.792 209.93C185.146 210.22 185.629 210.365 186.112 210.3L187.625 210.107C188.608 209.994 189.284 209.093 189.171 208.127C189.042 207.144 188.157 206.452 187.191 206.581L185.677 206.774C184.695 206.887 184.019 207.788 184.132 208.755C184.196 209.238 184.437 209.656 184.792 209.93ZM196.336 208.465C196.706 208.755 197.173 208.899 197.656 208.835L199.154 208.642C200.136 208.513 200.812 207.627 200.699 206.661C200.57 205.679 199.685 205.003 198.703 205.116L197.205 205.309C196.223 205.438 195.547 206.323 195.66 207.289C195.724 207.772 195.966 208.175 196.32 208.465H196.336Z" fill="#A3EAF0"/>
<path d="M4.83373 516.503H169.222C169.335 513.38 170.462 513.637 171.701 511.673C173.022 509.612 170.526 507.889 173.537 504.653C175.453 502.56 179.22 502.85 180.831 500.129C183.825 495.025 188.253 495.621 188.253 495.621C188.253 495.621 192.665 495.041 195.659 500.129C196.271 501.159 196.963 501.739 197.688 502.174C197.994 501.964 198.284 501.803 198.574 501.674C198.509 498.422 196.819 494.993 201.665 489.728C205.883 485.139 214.175 485.815 217.717 479.745C224.302 468.539 234.043 469.811 234.043 469.811C234.043 469.811 243.768 468.539 250.37 479.745C252.108 482.708 254.169 483.996 256.311 485.058C259.708 483.046 262.751 483.432 262.751 483.432C262.751 483.432 264.603 483.191 267.034 484.044L311.697 287.825C305.74 294.072 301.795 296.39 299.815 297.244C298.253 298.306 296.675 298.693 295.113 298.596C295.001 298.596 294.872 298.564 294.759 298.564C294.63 298.564 294.518 298.548 294.389 298.532C294.324 298.532 294.244 298.532 294.18 298.516C289.897 297.807 284.471 292.703 285.002 279.05C285.083 276.748 285.324 274.236 285.791 271.434C287.771 259.504 292.199 242.839 296.482 231.827C296.482 231.827 296.756 232.213 297.512 232.76C300.33 225.37 302.504 220.234 302.504 220.234C302.504 220.234 298.317 212.699 299.267 206.854C299.799 203.634 300.99 201.332 302.616 199.802C302.375 199.094 302.471 198.289 302.971 197.645C303.631 196.791 304.79 196.55 305.724 196.985C305.353 195.262 304.677 193.958 303.502 193.62C301.022 192.911 299.766 189.916 299.267 188.371L295.967 187.356L296.16 186.487C293.89 185.779 291.668 185.167 289.494 184.668C289.349 184.635 289.221 184.603 289.076 184.571C288.174 184.362 287.272 184.185 286.387 184.007C285.968 183.927 285.566 183.863 285.163 183.798C284.567 183.685 283.956 183.589 283.36 183.492C282.668 183.396 281.991 183.299 281.331 183.219C281.025 183.186 280.719 183.138 280.413 183.106C279.464 182.993 278.514 182.913 277.58 182.848C277.58 182.848 277.548 182.848 277.531 182.848C252.946 181.045 237.28 192.171 231.451 195.487C231.177 195.648 230.92 195.793 230.678 195.906C228.939 196.791 227.378 196.566 226.379 196.276C225.397 195.97 223.997 195.246 222.87 193.507C218.506 186.857 221.002 167.553 224.447 153.03C224.48 152.869 224.512 152.708 224.56 152.563C228.006 138.137 234.333 120.361 240.967 117.109C242.706 116.272 244.251 116.449 245.249 116.739C246.248 117.045 247.584 117.801 248.808 119.508C252.028 123.984 270.624 150.454 302.681 158.955L302.922 157.924L331.195 166.538C334.48 167.553 336.959 170.048 337.893 172.914L343.56 148.038C344.526 143.82 346.684 139.875 349.582 136.559C348.68 131.439 349.646 125.578 352.512 120.2C356.038 126.367 362.785 128.782 370.271 124.451C379.336 119.218 393.344 113.406 406.804 120.651C410.072 122.406 413.051 124.499 415.643 126.802L528.493 126.85C540.166 126.85 547.556 136.43 544.9 148.135L465.749 495.91C465.137 498.615 464.01 501.207 462.529 503.606C462.754 510.272 462.625 514.877 462.561 516.519H547.798C549.36 516.519 550.615 517.791 550.615 519.337C550.615 520.882 549.344 522.171 547.798 522.171H4.83373C3.27197 522.171 2.00004 520.899 2.00004 519.337C2.00004 517.775 3.27197 516.519 4.83373 516.519V516.503ZM446.702 515.988C446.09 516.181 445.462 516.358 444.85 516.503H447.78C447.458 516.358 447.104 516.197 446.718 515.988H446.702ZM321.599 197.291C321.551 197.757 321.47 198.337 321.374 198.981C322.098 199.142 322.71 199.641 323.032 200.317C323.676 200.768 324.223 201.267 324.61 201.863C327.347 206.033 323.853 214.76 318.266 219.671C317.622 220.234 317.075 220.733 316.592 221.2C315.948 223.986 315.465 226.014 315.368 226.578C315.014 228.558 317.912 233.485 315.014 233.276C314.547 233.243 313.903 233.098 313.162 232.905C313.13 234.016 313.114 235.24 313.066 236.544C314.225 236.512 314.627 236.351 314.627 236.351C314.563 238.798 314.418 241.567 314.209 244.498C317.139 240.521 320.456 236.625 324.111 233.211L333.031 194.038C330.97 196.163 327.589 197.017 324.175 195.986L321.792 195.262C321.728 195.986 321.663 196.679 321.599 197.323V197.291Z" stroke="#1A1818" stroke-width="4" stroke-miterlimit="10"/>
<path d="M352.996 81.1891L356.087 93.9892L345.187 86.5184C325.19 97.322 299.863 91.4935 286.741 72.3176C272.734 51.8214 277.999 23.8545 298.495 9.84687C318.991 -4.16074 346.958 1.08809 360.982 21.5843C374.104 40.7602 370.32 66.4892 352.996 81.1891Z" stroke="#1A1818" stroke-width="4" stroke-miterlimit="10"/>
<path d="M438.936 72.1416C438.936 52.4827 454.876 36.543 474.503 36.543C494.162 36.543 510.085 52.4827 510.085 72.1416C510.085 91.8006 494.162 107.708 474.503 107.708C454.844 107.708 438.936 91.7684 438.936 72.1416Z" fill="white"/>
<path d="M438.936 82.2861C438.936 101.913 454.876 117.853 474.503 117.853C494.13 117.853 510.085 101.913 510.085 82.2861C510.085 62.6594 494.162 46.6875 474.503 46.6875C454.844 46.6875 438.936 62.6272 438.936 82.2861Z" fill="#FE0056"/>
<path d="M484.454 60.8559C484.454 60.8559 474.295 73.7365 469.803 79.4361C467.017 76.5219 463.99 73.3662 463.99 73.3662C462.139 71.4502 459.096 71.3858 457.163 73.2373C455.247 75.0728 455.183 78.1481 457.019 80.048L466.679 90.1109C467.645 91.093 469.014 91.6566 470.398 91.5761C471.783 91.5278 473.071 90.8515 473.94 89.7567L492.021 66.8292C493.68 64.7361 493.326 61.6931 491.233 60.0509C489.139 58.3925 486.096 58.7628 484.454 60.8237V60.8559Z" fill="white" stroke="#1A1818" stroke-width="4" stroke-linejoin="round"/>
<path d="M438.936 72.1416C438.936 52.4827 454.876 36.543 474.503 36.543C494.162 36.543 510.085 52.4827 510.085 72.1416C510.085 91.8006 494.162 107.708 474.503 107.708C454.844 107.708 438.936 91.7684 438.936 72.1416Z" stroke="#1A1818" stroke-width="4" stroke-miterlimit="10"/>
<path d="M524.83 406.38C524.83 386.721 540.769 370.781 560.396 370.781C580.055 370.781 595.979 386.721 595.979 406.38C595.979 426.039 580.055 441.946 560.396 441.946C540.737 441.946 524.83 426.007 524.83 406.38Z" fill="white"/>
<path d="M524.83 416.524C524.83 436.151 540.769 452.091 560.396 452.091C580.023 452.091 595.979 436.151 595.979 416.524C595.979 396.898 580.055 380.926 560.396 380.926C540.737 380.926 524.83 396.865 524.83 416.524Z" fill="#3DCC4B"/>
<path d="M524.83 406.38C524.83 386.721 540.769 370.781 560.396 370.781C580.055 370.781 595.979 386.721 595.979 406.38C595.979 426.039 580.055 441.946 560.396 441.946C540.737 441.946 524.83 426.007 524.83 406.38Z" stroke="#1A1818" stroke-width="4" stroke-miterlimit="10"/>
<path d="M547.431 403.144C551.188 403.144 554.232 400.1 554.232 396.342C554.232 392.585 551.188 389.541 547.431 389.541C543.674 389.541 540.63 392.585 540.63 396.342C540.63 400.1 543.674 403.144 547.431 403.144Z" fill="white"/>
<path d="M573.952 415.04V423.292C573.952 425.748 571.967 427.733 569.511 427.733H558.994L556.039 425.979H550.053V417.347L549.779 417.591H538.84V409.6C538.84 406.586 541.283 404.143 544.298 404.143H550.564C553.578 404.143 556.022 406.586 556.022 409.6V412.151H556.039L559.244 410.599L561.349 408.096V403.685C561.349 402.662 562.175 401.83 563.203 401.83C565.683 401.83 567.692 403.84 567.692 406.319V410.599H569.511C571.967 410.599 573.952 412.585 573.952 415.04Z" fill="white"/>
<path d="M564.518 397.864C564.518 393.779 567.841 390.468 571.937 390.468C567.841 390.468 564.518 387.174 564.518 383.09C564.518 387.174 561.194 390.468 557.098 390.468C561.194 390.468 564.518 393.779 564.518 397.864Z" fill="white"/>
<path d="M576.289 394.754C576.289 397.917 573.715 400.467 570.54 400.467C573.715 400.467 576.289 403.03 576.289 406.192C576.289 403.03 578.864 400.479 582.038 400.479C578.864 400.479 576.289 397.917 576.289 394.754Z" fill="white"/>
<path d="M554.226 396.17C554.226 392.413 551.182 389.369 547.425 389.369C543.668 389.369 540.624 392.413 540.624 396.17C540.624 399.928 543.668 402.972 547.425 402.972C551.182 402.972 554.226 399.928 554.226 396.17Z" stroke="#1A1818" stroke-width="3" stroke-linecap="round" stroke-linejoin="round"/>
<path d="M556.016 411.977V409.421C556.016 406.406 553.572 403.963 550.558 403.963H544.292C541.278 403.963 538.834 406.406 538.834 409.421V417.411H549.768" stroke="#1A1818" stroke-width="3" stroke-linecap="round" stroke-linejoin="round"/>
<path d="M556.04 425.8L558.989 427.554H569.506C571.961 427.554 573.953 425.562 573.953 423.107V414.861C573.953 412.405 571.961 410.414 569.506 410.414H567.692V406.139C567.692 403.66 565.683 401.65 563.204 401.65C562.181 401.65 561.349 402.483 561.349 403.505V407.917L559.244 410.42L556.04 411.977" stroke="#1A1818" stroke-width="3" stroke-linecap="round" stroke-linejoin="round"/>
<path d="M556.016 411.977H550.053V425.799H556.04" stroke="#1A1818" stroke-width="3" stroke-linecap="round" stroke-linejoin="round"/>
<path d="M556.039 411.977H556.016" stroke="#23314C" stroke-width="3" stroke-linecap="round" stroke-linejoin="round"/>
<path d="M556.04 425.799V411.977" stroke="#1A1818" stroke-width="3" stroke-linecap="round" stroke-linejoin="round"/>
<path d="M564.518 381.984C564.518 386.069 567.841 389.356 571.937 389.356" stroke="#1A1818" stroke-width="3" stroke-linecap="round" stroke-linejoin="round"/>
<path d="M557.098 389.362C561.194 389.362 564.518 386.069 564.518 381.99" stroke="#1A1818" stroke-width="3" stroke-linecap="round" stroke-linejoin="round"/>
<path d="M564.518 396.751C564.518 392.667 567.841 389.355 571.937 389.355" stroke="#1A1818" stroke-width="3" stroke-linecap="round" stroke-linejoin="round"/>
<path d="M564.518 396.751C564.518 392.667 561.194 389.355 557.098 389.355" stroke="#1A1818" stroke-width="3" stroke-linecap="round" stroke-linejoin="round"/>
<ellipse cx="582.038" cy="399.372" rx="0.891787" ry="0.891776" fill="#23314C"/>
<path d="M576.289 393.648C576.289 396.811 578.864 399.374 582.038 399.374" stroke="#1A1818" stroke-width="3" stroke-linecap="round" stroke-linejoin="round"/>
<path d="M576.289 393.648C576.289 396.811 573.715 399.362 570.54 399.362" stroke="#1A1818" stroke-width="3" stroke-linecap="round" stroke-linejoin="round"/>
<ellipse cx="582.038" cy="399.372" rx="0.891787" ry="0.891776" fill="#23314C"/>
<path d="M582.038 399.375C578.864 399.375 576.289 401.925 576.289 405.088" stroke="#1A1818" stroke-width="3" stroke-linecap="round" stroke-linejoin="round"/>
<path d="M576.289 405.088C576.289 401.926 573.715 399.363 570.54 399.363" stroke="#1A1818" stroke-width="3" stroke-linecap="round" stroke-linejoin="round"/>
<path d="M304.307 49.02C304.307 51.4834 302.343 53.4638 299.879 53.4638C297.416 53.4638 295.419 51.4834 295.419 49.02C295.419 46.5566 297.4 44.5762 299.879 44.5762C302.359 44.5762 304.307 46.5727 304.307 49.02Z" fill="white" stroke="#1A1818" stroke-width="4" stroke-linejoin="round"/>
<path d="M322.935 53.4638C320.481 53.4638 318.491 51.4742 318.491 49.02C318.491 46.5657 320.481 44.5762 322.935 44.5762C325.389 44.5762 327.379 46.5657 327.379 49.02C327.379 51.4742 325.389 53.4638 322.935 53.4638Z" fill="white" stroke="#1A1818" stroke-width="4" stroke-linejoin="round"/>
<path d="M350.435 49.02C350.435 51.4834 348.455 53.4638 345.992 53.4638C343.528 53.4638 341.548 51.4834 341.548 49.02C341.548 46.5566 343.512 44.5762 345.992 44.5762C348.455 44.5762 350.435 46.5727 350.435 49.02Z" fill="white" stroke="#1A1818" stroke-width="4" stroke-linejoin="round"/>
</svg>
