<svg width="455" height="415" viewBox="0 0 455 415" fill="none" xmlns="http://www.w3.org/2000/svg">
<path d="M226.97 415C341.569 415 434.47 322.099 434.47 207.5C434.47 92.9009 341.569 0 226.97 0C112.371 0 19.4697 92.9009 19.4697 207.5C19.4697 322.099 112.371 415 226.97 415Z" fill="white"/>
<path d="M21.0904 344.844C19.8816 344.844 18.8938 344.305 18.8938 343.649C18.8938 342.992 19.8816 342.456 21.0904 342.456H129.147C129.192 340.124 131.022 340.556 131.875 339.218C132.74 337.863 131.013 336.485 132.955 334.374C134.194 333.023 135.638 333.304 136.691 331.517C138.624 328.216 141.505 328.599 141.505 328.599C142.442 328.541 143.374 328.777 144.171 329.274C145.203 328.819 146.064 328.047 146.628 327.069C149.356 322.431 153.393 322.957 153.393 322.957C153.393 322.957 157.427 322.431 160.153 327.069C161.62 329.583 165.062 329.309 166.81 331.206C168.815 333.388 168.114 334.808 168.086 336.157C168.383 336.294 168.652 336.488 168.876 336.727C168.881 336.314 168.967 335.906 169.13 335.526C169.293 335.147 169.529 334.803 169.825 334.515C171.051 333.184 172.485 333.452 173.512 331.714C175.419 328.453 178.247 328.83 178.247 328.83C178.247 328.83 181.074 328.453 182.981 331.714C183.802 333.103 185.513 333.27 186.788 333.963C187.874 327.082 191.901 302.259 195.608 288.459C198.29 278.468 198.301 265.234 197.921 256.606C196.747 256.417 196.087 256.259 196.087 256.259C196.087 256.259 196.998 232.87 198.556 217.517H53.1569C42.6179 217.517 32.5105 213.33 25.0583 205.878C17.606 198.426 13.4194 188.318 13.4194 177.779V131.921C13.4185 129.719 13.6229 127.521 14.0301 125.357C10.4761 122.495 7.61809 118.864 5.67133 114.737C3.72458 110.61 2.73989 106.095 2.79148 101.533C2.84306 96.9702 3.92957 92.4787 5.96913 88.3969C8.0087 84.3152 10.9481 80.7496 14.5658 77.9689C18.1836 75.1881 22.3853 73.2648 26.8543 72.3438C31.3234 71.4228 35.9432 71.5281 40.3656 72.6519C44.788 73.7757 48.8977 75.8885 52.3849 78.8313C55.8721 81.7741 58.6459 85.47 60.4973 89.6405H366.91C367.761 84.4691 369.991 79.6232 373.366 75.6139C376.742 71.6046 381.136 68.5807 386.087 66.861C391.038 65.1414 396.361 64.7899 401.494 65.8436C406.628 66.8972 411.382 69.317 415.255 72.8476C419.129 76.3782 421.977 80.8888 423.5 85.9034C425.023 90.918 425.164 96.2507 423.909 101.339C422.654 106.427 420.048 111.082 416.368 114.813C412.687 118.544 408.068 121.212 402.997 122.536C403.104 123.668 403.157 124.814 403.158 125.974V175.238C403.162 180.848 401.828 186.378 399.267 191.369C396.705 196.361 392.99 200.669 388.43 203.936C383.199 210.64 375.725 215.231 367.38 216.866V239.48C367.385 240.091 367.209 240.69 366.875 241.201C366.54 241.712 366.061 242.113 365.499 242.352L359.221 248.658L359.207 248.632C358.655 249.2 357.906 249.536 357.114 249.57C356.322 249.604 355.547 249.333 354.949 248.814L340.686 232.633C340.27 233.848 339.639 234.398 338.936 234.541L332.231 245.363C332.25 245.455 332.268 245.541 332.284 245.62C334.173 253.04 334.906 260.708 334.458 268.352C333.56 286.37 326.113 337.402 326.113 337.402V342.457H338.997C339.334 340.815 340.894 341.043 341.66 339.84C342.526 338.486 340.798 337.108 342.741 334.997C343.979 333.645 345.424 333.927 346.477 332.139C348.409 328.839 351.29 329.222 351.29 329.222C352.228 329.164 353.16 329.399 353.957 329.896C354.99 329.441 355.851 328.669 356.415 327.692C359.143 323.053 363.177 323.578 363.177 323.578C363.177 323.578 367.214 323.053 369.939 327.692C371.407 330.206 374.849 329.932 376.597 331.827C378.6 334.009 377.902 335.427 377.873 336.776C378.17 336.913 378.439 337.107 378.663 337.346C378.668 336.933 378.754 336.525 378.917 336.146C379.08 335.766 379.316 335.423 379.612 335.135C380.838 333.803 382.273 334.071 383.299 332.333C385.206 329.073 388.034 329.449 388.034 329.449C388.034 329.449 390.862 329.073 392.768 332.333C393.796 334.07 396.214 333.896 397.433 335.231C397.88 335.671 398.201 336.223 398.363 336.829H408.137V336.337H404.578V256.862C404.115 256.769 403.652 256.669 403.189 256.562C403.189 256.562 403.103 251.774 403.144 245.046L400.082 243.163C399.191 242.673 398.191 242.417 397.175 242.417C396.159 242.417 395.159 242.673 394.268 243.163L382.111 250.645C380.498 251.623 379.554 250.933 380.003 249.113L383.03 236.553C382.774 236.817 382.48 237.042 382.157 237.219C381.404 237.56 379.558 235.033 379.898 232.773C380.035 231.501 380.342 230.253 380.812 229.063L370.698 220.426C369.261 219.197 369.621 218.093 371.498 217.941L385.729 216.861C386.738 216.726 387.696 216.343 388.519 215.744C389.341 215.146 390.002 214.352 390.44 213.435L395.875 200.25C396.588 198.518 397.765 198.518 398.478 200.25L401.326 207.134C401.729 206.255 402.22 205.194 402.821 203.916C404.999 199.292 408.849 195.666 413.595 193.768C415.129 192.958 416.753 192.331 418.434 191.899C418.393 191.849 418.346 191.804 418.295 191.764C418.189 191.696 418.068 191.654 417.942 191.642C417.911 191.642 417.883 191.642 417.856 191.635C415.265 191.51 415.408 189.738 413.934 185.738C412.451 181.681 413.7 174.7 413.7 174.7C413.717 174.658 413.737 174.617 413.761 174.578C409.004 172.572 407.125 165.09 411.086 166.739C412.549 167.346 415.082 166.544 417.789 165.742C420.002 165.086 422.33 164.43 424.284 164.545C428.632 164.793 429.715 170.119 429.715 170.119C436.162 173.674 430.479 180.413 430.132 180.842C430.114 180.948 430.093 181.058 430.068 181.172C429.921 181.835 429.674 182.471 429.334 183.059L429.417 183.026L427.729 184.988C427.688 187.2 427.462 189.405 427.054 191.58C427.465 191.654 427.871 191.748 428.271 191.863C431.146 193.073 433.812 194.728 436.171 196.768C438.249 198.163 439.945 200.056 441.104 202.275C443.773 207.099 444.14 208.552 447.057 218.767C449.112 225.966 448.484 230.208 446.023 232.394C443.742 234.418 438.786 234.377 431.51 232.279C431.062 235.078 430.661 238.115 430.329 241.426C430.127 243.468 434.01 257.654 434.01 257.654C434.01 257.654 433.279 257.757 431.985 257.888L442.323 335.42C441.625 335.646 440.91 335.814 440.184 335.923V336.827H441.404V342.459H449.463C450.675 342.459 451.667 342.994 451.667 343.652C451.667 344.31 450.675 344.848 449.463 344.848L21.0904 344.844ZM422.554 342.456V336.823H435.569V336.114C434.657 336.071 433.749 335.978 432.848 335.837L428.087 315.944V336.326H412.745V336.818H413.97V339.325C413.97 339.346 413.97 339.367 413.97 339.388V342.45L422.554 342.456ZM311.747 342.456V337.031H320.265C319.828 332.06 315.199 278.446 317.473 265.382C317.179 260.908 315.144 269.663 312.514 278.88C309.835 288.259 309.237 288.411 309.835 295.161C310.738 305.492 311.572 334.933 311.617 336.588V342.456H311.747ZM297.275 342.456V336.588H305.742C305.187 334.631 293.591 293.679 294.501 281.107C295.293 270.097 298.773 256.58 302.957 245.498C304.584 240.357 304.877 228.022 305.412 217.519H304.311C293.827 229.669 291.099 229.011 289.974 228.348C288.412 227.435 288.526 225.271 289.842 222.42C289.785 222.149 289.764 221.872 289.779 221.595C289.813 220.784 290.51 219.326 291.585 217.52H269.237C269.54 219.165 268.611 219.756 267.08 218.821L264.963 217.52H255.698C251.341 220.521 234.488 231.753 224.797 232.848C224.026 232.936 223.247 232.925 222.478 232.816V233.622C222.478 233.754 222.478 233.887 222.478 234.019C222.814 241.78 222.91 248.927 222.938 252.245C225.407 290.414 219.443 336.599 219.443 336.599H218.54V337.541H230.088V342.457L297.275 342.456ZM213.353 342.456V337.54H214.45V336.601H213.182C213.182 336.601 211.255 312.293 210.047 293.515C209.881 290.919 209.549 288.165 209.1 285.353C204.983 304.607 192.085 336.053 192.085 336.053C191.92 336.087 191.759 336.118 191.603 336.146V336.902H203.159V342.459L213.353 342.456ZM331.079 238.18L334.638 231.481C334.194 230.18 333.834 228.852 333.561 227.505C332.686 228.224 331.69 228.782 330.62 229.155C330.553 232.169 330.707 235.185 331.079 238.177V238.18ZM437.251 224.135C436.867 222.794 436.331 221.241 435.723 219.614H434.17H434.161C433.839 220.843 433.52 222.147 433.203 223.525C434.567 223.748 435.947 223.958 437.251 224.135ZM229.551 220.092C230.898 220.378 233.164 219.978 235.799 219.258C234.976 219.338 234.56 218.703 234.786 217.522H225.011C226.258 218.781 227.83 219.671 229.551 220.092ZM236.944 218.82C236.79 218.915 236.629 218.999 236.464 219.072C238.014 218.627 239.67 218.086 241.327 217.519H239.056L236.944 218.82ZM426.066 180.772C425.875 181.778 425.915 182.814 426.183 183.802C425.916 182.814 425.876 181.778 426.066 180.772ZM426.459 183.273C426.449 183.349 426.438 183.417 426.427 183.477C426.439 183.417 426.449 183.349 426.46 183.273C426.491 183.019 426.538 182.767 426.599 182.519C426.537 182.767 426.49 183.019 426.458 183.273H426.459ZM426.087 180.564C426.087 180.56 426.087 180.556 426.087 180.553C426.087 180.549 426.085 180.558 426.085 180.562L426.087 180.564ZM426.087 180.511C426.087 180.505 426.087 180.498 426.087 180.492C426.089 180.499 426.089 180.503 426.088 180.509L426.087 180.511ZM426.087 180.484C426.09 180.406 426.092 180.327 426.091 180.248C426.094 180.326 426.093 180.404 426.089 180.482L426.087 180.484ZM426.091 180.247C426.091 180.23 426.091 180.214 426.091 180.197C426.094 180.212 426.094 180.228 426.094 180.245L426.091 180.247ZM426.091 180.194C426.091 180.194 426.091 180.188 426.091 180.184C426.091 180.181 426.093 180.189 426.093 180.192L426.091 180.194ZM426.091 180.141C426.091 180.127 426.091 180.114 426.091 180.1C426.091 180.112 426.091 180.126 426.091 180.139V180.141ZM426.091 180.062C426.091 180.062 426.091 180.058 426.091 180.056C426.091 180.054 426.088 180.058 426.088 180.06L426.091 180.062ZM113.319 263.591C113.317 259.033 114.667 254.577 117.199 250.786C119.73 246.995 123.328 244.04 127.539 242.294C131.75 240.548 136.384 240.091 140.855 240.979C145.326 241.868 149.433 244.062 152.657 247.285C155.88 250.507 158.076 254.614 158.966 259.085C159.855 263.555 159.399 268.189 157.655 272.401C155.911 276.612 152.957 280.212 149.167 282.744C145.376 285.276 140.92 286.628 136.362 286.627C130.252 286.626 124.393 284.199 120.072 279.879C115.751 275.56 113.322 269.701 113.319 263.591Z" fill="white"/>
<path d="M159.408 268.276C159.405 272.833 158.051 277.287 155.517 281.075C152.984 284.862 149.384 287.814 145.173 289.555C140.962 291.297 136.329 291.752 131.86 290.861C127.391 289.97 123.286 287.774 120.065 284.551C116.843 281.328 114.65 277.222 113.762 272.752C112.874 268.283 113.331 263.65 115.075 259.44C116.819 255.23 119.772 251.632 123.561 249.1C127.35 246.569 131.805 245.217 136.362 245.217C139.39 245.217 142.388 245.813 145.184 246.973C147.981 248.132 150.523 249.83 152.663 251.972C154.803 254.113 156.5 256.655 157.658 259.453C158.815 262.251 159.41 265.249 159.408 268.276Z" fill="#FE0056"/>
<path d="M142.985 254.583C142.985 254.583 136.404 262.928 133.483 266.621C131.682 264.738 129.72 262.697 129.72 262.697C129.141 262.124 128.362 261.8 127.548 261.794C126.734 261.787 125.949 262.098 125.361 262.661C124.773 263.224 124.427 263.994 124.398 264.808C124.369 265.622 124.658 266.415 125.205 267.018L131.457 273.536C131.766 273.858 132.141 274.111 132.555 274.276C132.97 274.442 133.415 274.517 133.861 274.496C134.307 274.475 134.744 274.358 135.141 274.155C135.538 273.951 135.887 273.664 136.165 273.314L147.879 258.468C148.369 257.816 148.585 256.999 148.481 256.191C148.377 255.382 147.962 254.647 147.324 254.14C146.685 253.634 145.874 253.396 145.063 253.479C144.253 253.562 143.506 253.958 142.983 254.583" fill="white"/>
<mask id="mask0_197_2664" style="mask-type:luminance" maskUnits="userSpaceOnUse" x="13" y="101" width="383" height="154">
<path d="M395.906 101.29H13.4165V254.259H395.906V101.29Z" fill="white"/>
</mask>
<g mask="url(#mask0_197_2664)">
<path d="M359.573 101.29H48.7322C43.4119 101.295 38.1621 102.508 33.3791 104.838L33.6729 102.271L24.1234 111.306C23.9748 111.445 23.8198 111.584 23.6739 111.729L23.5517 111.845V111.865C17.049 118.457 13.4073 127.347 13.4165 136.606V182.464C13.4165 193.003 17.6031 203.111 25.0554 210.563C32.5076 218.015 42.615 222.202 53.154 222.202H316.328C319.793 222.202 323.218 222.939 326.377 224.364C329.535 225.789 332.354 227.87 334.646 230.469L354.95 253.499C355.549 254.019 356.323 254.289 357.115 254.256C357.907 254.222 358.656 253.886 359.209 253.318L359.222 253.344L365.505 247.034L361.997 239.323L360.13 239.201V222.204H360.586C365.224 222.204 369.817 221.291 374.102 219.516C378.387 217.742 382.281 215.141 385.56 211.861C388.84 208.582 391.442 204.689 393.217 200.404C394.992 196.119 395.905 191.526 395.905 186.888V137.623C395.905 127.987 392.077 118.746 385.264 111.932C378.45 105.118 369.208 101.29 359.572 101.29" fill="#10A6AD"/>
</g>
<mask id="mask1_197_2664" style="mask-type:luminance" maskUnits="userSpaceOnUse" x="20" y="94" width="384" height="154">
<path d="M403.157 94.3242H20.667V247.304H403.157V94.3242Z" fill="white"/>
</mask>
<g mask="url(#mask1_197_2664)">
<path d="M366.823 94.3242H55.9827C46.6164 94.3242 37.6337 98.045 31.0107 104.668C24.3877 111.291 20.667 120.274 20.667 129.64V179.922C20.6677 189.288 24.3888 198.27 31.0117 204.892C37.6346 211.514 46.6168 215.235 55.9827 215.235H323.578C327.043 215.234 330.469 215.971 333.627 217.397C336.786 218.822 339.605 220.903 341.897 223.502L362.204 246.533C362.657 246.927 363.214 247.182 363.809 247.268C364.403 247.354 365.01 247.267 365.556 247.017C366.102 246.767 366.564 246.365 366.888 245.859C367.212 245.353 367.383 244.765 367.381 244.165V215.235H367.837C372.475 215.235 377.067 214.322 381.352 212.547C385.637 210.773 389.531 208.171 392.811 204.892C396.09 201.613 398.692 197.719 400.467 193.434C402.242 189.15 403.156 184.557 403.156 179.919V130.658C403.156 121.021 399.328 111.78 392.514 104.966C385.7 98.1522 376.459 94.3242 366.822 94.3242" fill="#1BCCDC"/>
</g>
<path d="M64.1772 131.71C64.8906 129.978 66.0668 129.978 66.7802 131.71L72.215 144.894C72.6537 145.812 73.3142 146.606 74.1368 147.205C74.9594 147.803 75.9182 148.187 76.9265 148.322L91.1584 149.402C93.0341 149.554 93.3946 150.657 91.958 151.886L81.0989 161.153C80.3625 161.853 79.8131 162.727 79.5009 163.694C79.1887 164.661 79.1236 165.691 79.3114 166.69L82.6551 180.565C83.1046 182.385 82.1598 183.076 80.5473 182.098L68.3899 174.616C67.4991 174.126 66.4992 173.87 65.4829 173.87C64.4665 173.87 63.4667 174.126 62.5758 174.616L50.4087 182.098C48.8108 183.077 47.8646 182.386 48.3009 180.565L51.6439 166.69C51.8253 165.689 51.7553 164.66 51.44 163.693C51.1247 162.727 50.574 161.854 49.8376 161.153L39.0001 151.885C37.56 150.669 37.9233 149.553 39.7997 149.4L54.0149 148.322C55.0231 148.187 55.9819 147.804 56.8045 147.206C57.6271 146.608 58.2875 145.814 58.7257 144.896L64.1772 131.71Z" fill="#03A3BE"/>
<path d="M136.472 131.71C137.186 129.978 138.362 129.978 139.075 131.71L144.51 144.894C144.949 145.812 145.609 146.606 146.432 147.205C147.254 147.803 148.213 148.187 149.221 148.322L163.453 149.402C165.329 149.554 165.69 150.657 164.253 151.886L153.394 161.153C152.657 161.853 152.108 162.727 151.796 163.694C151.484 164.661 151.418 165.691 151.606 166.69L154.95 180.565C155.399 182.385 154.455 183.076 152.842 182.098L140.685 174.616C139.794 174.126 138.794 173.87 137.778 173.87C136.761 173.87 135.762 174.126 134.871 174.616L122.704 182.098C121.106 183.077 120.16 182.386 120.596 180.565L123.939 166.69C124.12 165.689 124.05 164.66 123.735 163.693C123.42 162.727 122.869 161.854 122.133 161.153L111.295 151.885C109.855 150.669 110.218 149.553 112.095 149.4L126.31 148.322C127.318 148.187 128.277 147.804 129.099 147.206C129.922 146.608 130.582 145.814 131.021 144.896L136.472 131.71Z" fill="#03A3BE"/>
<path d="M66.7543 126.886C67.4678 125.155 68.6439 125.155 69.3574 126.886L74.7921 140.071C75.2308 140.989 75.8912 141.783 76.7137 142.381C77.5362 142.98 78.4948 143.363 79.503 143.498L93.7348 144.579C95.6105 144.731 95.9711 145.834 94.5344 147.063L83.6754 156.33C82.939 157.03 82.3896 157.904 82.0774 158.871C81.7652 159.838 81.7 160.868 81.8879 161.866L85.2309 175.742C85.6803 177.562 84.7355 178.253 83.1231 177.275L70.9656 169.792C70.0747 169.303 69.0747 169.047 68.0583 169.047C67.0418 169.047 66.0418 169.303 65.1509 169.792L52.9879 177.274C51.3901 178.252 50.4439 177.561 50.8801 175.741L54.2231 161.865C54.4046 160.865 54.3345 159.835 54.0192 158.869C53.7039 157.902 53.1533 157.029 52.4168 156.328L41.5773 147.061C40.1371 145.846 40.5004 144.729 42.3769 144.577L56.5921 143.498C57.6 143.363 58.5583 142.979 59.3806 142.381C60.2028 141.783 60.863 140.989 61.3015 140.071L66.7543 126.886Z" fill="#F9C834"/>
<path d="M139.268 126.886C139.978 125.155 141.157 125.155 141.868 126.886L147.309 140.071C147.746 140.989 148.405 141.783 149.226 142.381C150.048 142.98 151.006 143.363 152.013 143.497L166.249 144.577C168.125 144.729 168.482 145.832 167.048 147.061L156.186 156.328C155.45 157.029 154.9 157.902 154.588 158.869C154.276 159.836 154.211 160.866 154.398 161.865L157.741 175.741C158.191 177.561 157.246 178.251 155.634 177.274L143.476 169.791C142.586 169.302 141.586 169.045 140.571 169.045C139.555 169.045 138.555 169.302 137.665 169.791L125.503 177.274C123.905 178.252 122.956 177.561 123.395 175.741L126.735 161.865C126.917 160.865 126.848 159.835 126.532 158.868C126.217 157.902 125.666 157.029 124.929 156.328L114.091 147.061C112.648 145.846 113.011 144.729 114.887 144.577L129.103 143.498C130.112 143.364 131.071 142.981 131.894 142.383C132.717 141.784 133.378 140.991 133.818 140.073L139.268 126.886Z" fill="#F9C834"/>
<path d="M209.37 131.71C210.083 129.978 211.26 129.978 211.973 131.71L217.408 144.894C217.847 145.812 218.507 146.606 219.33 147.205C220.152 147.803 221.111 148.187 222.119 148.322L236.351 149.402C238.227 149.554 238.588 150.657 237.151 151.886L226.292 161.153C225.555 161.853 225.006 162.727 224.694 163.694C224.382 164.661 224.316 165.691 224.504 166.69L227.848 180.565C228.297 182.385 227.353 183.076 225.74 182.098L213.583 174.616C212.692 174.126 211.692 173.87 210.676 173.87C209.659 173.87 208.66 174.126 207.769 174.616L195.602 182.098C194.004 183.077 193.057 182.386 193.494 180.565L196.837 166.69C197.018 165.689 196.948 164.66 196.633 163.693C196.318 162.727 195.767 161.854 195.03 161.153L184.193 151.885C182.753 150.669 183.116 149.553 184.993 149.4L199.208 148.322C200.216 148.187 201.175 147.804 201.997 147.206C202.82 146.608 203.48 145.814 203.919 144.896L209.37 131.71Z" fill="#03A3BE"/>
<path d="M211.781 126.886C212.495 125.155 213.671 125.155 214.384 126.886L219.819 140.071C220.258 140.989 220.918 141.783 221.741 142.381C222.563 142.98 223.522 143.364 224.531 143.498L238.762 144.579C240.638 144.731 240.999 145.834 239.562 147.063L228.703 156.33C227.967 157.03 227.417 157.904 227.105 158.871C226.793 159.838 226.728 160.868 226.915 161.866L230.259 175.742C230.709 177.562 229.764 178.253 228.151 177.275L215.994 169.792C215.103 169.303 214.103 169.047 213.087 169.047C212.071 169.047 211.071 169.303 210.18 169.792L198.013 177.275C196.415 178.253 195.469 177.563 195.905 175.742L199.248 161.866C199.429 160.866 199.359 159.836 199.044 158.87C198.729 157.903 198.178 157.03 197.442 156.33L186.604 147.061C185.164 145.846 185.527 144.729 187.404 144.577L201.619 143.498C202.627 143.364 203.586 142.981 204.409 142.383C205.231 141.784 205.891 140.99 206.33 140.073L211.781 126.886Z" fill="#F9C834"/>
<g style="mix-blend-mode:multiply">
<path d="M356.811 126.886C357.525 125.155 358.701 125.155 359.414 126.886L364.849 140.071C365.288 140.989 365.948 141.783 366.771 142.381C367.593 142.98 368.552 143.364 369.56 143.498L383.792 144.579C385.668 144.731 386.029 145.834 384.592 147.063L373.733 156.33C372.996 157.03 372.447 157.904 372.135 158.871C371.823 159.838 371.758 160.868 371.945 161.866L375.288 175.742C375.738 177.562 374.793 178.253 373.181 177.275L361.023 169.792C360.132 169.303 359.132 169.047 358.116 169.047C357.099 169.047 356.099 169.303 355.208 169.792L343.041 177.275C341.443 178.253 340.497 177.563 340.933 175.742L344.277 161.866C344.459 160.866 344.389 159.836 344.073 158.87C343.758 157.903 343.207 157.03 342.471 156.33L331.629 147.063C330.188 145.847 330.552 144.731 332.428 144.579L346.649 143.498C347.657 143.364 348.616 142.98 349.438 142.382C350.261 141.783 350.921 140.989 351.359 140.071L356.811 126.886Z" fill="#1BCCDC"/>
</g>
<g style="mix-blend-mode:multiply" opacity="0.6">
<g style="mix-blend-mode:multiply">
<path d="M332 147.377L343.651 146.491C344.659 146.359 345.618 145.976 346.441 145.378C347.264 144.78 347.924 143.986 348.362 143.069L348.409 142.956C347.859 143.24 347.262 143.423 346.648 143.494L332.429 144.578C330.553 144.73 330.193 145.843 331.629 147.062L332 147.377Z" fill="#0DABB9"/>
</g>
<g style="mix-blend-mode:multiply">
<path d="M371.941 161.866C371.669 160.418 371.935 158.92 372.69 157.654L370.735 159.326C369.997 160.026 369.447 160.899 369.135 161.866C368.823 162.834 368.758 163.864 368.947 164.863L371.719 176.376L373.178 177.274C374.793 178.253 375.735 177.562 375.286 175.746L371.941 161.866Z" fill="#0DABB9"/>
</g>
<g style="mix-blend-mode:multiply">
<path d="M383.788 144.578L369.558 143.5C368.55 143.366 367.592 142.983 366.77 142.385C365.948 141.788 365.288 140.994 364.85 140.077L359.413 126.888C358.703 125.157 357.523 125.157 356.81 126.888L355.912 129.069C356.126 129.31 356.298 129.586 356.42 129.885L361.855 143.07C362.293 143.988 362.954 144.781 363.776 145.379C364.599 145.977 365.558 146.36 366.566 146.493L380.798 147.577C382.073 147.679 382.585 148.237 382.37 148.961L384.593 147.065C386.034 145.836 385.67 144.733 383.794 144.58" fill="#0DABB9"/>
</g>
</g>
<g style="mix-blend-mode:multiply">
<path d="M284.68 126.886C285.393 125.155 286.569 125.155 287.283 126.886L292.717 140.071C293.156 140.989 293.817 141.782 294.639 142.38C295.462 142.978 296.42 143.362 297.428 143.497L311.66 144.577C313.536 144.729 313.896 145.832 312.46 147.061L301.601 156.328C300.864 157.029 300.315 157.902 300.003 158.869C299.69 159.836 299.625 160.866 299.813 161.865L303.157 175.741C303.606 177.561 302.661 178.251 301.049 177.274L288.892 169.791C288.001 169.302 287.001 169.045 285.984 169.045C284.968 169.045 283.968 169.302 283.077 169.791L270.914 177.274C269.317 178.252 268.37 177.561 268.807 175.741L272.15 161.865C272.331 160.865 272.261 159.835 271.946 158.869C271.631 157.902 271.08 157.029 270.343 156.328L259.501 147.061C258.061 145.846 258.424 144.729 260.301 144.577L274.517 143.497C275.525 143.363 276.484 142.979 277.306 142.381C278.129 141.783 278.789 140.989 279.227 140.071L284.68 126.886Z" fill="#1BCCDC"/>
</g>
<g style="mix-blend-mode:multiply" opacity="0.6">
<g style="mix-blend-mode:multiply">
<path d="M259.87 147.375L271.521 146.489C272.53 146.357 273.489 145.974 274.311 145.376C275.134 144.778 275.794 143.984 276.232 143.067L276.279 142.954C275.729 143.238 275.132 143.42 274.518 143.493L260.299 144.576C258.423 144.728 258.063 145.841 259.499 147.061L259.87 147.375Z" fill="#0DABB9"/>
</g>
<g style="mix-blend-mode:multiply">
<path d="M299.813 161.864C299.541 160.416 299.807 158.918 300.562 157.652L298.607 159.324C297.869 160.024 297.32 160.897 297.007 161.864C296.695 162.832 296.63 163.862 296.819 164.861L299.591 176.374L301.05 177.272C302.665 178.251 303.607 177.56 303.158 175.744L299.813 161.864Z" fill="#0DABB9"/>
</g>
<g style="mix-blend-mode:multiply">
<path d="M311.66 144.576L297.431 143.497C296.423 143.365 295.463 142.982 294.641 142.384C293.818 141.787 293.158 140.993 292.72 140.074L287.283 126.885C286.573 125.154 285.393 125.154 284.68 126.885L283.781 129.066C283.996 129.307 284.167 129.583 284.287 129.882L289.725 143.067C290.163 143.985 290.823 144.778 291.646 145.376C292.469 145.974 293.427 146.357 294.435 146.49L308.667 147.574C309.943 147.676 310.451 148.235 310.24 148.958L312.463 147.062C313.903 145.833 313.54 144.73 311.664 144.578" fill="#0DABB9"/>
</g>
</g>
<mask id="mask2_197_2664" style="mask-type:luminance" maskUnits="userSpaceOnUse" x="312" y="341" width="15" height="7">
<path d="M320.299 342.088C320.299 342.088 314.719 345.517 313.232 346.033C311.745 346.548 312.783 347.82 312.783 347.82H325.74L326.11 341.719L320.299 342.088Z" fill="white"/>
</mask>
<g mask="url(#mask2_197_2664)">
<path d="M326.11 341.719H311.749V347.82H326.11V341.719Z" fill="url(#paint0_linear_197_2664)"/>
</g>
<path d="M334.9 235.668L328.647 247.439L331.175 251.746L339.659 238.053L334.9 235.668Z" fill="#FFD6A4"/>
<mask id="mask3_197_2664" style="mask-type:luminance" maskUnits="userSpaceOnUse" x="294" y="243" width="41" height="100">
<path d="M334.558 243.062H294.451V342.087H334.558V243.062Z" fill="white"/>
</mask>
<g mask="url(#mask3_197_2664)">
<path d="M330.289 244.452C330.289 244.452 335.337 255.027 334.458 273.038C333.559 291.056 326.113 342.088 326.113 342.088H320.302C320.302 342.088 315.091 283.772 317.477 270.068C317.183 265.595 315.147 274.35 312.518 283.567C309.838 292.946 309.241 293.098 309.838 299.848C310.77 310.477 311.623 341.349 311.623 341.349H305.765C305.765 341.349 293.572 298.675 294.503 285.795C295.442 272.742 300.159 256.167 305.346 244.304C313.186 241.43 330.292 244.453 330.292 244.453" fill="#1BCCDC"/>
</g>
<mask id="mask4_197_2664" style="mask-type:luminance" maskUnits="userSpaceOnUse" x="297" y="341" width="15" height="7">
<path d="M298.752 346.03C297.275 346.549 298.316 347.818 298.316 347.818H311.266L311.62 341.346L305.835 341.276C305.835 341.276 300.245 345.518 298.749 346.034" fill="white"/>
</mask>
<g mask="url(#mask4_197_2664)">
<path d="M311.62 341.273H297.276V347.818H311.62V341.273Z" fill="url(#paint1_linear_197_2664)"/>
</g>
<path d="M310.027 203.651C310.027 203.651 311.52 200.823 309.284 199.333C307.048 197.844 304.818 199.776 304.223 203.79C301.841 207.969 289.925 222.862 289.779 226.281C289.627 229.714 294.097 229.112 294.097 229.112L306.902 215.263L310.027 203.651Z" fill="#FFD6A4"/>
<path d="M319.459 202.652C319.459 202.652 310.725 202.255 308.835 203.753C306.952 205.232 306.063 210.198 305.459 221.318C304.871 232.434 304.61 245.927 302.75 250.78C303.192 250.78 332.426 250.978 332.426 250.978C332.426 250.978 329.536 238.385 331.022 229.554C332.175 222.722 335.786 210.945 333.401 207.664C331.016 204.384 319.459 202.652 319.459 202.652Z" fill="#F9C834"/>
<path d="M331.772 221.215C331.772 221.215 333.556 235.959 335.492 237.743C337.428 239.527 341.594 241.618 341.155 231.939C340.716 222.26 337.134 211.546 337.134 211.546L334.306 209.601L331.772 221.215Z" fill="#F9C834"/>
<path d="M310.851 195.645C308.941 189.847 310.92 183.776 310.92 183.776C311.997 183.96 314.511 183.739 316.331 183.776C318.138 183.812 318.132 186.079 318.228 187.132C318.356 188.193 319.288 190.516 319.919 190.664C320.24 189.435 320.24 185.56 322.255 186.816C324.257 188.074 323.603 188.732 323.474 191.005C323.365 193.281 326.412 192.716 326.412 192.716C325.397 198.196 326.342 199.568 325.486 200.859C323.541 203.773 320.131 203.912 317.373 202.665C317.98 200.026 318.271 197.618 318.271 197.618C314.069 200.142 311.938 198.79 310.851 195.649" fill="#FFD6A4"/>
<path d="M312.604 176.755C316.852 173.405 326.542 172.934 327.804 178.832C327.804 178.832 330.513 180.041 330.513 185.043C330.513 188.106 332.042 194.716 336.173 205.73C336.173 205.73 339.007 212.982 339.202 217.98C339.737 231.783 326.675 241.518 318.967 227.204C316.169 222.004 317.174 206.186 319.113 198.439C319.803 195.667 319.764 193.735 318.214 190.177C317.788 189.205 318.132 183.814 316.328 183.778C314.508 183.742 311.485 186.394 308.588 186.025C305.69 185.655 307.233 180.987 312.602 176.755" fill="#211D3E"/>
<path d="M308.835 203.753C308.835 203.753 301.299 211.787 295.635 218.543C289.976 225.286 287.065 231.331 289.976 233.033C291.165 233.733 294.144 234.427 306.154 220.033C310.135 213.78 308.836 203.752 308.836 203.752" fill="#F9C834"/>
<g opacity="0.4">
<mask id="mask5_197_2664" style="mask-type:luminance" maskUnits="userSpaceOnUse" x="366" y="69" width="59" height="60">
<path d="M424.757 69.9316H366.53V128.158H424.757V69.9316Z" fill="white"/>
</mask>
<g mask="url(#mask5_197_2664)">
<path d="M424.757 99.047C424.756 104.805 423.049 110.433 419.849 115.221C416.65 120.008 412.103 123.739 406.784 125.943C401.464 128.146 395.61 128.722 389.963 127.599C384.316 126.475 379.129 123.702 375.057 119.631C370.986 115.559 368.213 110.372 367.09 104.725C365.966 99.0775 366.543 93.2239 368.746 87.9042C370.95 82.5846 374.681 78.0377 379.468 74.8386C384.256 71.6396 389.884 69.9319 395.642 69.9316C399.466 69.9308 403.252 70.6834 406.785 72.1463C410.318 73.6092 413.528 75.7538 416.231 78.4575C418.935 81.1613 421.08 84.3713 422.543 87.9041C424.005 91.4369 424.758 95.2233 424.757 99.047Z" fill="#F9C834"/>
</g>
</g>
<path d="M418.9 99.0461C418.9 103.645 417.536 108.141 414.981 111.965C412.426 115.789 408.794 118.77 404.545 120.53C400.296 122.29 395.62 122.751 391.109 121.853C386.598 120.956 382.455 118.741 379.203 115.489C375.95 112.237 373.736 108.094 372.838 103.583C371.941 99.0719 372.402 94.3963 374.162 90.1471C375.922 85.898 378.902 82.2662 382.726 79.711C386.551 77.1558 391.046 75.792 395.646 75.792C398.7 75.7918 401.723 76.3932 404.545 77.5617C407.366 78.7303 409.93 80.4432 412.089 82.6025C414.249 84.7619 415.961 87.3255 417.13 90.1469C418.299 92.9683 418.9 95.9923 418.9 99.0461Z" fill="#FE0056"/>
<path d="M387.032 91.0487C391.825 88.1747 395.327 92.8987 395.646 93.3447C395.963 92.8987 399.459 88.1747 404.252 91.0487C408.583 93.6421 410.77 103.566 395.707 111.577L395.647 111.621L395.578 111.577C380.524 103.566 382.697 93.6421 387.028 91.0487" fill="white"/>
<path d="M188.821 343.778C187.975 342.463 189.567 341.359 187.648 339.295C186.429 337.96 184.01 338.135 182.983 336.397C181.077 333.136 178.249 333.513 178.249 333.513C178.249 333.513 175.421 333.137 173.515 336.397C172.487 338.134 171.053 337.867 169.828 339.199C167.925 341.29 169.62 342.638 168.764 343.96C167.925 345.294 166.082 344.842 166.082 347.23H190.416C190.416 344.842 189.663 345.116 188.818 343.778" fill="#309A39"/>
<path d="M168.473 342.298C167.264 340.412 169.537 338.856 166.811 335.889C165.063 333.992 161.621 334.267 160.155 331.753C157.429 327.114 153.395 327.64 153.395 327.64C153.395 327.64 149.358 327.115 146.629 331.753C145.159 334.267 143.127 333.864 141.386 335.763C138.667 338.73 141.079 340.662 139.873 342.565C138.667 344.468 136.038 343.816 136.038 347.23H170.745C170.745 343.818 169.688 344.197 168.472 342.298" fill="#309A39"/>
<path d="M152.255 343.718C151.386 342.371 152.999 341.267 151.066 339.146C149.824 337.798 147.372 337.99 146.316 336.202C144.379 332.902 141.504 333.281 141.504 333.281C141.504 333.281 138.623 332.901 136.69 336.199C135.636 337.986 134.189 337.705 132.954 339.056C131.009 341.167 132.739 342.545 131.874 343.9C131.008 345.254 129.145 344.795 129.145 347.227H153.87C153.87 344.795 153.113 345.066 152.257 343.715" fill="#3DCC4B"/>
<path d="M172.146 345.574C171.736 344.94 172.506 344.418 171.581 343.421C170.996 342.78 169.844 342.869 169.345 342.036C169.132 341.616 168.807 341.263 168.405 341.016C168.004 340.769 167.542 340.639 167.07 340.639C166.599 340.639 166.137 340.769 165.736 341.016C165.334 341.263 165.009 341.616 164.796 342.036C164.303 342.87 163.627 342.731 163.032 343.378C162.117 344.375 162.936 345.03 162.524 345.657C162.117 346.301 161.235 346.086 161.235 347.226H172.909C172.909 346.086 172.556 346.216 172.145 345.572" fill="#3DCC4B"/>
<path d="M232.478 200.593C230.023 203.249 229.785 204.356 230.644 205.119C231.504 205.883 232.048 206.418 235.577 203.362C236.77 202.328 236.786 200.62 235.93 199.85C235.075 199.08 233.552 199.437 232.481 200.593" fill="#FFB38B"/>
<path d="M216.669 209.012L229.796 203.346C229.796 203.346 231.953 205.156 231.953 206.6C231.953 208.043 220.278 219.121 220.278 219.121L216.669 209.012Z" fill="#23314C"/>
<path d="M253.314 173.118C252.6 171.387 251.424 171.387 250.711 173.118L245.271 186.306C244.834 187.224 244.174 188.018 243.352 188.615C242.53 189.213 241.571 189.596 240.564 189.729L226.332 190.809C224.456 190.961 224.095 192.065 225.532 193.294L236.391 202.56C237.128 203.261 237.677 204.134 237.989 205.101C238.301 206.069 238.367 207.098 238.179 208.097L234.836 221.973C234.386 223.793 235.331 224.483 236.943 223.506L249.101 216.023C249.992 215.534 250.992 215.277 252.008 215.277C253.024 215.277 254.024 215.534 254.915 216.023L267.082 223.506C268.68 224.484 269.626 223.794 269.19 221.973L265.846 208.097C265.665 207.097 265.735 206.067 266.05 205.101C266.365 204.134 266.916 203.261 267.652 202.56L278.495 193.294C279.935 192.078 279.572 190.961 277.695 190.809L263.479 189.729C262.471 189.596 261.512 189.213 260.689 188.616C259.867 188.018 259.206 187.224 258.769 186.306L253.314 173.118Z" fill="#F9C834"/>
<path d="M214.45 339.184V343.753H218.54V338.939L214.45 339.184Z" fill="#FFC9B0"/>
<mask id="mask6_197_2664" style="mask-type:luminance" maskUnits="userSpaceOnUse" x="213" y="342" width="17" height="6">
<path d="M214.45 342.226C214.091 342.485 213.803 342.83 213.611 343.23C213.42 343.629 213.331 344.07 213.353 344.512V347.819H229.788C229.788 347.819 230.086 345.86 227.833 345.86C225.58 345.86 221.619 344.297 220.886 343.544C219.937 342.586 219.26 342.224 218.54 342.224L214.45 342.226Z" fill="white"/>
</mask>
<g mask="url(#mask6_197_2664)">
<path d="M230.086 342.226H213.353V347.819H230.086V342.226Z" fill="url(#paint2_linear_197_2664)"/>
</g>
<path d="M187.515 338.548V343.123H191.601V338.31L187.515 338.548Z" fill="#FFC9B0"/>
<mask id="mask7_197_2664" style="mask-type:luminance" maskUnits="userSpaceOnUse" x="186" y="341" width="17" height="7">
<path d="M187.516 341.584C187.16 341.845 186.874 342.191 186.685 342.59C186.495 342.989 186.407 343.429 186.429 343.87V347.19H202.855C202.855 347.19 203.158 345.227 200.903 345.227C198.647 345.227 194.682 343.652 193.956 342.911C193.001 341.946 192.324 341.583 191.603 341.583L187.516 341.584Z" fill="white"/>
</mask>
<g mask="url(#mask7_197_2664)">
<path d="M203.159 341.584H186.429V347.19H203.159V341.584Z" fill="url(#paint3_linear_197_2664)"/>
</g>
<mask id="mask8_197_2664" style="mask-type:luminance" maskUnits="userSpaceOnUse" x="186" y="251" width="25" height="91">
<path d="M210.347 251.244H186.509V341.036H210.347V251.244Z" fill="white"/>
</mask>
<g mask="url(#mask8_197_2664)">
<path d="M197.308 252.429C197.308 252.429 199.941 277.015 195.61 293.146C191.279 309.278 186.509 340.456 186.509 340.456C186.509 340.456 188.207 341.544 192.086 340.734C192.086 340.734 210.348 296.211 210.348 280.684V252.888C210.348 252.888 200.225 249.518 197.308 252.429Z" fill="#1BCCDC"/>
</g>
<mask id="mask9_197_2664" style="mask-type:luminance" maskUnits="userSpaceOnUse" x="198" y="247" width="26" height="95">
<path d="M223.536 247.084H198.941V341.286H223.536V247.084Z" fill="white"/>
</mask>
<g mask="url(#mask9_197_2664)">
<path d="M198.942 252.529C198.942 252.529 208.85 279.421 210.046 298.199C211.255 316.977 213.181 341.285 213.181 341.285H219.445C219.445 341.285 225.94 290.977 222.567 251.981C221.833 243.384 203.709 247.769 198.942 252.529Z" fill="#1BCCDC"/>
</g>
<path d="M208.688 199.192C208.688 199.192 202.709 201.547 200.185 211.18C197.661 220.813 196.086 260.947 196.086 260.947C196.086 260.947 209.502 264.165 222.948 258.879C222.948 258.879 222.912 219.361 219.079 211.062C216.284 205.013 214.424 200.262 212.089 199.403C209.763 198.541 208.685 199.194 208.685 199.194" fill="#23314C"/>
<path d="M219.677 181.095C219.677 181.095 219.852 185.852 223.076 187.041C226.3 188.231 223.925 189.922 221.883 191.279C219.841 192.636 221.979 199.178 219.088 198.498C216.198 197.818 212.808 197.992 212.633 199.684L208.395 199.43C208.395 199.43 205.425 183.82 209.915 181.784C214.419 179.749 219.674 181.097 219.674 181.097" fill="#FFB38B"/>
<path d="M219.676 181.094C219.676 181.094 224.1 179.532 223.76 177.204C223.426 174.924 216.363 172.41 210.132 174.055C206.013 175.139 203.902 177.251 204.516 179.569C204.516 179.569 200.79 182.387 201.335 186.553C201.722 189.635 206.089 194.334 206.803 197.997C207.136 199.712 208.481 195.704 208.907 193.233C209.333 190.762 207.539 191.459 207.879 189.242C208.223 187.042 210.215 184.716 211.054 191.736C211.877 196.292 212.815 198.581 215.014 198.922C217.224 199.259 221.044 199.86 221.475 197.741C221.888 195.61 220.811 195.587 218.185 196.519C215.559 197.45 212.654 196.882 212.304 193.069C211.964 189.244 211.331 184.797 212.304 183.823C213.277 182.849 217.851 182.934 219.681 181.097" fill="#211D3E"/>
<path d="M257.758 215.224C255.151 217.801 254.788 219.195 255.646 219.961C256.505 220.728 257.81 220.906 260.857 217.986C261.99 216.898 262.056 215.247 261.204 214.48C260.352 213.713 258.875 214.117 257.755 215.223" fill="#FFB38B"/>
<g style="mix-blend-mode:multiply" opacity="0.4">
<mask id="mask10_197_2664" style="mask-type:luminance" maskUnits="userSpaceOnUse" x="206" y="214" width="17" height="26">
<path d="M222.478 214.801H206.804V239.057H222.478V214.801Z" fill="white"/>
</mask>
<g mask="url(#mask10_197_2664)">
<path d="M206.805 220.229L217.102 214.801C218.444 215.253 219.756 217.093 221.271 219.188C222.209 225.075 222.466 232.665 222.48 239.057C212.698 237.593 206.805 220.23 206.805 220.23" fill="#93B7DD"/>
</g>
</g>
<path d="M217.025 213.222C220.275 214.312 223.288 223.453 229.549 224.778C234.316 225.788 250.606 218.219 253.857 218.219C257.107 218.219 256.747 221.47 256.747 221.47C256.747 221.47 235.991 236.267 224.795 237.532C213.599 238.798 206.741 219.123 206.741 219.123L217.025 213.222Z" fill="#23314C"/>
<path d="M398.602 344.397C397.757 343.082 399.346 341.979 397.429 339.914C396.21 338.58 393.792 338.755 392.765 337.017C390.858 333.756 388.031 334.132 388.031 334.132C388.031 334.132 385.203 333.756 383.297 337.017C382.269 338.754 380.836 338.487 379.61 339.819C377.707 341.91 379.402 343.257 378.547 344.579C377.707 345.914 375.864 345.462 375.864 347.85H400.197C400.197 345.462 399.444 345.736 398.599 344.398" fill="#309A39"/>
<path d="M378.255 342.92C377.046 341.034 379.318 339.478 376.593 336.511C374.845 334.614 371.403 334.889 369.936 332.374C367.211 327.736 363.174 328.261 363.174 328.261C363.174 328.261 359.14 327.736 356.411 332.374C354.941 334.889 352.909 334.486 351.168 336.385C348.449 339.351 350.861 341.284 349.655 343.187C348.449 345.09 345.82 344.437 345.82 347.852H380.528C380.528 344.44 379.47 344.819 378.255 342.919" fill="#309A39"/>
<path d="M362.037 344.34C361.168 342.992 362.78 341.889 360.847 339.767C359.605 338.42 357.154 338.611 356.097 336.824C354.161 333.523 351.287 333.906 351.287 333.906C351.287 333.906 348.406 333.526 346.473 336.824C345.419 338.611 343.972 338.33 342.737 339.681C340.792 341.793 342.522 343.17 341.657 344.524C340.791 345.878 338.928 345.42 338.928 347.851H363.651C363.651 345.42 362.895 345.691 362.039 344.339" fill="#3DCC4B"/>
<path d="M381.928 346.195C381.518 345.56 382.288 345.039 381.363 344.041C380.778 343.4 379.627 343.489 379.127 342.656C378.914 342.236 378.589 341.883 378.187 341.636C377.786 341.389 377.324 341.259 376.853 341.259C376.381 341.259 375.919 341.389 375.518 341.636C375.116 341.883 374.791 342.236 374.578 342.656C374.086 343.49 373.406 343.351 372.814 343.998C371.896 344.995 372.715 345.65 372.306 346.277C371.896 346.921 371.017 346.707 371.017 347.847H382.692C382.692 346.707 382.339 346.836 381.928 346.192" fill="#3DCC4B"/>
<path d="M414.829 198.032C412.207 198.873 409.788 200.245 407.721 202.064C405.655 203.884 403.986 206.11 402.82 208.604C398.816 217.124 399.639 215.994 399.639 215.994L407.588 224.075L414.829 198.032Z" fill="#D42D45"/>
<path d="M412.746 338.078V343.231H408.133V337.8L412.746 338.078Z" fill="#FFAD97"/>
<mask id="mask11_197_2664" style="mask-type:luminance" maskUnits="userSpaceOnUse" x="395" y="341" width="19" height="7">
<path d="M408.133 341.51C407.32 341.51 406.554 341.913 405.483 342.996C404.657 343.845 400.204 345.613 397.66 345.613C395.117 345.613 395.453 347.82 395.453 347.82H413.97V344.08C413.994 343.584 413.895 343.089 413.681 342.641C413.467 342.192 413.145 341.804 412.745 341.51H408.133Z" fill="white"/>
</mask>
<g mask="url(#mask11_197_2664)">
<path d="M413.971 341.51H395.114V347.82H413.971V341.51Z" fill="url(#paint4_linear_197_2664)"/>
</g>
<path d="M440.184 338.078V343.231H435.569V337.8L440.184 338.078Z" fill="#FFAD97"/>
<mask id="mask12_197_2664" style="mask-type:luminance" maskUnits="userSpaceOnUse" x="422" y="341" width="20" height="7">
<path d="M435.569 341.51C434.763 341.51 433.99 341.913 432.929 342.996C432.09 343.845 427.637 345.613 425.099 345.613C422.562 345.613 422.883 347.82 422.883 347.82H441.404V344.08C441.429 343.584 441.33 343.09 441.117 342.642C440.905 342.193 440.584 341.805 440.185 341.51H435.569Z" fill="white"/>
</mask>
<g mask="url(#mask12_197_2664)">
<path d="M441.405 341.51H422.554V347.82H441.405V341.51Z" fill="url(#paint5_linear_197_2664)"/>
</g>
<mask id="mask13_197_2664" style="mask-type:luminance" maskUnits="userSpaceOnUse" x="404" y="238" width="25" height="104">
<path d="M428.087 238.257H404.575V341.017H428.087V238.257Z" fill="white"/>
</mask>
<g mask="url(#mask13_197_2664)">
<path d="M404.575 247.823L406.418 340.527C406.418 340.527 411.896 341.558 415.091 340.629C417.763 326.684 417.637 294.719 421.47 274.514C425.303 254.309 428.087 250.116 428.087 241.054C428.087 231.992 404.575 247.823 404.575 247.823" fill="#1BCCDC"/>
</g>
<mask id="mask14_197_2664" style="mask-type:luminance" maskUnits="userSpaceOnUse" x="411" y="249" width="32" height="92">
<path d="M442.322 249.437H411.046V340.839H442.322V249.437Z" fill="white"/>
</mask>
<g mask="url(#mask14_197_2664)">
<path d="M432.847 340.528C432.847 340.528 438.229 341.459 442.322 340.105L430.241 249.437H411.046L432.847 340.528Z" fill="#1BCCDC"/>
</g>
<path d="M428.272 196.549C428.272 196.549 436.396 199.836 438.619 204.652C440.842 209.469 433.092 218.462 430.333 246.113C430.132 248.155 434.015 262.341 434.015 262.341C434.015 262.341 417.996 264.614 403.183 261.241C403.183 261.241 402.535 225.079 405.661 211.891C408.062 201.748 410.824 198.303 420.157 196.152C422.86 195.722 425.623 195.857 428.271 196.549" fill="#FE0056"/>
<g style="mix-blend-mode:multiply" opacity="0.3">
<mask id="mask15_197_2664" style="mask-type:luminance" maskUnits="userSpaceOnUse" x="430" y="209" width="8" height="16">
<path d="M437.046 209.72H430.095V224.298H437.046V209.72Z" fill="white"/>
</mask>
<g mask="url(#mask15_197_2664)">
<path d="M437.046 214.646C436.207 217.236 435.189 220.418 434.172 224.303C431.731 216.638 430.092 209.724 430.092 209.724L435.008 210.087L437.046 214.646Z" fill="#8D425C"/>
</g>
</g>
<path d="M398.479 204.936C397.766 203.205 396.59 203.205 395.876 204.936L390.441 218.121C390.003 219.038 389.342 219.832 388.52 220.43C387.697 221.028 386.739 221.412 385.731 221.547L371.499 222.627C369.623 222.779 369.262 223.882 370.699 225.111L381.558 234.378C382.295 235.078 382.844 235.952 383.157 236.919C383.469 237.886 383.534 238.916 383.346 239.915L380.002 253.79C379.553 255.61 380.497 256.301 382.11 255.324L394.267 247.841C395.158 247.351 396.158 247.095 397.175 247.095C398.191 247.095 399.191 247.351 400.082 247.841L412.249 255.324C413.847 256.302 414.793 255.611 414.357 253.79L411.013 239.915C410.831 238.915 410.901 237.885 411.217 236.918C411.532 235.952 412.083 235.079 412.819 234.378L423.662 225.111C425.102 223.895 424.739 222.779 422.862 222.627L408.646 221.547C407.638 221.413 406.679 221.029 405.857 220.431C405.034 219.833 404.374 219.039 403.936 218.121L398.479 204.936Z" fill="#F9C834"/>
<path d="M429.418 187.711L429.335 187.744C429.675 187.157 429.923 186.521 430.069 185.858C430.73 182.881 428.625 182.762 427.549 184.708C427.023 185.73 426.656 186.826 426.459 187.959C426.254 189.482 425.764 187.82 426.065 185.458C426.357 183.112 424.443 180.516 422.731 180.777C422.731 180.777 423.25 179.469 420.659 179.098C418.069 178.728 414.268 177.992 413.702 179.386C413.702 179.386 412.451 186.366 413.937 190.424C415.427 194.467 415.265 196.235 417.944 196.324C419.063 196.363 418.935 199.194 418.935 199.194C418.935 199.194 424.02 202.422 426.527 197.84C427.319 196.393 427.633 192.567 427.733 189.673L429.418 187.711Z" fill="#FFB38B"/>
<path d="M418.335 196.109C419.168 196.248 421.384 196.172 425.434 192.452C422.645 195.809 420.185 196.542 418.572 196.638C418.395 196.478 418.176 196.371 417.941 196.327C417.836 196.318 417.731 196.304 417.627 196.284C417.843 196.162 418.087 196.101 418.335 196.109Z" fill="#F19B81"/>
<path d="M422.728 180.776C424.443 180.518 426.355 183.111 426.063 185.457C425.762 187.819 426.255 189.486 426.456 187.958C426.654 186.825 427.022 185.73 427.546 184.707C428.233 183.468 430.077 183.248 430.123 185.536C430.377 185.219 436.218 178.391 429.713 174.803C429.713 174.803 428.629 169.477 424.282 169.23C419.934 168.983 413.743 172.527 411.082 171.424C407.122 169.776 408.998 177.26 413.758 179.264C416.585 180.471 419.658 180.99 422.724 180.777" fill="#211D3E"/>
<path d="M432.487 201.108C434.248 199.525 438.436 202.135 441.106 206.959C443.776 211.782 444.142 213.235 447.059 223.45C449.114 230.649 448.486 234.891 446.025 237.078C443.564 239.265 437.974 239.04 429.712 236.417C423.689 233.133 423.689 232.721 423.689 232.721L423.415 226.427C423.415 226.427 431.159 227.993 437.251 228.819C436.154 224.99 433.818 219.447 432.173 215.337C430.528 211.227 427.588 205.489 432.487 201.108" fill="#FE0056"/>
<path d="M422.936 226.839C422.923 226.341 420.954 225.607 419.722 225.538C417.934 225.449 416.174 225.056 414.518 224.375C412.672 223.556 408.975 228.547 413.22 231.696C417.465 234.844 417.875 232.657 420.339 232.313C422.804 231.969 423.075 232.453 422.936 226.839Z" fill="#FFAD97"/>
<path d="M379.896 237.451C380.094 236.159 380.511 233.549 381.198 233.344C381.885 233.139 383.25 233.344 384.482 236.146C385.715 238.948 382.909 241.554 382.156 241.898C381.403 242.241 379.556 239.71 379.896 237.451Z" fill="#FFAD97"/>
<path d="M63.0808 106.551C63.0808 112.514 61.3125 118.343 57.9995 123.302C54.6865 128.26 49.9777 132.124 44.4684 134.406C38.9591 136.688 32.8968 137.285 27.0482 136.122C21.1996 134.959 15.8273 132.087 11.6107 127.871C7.39405 123.654 4.5225 118.282 3.35913 112.433C2.19577 106.584 2.79285 100.522 5.07487 95.0128C7.35689 89.5035 11.2214 84.7946 16.1796 81.4817C21.1378 78.1687 26.9671 76.4004 32.9303 76.4004C40.9261 76.4022 48.594 79.5794 54.2479 85.2333C59.9018 90.8872 63.0789 98.555 63.0808 106.551Z" fill="white"/>
<path d="M60.19 106.55C60.1896 111.941 58.5905 117.212 55.5948 121.694C52.5991 126.177 48.3415 129.671 43.3603 131.733C38.3791 133.796 32.8981 134.336 27.6103 133.284C22.3225 132.231 17.4655 129.635 13.6534 125.822C9.84132 122.01 7.24539 117.152 6.19389 111.864C5.14239 106.576 5.68255 101.095 7.74605 96.1146C9.80955 91.1336 13.3037 86.8765 17.7867 83.8814C22.2697 80.8863 27.5402 79.2878 32.9316 79.2881C40.1606 79.2894 47.0931 82.1616 52.2048 87.2733C57.3165 92.385 60.1887 99.3175 60.19 106.546" fill="#A0C6F7"/>
<mask id="mask16_197_2664" style="mask-type:luminance" maskUnits="userSpaceOnUse" x="5" y="72" width="56" height="62">
<path d="M10.8432 90.5756C7.88897 94.6584 6.12417 99.4801 5.74483 104.505C5.3655 109.531 6.38647 114.563 8.69438 119.043C11.0023 123.523 14.5068 127.275 18.8187 129.884C23.1306 132.492 28.0811 133.855 33.1205 133.819C38.16 133.784 43.091 132.353 47.366 129.684C51.6411 127.016 55.0928 123.215 57.3379 118.703C59.5829 114.191 60.5335 109.145 60.084 104.126C59.6345 99.1062 57.8024 94.3096 54.7914 90.2685C53.8466 74.9988 41.7913 72.5381 32.8455 72.5381C23.7572 72.5381 11.8443 80.9615 10.8432 90.5756Z" fill="white"/>
</mask>
<g mask="url(#mask16_197_2664)">
<path d="M50.0878 110.26C47.9169 101.468 59.4234 90.1704 49.4397 79.799C37.9596 67.8708 23.3241 75.38 23.513 80.6917C23.513 80.6917 12.8839 79.9275 11.2931 92.8131C10.3746 100.279 8.34262 104.039 5.62421 109.609C0.35482 120.184 2.0659 126.996 5.60754 131.4C8.53783 135.041 38.0825 133.815 48.4018 133.206C55.9971 130.058 52.2734 119.054 50.0865 110.259" fill="#280360"/>
<path d="M50.0081 132.276C48.7025 128.588 46.2897 125.393 43.0996 123.128C39.9094 120.863 36.0976 119.639 32.1853 119.623H32.1227C28.2099 119.637 24.397 120.861 21.2063 123.126C18.0157 125.391 15.6032 128.587 14.2992 132.276C14.1857 132.552 14.1471 132.854 14.1874 133.15C14.2276 133.446 14.3452 133.727 14.5284 133.963C14.7116 134.199 14.9539 134.383 15.2308 134.496C15.5076 134.609 15.8093 134.646 16.1055 134.605H48.1942C48.4904 134.646 48.7921 134.608 49.0691 134.495C49.3461 134.383 49.5885 134.199 49.7722 133.963C49.956 133.727 50.0744 133.447 50.1158 133.151C50.1572 132.855 50.1201 132.553 50.0081 132.276Z" fill="#FE2D5C"/>
</g>
<mask id="mask17_197_2664" style="mask-type:luminance" maskUnits="userSpaceOnUse" x="28" y="114" width="11" height="12">
<path d="M29.1886 114.06C29.1886 114.06 29.6054 119.078 28.6328 121.447C28.6328 121.447 35.8912 127.734 38.9667 123.681C38.1438 121.65 37.8166 119.451 38.0121 117.269C38.3692 114.183 30.5988 114.058 29.3532 114.058C29.2442 114.058 29.1879 114.058 29.1879 114.058" fill="white"/>
</mask>
<g mask="url(#mask17_197_2664)">
<path d="M38.9607 113.789L28.2803 114.065L28.6405 128L39.3209 127.724L38.9607 113.789Z" fill="url(#paint6_linear_197_2664)"/>
</g>
<mask id="mask18_197_2664" style="mask-type:luminance" maskUnits="userSpaceOnUse" x="22" y="87" width="27" height="31">
<path d="M22.8252 104.896C25.604 111.711 31.8009 117.78 37.4503 117.433C43.5519 117.06 48.3691 108.55 48.6351 97.6277C48.6924 95.7041 48.2771 93.7958 47.4256 92.07C47.3666 92.0811 47.307 92.0888 47.2471 92.0929C37.9887 93.7658 27.9556 87.6836 27.9556 87.6836C27.9556 87.6836 25.9667 100.36 22.8252 104.896Z" fill="white"/>
</mask>
<g mask="url(#mask18_197_2664)">
<path d="M27.1735 78.0109L11.5693 112.719L44.3377 127.451L59.9418 92.7431L27.1735 78.0109Z" fill="url(#paint7_linear_197_2664)"/>
</g>
<path d="M449.464 349.53H21.0897C19.8809 349.53 18.8931 348.992 18.8931 348.334C18.8931 347.677 19.8809 347.142 21.0897 347.142H449.464C450.677 347.142 451.668 347.677 451.668 348.334C451.668 348.992 450.677 349.53 449.464 349.53Z" fill="#D9D9D9"/>
<path d="M99.8309 316.949C99.8313 317.494 99.6701 318.027 99.3677 318.48C99.0652 318.933 98.6352 319.286 98.1319 319.495C97.6286 319.704 97.0747 319.758 96.5403 319.652C96.006 319.546 95.5151 319.284 95.1298 318.898C94.7446 318.513 94.4822 318.022 94.3761 317.488C94.2699 316.953 94.3246 316.4 94.5333 315.896C94.742 315.393 95.0952 314.963 95.5484 314.66C96.0016 314.358 96.5343 314.197 97.0792 314.197C97.8089 314.197 98.5087 314.487 99.0247 315.003C99.5408 315.519 99.8307 316.219 99.8309 316.949Z" fill="#A3EAF0"/>
<path d="M48.4453 311.993H44.22V307.762C44.2112 307.33 44.0333 306.918 43.7245 306.616C43.4157 306.313 43.0006 306.144 42.5684 306.144C42.1361 306.144 41.721 306.313 41.4123 306.616C41.1035 306.918 40.9256 307.33 40.9167 307.762V311.994H36.6859C36.4661 311.989 36.2477 312.029 36.0434 312.11C35.839 312.191 35.6529 312.312 35.4959 312.465C35.3389 312.619 35.2142 312.803 35.129 313.006C35.0439 313.208 35 313.426 35 313.646C35 313.865 35.0439 314.083 35.129 314.286C35.2142 314.488 35.3389 314.672 35.4959 314.826C35.6529 314.979 35.839 315.1 36.0434 315.181C36.2477 315.262 36.4661 315.302 36.6859 315.297H40.9167V319.522C40.9256 319.955 41.1035 320.366 41.4123 320.669C41.721 320.971 42.1361 321.141 42.5684 321.141C43.0006 321.141 43.4157 320.971 43.7245 320.669C44.0333 320.366 44.2112 319.955 44.22 319.522V315.297H48.4453C48.665 315.302 48.8835 315.262 49.0878 315.181C49.2922 315.1 49.4783 314.979 49.6353 314.826C49.7923 314.672 49.917 314.488 50.0022 314.286C50.0873 314.083 50.1312 313.865 50.1312 313.646C50.1312 313.426 50.0873 313.208 50.0022 313.006C49.917 312.803 49.7923 312.619 49.6353 312.465C49.4783 312.312 49.2922 312.191 49.0878 312.11C48.8835 312.029 48.665 311.989 48.4453 311.993Z" fill="#A3EAF0"/>
<path d="M46.371 250.545C46.1512 250.541 45.9328 250.58 45.7284 250.661C45.5241 250.742 45.338 250.863 45.181 251.017C45.024 251.171 44.8992 251.354 44.8141 251.557C44.7289 251.76 44.6851 251.977 44.6851 252.197C44.6851 252.417 44.7289 252.634 44.8141 252.837C44.8992 253.04 45.024 253.223 45.181 253.377C45.338 253.531 45.5241 253.652 45.7284 253.733C45.9328 253.814 46.1512 253.853 46.371 253.849H62.8891C63.1089 253.853 63.3273 253.814 63.5317 253.733C63.736 253.652 63.9221 253.531 64.0791 253.377C64.2361 253.223 64.3609 253.04 64.446 252.837C64.5312 252.634 64.575 252.417 64.575 252.197C64.575 251.977 64.5312 251.76 64.446 251.557C64.3609 251.354 64.2361 251.171 64.0791 251.017C63.9221 250.863 63.736 250.742 63.5317 250.661C63.3273 250.58 63.1089 250.541 62.8891 250.545H46.371Z" fill="#A3EAF0"/>
<path d="M69.9584 250.545C69.7386 250.541 69.5202 250.58 69.3158 250.661C69.1115 250.742 68.9254 250.863 68.7684 251.017C68.6114 251.171 68.4866 251.354 68.4015 251.557C68.3163 251.76 68.2725 251.977 68.2725 252.197C68.2725 252.417 68.3163 252.634 68.4015 252.837C68.4866 253.04 68.6114 253.223 68.7684 253.377C68.9254 253.531 69.1115 253.652 69.3158 253.733C69.5202 253.814 69.7386 253.853 69.9584 253.849H72.9845C73.2043 253.853 73.4227 253.814 73.6271 253.733C73.8314 253.652 74.0175 253.531 74.1745 253.377C74.3315 253.223 74.4563 253.04 74.5414 252.837C74.6266 252.634 74.6704 252.417 74.6704 252.197C74.6704 251.977 74.6266 251.76 74.5414 251.557C74.4563 251.354 74.3315 251.171 74.1745 251.017C74.0175 250.863 73.8314 250.742 73.6271 250.661C73.4227 250.58 73.2043 250.541 72.9845 250.545H69.9584Z" fill="#A3EAF0"/>
<path d="M247.853 287.65C247.854 289.353 248.36 291.018 249.307 292.434C250.254 293.85 251.6 294.954 253.174 295.605C254.748 296.256 256.48 296.426 258.151 296.093C259.822 295.76 261.356 294.939 262.56 293.734C263.765 292.529 264.585 290.994 264.917 289.324C265.249 287.653 265.078 285.921 264.426 284.347C263.774 282.773 262.669 281.428 261.253 280.482C259.836 279.535 258.171 279.03 256.467 279.03C254.183 279.033 251.993 279.942 250.377 281.558C248.762 283.174 247.854 285.365 247.853 287.65ZM251.156 287.65C251.156 286.599 251.467 285.572 252.051 284.699C252.634 283.825 253.464 283.144 254.434 282.742C255.404 282.34 256.472 282.235 257.502 282.44C258.533 282.645 259.479 283.15 260.222 283.893C260.965 284.636 261.47 285.582 261.675 286.613C261.88 287.643 261.775 288.711 261.373 289.681C260.971 290.651 260.29 291.481 259.416 292.064C258.543 292.648 257.516 292.959 256.465 292.959C255.058 292.956 253.71 292.396 252.715 291.401C251.72 290.405 251.159 289.057 251.156 287.65Z" fill="#A3EAF0"/>
<path d="M371.65 287.216H367.425V282.985C367.43 282.765 367.39 282.547 367.309 282.342C367.228 282.138 367.107 281.952 366.954 281.795C366.8 281.638 366.616 281.513 366.413 281.428C366.211 281.343 365.993 281.299 365.773 281.299C365.554 281.299 365.336 281.343 365.133 281.428C364.931 281.513 364.747 281.638 364.593 281.795C364.44 281.952 364.319 282.138 364.238 282.342C364.157 282.547 364.117 282.765 364.122 282.985V287.217H359.893C359.461 287.226 359.049 287.404 358.747 287.712C358.444 288.021 358.275 288.436 358.275 288.869C358.275 289.301 358.444 289.716 358.747 290.025C359.049 290.333 359.461 290.511 359.893 290.52H364.122V294.746C364.117 294.965 364.157 295.184 364.238 295.388C364.319 295.592 364.44 295.778 364.593 295.936C364.747 296.093 364.931 296.217 365.133 296.302C365.336 296.388 365.554 296.431 365.773 296.431C365.993 296.431 366.211 296.388 366.413 296.302C366.616 296.217 366.8 296.093 366.954 295.936C367.107 295.778 367.228 295.592 367.309 295.388C367.39 295.184 367.43 294.965 367.425 294.746V290.52H371.65C372.083 290.511 372.494 290.333 372.797 290.025C373.099 289.716 373.269 289.301 373.269 288.869C373.269 288.436 373.099 288.021 372.797 287.712C372.494 287.404 372.083 287.225 371.65 287.216Z" fill="#A3EAF0"/>
<path d="M265.287 76.8832C265.067 76.8787 264.849 76.918 264.644 76.999C264.44 77.08 264.254 77.2009 264.097 77.3548C263.94 77.5086 263.815 77.6922 263.73 77.8948C263.645 78.0975 263.601 78.315 263.601 78.5348C263.601 78.7546 263.645 78.9722 263.73 79.1749C263.815 79.3775 263.94 79.5611 264.097 79.7149C264.254 79.8687 264.44 79.9897 264.644 80.0706C264.849 80.1516 265.067 80.191 265.287 80.1865H321.809C322.028 80.191 322.247 80.1516 322.451 80.0706C322.656 79.9897 322.842 79.8687 322.999 79.7149C323.156 79.5611 323.28 79.3775 323.366 79.1749C323.451 78.9722 323.495 78.7546 323.495 78.5348C323.495 78.315 323.451 78.0975 323.366 77.8948C323.28 77.6922 323.156 77.5086 322.999 77.3548C322.842 77.2009 322.656 77.08 322.451 76.999C322.247 76.918 322.028 76.8787 321.809 76.8832H265.287Z" fill="#A3EAF0"/>
<path d="M331.085 76.8832C330.866 76.8787 330.647 76.918 330.443 76.999C330.238 77.08 330.052 77.2009 329.895 77.3548C329.738 77.5086 329.614 77.6922 329.528 77.8948C329.443 78.0975 329.399 78.315 329.399 78.5348C329.399 78.7546 329.443 78.9722 329.528 79.1749C329.614 79.3775 329.738 79.5611 329.895 79.7149C330.052 79.8687 330.238 79.9897 330.443 80.0706C330.647 80.1516 330.866 80.191 331.085 80.1865H345.038C345.258 80.191 345.476 80.1516 345.68 80.0706C345.885 79.9897 346.071 79.8687 346.228 79.7149C346.385 79.5611 346.51 79.3775 346.595 79.1749C346.68 78.9722 346.724 78.7546 346.724 78.5348C346.724 78.315 346.68 78.0975 346.595 77.8948C346.51 77.6922 346.385 77.5086 346.228 77.3548C346.071 77.2009 345.885 77.08 345.68 76.999C345.476 76.918 345.258 76.8787 345.038 76.8832H331.085Z" fill="#A3EAF0"/>
<path d="M83.1334 71.9279H78.9082V67.6992C78.8993 67.267 78.7214 66.8555 78.4126 66.553C78.1038 66.2505 77.6888 66.0811 77.2565 66.0811C76.8242 66.0811 76.4091 66.2505 76.1004 66.553C75.7916 66.8555 75.6137 67.267 75.6048 67.6992V71.9279H71.374C70.9418 71.9368 70.5303 72.1147 70.2278 72.4235C69.9253 72.7323 69.7559 73.1473 69.7559 73.5796C69.7559 74.0119 69.9253 74.4269 70.2278 74.7357C70.5303 75.0445 70.9418 75.2224 71.374 75.2313H75.6048V79.4579C75.6003 79.6776 75.6397 79.8961 75.7207 80.1004C75.8016 80.3048 75.9226 80.4909 76.0764 80.6479C76.2302 80.8049 76.4138 80.9296 76.6165 81.0148C76.8191 81.0999 77.0367 81.1438 77.2565 81.1438C77.4763 81.1438 77.6939 81.0999 77.8965 81.0148C78.0991 80.9296 78.2827 80.8049 78.4366 80.6479C78.5904 80.4909 78.7113 80.3048 78.7923 80.1004C78.8733 79.8961 78.9127 79.6776 78.9082 79.4579V75.2313H83.1334C83.5656 75.2224 83.9771 75.0445 84.2796 74.7357C84.5821 74.4269 84.7515 74.0119 84.7515 73.5796C84.7515 73.1473 84.5821 72.7323 84.2796 72.4235C83.9771 72.1147 83.5656 71.9368 83.1334 71.9279Z" fill="#A3EAF0"/>
<path d="M140.025 76.3338C140.026 76.8785 139.865 77.4111 139.562 77.8642C139.26 78.3174 138.83 78.6706 138.327 78.8794C137.824 79.0882 137.27 79.1431 136.736 79.0371C136.201 78.9311 135.711 78.6691 135.325 78.2841C134.94 77.8991 134.677 77.4085 134.571 76.8743C134.464 76.3401 134.519 75.7863 134.727 75.283C134.935 74.7797 135.288 74.3494 135.741 74.0466C136.194 73.7438 136.726 73.5822 137.271 73.582C138 73.5822 138.7 73.8722 139.216 74.3882C139.732 74.9042 140.022 75.604 140.022 76.3338" fill="#A3EAF0"/>
<path d="M449.465 344.845C450.677 344.845 451.669 344.306 451.669 343.649C451.669 342.991 450.677 342.456 449.465 342.456H441.405V336.823H440.185V335.923C440.913 335.81 441.636 335.647 442.323 335.419L431.992 257.889C433.286 257.758 434.017 257.655 434.017 257.655C434.017 257.655 430.132 243.469 430.334 241.427C430.664 238.119 431.065 235.079 431.513 232.28C438.789 234.377 443.745 234.419 446.026 232.394C448.487 230.208 449.115 225.966 447.06 218.767C444.143 208.552 443.776 207.099 441.107 202.275C439.693 199.72 437.852 197.786 436.172 196.768C432.945 193.753 428.272 191.863 428.272 191.863C428.272 191.863 427.828 191.726 427.055 191.579C427.467 189.759 427.657 187.12 427.73 184.988L429.418 183.025L429.336 183.058C429.613 182.602 429.874 181.981 430.069 181.172C430.095 181.057 430.116 180.947 430.133 180.841C430.482 180.412 436.162 173.674 429.716 170.118C429.716 170.118 428.632 164.792 424.284 164.544C422.33 164.43 420.002 165.085 417.789 165.741C415.082 166.543 412.549 167.345 411.086 166.738C407.125 165.09 409.004 172.571 413.761 174.577C413.738 174.616 413.717 174.657 413.7 174.7C413.7 174.7 412.451 181.681 413.934 185.738C415.408 189.738 415.265 191.51 417.856 191.634C417.883 191.638 417.911 191.64 417.942 191.641C418.05 191.645 418.169 191.692 418.295 191.764C418.345 191.802 418.391 191.848 418.434 191.899C416.538 192.421 414.948 193.024 413.595 193.768C411.193 194.716 405.856 197.457 402.821 203.917C402.22 205.194 401.728 206.255 401.326 207.135L398.48 200.25C397.766 198.519 396.59 198.519 395.876 200.25L390.441 213.435C389.728 215.176 387.607 216.706 385.73 216.861L371.499 217.942C369.622 218.093 369.262 219.197 370.699 220.426L380.81 229.054C380.35 229.876 380.054 231.737 379.897 232.765C379.557 235.024 381.402 237.552 382.156 237.211C382.348 237.124 382.672 236.891 383.029 236.545L380.002 249.105C379.553 250.925 380.498 251.615 382.11 250.638L394.264 243.155C395.863 242.16 398.493 242.16 400.078 243.155L403.14 245.038C403.099 251.766 403.185 256.554 403.185 256.554C403.647 256.659 404.111 256.759 404.575 256.854V336.332H408.134V336.823H398.36C398.251 336.354 397.991 335.832 397.43 335.228C396.21 333.893 393.792 334.068 392.765 332.33C390.859 329.07 388.031 329.446 388.031 329.446C388.031 329.446 385.203 329.07 383.296 332.33C382.269 334.068 380.835 333.8 379.609 335.132C378.844 335.974 378.661 336.695 378.659 337.343C378.396 337.067 378.122 336.888 377.87 336.773C377.899 335.425 378.597 334.006 376.594 331.825C374.846 329.929 371.403 330.203 369.936 327.689C367.211 323.05 363.174 323.575 363.174 323.575C363.174 323.575 359.14 323.05 356.411 327.689C355.693 328.917 354.841 329.449 353.954 329.893C352.543 329.052 351.287 329.218 351.287 329.218C351.287 329.218 348.406 328.838 346.474 332.139C345.42 333.926 343.976 333.645 342.737 334.996C340.795 337.107 342.522 338.485 341.657 339.84C340.891 341.043 339.331 340.815 338.993 342.456H326.11L326.111 337.402C326.111 337.402 333.557 286.37 334.455 268.352C334.95 258.251 333.58 250.49 332.281 245.62C332.264 245.541 332.246 245.455 332.228 245.363L338.932 234.541C339.637 234.398 340.269 233.848 340.683 232.633L354.951 248.814C356.299 249.981 358.126 249.716 359.21 248.632L359.223 248.659L365.502 242.353C366.569 241.888 367.383 240.845 367.383 239.481V216.866C375.884 215.21 383.293 210.505 388.429 203.936C397.35 197.526 403.158 187.061 403.158 175.239V125.974C403.158 124.815 403.104 123.669 402.997 122.537C415.517 119.279 424.757 107.9 424.757 94.3614C424.757 78.2828 411.724 65.2466 395.642 65.2466C381.171 65.2466 369.167 75.8071 366.911 89.6409C366.882 89.6408 366.854 89.6407 366.824 89.6407H60.4975C55.8064 79.0831 45.2266 71.715 32.9312 71.715C16.2811 71.715 2.77885 85.2206 2.77885 101.864C2.77885 111.358 7.16759 119.829 14.0277 125.357C13.627 127.484 13.4172 129.677 13.4172 131.921V177.779C13.4172 199.725 31.2073 217.519 53.1569 217.519H198.558C196.999 232.872 196.089 256.261 196.089 256.261C196.089 256.261 196.749 256.419 197.923 256.608C198.303 265.235 198.292 278.469 195.61 288.461C191.904 302.257 187.876 327.08 186.79 333.961C185.515 333.268 183.804 333.102 182.982 331.712C181.076 328.452 178.249 328.828 178.249 328.828C178.249 328.828 175.421 328.452 173.514 331.712C172.487 333.45 171.053 333.182 169.827 334.514C169.061 335.356 168.878 336.077 168.877 336.725C168.614 336.449 168.34 336.27 168.087 336.155C168.116 334.806 168.817 333.387 166.811 331.204C165.063 329.307 161.621 329.581 160.154 327.068C157.429 322.429 153.395 322.955 153.395 322.955C153.395 322.955 149.358 322.429 146.629 327.068C145.911 328.295 145.059 328.827 144.172 329.272C142.762 328.431 141.506 328.597 141.506 328.597C141.506 328.597 138.625 328.217 136.692 331.517C135.639 333.305 134.195 333.024 132.956 334.375C131.013 336.486 132.741 337.864 131.876 339.218C131.024 340.556 129.193 340.125 129.148 342.456H21.0909C19.8819 342.456 18.8943 342.991 18.8943 343.649C18.8943 344.306 19.8819 344.845 21.0909 344.845H449.465ZM412.746 336.332H428.087V315.949L432.848 335.842C432.848 335.842 433.966 336.035 435.569 336.118V336.823H422.554V342.456H413.971V339.393C413.971 339.372 413.971 339.352 413.971 339.331V336.823H412.746V336.332ZM317.138 264.177C317.305 264.177 317.42 264.551 317.474 265.382C315.201 278.447 319.83 332.06 320.267 337.031H311.749V342.456H311.621V336.589H311.619C311.573 334.933 310.742 305.492 309.837 295.161C309.239 288.411 309.837 288.256 312.516 278.88C314.657 271.375 316.404 264.177 317.138 264.177ZM218.54 336.598H219.445C219.445 336.598 225.408 290.413 222.94 252.244C222.912 248.926 222.816 241.779 222.481 234.018C222.48 233.886 222.48 233.754 222.479 233.621V232.815C223.229 232.921 224.003 232.937 224.797 232.848C234.488 231.752 251.341 220.52 255.698 217.519H264.964L267.08 218.82C268.609 219.755 269.54 219.165 269.237 217.519H291.587C290.511 219.326 289.814 220.784 289.78 221.595C289.766 221.901 289.789 222.175 289.843 222.42C288.527 225.271 288.413 227.435 289.974 228.348C291.1 229.011 293.828 229.669 304.311 217.519H305.413C304.878 228.022 304.584 240.355 302.957 245.499C298.774 256.58 295.293 270.097 294.501 281.107C293.592 293.679 305.186 334.631 305.743 336.589H297.276V342.456H230.086V337.54H218.54V336.598ZM209.1 285.351C209.549 288.164 209.881 290.917 210.046 293.513C211.255 312.291 213.181 336.598 213.181 336.598H214.45V337.54H213.353V342.456H203.158V336.899H191.602V336.143C191.759 336.115 191.92 336.084 192.084 336.05C192.084 336.05 204.983 304.605 209.1 285.351ZM333.562 227.502C333.895 229.039 334.258 230.444 334.638 231.479L331.079 238.177C330.752 235.395 330.521 232.21 330.62 229.153C331.653 228.804 332.643 228.243 333.562 227.502ZM434.162 219.614H434.172C434.172 219.615 434.172 219.616 434.172 219.616C434.172 219.616 434.172 219.615 434.173 219.614H435.725C436.331 221.242 436.867 222.794 437.251 224.135C435.947 223.959 434.567 223.748 433.204 223.526C433.52 222.145 433.841 220.843 434.162 219.614ZM225.011 217.519H234.786C234.56 218.7 234.976 219.338 235.799 219.258C233.166 219.978 230.899 220.378 229.551 220.092C227.812 219.724 226.324 218.753 225.011 217.519ZM239.058 217.519H241.328C239.671 218.086 238.015 218.627 236.464 219.072C236.616 219.005 236.777 218.922 236.945 218.82L239.058 217.519ZM426.064 180.783C425.872 182.298 426.007 183.526 426.181 183.802C426.007 183.53 425.871 182.301 426.064 180.783ZM426.088 180.059C426.088 180.059 426.088 180.058 426.088 180.058C426.088 180.059 426.088 180.059 426.088 180.06C426.088 180.06 426.088 180.059 426.088 180.059ZM136.362 286.627C149.088 286.627 159.409 276.307 159.409 263.591C159.409 250.852 149.088 240.531 136.362 240.531C123.633 240.531 113.319 250.852 113.319 263.591C113.319 276.307 123.633 286.627 136.362 286.627ZM449.465 347.623H21.0909C18.2544 347.623 16.1155 345.915 16.1155 343.649C16.1155 342.304 16.8999 341.076 18.214 340.363C19.0412 339.914 20.036 339.677 21.0909 339.677H127.12C127.231 339.499 127.355 339.328 127.491 339.166C128.104 338.436 128.822 338.045 129.3 337.787C129.226 337.25 129.136 336.476 129.299 335.58C129.5 334.476 130.043 333.437 130.911 332.493C131.807 331.518 132.743 331.065 133.426 330.734C134.066 330.424 134.142 330.37 134.296 330.111C135.259 328.466 136.53 327.263 138.073 326.533C139.344 325.931 140.49 325.805 141.228 325.805C141.33 325.805 141.423 325.807 141.506 325.811C141.588 325.807 141.681 325.805 141.783 325.805C142.25 325.805 143.007 325.86 143.894 326.131C144.013 326.002 144.121 325.852 144.23 325.665C144.232 325.663 144.233 325.661 144.234 325.658C145.479 323.543 147.106 321.999 149.069 321.072C150.667 320.316 152.098 320.158 153.016 320.158C153.16 320.158 153.287 320.162 153.395 320.168C153.503 320.162 153.63 320.158 153.774 320.158C154.692 320.158 156.121 320.316 157.719 321.072C159.681 322 161.307 323.544 162.55 325.66C162.552 325.662 162.553 325.665 162.555 325.667C162.857 326.186 163.599 326.484 164.784 326.928C166.053 327.403 167.631 327.994 168.855 329.321C168.855 329.322 168.856 329.323 168.857 329.324C169.358 329.869 169.768 330.419 170.091 330.98C170.159 330.946 170.226 330.914 170.29 330.883C170.928 330.575 170.987 330.527 171.12 330.302C172.072 328.676 173.327 327.484 174.849 326.761C176.109 326.162 177.244 326.036 177.975 326.036C178.076 326.036 178.167 326.039 178.249 326.042C178.33 326.039 178.422 326.036 178.523 326.036C179.253 326.036 180.388 326.162 181.648 326.761C182.843 327.329 183.874 328.186 184.722 329.315C186.358 319.291 189.749 299.567 192.926 287.74C194.072 283.47 194.817 278.133 195.14 271.88C195.348 267.833 195.378 263.478 195.23 258.904C194.056 258.523 193.263 257.404 193.312 256.153C193.32 255.933 194.128 235.437 195.5 220.298H53.1569C47.4177 220.298 41.8489 219.173 36.6051 216.955C34.085 215.889 31.6547 214.57 29.3815 213.034C27.1307 211.513 25.0143 209.767 23.091 207.844C21.1677 205.92 19.4215 203.804 17.901 201.553C16.3653 199.28 15.0463 196.849 13.9805 194.329C11.7629 189.086 10.6384 183.518 10.6384 177.779V131.921C10.6384 130.091 10.7695 128.26 11.029 126.457C9.64515 125.223 8.36361 123.872 7.20625 122.425C5.69632 120.538 4.39367 118.484 3.33462 116.319C2.25567 114.114 1.42511 111.784 0.866053 109.396C0.2914 106.941 0 104.407 0 101.864C0 97.4218 0.871232 93.1101 2.58951 89.049C4.24854 85.128 6.62281 81.6068 9.64633 78.5833C12.67 75.5596 16.1915 73.1852 20.1129 71.5261C24.1747 69.8075 28.4874 68.9362 32.9312 68.9362C39.4249 68.9362 45.7081 70.8265 51.1016 74.4028C53.7004 76.126 56.0416 78.2074 58.0602 80.5892C59.6953 82.5186 61.0994 84.6226 62.2478 86.8619H364.638C365.332 83.9786 366.426 81.215 367.901 78.6199C369.726 75.4086 372.077 72.558 374.886 70.1472C377.715 67.7195 380.911 65.8239 384.384 64.5131C387.979 63.1559 391.767 62.4678 395.642 62.4678C399.947 62.4678 404.124 63.3115 408.058 64.9754C411.857 66.582 415.267 68.8814 418.195 71.8097C421.123 74.7378 423.422 78.1484 425.028 81.9467C426.692 85.8803 427.536 90.0572 427.536 94.3614C427.536 97.9878 426.931 101.546 425.739 104.938C424.587 108.217 422.911 111.272 420.759 114.018C418.629 116.736 416.09 119.079 413.212 120.982C410.93 122.49 408.483 123.69 405.912 124.563C405.928 125.034 405.937 125.505 405.937 125.974V175.239C405.937 178.365 405.557 181.474 404.807 184.481C404.079 187.402 403 190.238 401.6 192.908C400.893 194.255 400.104 195.562 399.24 196.817C399.891 197.256 400.551 197.985 401.048 199.19L401.557 200.42C402.925 198.202 404.651 196.253 406.709 194.606C408.883 192.866 410.983 191.827 412.412 191.248C412.548 191.175 412.686 191.103 412.827 191.032C412.547 190.394 412.321 189.687 412.064 188.882C411.859 188.239 411.626 187.511 411.327 186.698C411.326 186.696 411.325 186.694 411.324 186.692C410.579 184.652 410.297 181.91 410.486 178.541C410.54 177.588 410.625 176.719 410.708 176.014C409.514 175.142 408.461 173.989 407.641 172.637C406.432 170.642 405.928 168.557 406.26 166.918C406.438 166.038 406.855 165.276 407.468 164.715C408.175 164.067 409.081 163.724 410.088 163.724C410.732 163.724 411.415 163.87 412.118 164.158C412.145 164.163 412.216 164.173 412.344 164.173C413.313 164.173 415.001 163.671 416.633 163.186L416.999 163.077C419.354 162.379 421.648 161.752 423.824 161.752C424.033 161.752 424.241 161.758 424.442 161.77C425.989 161.858 427.399 162.372 428.633 163.296C429.555 163.986 430.356 164.896 431.016 165.998C431.522 166.845 431.865 167.678 432.088 168.327C434.337 169.911 435.146 171.838 435.419 173.254C436.116 176.88 434.013 180.335 432.711 182.059C432.545 182.692 432.336 183.275 432.087 183.801C431.979 184.174 431.791 184.528 431.525 184.837L430.467 186.067C430.413 187.185 430.325 188.448 430.181 189.665C431.759 190.388 435.172 192.107 437.864 194.548C439.982 195.911 442.038 198.219 443.538 200.93C446.266 205.858 446.749 207.55 449.429 216.942L449.732 218.004C450.836 221.871 451.252 225.048 451.003 227.718C450.736 230.59 449.683 232.863 447.872 234.472C446.234 235.926 443.848 236.662 440.78 236.662C438.795 236.662 436.458 236.355 433.806 235.747C433.54 237.672 433.306 239.643 433.106 241.636C433.115 241.938 433.26 243.491 434.869 249.925C435.773 253.539 436.688 256.887 436.698 256.921C436.908 257.69 436.778 258.514 436.34 259.181C436.036 259.643 435.604 259.999 435.105 260.212L445.078 335.052C445.202 335.984 444.847 336.886 444.183 337.484V339.677H449.465C450.52 339.677 451.515 339.914 452.343 340.361C453.661 341.074 454.447 342.303 454.447 343.649C454.447 345.915 452.305 347.623 449.465 347.623ZM416.75 339.677H419.775V339.11H416.75V339.308C416.75 339.336 416.75 339.365 416.75 339.393V339.677ZM328.889 339.677H337.37C337.97 339.011 338.653 338.64 339.081 338.408C339.007 337.871 338.917 337.098 339.08 336.201C339.281 335.097 339.824 334.059 340.692 333.115C341.588 332.139 342.524 331.686 343.207 331.355C343.851 331.044 343.925 330.991 344.08 330.727C345.043 329.086 346.313 327.883 347.854 327.154C349.126 326.552 350.272 326.426 351.009 326.426C351.112 326.426 351.205 326.429 351.287 326.433C351.369 326.429 351.462 326.426 351.565 326.426C352.032 326.426 352.789 326.481 353.676 326.752C353.795 326.623 353.903 326.473 354.012 326.286C354.014 326.284 354.015 326.282 354.016 326.28C355.261 324.164 356.887 322.621 358.85 321.693C360.447 320.937 361.877 320.779 362.795 320.779C362.939 320.779 363.066 320.783 363.174 320.788C363.281 320.783 363.409 320.779 363.553 320.779C364.471 320.779 365.901 320.937 367.499 321.692C369.462 322.621 371.089 324.165 372.332 326.281C372.333 326.283 372.335 326.286 372.336 326.288C372.639 326.807 373.381 327.106 374.567 327.549C375.835 328.024 377.414 328.614 378.637 329.941C378.638 329.942 378.639 329.944 378.64 329.945C379.14 330.49 379.55 331.038 379.872 331.598C379.941 331.565 380.008 331.532 380.072 331.501C380.709 331.194 380.769 331.145 380.901 330.922C381.854 329.295 383.108 328.103 384.631 327.379C385.891 326.78 387.026 326.654 387.757 326.654C387.858 326.654 387.949 326.657 388.031 326.661C388.112 326.657 388.204 326.654 388.305 326.654C389.035 326.654 390.171 326.78 391.43 327.379C392.951 328.102 394.205 329.292 395.157 330.917C395.276 331.056 395.938 331.305 396.293 331.439C397.269 331.807 398.484 332.265 399.475 333.346C399.688 333.577 399.881 333.809 400.054 334.044H401.796V258.962C400.968 258.484 400.424 257.599 400.406 256.604C400.405 256.56 400.333 252.45 400.354 246.587L398.623 245.522C398.616 245.518 398.608 245.513 398.602 245.509C398.354 245.354 397.85 245.188 397.176 245.188C396.499 245.188 395.986 245.357 395.732 245.515C395.728 245.517 395.725 245.519 395.721 245.521L383.566 253.004C383.561 253.007 383.556 253.01 383.551 253.014C382.624 253.576 381.709 253.861 380.83 253.861C379.679 253.861 378.625 253.358 377.938 252.482C377.373 251.76 376.804 250.473 377.303 248.444L379.57 239.037C379.376 238.869 379.18 238.674 378.985 238.447C377.904 237.191 376.774 234.841 377.149 232.351C377.149 232.348 377.15 232.346 377.15 232.343C377.286 231.46 377.425 230.663 377.589 229.958L370.162 223.62V239.481C370.162 240.693 369.805 241.851 369.132 242.83C368.62 243.573 367.944 244.187 367.156 244.63L361.192 250.619C361.06 250.752 360.916 250.87 360.764 250.971C359.696 251.855 358.336 252.354 356.956 252.354C355.562 252.354 354.205 251.843 353.133 250.915C353.038 250.833 352.95 250.745 352.867 250.652L340.74 236.899L335.205 245.833C336.453 250.832 337.716 258.584 337.231 268.488C336.854 276.037 335.33 290.002 332.701 309.996C330.879 323.852 329.131 335.936 328.889 337.607V339.677ZM232.865 339.677H294.497V336.589C294.497 335.054 295.742 333.81 297.276 333.81H302.084C300.897 329.487 298.843 321.811 296.868 313.469C295.208 306.461 293.926 300.34 293.057 295.275C291.936 288.748 291.502 284.048 291.729 280.907C292.481 270.459 295.694 256.889 300.329 244.592C301.505 240.785 301.958 231.954 302.332 223.852C300.311 225.964 298.539 227.602 296.973 228.807C294.65 230.595 292.772 231.428 291.062 231.428C290.168 231.428 289.353 231.205 288.572 230.747C286.95 229.799 286.055 228.155 286.051 226.117C286.048 224.891 286.36 223.532 287.001 221.983C286.995 221.815 286.996 221.644 287.003 221.472C287.019 221.112 287.083 220.724 287.2 220.298H271.495C271.392 220.468 271.283 220.618 271.175 220.747C270.479 221.583 269.476 222.043 268.352 222.043C267.471 222.043 266.556 221.756 265.63 221.191C265.628 221.19 265.626 221.188 265.624 221.187L264.178 220.298H256.558C254.109 221.963 249.12 225.255 243.599 228.326C240.159 230.239 236.987 231.804 234.169 232.978C230.757 234.399 227.783 235.275 225.327 235.583C225.603 242.579 225.69 248.85 225.718 252.144C226.282 260.91 226.449 270.816 226.213 281.588C226.025 290.214 225.58 299.415 224.89 308.935C224.012 321.047 222.953 330.638 222.468 334.761H230.086C231.621 334.761 232.865 336.005 232.865 337.54V339.677ZM205.937 339.677H210.575V337.562C210.488 337.328 210.432 337.078 210.411 336.818C210.394 336.605 208.925 318.032 207.756 300.95C207.624 301.374 207.49 301.801 207.354 302.233C205.76 307.274 203.844 312.872 201.659 318.871C199.306 325.334 197.137 330.893 195.854 334.12H203.158C204.693 334.12 205.937 335.364 205.937 336.899V339.677ZM314.331 334.253H317.239C316.764 328.612 315.818 316.857 315.08 304.406C314.596 296.225 314.282 289.103 314.147 283.202C314.084 283.414 314.022 283.621 313.962 283.824C312.363 289.185 312.158 289.873 312.605 294.916C313.385 303.821 314.112 326.884 314.331 334.253ZM390.372 205.959C387.684 209.325 384.474 212.183 380.894 214.441L385.512 214.091C386.35 214.015 387.559 213.14 387.87 212.381C387.871 212.38 387.872 212.378 387.872 212.376L390.581 205.805C390.512 205.856 390.442 205.908 390.372 205.959ZM136.362 289.406C132.877 289.406 129.495 288.723 126.309 287.375C123.234 286.075 120.473 284.213 118.103 281.843C115.732 279.472 113.871 276.712 112.571 273.638C111.224 270.454 110.541 267.074 110.541 263.591C110.541 260.104 111.223 256.72 112.57 253.532C113.871 250.455 115.732 247.692 118.102 245.32C120.472 242.948 123.233 241.085 126.309 239.784C129.494 238.436 132.877 237.753 136.362 237.753C139.847 237.753 143.23 238.436 146.415 239.784C149.491 241.085 152.252 242.948 154.623 245.32C156.994 247.692 158.856 250.455 160.157 253.532C161.504 256.719 162.188 260.104 162.188 263.591C162.188 267.074 161.504 270.454 160.156 273.638C158.855 276.712 156.993 279.473 154.622 281.843C152.251 284.213 149.49 286.075 146.415 287.375C143.229 288.723 139.847 289.406 136.362 289.406Z" fill="#1A1818"/>
<path d="M143.589 254.72C143.589 254.72 137.008 263.065 134.087 266.759C132.286 264.876 130.324 262.835 130.324 262.835C129.745 262.262 128.966 261.938 128.152 261.931C127.338 261.925 126.553 262.236 125.965 262.799C125.377 263.362 125.031 264.132 125.002 264.946C124.973 265.759 125.262 266.552 125.809 267.156L132.061 273.674C132.37 273.996 132.745 274.248 133.159 274.414C133.574 274.579 134.019 274.654 134.465 274.633C134.911 274.612 135.348 274.496 135.745 274.292C136.142 274.088 136.491 273.802 136.769 273.452L148.483 258.605C148.973 257.954 149.189 257.137 149.085 256.329C148.981 255.52 148.566 254.784 147.928 254.278C147.289 253.771 146.478 253.534 145.667 253.617C144.857 253.699 144.11 254.095 143.587 254.72" stroke="#1A1818" stroke-width="4" stroke-miterlimit="10" stroke-linejoin="round"/>
<path d="M387.636 91.0497C392.43 88.1757 395.932 92.8997 396.25 93.3457C396.567 92.8997 400.063 88.1757 404.857 91.0497C409.187 93.6431 411.374 103.567 396.312 111.578L396.252 111.622L396.182 111.578C381.128 103.567 383.302 93.6431 387.633 91.0497" stroke="#1A1818" stroke-width="4" stroke-miterlimit="10" stroke-linejoin="round"/>
<defs>
<linearGradient id="paint0_linear_197_2664" x1="-103.143" y1="538.149" x2="-99.8401" y2="538.149" gradientUnits="userSpaceOnUse">
<stop stop-color="#3D342B"/>
<stop offset="1" stop-color="#291C17"/>
</linearGradient>
<linearGradient id="paint1_linear_197_2664" x1="-103.134" y1="538.163" x2="-99.8348" y2="538.163" gradientUnits="userSpaceOnUse">
<stop stop-color="#3D342B"/>
<stop offset="1" stop-color="#291C17"/>
</linearGradient>
<linearGradient id="paint2_linear_197_2664" x1="-103.132" y1="538.153" x2="-99.8353" y2="538.153" gradientUnits="userSpaceOnUse">
<stop stop-color="#3D342B"/>
<stop offset="1" stop-color="#291C17"/>
</linearGradient>
<linearGradient id="paint3_linear_197_2664" x1="-103.139" y1="538.153" x2="-99.8268" y2="538.153" gradientUnits="userSpaceOnUse">
<stop stop-color="#3D342B"/>
<stop offset="1" stop-color="#291C17"/>
</linearGradient>
<linearGradient id="paint4_linear_197_2664" x1="-103.133" y1="538.157" x2="-99.8327" y2="538.157" gradientUnits="userSpaceOnUse">
<stop stop-color="#3D342B"/>
<stop offset="1" stop-color="#291C17"/>
</linearGradient>
<linearGradient id="paint5_linear_197_2664" x1="-103.124" y1="538.157" x2="-99.8256" y2="538.157" gradientUnits="userSpaceOnUse">
<stop stop-color="#3D342B"/>
<stop offset="1" stop-color="#291C17"/>
</linearGradient>
<linearGradient id="paint6_linear_197_2664" x1="-92.3065" y1="541.528" x2="-89.0063" y2="541.443" gradientUnits="userSpaceOnUse">
<stop stop-color="#FAB98F"/>
<stop offset="1" stop-color="#FE9E5E"/>
</linearGradient>
<linearGradient id="paint7_linear_197_2664" x1="375.953" y1="407.968" x2="377.31" y2="404.949" gradientUnits="userSpaceOnUse">
<stop stop-color="#FAB98F"/>
<stop offset="1" stop-color="#FE9E5E"/>
</linearGradient>
</defs>
</svg>
