<svg xmlns="http://www.w3.org/2000/svg" width="66.018" height="68.957" viewBox="0 0 66.018 68.957">
  <g id="yellow-customize-icon" transform="translate(-890.622 -3051.144)">
    <path id="Path_3927" data-name="Path 3927" d="M91.8,66.694V62.267a2.43,2.43,0,0,0-2.143-2.415l-6.949-.83a23.036,23.036,0,0,0-2.769-6.586l4.354-5.529a2.43,2.43,0,0,0-.191-3.222L82.557,42.14l-.041-.041-1.545-1.543a2.432,2.432,0,0,0-3.222-.192l-5.576,4.388a22.984,22.984,0,0,0-6.531-2.684L64.8,35a2.431,2.431,0,0,0-2.415-2.144H57.956a2.43,2.43,0,0,0-2.415,2.143l-.845,7.08a23.014,23.014,0,0,0-6.5,2.689l-5.6-4.4a2.432,2.432,0,0,0-3.223.192L37.831,42.1l-.041.04-1.55,1.544a2.43,2.43,0,0,0-.191,3.226l4.389,5.576A23.02,23.02,0,0,0,37.7,59.018l-7.012.836a2.432,2.432,0,0,0-2.144,2.41v4.427a2.431,2.431,0,0,0,2.144,2.415l6.952.829a23.068,23.068,0,0,0,2.717,6.648l-4.305,5.471a2.433,2.433,0,0,0,.192,3.223l1.545,1.543.041.04L39.372,88.4A2.431,2.431,0,0,0,42.6,88.6l5.43-4.271a23.021,23.021,0,0,0,6.7,2.8l.816,6.831A2.43,2.43,0,0,0,57.956,96.1h4.427A2.433,2.433,0,0,0,64.8,93.961l.812-6.819a23.06,23.06,0,0,0,6.732-2.8l5.4,4.25a2.43,2.43,0,0,0,3.222-.192l1.546-1.545.041-.04L84.1,85.279a2.432,2.432,0,0,0,.192-3.223l-4.271-5.429a23.1,23.1,0,0,0,2.744-6.7l6.89-.822A2.431,2.431,0,0,0,91.8,66.69" transform="translate(863.459 3024)" fill="#f7ba00"/>
    <path id="Path_3928" data-name="Path 3928" d="M91.8,62.367V57.941a2.43,2.43,0,0,0-2.143-2.415l-6.949-.83a23.036,23.036,0,0,0-2.769-6.586l4.354-5.529a2.43,2.43,0,0,0-.191-3.222l-1.545-1.551-.041-.04L80.97,36.225a2.43,2.43,0,0,0-3.222-.192L72.172,40.42a23.01,23.01,0,0,0-6.531-2.683L64.8,30.669a2.432,2.432,0,0,0-2.415-2.144H57.957a2.432,2.432,0,0,0-2.415,2.143L54.7,37.749a23.014,23.014,0,0,0-6.5,2.689l-5.6-4.4a2.431,2.431,0,0,0-3.223.192l-1.543,1.539-.041.04-1.546,1.546a2.434,2.434,0,0,0-.191,3.227l4.389,5.576A22.991,22.991,0,0,0,37.7,54.695l-7.012.836a2.432,2.432,0,0,0-2.144,2.41v4.427a2.432,2.432,0,0,0,2.144,2.415l6.952.829a23.04,23.04,0,0,0,2.717,6.648l-4.305,5.471a2.432,2.432,0,0,0,.192,3.222L37.79,82.5l.041.04,1.545,1.545a2.432,2.432,0,0,0,3.223.192L48.029,80a23.021,23.021,0,0,0,6.7,2.8l.816,6.83a2.43,2.43,0,0,0,2.415,2.143h4.427A2.43,2.43,0,0,0,64.8,89.639l.812-6.82a22.994,22.994,0,0,0,6.732-2.8l5.4,4.251a2.43,2.43,0,0,0,3.222-.192l1.546-1.545.041-.041L84.1,80.949a2.43,2.43,0,0,0,.192-3.222L80.021,72.3a23.048,23.048,0,0,0,2.744-6.7l6.89-.822A2.431,2.431,0,0,0,91.8,62.367Z" transform="translate(863.459 3024)" fill="none" stroke="#23314c" stroke-linecap="round" stroke-linejoin="round" stroke-width="2.763"/>
    <path id="Path_3929" data-name="Path 3929" d="M49.541,60.179A10.484,10.484,0,1,0,60.023,49.693,10.484,10.484,0,0,0,49.541,60.179Z" transform="translate(863.459 3024)" fill="#fff"/>
    <path id="Path_3930" data-name="Path 3930" d="M49.541,60.179A10.484,10.484,0,1,0,60.023,49.693,10.484,10.484,0,0,0,49.541,60.179Z" transform="translate(863.459 3024)" fill="none" stroke="#23314c" stroke-linecap="round" stroke-linejoin="round" stroke-width="2.763"/>
  </g>
</svg>
