<svg xmlns="http://www.w3.org/2000/svg" width="45.589" height="47.577" viewBox="0 0 45.589 47.577">
  <g id="rms-icon-boost-trust" transform="translate(-820.517 -433.999)">
    <path id="Path_3767" data-name="Path 3767" d="M199.724,26.164a21.413,21.413,0,1,0-21.413,21.413,21.413,21.413,0,0,0,21.413-21.413" transform="translate(665 434)" fill="#f8c102"/>
    <circle id="Ellipse_426" data-name="Ellipse 426" cx="21.413" cy="21.413" r="21.413" transform="translate(821.898 435.381)" fill="none" stroke="#23314c" stroke-linecap="round" stroke-linejoin="round" stroke-width="2.763"/>
    <path id="Path_3768" data-name="Path 3768" d="M184.026,25.634l1.349,7.865-7.064-3.713L171.248,33.5l1.349-7.865-5.715-5.57,7.9-1.148,3.531-7.156,3.532,7.156,7.9,1.148Z" transform="translate(665 434)" fill="#fff"/>
    <path id="Path_3769" data-name="Path 3769" d="M184.026,25.634l1.349,7.865-7.064-3.713L171.248,33.5l1.349-7.865-5.715-5.57,7.9-1.148,3.531-7.156,3.532,7.156,7.9,1.148Z" transform="translate(665 434)" fill="none" stroke="#23314c" stroke-linecap="round" stroke-linejoin="round" stroke-width="2.763"/>
  </g>
</svg>
