<svg xmlns="http://www.w3.org/2000/svg" width="71.47" height="67.019" viewBox="0 0 71.47 67.019">
  <g id="lifetime-red-heart-icon" transform="translate(-24.441 -30.434)">
    <path id="Path_3911" data-name="Path 3911" d="M71.415,30.965A18.429,18.429,0,0,0,55.5,40.1,18.438,18.438,0,0,0,21.147,49.4c0,30.751,34.354,42.821,34.354,42.821S89.854,80.153,89.854,49.4A18.438,18.438,0,0,0,71.415,30.965" transform="translate(4.738 5.229)" fill="#fe0056"/>
    <path id="Path_3912" data-name="Path 3912" d="M71.365,25.917a18.429,18.429,0,0,0-15.914,9.131A18.438,18.438,0,0,0,21.1,44.359c0,30.747,34.354,42.818,34.354,42.818S89.8,75.105,89.8,44.359A18.438,18.438,0,0,0,71.369,25.917Z" transform="translate(4.726 5.947)" fill="none" stroke="#23314c" stroke-linecap="round" stroke-linejoin="round" stroke-width="2.763"/>
    <path id="Path_3913" data-name="Path 3913" d="M67.18,54.642a15.5,15.5,0,1,1-15.5-15.5A15.5,15.5,0,0,1,67.18,54.642Z" transform="translate(8.555 9.305)" fill="#fff"/>
    <path id="Path_3914" data-name="Path 3914" d="M51.685,39.145a15.5,15.5,0,1,1-15.5,15.5A15.5,15.5,0,0,1,51.685,39.145Z" transform="translate(8.554 9.305)" fill="none" stroke="#23314c" stroke-linecap="round" stroke-linejoin="round" stroke-width="2.763"/>
    <line id="Line_415" data-name="Line 415" y2="4.087" transform="translate(60.24 48.449)" fill="none" stroke="#23314c" stroke-linecap="round" stroke-linejoin="round" stroke-width="2.763"/>
    <line id="Line_416" data-name="Line 416" x1="4.087" transform="translate(71.647 63.945)" fill="none" stroke="#23314c" stroke-linecap="round" stroke-linejoin="round" stroke-width="2.763"/>
    <line id="Line_417" data-name="Line 417" y1="4.087" transform="translate(60.24 75.354)" fill="none" stroke="#23314c" stroke-linecap="round" stroke-linejoin="round" stroke-width="2.763"/>
    <line id="Line_418" data-name="Line 418" x2="4.087" transform="translate(44.744 63.945)" fill="none" stroke="#23314c" stroke-linecap="round" stroke-linejoin="round" stroke-width="2.763"/>
    <path id="Path_3915" data-name="Path 3915" d="M48.5,47.1V52.62h4.708" transform="translate(11.677 11.322)" fill="none" stroke="#23314c" stroke-linecap="round" stroke-linejoin="round" stroke-width="2.763"/>
  </g>
</svg>
