<svg xmlns="http://www.w3.org/2000/svg" width="43" height="43" viewBox="0 0 43 43">
  <g id="Group_7737" data-name="Group 7737" transform="translate(10205 2499)">
    <circle id="Ellipse_470" data-name="Ellipse 470" cx="21.5" cy="21.5" r="21.5" transform="translate(-10205 -2499)" fill="#9c3cef" opacity="0.17"/>
    <g id="Group_7728" data-name="Group 7728" transform="translate(-10195.469 -2488.456)">
      <g id="Group_7731" data-name="Group 7731" transform="translate(0 0)">
        <path id="Path_4287" data-name="Path 4287" d="M23.876,2.125V18.26H16.345l-4.407,4.8-4.4-4.8H0V2.125A1.951,1.951,0,0,1,1.95.175H21.926a1.951,1.951,0,0,1,1.95,1.95" transform="translate(0 2.883)" fill="#9c3cef"/>
        <path id="Path_4289" data-name="Path 4289" d="M18.843,6.747l1.445,2.878,3.184.485L21.18,12.373,21.7,15.55l-2.86-1.478-2.86,1.478.522-3.177L14.214,10.11,17.4,9.625Z" transform="translate(-6.669 -2.311)" fill="#fff"/>
        <path id="Path_4290" data-name="Path 4290" d="M25.906,1.2V16.908H18.375l-4.407,4.8-4.4-4.8H2.03V1.2A1.951,1.951,0,0,1,3.98-.753H23.956A1.951,1.951,0,0,1,25.906,1.2Z" transform="translate(-1.794 0.753)" fill="none" stroke="#23314c" stroke-linecap="round" stroke-linejoin="round" stroke-miterlimit="10" stroke-width="1.8"/>
        <path id="Path_4292" data-name="Path 4292" d="M22.01,5.438l1.8,3.585,3.966.6-2.854,2.82.651,3.957L22.01,14.564,18.447,16.4l.651-3.957-2.854-2.82,3.966-.6Z" transform="translate(-9.836 -2.229)" fill="none" stroke="#23314c" stroke-linecap="round" stroke-linejoin="round" stroke-miterlimit="10" stroke-width="1.8"/>
      </g>
    </g>
  </g>
</svg>
