<svg xmlns="http://www.w3.org/2000/svg" width="652.992" height="61.835" viewBox="0 0 652.992 61.835">
  <path id="rms-top-heading-highlight" d="M200.371,48.783a9,9,0,0,0-2.284.665c-.41.225-2.483.44-2.16.286s1.353-.583,1.552-.685-.968-.348-1.167-.512l-.31-.072-.745-.184c-.472-.246-1.018-.532-1.217-.624a3.567,3.567,0,0,0-1.452.358l.012.143v.082c.087.113-.124.4-.472.634s-.447.951-.583.972a2.071,2.071,0,0,1-.745-.092c-.149-.072-.919-.348-1.254-.46s1.229-.379,1.415-.471.174-.256-.422-.133a25.55,25.55,0,0,1-2.719-.194c-.372.031.05.44.2.563l.062.123.05.133a3.957,3.957,0,0,1-1.862.133l-.819.02h-.137a.7.7,0,0,1-.658.44,13.345,13.345,0,0,0-2.16.041l-.025-.02-.434-.256c.757-.041,1.3-.164,1.2-.266a1.865,1.865,0,0,0-1.3-.174,14,14,0,0,1-2.793.532c-.683,0-2.545-.02-2.557-.041a3.071,3.071,0,0,1,.819-.092c.459-.02,1.8-.2,1.8-.379a8.4,8.4,0,0,1,2.284-.389,10.007,10.007,0,0,0,1.564-.225L183,48.6a1.193,1.193,0,0,0-.509-.143,49.828,49.828,0,0,1-5.623.338l-1.341-.02a9.534,9.534,0,0,1-1.775.614,3.747,3.747,0,0,1-1.2-.276c-.161-.041-.943-.164-1.3-.2s-1.217-.235-1.005-.3a5.2,5.2,0,0,1,1.3-.123l.087.061.459.327c1.018-.051,2.036-.133,2.259-.174s.6-.286.583-.4A6.684,6.684,0,0,0,173,47.944l-.025-.051c-.434-.665-1.713-.286-1.949-.061-.434.409-1.837.44-2.694.665l-.77.194c-.5.256-1.006.348-1.13.225l-.062-.123-.112-.225c-.906-.123-2.247-.327-3-.46l-.124-.153c-.335-.389-1.2-.4-2.321-.4-.484,0-1.055-.174-1.44-.143s-.559.235-.881.338l-.112.041c-.422.02-.447.092-.037.164s1.167.338.819.43a7.3,7.3,0,0,1-2.582-.368l.149-.113c.422-.327-.161-.522-1.39-.389a7.152,7.152,0,0,1-1.825-.153l-.745-.031c-.894.02-2.57.123-3.724.225l-.645-.113-.794-.133c-.732.031-1.837.1-2.458.164a32.048,32.048,0,0,1-3.24-.174c-.484-.031-1.688.02-2.284.01a18.049,18.049,0,0,0-2.992.082,9.908,9.908,0,0,1-3.575.01l-1.353.113-.931.072c-.981-.041-2.52-.072-3.439-.061s-3.513.184-4.606.276-4.457-.133-5.772-.072l-1.316-.215-.968-.153c-1.738.133-3.426.266-3.774.3s-1.775,0-2.619,0-3.041.113-3.128.041a1.525,1.525,0,0,0-.869-.113,5.15,5.15,0,0,1-1.738.051l-.385-.082-.261-.051a3.787,3.787,0,0,0-1.018.072,3.7,3.7,0,0,1-1.167.113,6.587,6.587,0,0,0-1.49.092c-.223.041-1.39.113-2.532.174l-1.018-.113c-.521-.061-1.018-.133-1.527-.2a3.887,3.887,0,0,0-2.11-.092,2.8,2.8,0,0,1-.745-.051,2.716,2.716,0,0,0-2.445.072l-.67.307a2.008,2.008,0,0,0-1.279-.522,2.543,2.543,0,0,1-1.179.174,5.853,5.853,0,0,0-1.378-.379,7.457,7.457,0,0,0-1.788.389c-.261.092-1.179-.061-1.316.01s-.4.1-.31-.082-1.614.123-1.726.133l-.112.01c-1.117.1-1.142-.481-2.532-.286l-.732.1c-1.03-.01-2.135-.031-2.433-.041s-1.39.051-2.1.061a23.382,23.382,0,0,0-3.166-.01l-.484.082-.273.051a16.806,16.806,0,0,1-1.924-.3c-.534-.113-3.3.194-3.575.082a4.273,4.273,0,0,0-1.7-.174,15.578,15.578,0,0,1-1.775-.072l-.161.051a1.916,1.916,0,0,1-.583.194c-.608-.01-1.663.133-1.589-.2l.025-.092c.732-.113,1.055-.235.72-.3a5.926,5.926,0,0,0-1.651.01c-.248.1-1.353.368-1.341.1l-.037-.123a.466.466,0,0,0-.248-.164l-.6.031c-.658.031-1.068-.092-.906-.286l-1.068.082-.2.01a6.461,6.461,0,0,1-1.564-.01c-.683-.072-3.29-.082-4.047-.072s-3.153-.307-3.774-.286a8.919,8.919,0,0,1-2.532-.092c-.248-.2-13.072-.348-13.258-.327l-.025-.01-.956-.563c-1.688-.082-3.2-.174-3.364-.194s-.919-.02-1.527-.031-3.079.041-4.171.072l-.211-.522a1.085,1.085,0,0,0-.534-.143l-.633.143a7.451,7.451,0,0,1-1.44-.368c-.174-.092-1.254-.256-1.577-.327a11.506,11.506,0,0,0-1.44-.164,1.134,1.134,0,0,1-.7-.174l-.2-.092a1.719,1.719,0,0,0-.7-.02,11.359,11.359,0,0,1-1.986.174c-1.092.02-.559-.153-.5-.348.037-.113-.646-.235.223-.276A9.73,9.73,0,0,0,6,42.635c.422-.082.348-.164.037-.3L5.686,42.2c.348-.123,1.018-.368,1.5-.552s1.068-.859.534-.9l-.385.02-.459.02a5.532,5.532,0,0,1-1.651-.041c-.434-.1-.323-.9-.161-1.228a5.266,5.266,0,0,0,.459-1.176,3.52,3.52,0,0,0-.968.307l-.521-.307-.261-.153a2.74,2.74,0,0,1,.683-.583l-.484-.092-.248-.041c-.6.123-.943.092-.782-.072l.037-.133.087-.368a3.59,3.59,0,0,1-.844-.962c-.037-.153.5-.685,1.291-.839s.782-.982.2-.921l-.335.113-.348.113a2.917,2.917,0,0,1-1.775-.4l.3-.266c.1-.082.087-.194.2-.266.286-.194.621-.379.931-.563.348-.215.757.276,1.167-.02l.112-.082c.484-.041.434-.133-.124-.2l-.025-.082c-.037-.123.236-.286.459-.409.124-.061.472-.051.67-.1.472-.133.608-.512.149-.573a1.394,1.394,0,0,1-.956-.358c-.112-.1-3.588-.123-3.588-.123-.112-.031-.1-.164.025-.3s.447-.675.608-.379l.186-.092c.037-.02.112.215.124.379l.05.379a.75.75,0,0,0,.1-.542l.012-.153c.012-.481.037-.962.074-1.432l.012-.1.137-.225.137-.317c.05-.01.2-.072.211-.113l.1-.266c.025-.061.112.194.137.235s.087.1.1-.092.074-.522.137-.4.211-.133.2-.174a.515.515,0,0,1,.025-.266l.025.031c.087.1.174.491.2-.133v-.01l.149.082c.05.051.211-.143.261-.153s.2.031.273.031.2-.389.137-.46a1.777,1.777,0,0,1-.137-.747A5.782,5.782,0,0,0,3.6,24.732a.62.62,0,0,0-.025-.419v-.481a.312.312,0,0,1-.2-.2l-.025-.113-.05-.246a5.974,5.974,0,0,0,0-1.054l-.025-.276v-.092c.012-.113.074-.092.161.051s.31-.113.31-.164a.6.6,0,0,0-.062-.307l-.025.041-.05.092c-.074.113-.112.113-.1,0l.012-.113.012-.113c.012-.133,0-.215-.012-.194a.149.149,0,0,1-.149.01,4.5,4.5,0,0,1,.074-.87l.112-.072.05-.061L3.6,19.525a.921.921,0,0,0,.236-.593c-.05-.082-.223.031-.248,0a4.868,4.868,0,0,1-.4-.44l-.174.092c-.074.041-.074-.092-.1-.276l-.025-.286c-.05.174-.149.266-.211.2a1.891,1.891,0,0,1-.323-.481v-.02l.062-.235c-.037-.235-.087-.46-.1-.522s-.074-.123-.087-.051l-.025.051-.025.072a1.373,1.373,0,0,1-.174.225c-.05.072-.236.174-.261.092a1.621,1.621,0,0,1-.05-.573c.025-.143.236.092.31.1l.012-.153a1.412,1.412,0,0,0-.05-.532L1.6,16.149a5.392,5.392,0,0,0,0-1.371c-.062-.031-.149.317-.161.276l-.062-.174c0-.01-.037-.174-.05-.327a4,4,0,0,1,.074-.788v-.123l.012-.113c-.012-.123-.05-.215-.087-.2l-.025.02-.025.02c-.037.031-.062-.02-.074-.1l.012-.031c.05-.215,8.206-.174,8.206-.174.633-.307.559-.471-.161-.368l-.41.02-.77.02a3.788,3.788,0,0,1-1.713-.266l.025-.1.161-.962c-1.055-.409-2.061-.777-2.234-.808l-.05-.051-.211-.2a1.054,1.054,0,0,0-.434-.9l-.447-.072c-1.13-.184-1.1-.5-1.055-.859l.025-.133c-.012-.246-.583-.358-1.291-.235l.459-.317c.422-.3-.335-.3-.571-.419-.062-.041-.484.379-.708-.01L0,7.34c.36-.092.72-.174.794-.194S.658,6.819.137,6.5l.186-.358c.05-.092.211-.184.186-.276l-.025-.1c-.149-.1-.112-.174.087-.143a5.164,5.164,0,0,0,1.477-.174c.372-.143-.174-.675.087-.716l.074.02a2.192,2.192,0,0,0,1.912-.041l.521-.286c.571.2,1.068.286,1.13.174A4.464,4.464,0,0,1,7.61,4.005l.608.512.323.256c.869-.286,1.428-.532,1.254-.563s-.608-.143-.559-.225l.05.01c.41,0,.832.02,1.241.051l.2.01a.808.808,0,0,0,.559-.113c.1-.082.807-.031.869-.092s.472-.246.608-.133a1.46,1.46,0,0,0,1.3-.041l.31-.143.161-.072A6.993,6.993,0,0,1,16,3.6c.459.082,2.11-.113,2.446-.01s1.291.307,1.663.041l.31-.184.3-.174a7.243,7.243,0,0,1,1.614.113c.31.072.943-.286,1.316-.286a12.938,12.938,0,0,1,1.6.174c.137.051.794.133.943-.02s11.768-.46,12.277-.4a14.59,14.59,0,0,0,2.148-.061c.4-.051,1.552.1,1.75.061l.025-.051.1-.174c.472.031,1.726.174,2.768.338l.137-.481.012-.041c.223-.031,1.266-.113,2.321-.184s4.568.123,5.487.113l.658.061c.683.061,1.13.317,1.167-.1a4.1,4.1,0,0,1,.807-.113,4.007,4.007,0,0,0,2.3-.01c.745-.276,1.788.113,2.582-.143l.31-.1c1.291.133,2.5.256,2.681.276A11.933,11.933,0,0,0,65.632,1.9a19.588,19.588,0,0,1,3.265.143v-.02l-.05-.491a18.993,18.993,0,0,0,3.923-.092l.844.389.422.194c.869-.123,2.036-.286,2.57-.358l.559-.041.174-.01c.186-.02.807-.02,1.378,0s2.619-.02,3.215.02,2.123-.164,2.272-.113a2.625,2.625,0,0,0,.919.123l.137-.061.149-.061c.186-.061.4-.072.447-.02a1.987,1.987,0,0,0,.521.246l.149-.01,1.08-.082c1.229-.061,2.421-.143,2.632-.184l.161-.041,1.1-.348a4.17,4.17,0,0,0,1.912.419,3.191,3.191,0,0,1,1.13-.235.647.647,0,0,0,.708-.532l1.577.491.286.092c.807-.041,1.862-.072,2.346-.051a6.6,6.6,0,0,0,1.626-.02,5.613,5.613,0,0,1,1.924-.041c.248.082.7-.061.658-.419l1.738.46a12.734,12.734,0,0,0,1.7-.2l.31-.041c.3-.041,1.564-.174,2.806-.276a34.283,34.283,0,0,1,4.68.419c.261,0,1.788-.072,2.843-.133s4.928,0,5.71.041l.335-.092.794-.194c.72.113,1.713.225,2.222.246l.472.01h.857c.881-.113,1.974-.246,2.421-.276s2.706-.082,3.91-.082h1.415c.348-.051.67-.02.732.072a4.886,4.886,0,0,0,1.539-.02,3.338,3.338,0,0,1,1.266-.133,6.478,6.478,0,0,0,1.713.153c.41-.061,2.16-.235,2.992-.256L144.4.6c.6.256,1.291-.246,1.949.082l.286.143A10.275,10.275,0,0,1,149,.691a4.756,4.756,0,0,0,1.241.143,1.428,1.428,0,0,1,.645-.184,2.288,2.288,0,0,0,.956-.113c.137-.1,2.545-.051,3.96-.133l1.552.153A16.823,16.823,0,0,0,161.8.445l.72-.143A25.113,25.113,0,0,1,165.3.568a2.8,2.8,0,0,0,1.4-.113,16.323,16.323,0,0,1,2.446.082c.124-.082.658-.256.732-.133a.721.721,0,0,0,.807.113c.31-.164,2.532.092,3.451.02L175.233.6l1.428.082a23.113,23.113,0,0,1,3.364-.215c.112.072.583.225.72.143a3.263,3.263,0,0,1,1.1-.286l.124.031,1.018.286c1.353-.031,3.2-.041,4.1-.01a42.6,42.6,0,0,1,4.345.082l.77-.3c.124-.051,1.08.092,1.651.092L195.529.5c1.85-.02,4.419-.1,5.723-.174l.981.327.186.072c.646-.041,1.614-.061,2.148-.051a11.81,11.81,0,0,0,1.937,0,7.056,7.056,0,0,1,2.446.174l.968-.256.31-.082c.869.061,1.9.123,2.284.143s1.825.082,2.359.082l.472.01c.36,0,.745.02,1.08,0,.372-.02.7-.113,1.068-.133l.223-.01a5.855,5.855,0,0,0,1.279.01A10.636,10.636,0,0,1,221.3.865l-.025-.379c.385,0,1.738.123,3.029.276l1.179.02.931.01C227.458.66,228.5.517,228.736.486A3.549,3.549,0,0,1,230.2.854l1.117-.113a8.379,8.379,0,0,1,1.874-.031c.919.327,1.229-.2,2.073-.061l.745.123c1.055.02,2.408.092,3,.153L239.2.875l1.13-.307a13.556,13.556,0,0,0,2.619.184,3.913,3.913,0,0,1,1.378-.072l1.006.379c.05,0,.77-.1,1.415-.194a40.811,40.811,0,0,1,4.221-.041c.869.041,3.178-.02,3.848.072S257.2.681,257.8.793l.012-.01,1.639-.614c2.16.276,4.357.5,4.891.5s1.514-.051,1.452.123a11.251,11.251,0,0,0,2.52-.215,13.787,13.787,0,0,1,2.073.02c.4.031,1.4-.061,1.5,0a1.227,1.227,0,0,0,.745.153A10.737,10.737,0,0,1,274.94.507l.757.123,2.259.256.521-.113a4.512,4.512,0,0,1,1.452-.153A15.844,15.844,0,0,0,281.52,1l1.217-.317L282.86.64a6.738,6.738,0,0,1,1.155.133A21.71,21.71,0,0,0,287.7.681l.1-.031.472-.143c.608.082.956.379.782.665L290.594.9l1.167-.2c-.087.266-.062.338.05.143s1.8.113,1.9.1.844-.041,1.477-.082,2.992.194,3.625.246,2.2-.184,2.433-.123.894.246.943.256a4,4,0,0,0,.646-.143,9.332,9.332,0,0,1,2-.092l.472.01c.273.01.757-.133.832-.113l.794.215a16.89,16.89,0,0,1,3.29.02l.919.092.372.041a7.64,7.64,0,0,0,1.328-.113c.261-.061,1.4-.072,1.763-.143s2.632.1,3.737.133l1.043.031.881.02a10.484,10.484,0,0,0,2.023.061,8.636,8.636,0,0,1,1.986-.123l.559.082c.6.082,1.08.348,1.117-.082a4.938,4.938,0,0,1,.658-.02c1.353.041,2.756.153,4.059.1l1.006-.041c.794.113,1.626.2,1.837.215s1.217-.041,1.763-.082,3.935.061,4.879.153,3.538-.338,4.134-.327,2.818-.061,3.575-.164a14.248,14.248,0,0,1,2.731.358,5.322,5.322,0,0,1,1.8-.051l.5.031c.521.041,1.254-.153,1.725-.1l.968.092a6.02,6.02,0,0,1,1.626-.276l.236.051.447.092a2.705,2.705,0,0,0,1.192.123c.248-.072.906-.153.943-.041a5.617,5.617,0,0,0,1.788.051,4.122,4.122,0,0,1,1.539-.092,5.689,5.689,0,0,0,1.142.368l.062-.031c.732-.44,1.85-.061,2.781-.082h.435a12.793,12.793,0,0,1,1.713-.082c.286.02,1.068.051,1.589.123s2.706-.113,3.637-.02l1.043-.072c.571-.041,1.353.143,1.9.092l.919-.082c.919.061,2.321.143,3.128.164l.757-.031,1.3-.061c1.477-.031,2.892-.061,3.128-.061a5.4,5.4,0,0,1,1.378.307,21.012,21.012,0,0,0,2.272,0,4.946,4.946,0,0,0,1.328.143l-.037-.041c-.1-.133-.5-.368-.434-.379l.857-.123a1.583,1.583,0,0,0,.77.419,5.093,5.093,0,0,0,1.117-.1,4.34,4.34,0,0,1,1.316-.092c.273.072,1.005.02,1.068-.276l1.353.2h.037c-.211.153.335.246,1.217.2s2.979.317,3.166.266V1.908l-.037-.338a14.258,14.258,0,0,1,1.837.235c.2.072.881.194.943.092a1.568,1.568,0,0,1,1.2-.133,29.869,29.869,0,0,0,3.439-.061,12.4,12.4,0,0,1,2.371.338,8.29,8.29,0,0,0,2.023-.153,3.048,3.048,0,0,1,1.825.153l1.192-.092c1.254-.092-.782-.338.137-.368l.931-.031c1.068.01,3.612.041,5.636.051l1.85.01c.931,0,1.85,0,2.781.02l.77.01a12.493,12.493,0,0,0,2.9-.225l.832.338.484.194a1.734,1.734,0,0,1,.968-.552l.385.143.621.225c.757-.061,1.85-.143,2.433-.184s2.532-.143,2.992-.235,2.185.184,2.793.2,2.4.113,2.706.061,1.564-.164,2.383-.215l.621-.1,1.154-.2c.5.246.943.368.993.276a2.307,2.307,0,0,1,1.452-.266c.67.082,2.942.307,3.625.307s3.116-.338,4.432-.338l1.092.02c1.117.031,2.16-.031,3.228-.02l.732.02a10.249,10.249,0,0,1,2.321-.051l.335-.061c1.068-.174,1.378-.092,1.5.225l.012.02a17.884,17.884,0,0,0,3.029-.4l1.6.379.161.031a.263.263,0,0,0,.348-.215,10.949,10.949,0,0,1,2.57.092,26.655,26.655,0,0,0,2.706-.031c.509-.031,2.1-.153,2.508-.123s2.011-.133,2.917-.092,3.575,0,3.948.051a7.3,7.3,0,0,0,1.279.2c.074-.061.571-.174.757.02l.273.041.459.061c.6-.02,1.937-.051,2.979-.072l.608-.123.807-.174a12.814,12.814,0,0,0,1.539.194,10.474,10.474,0,0,0,1.179-.133c.224-.041,1.7.082,2.5.153a32.992,32.992,0,0,0,3.314-.153c.211-.02,1.241.379,1.316.266a2.628,2.628,0,0,1,1.49-.368l.621.01.794.031a15.674,15.674,0,0,0,2.644.164c.621-.031,2.508-.2,2.979-.235a13.318,13.318,0,0,0,1.726.041,1.053,1.053,0,0,1,.633-.368l.1.02a4.985,4.985,0,0,0,2.843.235l.41-.072c.77.051,1.7.092,2.073.072s1.49.123,1.738.133l.223-.01.819-.061A28.416,28.416,0,0,1,529,.752l.646.02.509.01A3.7,3.7,0,0,1,531.818.66a2.822,2.822,0,0,0,1.3.143A6.426,6.426,0,0,1,535.145.64a14.653,14.653,0,0,0,2.644.276l.844.051.844.051c.608-.082,1.614-.153,2.235-.164l.534-.082.261-.041c.385.02,1.725-.041,2.954-.153l1.2.286.646.153a5.948,5.948,0,0,0,2.334-.286,5.792,5.792,0,0,1,1.924.02c.372.061,1.862.1,2.371.143s1.713-.164,1.813-.153.546.143.807.2a8.21,8.21,0,0,0,1.887.123c-.3-.1-.236-.2.633-.072l.931-.3a15.674,15.674,0,0,1,2.619,0l.67.01a8.261,8.261,0,0,0,1.192.3c.149.01,1.4.02,2.632.072l.844-.327L568.1.7c1.179.153,2.048.194,1.9.1s-.36-.348-.248-.389.968-.082,1.763-.113,2.992.215,3.339.153l.174.031.77.123a16.953,16.953,0,0,1,2.47.133,17.077,17.077,0,0,0,3-.563l.968.123,1.142.143a13.945,13.945,0,0,1,1.4-.327,6.291,6.291,0,0,0,.819-.1,9.962,9.962,0,0,1,1.949.194c.348.061,1.676.194,1.415.01s1.266-.02,1.552-.041a10.162,10.162,0,0,1,1.85.143,8.24,8.24,0,0,0,1.961.051A20.764,20.764,0,0,1,597.76.261l.782.174,1.44.327c.124-.338.745-.44,1.39-.225L602.713.4a20.336,20.336,0,0,1,4.755.164,6.906,6.906,0,0,0,2.5.061,12.18,12.18,0,0,1,2.557.256c.41.051-1.005.184-.1.3.261.031.757-.133,1.1-.113a6.282,6.282,0,0,1,1.564.184l.509.348c1.142.113,2.669.276,3.4.358s3.091.235,3.538.215,1.788.123,2.1.082.968-.061.894.1,1.564-.061,1.85-.092,1.415.01,2.3.01,10.564.409,10.713.379.621-.031.633.051a1.319,1.319,0,0,0,1.068.286,19.82,19.82,0,0,1,2.942.409l.2.389c.1.2,1.08.235,1.266.614l.087.174,1.378.3c.124.02.348.2.224.348h.012l.546.133a1.168,1.168,0,0,0-.36.737l.062.184.112.389c.174.43.422.8.559.808l.137.01h.137c.149,0,.285.041.3.082s-.285.164-.583.235l-.248.092c-.05.01-.012.123.037.174l.286.02c.05,0,.087-.061.149-.061l.31-.031c.36-.02.633.02.621.082s.248.358.646.522l.261.174.161.123c.025.225-.323.327-.794.225s-1.589-.031-1.2.46.459,1.8.087,1.852a8.039,8.039,0,0,0-1.291.276,7.916,7.916,0,0,1,.981.327l.136.153c.385.44.621-.235,1.018-.01l.224.133c.472.1-1.465.358-1.626.5s.31.87.41,1.217l-.31.317c-.335.348.285.931,1.055.972l.658.031c.732.082,1.043.143.7.153s-1.341.143-1.341.256a.786.786,0,0,0,.782.45l.41-.02.223-.02c.261,0-1.75.01-1.5.051s-.794-.041-.236-.031a1.609,1.609,0,0,1,1.167.8l-.3-.02c-.6-.051-.906.174-.683.419a1.383,1.383,0,0,0,.583.45l.621.184c.05.317.211.512.36.419l.161-.01a1.19,1.19,0,0,1,.521.051.149.149,0,0,1,.025.246,1.727,1.727,0,0,1-1.179.266c-.112-.01-.335.1-.347.164s.137.174.261.2l.447.1c.509.1.484.3-.037.44l-.472.01-.385.01c-.546-.164-.981-.072-.981.184l-.087.174c-.112.256,2.135.266,2.135.266-.521.072-1.2.143-1.5.164s-.236.552-.037.849.559,1.258.248,1.34-.037.583.149.675.5.389.248.471l-.31.061c-.261.061-.583-.225-.881.02l-.037.031c-.261-.02,1.663-.1,1.328-.174a11.688,11.688,0,0,0-2.148.113,14.894,14.894,0,0,1-2.768-.327c-.434-.113.124-.113-.211-.153s-1.2-.3-1.316-.184-.323.46-.273.6,1.08.235,1.328.235l.112.051c.236.113.037.389.72.348h.1c.186.2-1.589.286-1.279.113,0,0,2.185-.061,2.259.338l.012.082a9.125,9.125,0,0,0,1.515.113l.087.246.062.194c.1.225.013.348-.211.276a3.175,3.175,0,0,0-1.179-.072,2.407,2.407,0,0,1-1.13.01c-.335-.123-1.142-.5-1.266-.409l.037.031c.186.266.645.532.571.777l-.087.266c-.546.307-.844.624-.67.706a2.409,2.409,0,0,0,1.192-.061l.2-.153.124-.092c.037-.133.112-.235.174-.225l.037.02.4.3a3.4,3.4,0,0,1,1.179-.2c.149.041.1.3-.459.481l.36.317.149.123a1.379,1.379,0,0,1,1.13.409c.223.286.521.593.41.645a1.742,1.742,0,0,1-.968-.072l-.31-.123-.037-.01a.909.909,0,0,0-.484.164c-.112.092-.224.389.049.4s1.092.143.844.225-.857.419-.757.522.509.379.646.3l.112-.01a1.912,1.912,0,0,1,1.4.583l.186.174c-.248.194-.521.389-.6.43s-.1.225.124.3h.223c.559.01.732.1.5.348-.062.061-.223.174-.174.194l.248.123c-.075.153-.41.246-.732.215l-.137-.2-.062-.082c-.807-.041-.782.082.05.256l-.323.358-.174.194c-.136.215-.112.46.037.532s.447.44.236.583-1.229.327-1.241.45l.1.092.186.174c.161.225.161.338-.012.246a2.967,2.967,0,0,0-1.043-.123,5.438,5.438,0,0,1-1.154,0c-.248-.031-.943.041-.819.092s.571.276.77.348a3.238,3.238,0,0,0,.919-.113.194.194,0,0,1,.174.246c-.037.143.993-.01,1.192-.031s.509.113.174.194a4.67,4.67,0,0,1-1.366.153,1.23,1.23,0,0,0-.571-.184c-.112.01-.571.46-.757.45a1.486,1.486,0,0,0-.956.409l.186.246c.161.235.4.379.943.409h.112c.124.072.087.246-.1.389a11.08,11.08,0,0,1-1.155.481c-.1.061-.075.307-.211.317s-.236.164-.273.184.05.143.261.246.67.532.645.788l-.236.143c-.646.389-.484.583.422.829l.7.184a9.287,9.287,0,0,0-1.154.767c-.174.164-.72.368-.224.389l-.062.358-.037.153c.062.215.137.532.174.716l.273.123.323.153c-.112.174-.31.491-.459.7l.31.215.782.522c-.658.225-1.229.409-1.254.419a5.327,5.327,0,0,0,1.254,1.033l.6.512.161.153c-.323-.051-.633-.092-.683-.092a2.124,2.124,0,0,0-.534.1,6.935,6.935,0,0,1-1.03.246,9.934,9.934,0,0,0-1.266.174l-.348.072-.41.1a15.271,15.271,0,0,0-2.632.184c-.968.143-14,.235-14.872.307l-.819.031-.832.041c-.881.061-3.079.133-4.9.143H616.48a16.3,16.3,0,0,0-2.644.563l-.795-.338c-.1-.041-1.477.1-1.49.092-.41-.358-1.229.256-1.812-.072l-.2-.123a10.69,10.69,0,0,1-2.359.256l-.087.02-.819.215a19.247,19.247,0,0,0-2.669.072c-.422.072-2.135-.092-2.557-.061s-2.446.113-3.538.113-3.96.246-4.246.164a21.354,21.354,0,0,0-2.88.246l-.646-.051-1.1-.092c-1.13.051-2.595.123-3.265.143s-2.2.164-2.321.1a6.869,6.869,0,0,0-1.912.194c-.621.164-3.166-.082-3.737,0l-.2-.041-.906-.2a15.739,15.739,0,0,1-3.228.215l-.807.072-.844.072c-.782-.082-2.2-.133-3.153-.123l-.869.031-.819.031a12.287,12.287,0,0,1-2.9-.082l-.968.153-.7.113c-1.043-.02-3,.02-4.37.1l-1.378-.123L555.342,50c-1.241.113-2.57.215-2.954.235s-1.688-.113-2.061-.051-1.663.031-2.52.02-3.079.133-3.166.072-.323-.061-.348.123-1.763-.164-2.123-.164-1.937.01-2.681.041-2.768-.061-3.3-.031-2.483-.061-3.19-.1-3.2.02-3.948-.031-2.731.276-3.066.286-1.39-.082-1.8-.072-1.589-.02-2.483-.041-3.476-.1-3.786-.1a5.506,5.506,0,0,1-1.366-.02,22.527,22.527,0,0,0-3.079.031c-.7.031-3.2.092-4.171.256l-1.179-.256-.869-.184c-1.428-.02-3.6.051-4.829.153l-1.241-.153L501,49.98a4.72,4.72,0,0,1-2.185.092c-.658-.143-3.885.113-5.3.164s-5.239-.266-5.45-.276-1.6.061-2.917.123l-1.229-.143-.732-.082a2.908,2.908,0,0,1-1.788.3,10.582,10.582,0,0,0-2.47-.143,7.392,7.392,0,0,1-2.023.225,13.439,13.439,0,0,0-3-.235l-.832.123a8.633,8.633,0,0,1-2.532-.031l-.819-.143a7.254,7.254,0,0,1-1.837.133c-.372-.051-1.7-.153-2.085-.174a11.7,11.7,0,0,0-2.1.174c-.434.092-1.9-.01-2.3.031s-1.974-.02-2.47-.02a8.109,8.109,0,0,1-1.85-.194c-.037-.1-.31-.379-.5-.348a1.722,1.722,0,0,1-.832-.041,3.511,3.511,0,0,0-1.328-.1l-.223.164a9.3,9.3,0,0,1-1.577.286,5,5,0,0,1-3.091-.061l-.248-.051a3.527,3.527,0,0,0-1.229.041,7.874,7.874,0,0,1-2.172.123A6.984,6.984,0,0,0,444,49.642a2.971,2.971,0,0,1-1.477.419c-.683.02-4.2-.092-6.492.061l-2.222-.246-.7-.082a7.77,7.77,0,0,1-2.545.184,4.769,4.769,0,0,0-1.415.133c-.112.031-1.167.051-2.222.041s-4.084-.184-4.481-.215a16.907,16.907,0,0,0-2.383.246c-.484.092-2.9.051-3.923.276l-1.179-.317-.7-.184a12.266,12.266,0,0,1-2.408-.02,18.945,18.945,0,0,0-2.47.286,8.338,8.338,0,0,1-2.16-.235,2.114,2.114,0,0,0-1.465-.1l-.5.153-.571.174a8.533,8.533,0,0,0-1.713-.051,3.59,3.59,0,0,1-1.328.01c-.05-.1-.335-.133-.521.143l-1.154-.153-.608-.082c-.509.051-1.217.1-1.589.123s-1.726-.164-2.172-.133a16.677,16.677,0,0,1-2.458-.1c-.484-.092-2.2-.041-2.942-.113l-.67-.041c-.285-.02-.894.113-.943.092a2.035,2.035,0,0,0-1.291.031,7.779,7.779,0,0,1-1.092-.174c-.075-.01-.422.092-.422.143l-.012.041c.261.051.385.123.286.153a4.266,4.266,0,0,1-.919-.031,16.711,16.711,0,0,0-2.408.061h-.6a24.035,24.035,0,0,0-2.669-.092l-.956.2a15.068,15.068,0,0,0-2.135-.2c-.41.02-1.75.174-2.123.256s-.7-.3-.745-.317-.919-.01-1.9.031-4.109.123-4.817.143-2.694-.542-2.954-.46a5.148,5.148,0,0,1-1.961.512c-1.092.041-5.239-.379-7-.542l-1.539.419-.422.113c-1.068-.072-2.16-.164-2.446-.215s-1.415.031-1.887-.041a16.189,16.189,0,0,0-2.259.133c-.248.01-1.614-.02-2.5-.061s-4.457.051-6.046.153l-1.328-.3-3.29.235a2.019,2.019,0,0,1-.509.133l-.807.051c-.757-.113-1.316-.3-1.241-.4s-.174-.4-.484-.4-.956.082-.72.174l.025.1.037.133c-.012.194-.683.307-1.5.246h-1.266c-.6.051-1.763.113-2.595.123s-3.3-.133-3.8-.072-2.148-.082-2.619,0-2.036-.061-2.3-.02l-.261.01a24,24,0,0,1-3.625-.092l-1.117-.1h-3.749c-.5,0-.993-.358-1.6-.123l-.323.123-.186.072a9.381,9.381,0,0,1-1.85.266c-.857.051-3.389-.256-3.823-.286s-1.279,0-1.564-.041-1.477,0-1.85.02-1.974.041-2.768.01-2.88-.2-2.917-.256a1.794,1.794,0,0,0-.931.317l-1.366-.225c-.372-.072-1.39.235-2.172.266l-.67.031a7.8,7.8,0,0,0-2.805.225l-1.142-.276-.646-.153a7.873,7.873,0,0,0-2.284-.082,3.18,3.18,0,0,1-1.4.2,4.011,4.011,0,0,0-1.874-.061l-.5.082a5.2,5.2,0,0,1-1.142-.041l-.124-.44a7.149,7.149,0,0,0-2.644.02,2.636,2.636,0,0,1-1.589.348l-.583.051c-.459.031-.77.153-.819-.072s-.7-.3-1.142-.184a22.116,22.116,0,0,1-4.047.153l-.931.041c-1.03.051-2.023.092-2.2.092l-.161-.01L257.474,50c-1.514-.082-2.346-.2-1.85-.256s-.521-.348-.608-.44-.7-.194-.745.01a1.087,1.087,0,0,1-1.043.614l-.335-.082-.4-.1a3.8,3.8,0,0,0-1.986-.153,10.281,10.281,0,0,1-2.88.061,3.412,3.412,0,0,0-1.949-.235v.164l-.025.481c-.906.02-2.371-.031-3.265-.1s-3.463.041-3.637.02-1.08-.123-1.539-.174a28.027,28.027,0,0,0-3.55.1l-.646-.082-.646-.072a2.774,2.774,0,0,0-1.75-.348,7.375,7.375,0,0,0-1.75.43l-.025.072-.012.061a1.358,1.358,0,0,1-.571.092,10.078,10.078,0,0,1-1.279-.327,11.693,11.693,0,0,0-2.3.153c-.261,0-1.366-.051-1.9-.1l-.062-.072-.2-.235c.708,0,1.8-.02,2.433-.041s.894-.512.286-.542a8.1,8.1,0,0,0-2.408.153l-.261.143a3.257,3.257,0,0,1-1.353.46c-1.366.02-.286-.379-.857-.522l-.087-.02a4.026,4.026,0,0,0-1.229.338,28.253,28.253,0,0,1-4.332.215c-.906.02-1.887-.5-2.148-.307s1.663.338,1.775.368.174.2-.124.307l-.323.02-.4.01a18.466,18.466,0,0,1-2.272-.512l-.186-.767a3.261,3.261,0,0,0-1.018-.286c-2.321.532-1.539-.113-1.788-.358l-.025-.031a.458.458,0,0,0-.546.225,1.074,1.074,0,0,1-1.13.379c-.509-.153-1.316.5-1.49.634a4.391,4.391,0,0,1-1.3.532c-.31.01-2.1-.031-3.451,0l-1.217.02h-.261c-.273.041-.509.01-.521-.061s.037-.235.025-.368.943-.419,1.49-.4l.434.041.4.02a11.759,11.759,0,0,0,1.775.276l.6.031a2.786,2.786,0,0,0,.894-.092l.335-.225a2.684,2.684,0,0,1,1.552-.471l.186-.082c.41-.174.41-.44.906-.573l.968-.256a7.049,7.049,0,0,0-1.639-.43c-.335-.02-1.415.123-1.415.4a1.674,1.674,0,0,1-1.49.962l-.472.184a3.182,3.182,0,0,1-2.023.041Zm8.652-2.015a7.551,7.551,0,0,0-1.279-.082c-.062.031.124.174.5.276a15.608,15.608,0,0,0,3.451.02l1.018.276a2.759,2.759,0,0,0,.559-.082l.348-.113c.447-.184.273-.368-.372-.4s-3.575.174-4.221.1m-19.341.358c-.919.1-1.378.3-1.018.45a8.549,8.549,0,0,0,2.408-.235c.41-.072,2.321-.123,3.017-.123s2.669-.113,2.359-.256a11.475,11.475,0,0,0-2.644.02c-.447.041-1.738-.041-2.594-.092l-.782.123Zm453.351-23.5c.422.082.608.01.41-.164s-.869-.8-1.216-1.115l-.621.409-.459.307c-.509-.113-.645-.153-.31-.1s1.775.583,2.2.665M343.29,47.525a9.741,9.741,0,0,0-1.912.143l.062.041.248.164c-.248.164-.186.338.149.4a17.213,17.213,0,0,0,2.234-.194c.621-.051.112-.552-.782-.552M647.329,23.463c-.286-.246-.422-.246-.335,0s1.341.512,1.713.532l.025-.246.025-.113c.3-.225-.062-.235-.795-.031l-.248-.061Zm-463.6,23.4c-1.5.123-2.284.225-1.713.225a25.824,25.824,0,0,1,2.719.409c.434.082,1.788.215,1.788.061s-.621-.43-1.378-.317l-.161-.041Zm65.309,1.064c-.323-.02-.149.246.372.6l.708.113.869.153a9.4,9.4,0,0,0,2.346.235l.124-.082.161-.113c-.062-.164-.894-.276-1.85-.235l-.521-.082-.583-.1a6.251,6.251,0,0,0-1.626-.491m210.426.348c.422-.061.521-.194.2-.286s-1.241-.368-1.428-.45-1.2.01-.993.225a5.474,5.474,0,0,0,2.222.512m-231.74.061c-.124-.256-.2-.276-.161-.061s-.2.829.385.808-.087-.481-.223-.747M1.986,30.88c.062.041.087-.072.074-.256H2.048c-.112-.02-.137-.184-.124-.45v-.123c-.012-.184-.062-.133-.1.1a1.465,1.465,0,0,0,.161.726m6.033,4.46c-.025-.1-.3-.215-.633-.246l-.273-.061c-.261-.051-.36-.225-.77-.061-.323.133-.571.215-.062.368.41.133-.372.552.646.522a2.516,2.516,0,0,0,1.006-.471Z" transform="matrix(1, -0.017, 0.017, 1, 0, 11.382)" fill="#f8e802"/>
</svg>
