<svg width="415" height="415" viewBox="0 0 415 415" fill="none" xmlns="http://www.w3.org/2000/svg">
<circle cx="207.5" cy="207.5" r="207.5" fill="white"/>
<path d="M205.09 180.053C205.5 180.033 205.91 179.963 206.3 179.873C206.86 180.043 207.44 180.153 208.03 180.193C211.95 180.423 214.93 177.413 215.4 175.103C215.84 172.783 213.01 169.293 209.1 169.053C208.31 169.003 207.54 169.103 206.8 169.293C205.92 169.003 204.98 168.863 204.02 168.923C200.1 169.173 197.28 172.653 197.72 174.973C198.18 177.273 201.17 180.293 205.09 180.053Z" fill="white"/>
<path d="M282.61 65.0929L280.72 71.0828C280.19 72.7428 280.94 73.2829 282.37 72.2929L291.93 65.6329H323.45C329.09 65.6329 333.67 61.0529 333.67 55.4029C333.67 49.7529 329.09 45.1729 323.45 45.1729H285.88C280.23 45.1729 275.65 49.7529 275.65 55.4029C275.65 59.9129 278.57 63.7229 282.62 65.0929H282.61Z" fill="white"/>
<path d="M395.49 356.954H388.1C387.96 354.464 387.01 354.634 385.95 352.964C384.8 351.174 386.96 349.674 384.36 346.874C382.7 345.064 379.42 345.294 378.02 342.934C375.43 338.504 371.59 339.014 371.59 339.014C371.59 339.014 367.75 338.504 365.16 342.934C363.76 345.294 361.82 344.934 360.15 346.744C359.11 347.884 358.87 348.854 358.86 349.734C358.67 349.534 358.45 349.354 358.21 349.214C358.07 349.134 357.93 349.054 357.78 348.994C357.81 347.154 358.78 345.224 356.04 342.254C353.66 339.674 348.99 340.054 347 336.634C343.3 330.334 337.82 331.044 337.82 331.044C337.82 331.044 332.33 330.334 328.63 336.634C327.65 338.304 326.49 339.024 325.28 339.634C323.37 338.493 321.66 338.714 321.66 338.714C321.66 338.714 317.75 338.194 315.12 342.674C314.67 343.434 314.17 343.924 313.64 344.284C311.34 324.414 303.18 254.664 300.64 241.324C299.74 236.654 299.01 230.324 298.32 223.574C299.02 223.314 299.71 223.034 300.4 222.734C299.04 216.734 297.87 210.184 297.04 205.004C303.01 199.994 319.67 182.564 319.24 174.244C318.72 165.134 314.11 143.634 309.13 137.614C305.55 130.914 292.47 126.304 292.47 126.304C292.47 126.304 292.45 126.304 292.43 126.304C292.43 126.304 292.45 126.284 292.46 126.284C291.93 126.154 290.58 125.874 288.7 125.674L288.61 121.264C292.16 119.424 294.14 116.624 294.14 116.624C294.14 116.624 299.19 117.514 300.27 113.264C300.67 111.694 300.37 110.384 299.7 109.554C300.14 110.084 300.34 110.644 300.34 110.644C306.42 101.724 304.48 95.5635 300.91 93.0935C301.7 89.1835 297.46 84.0235 291.56 81.2435C285.1 78.1935 278.71 81.2435 274.6 83.9235C271.22 86.1235 268.01 85.1735 266.22 82.3835C263.86 87.4235 264.92 93.1835 269.15 95.2535C270.36 95.8335 271.56 96.3035 272.75 96.7035C271.67 99.1635 271.4 101.774 271.3 103.324C271.26 103.304 271.23 103.294 271.19 103.274C271.15 103.254 271.11 103.244 271.08 103.224C270.98 103.184 270.87 103.144 270.76 103.104C270.71 103.084 270.65 103.064 270.6 103.054C270.3 102.984 269.98 102.954 269.65 103.034C268.44 103.324 267.73 105.344 268.13 107.654C268.49 109.724 270.01 111.004 271.42 111.224C272.08 116.024 274.16 121.704 280.19 122.674C280.3 122.694 280.42 122.704 280.53 122.714L280.59 125.664C280.21 125.704 279.82 125.754 279.44 125.804C279.21 125.904 279 125.984 278.8 126.064C275.41 127.464 272.86 128.894 270.84 130.694C260.1 136.644 251.75 169.484 248.61 169.754C234.62 170.934 219.85 169.724 216.64 170.144L216.7 180.174C217.49 180.254 235.4 183.254 250.63 180.464C252.96 180.034 255.07 178.974 256.98 177.434C254.71 192.794 252.83 209.824 251.31 224.434C252.24 224.654 253.43 224.924 254.85 225.214L257.18 349.834C257.18 349.834 257.69 349.924 258.54 350.024C257.73 350.334 256.86 350.914 255.8 351.824C254.46 353.014 247.3 355.484 243.2 355.484C241.2 355.484 240.31 356.214 239.91 356.964H193.4C193.01 356.214 192.12 355.484 190.12 355.484C186.02 355.484 178.86 353.014 177.51 351.824C176.45 350.904 175.59 350.334 174.78 350.024C175.63 349.914 176.14 349.834 176.14 349.834L178.35 231.934C178.64 232.144 178.95 232.304 179.29 232.404C181.66 233.134 184.11 230.754 184.74 227.104C185.36 223.444 183.93 219.864 181.57 219.124C181.53 219.114 181.49 219.104 181.45 219.094C181.4 218.664 181.36 218.244 181.31 217.814L184.18 218.194C184.18 218.194 181.72 200.714 180.22 190.214C179.9 187.944 179.53 184.944 179.1 181.504C188.42 181.344 195.91 180.104 196.41 180.044L196.47 170.954C194.03 170.634 189.44 171.874 177.74 171.074C176.71 163.704 175.4 155.694 173.67 148.704C170.35 135.324 162.75 130.864 161.76 130.334C161.12 129.704 160.46 129.144 159.79 128.644C159.1 124.524 158.84 120.054 158.84 120.054C166.26 124.244 169.9 121.784 171.64 116.284C173.57 109.794 172.75 103.174 171.91 99.2435C172.97 99.4635 174.04 99.5735 175.1 99.4635C178.17 99.1435 174.17 85.8735 159.43 81.3635C152.43 79.2235 142.26 81.1235 141.44 90.0035C141.44 90.0035 136.41 90.7635 135.46 99.3835C134.54 107.784 142.81 116.394 145.91 118.634C145.91 118.634 146.03 118.454 146.21 118.154C147.12 122.054 147.3 124.244 147.89 125.794C142.72 126.814 137.14 130.194 134.61 134.924C131.02 141.654 130.31 149.704 134.75 188.304C134.85 189.204 135.63 210.704 132.9 222.754C133.59 223.054 134.28 223.324 134.98 223.594C134.3 230.344 133.56 236.674 132.66 241.344C129.69 256.924 119.05 349.594 119.05 349.594C119.76 349.803 120.47 349.964 121.17 350.094C120.59 350.583 119.67 351.634 119.67 353.384V356.984H31.6598C29.6598 356.984 28.5498 358.094 28.5498 359.464C28.5498 360.834 29.6598 361.954 31.0298 361.954H394.83C396.2 361.954 397.31 360.834 397.31 359.464C397.31 358.094 396.2 356.984 395.45 356.984L395.49 356.954ZM294.87 110.504C294.8 110.594 294.74 110.674 294.67 110.774C294.69 110.744 294.73 110.694 294.77 110.624C294.8 110.584 294.83 110.544 294.86 110.504H294.87ZM306.01 173.754C305.35 177.244 300.44 185.184 296.32 191.404C296.54 189.764 296.78 188.164 297.03 186.624C298.36 178.434 300.03 171.604 301.72 165.894C302.09 164.664 302.46 163.474 302.82 162.334C304.9 166.824 306.51 171.084 306.01 173.754ZM298.48 108.704C298.6 108.734 298.71 108.784 298.81 108.834C298.7 108.784 298.59 108.744 298.48 108.704ZM298.96 108.914C299.05 108.964 299.13 109.014 299.2 109.074C299.12 109.014 299.04 108.964 298.96 108.914ZM299.61 109.434C299.54 109.364 299.48 109.294 299.4 109.234C299.47 109.304 299.54 109.364 299.61 109.434ZM268.1 350.184C268.78 350.094 269.45 349.974 270.08 349.824C273.69 333.504 274.96 283.794 278.92 251.524C283.3 266.814 287.49 280.674 289.72 285.984C295.69 300.264 302.22 350.134 302.22 350.134C302.22 350.134 302.29 350.144 302.4 350.164C301.68 350.493 300.91 351.034 300 351.824C298.66 353.014 291.5 355.484 287.39 355.484C285.39 355.484 284.49 356.214 284.1 356.964H269.46V353.364C269.46 351.754 268.69 350.734 268.11 350.204L268.1 350.184ZM145.97 355.474C141.86 355.474 134.7 353.004 133.36 351.814C132.45 351.023 131.68 350.494 130.96 350.154C131.06 350.134 131.14 350.124 131.14 350.124C131.14 350.124 137.66 300.254 143.64 285.974C145.87 280.664 150.05 266.804 154.43 251.504C158.39 283.774 159.66 333.493 163.27 349.814C163.9 349.974 164.56 350.094 165.25 350.174C164.68 350.704 163.9 351.724 163.9 353.334V356.934H149.26C148.87 356.184 147.97 355.454 145.97 355.454V355.474Z" fill="white"/>
<path d="M385.96 359.024C384.81 357.234 386.97 355.734 384.37 352.934C382.71 351.124 379.43 351.354 378.03 348.994C375.44 344.564 371.6 345.074 371.6 345.074C371.6 345.074 367.76 344.564 365.17 348.994C363.77 351.354 361.83 350.994 360.16 352.804C357.57 355.644 359.88 357.474 358.71 359.274C357.57 361.084 355.07 360.474 355.07 363.714H388.13C388.13 360.464 387.11 360.844 385.96 359.024Z" fill="#309A39"/>
<path d="M358.31 357.013C356.67 354.453 359.76 352.333 356.05 348.303C353.68 345.723 349 346.103 347.01 342.683C343.31 336.383 337.83 337.093 337.83 337.093C337.83 337.093 332.34 336.383 328.64 342.683C326.64 346.103 323.88 345.553 321.52 348.133C317.83 352.163 321.1 354.793 319.46 357.373C317.82 359.963 314.25 359.073 314.25 363.713H361.41C361.41 359.073 359.97 359.593 358.32 357.013" fill="#309A39"/>
<path d="M336.28 358.944C335.1 357.114 337.29 355.614 334.66 352.734C332.97 350.904 329.64 351.164 328.21 348.734C325.58 344.254 321.67 344.764 321.67 344.764C321.67 344.764 317.76 344.244 315.13 348.724C313.7 351.154 311.73 350.774 310.05 352.604C307.41 355.474 309.76 357.344 308.58 359.184C307.4 361.024 304.87 360.404 304.87 363.704H338.47C338.47 360.404 337.44 360.764 336.28 358.934" fill="#3DCC4B"/>
<path d="M363.3 361.463C362.74 360.603 363.79 359.893 362.53 358.533C361.74 357.663 360.17 357.783 359.49 356.653C359.2 356.083 358.76 355.603 358.21 355.263C357.66 354.923 357.04 354.753 356.4 354.753C355.76 354.753 355.13 354.933 354.59 355.263C354.04 355.603 353.6 356.083 353.31 356.653C352.64 357.783 351.72 357.593 350.91 358.473C349.67 359.833 350.78 360.713 350.22 361.573C349.67 362.453 348.47 362.153 348.47 363.703H364.33C364.33 362.153 363.85 362.333 363.29 361.453" fill="#3DCC4B"/>
<path d="M201.12 308.283C201.12 306.35 199.553 304.783 197.62 304.783C195.687 304.783 194.12 306.35 194.12 308.283V329.323C194.12 331.256 195.687 332.823 197.62 332.823C199.553 332.823 201.12 331.256 201.12 329.323V308.283Z" fill="#A3EAF0"/>
<path d="M207.06 279.153H207.05C205.117 279.153 203.55 280.72 203.55 282.653V329.323C203.55 331.256 205.117 332.823 207.05 332.823H207.06C208.993 332.823 210.56 331.256 210.56 329.323V282.653C210.56 280.72 208.993 279.153 207.06 279.153Z" fill="#A3EAF0"/>
<path d="M219.98 285.894C219.98 283.961 218.413 282.394 216.48 282.394C214.547 282.394 212.98 283.961 212.98 285.894V329.324C212.98 331.257 214.547 332.824 216.48 332.824C218.413 332.824 219.98 331.257 219.98 329.324V285.894Z" fill="#A3EAF0"/>
<path d="M229.41 300.964C229.41 299.031 227.843 297.464 225.91 297.464C223.977 297.464 222.41 299.031 222.41 300.964V329.324C222.41 331.257 223.977 332.824 225.91 332.824C227.843 332.824 229.41 331.257 229.41 329.324V300.964Z" fill="#A3EAF0"/>
<path d="M235.35 315.434H235.34C233.407 315.434 231.84 317.001 231.84 318.934V329.324C231.84 331.257 233.407 332.824 235.34 332.824H235.35C237.283 332.824 238.85 331.257 238.85 329.324V318.934C238.85 317.001 237.283 315.434 235.35 315.434Z" fill="#A3EAF0"/>
<path d="M361.18 156.173H334.96V167.103H361.18V156.173Z" fill="#A3EAF0"/>
<path d="M404.01 175.503H337.06C335.9 175.503 334.96 176.443 334.96 177.603V177.613C334.96 178.773 335.9 179.713 337.06 179.713H404.01C405.17 179.713 406.11 178.773 406.11 177.613V177.603C406.11 176.443 405.17 175.503 404.01 175.503Z" fill="#A3EAF0"/>
<path d="M389.32 182.653H337.06C335.9 182.653 334.96 183.594 334.96 184.753V184.763C334.96 185.923 335.9 186.863 337.06 186.863H389.32C390.48 186.863 391.42 185.923 391.42 184.763V184.753C391.42 183.594 390.48 182.653 389.32 182.653Z" fill="#A3EAF0"/>
<path d="M393.36 189.804H337.06C335.9 189.804 334.96 190.744 334.96 191.904V191.914C334.96 193.073 335.9 194.014 337.06 194.014H393.36C394.52 194.014 395.46 193.073 395.46 191.914V191.904C395.46 190.744 394.52 189.804 393.36 189.804Z" fill="#A3EAF0"/>
<path d="M380.39 196.943H337.06C335.9 196.943 334.96 197.884 334.96 199.043V199.053C334.96 200.213 335.9 201.153 337.06 201.153H380.39C381.55 201.153 382.49 200.213 382.49 199.053V199.043C382.49 197.884 381.55 196.943 380.39 196.943Z" fill="#A3EAF0"/>
<path d="M406.32 204.104H337.06C335.9 204.104 334.96 205.044 334.96 206.204C334.96 207.363 335.9 208.304 337.06 208.304H406.32C407.48 208.304 408.42 207.363 408.42 206.204C408.42 205.044 407.48 204.104 406.32 204.104Z" fill="#A3EAF0"/>
<path d="M215.71 231.843C215.71 236.163 219.23 239.683 223.54 239.683C227.85 239.683 231.38 236.173 231.38 231.843C231.38 227.513 227.87 224.003 223.54 224.003C219.21 224.003 215.71 227.533 215.71 231.843ZM218.72 231.843C218.72 229.173 220.89 227.013 223.55 227.013C226.21 227.013 228.38 229.183 228.38 231.843C228.38 234.503 226.21 236.673 223.55 236.673C220.89 236.673 218.72 234.513 218.72 231.843Z" fill="#A3EAF0"/>
<path d="M84.6201 249.453C84.6201 253.773 88.1401 257.283 92.4501 257.283C96.7601 257.283 100.29 253.773 100.29 249.453C100.29 245.133 96.7801 241.613 92.4501 241.613C88.1201 241.613 84.6201 245.143 84.6201 249.453ZM87.6201 249.453C87.6201 246.783 89.7901 244.623 92.4501 244.623C95.1101 244.623 97.2802 246.793 97.2802 249.453C97.2802 252.113 95.1101 254.283 92.4501 254.283C89.7901 254.283 87.6201 252.123 87.6201 249.453Z" fill="#A3EAF0"/>
<path d="M117.62 65.4437H113.77V61.5938C113.77 60.7638 113.1 60.0938 112.26 60.0938C111.42 60.0938 110.76 60.7638 110.76 61.5938V65.4437H106.92C106.09 65.4437 105.42 66.1137 105.42 66.9437C105.42 67.7737 106.09 68.4437 106.92 68.4437H110.76V72.2837C110.76 73.1137 111.43 73.7938 112.26 73.7938C113.09 73.7938 113.77 73.1237 113.77 72.2837V68.4437H117.62C118.44 68.4437 119.12 67.7637 119.12 66.9437C119.12 66.1237 118.44 65.4437 117.62 65.4437Z" fill="#A3EAF0"/>
<path d="M374.18 268.263H370.34V264.413C370.34 263.583 369.67 262.913 368.84 262.913C368.01 262.913 367.34 263.583 367.34 264.413V268.263H363.49C362.66 268.263 361.99 268.933 361.99 269.763C361.99 270.593 362.66 271.263 363.49 271.263H367.34V275.113C367.34 275.943 368 276.623 368.84 276.623C369.68 276.623 370.34 275.953 370.34 275.113V271.263H374.18C375.01 271.263 375.69 270.593 375.69 269.763C375.69 268.933 375.02 268.263 374.18 268.263Z" fill="#A3EAF0"/>
<path d="M23.29 266.464C22.46 266.464 21.79 267.144 21.79 267.964C21.79 268.784 22.46 269.464 23.29 269.464H38.31C39.15 269.464 39.81 268.804 39.81 267.964C39.81 267.124 39.14 266.464 38.31 266.464H23.29Z" fill="#A3EAF0"/>
<path d="M44.75 266.464C43.92 266.464 43.25 267.144 43.25 267.964C43.25 268.784 43.93 269.464 44.75 269.464H47.5C48.33 269.464 49 268.804 49 267.964C49 267.124 48.33 266.464 47.5 266.464H44.75Z" fill="#A3EAF0"/>
<path d="M153.6 52.5332C152.77 52.5332 152.1 53.2132 152.1 54.0332C152.1 54.8532 152.77 55.5332 153.6 55.5332H168.62C169.46 55.5332 170.12 54.8732 170.12 54.0332C170.12 53.1932 169.45 52.5332 168.62 52.5332H153.6Z" fill="#A3EAF0"/>
<path d="M175.06 52.5332C174.23 52.5332 173.55 53.2132 173.55 54.0332C173.55 54.8532 174.23 55.5332 175.06 55.5332H177.81C178.64 55.5332 179.32 54.8732 179.32 54.0332C179.32 53.1932 178.64 52.5332 177.81 52.5332H175.06Z" fill="#A3EAF0"/>
<path d="M325.3 94.2734C324.46 94.2734 323.8 94.9534 323.8 95.7834C323.8 96.6134 324.47 97.2834 325.3 97.2834H340.32C341.15 97.2834 341.82 96.6234 341.82 95.7834C341.82 94.9434 341.15 94.2734 340.32 94.2734H325.3Z" fill="#A3EAF0"/>
<path d="M346.75 94.2734C345.92 94.2734 345.25 94.9534 345.25 95.7834C345.25 96.6134 345.92 97.2834 346.75 97.2834H349.5C350.33 97.2834 351 96.6234 351 95.7834C351 94.9434 350.33 94.2734 349.5 94.2734H346.75Z" fill="#A3EAF0"/>
<path d="M179.01 203.954L176.16 355.894C176.16 355.894 168.42 357.184 163.27 355.894C158.97 336.424 157.99 269.444 151.81 241.234C145.63 213.014 141.14 207.174 141.14 194.524C141.14 181.874 179.01 203.954 179.01 203.954Z" fill="#23314C"/>
<path d="M184.75 233.153C185.37 229.493 183.94 225.913 181.58 225.173C179.2 224.443 176.76 226.813 176.13 230.473C175.49 234.123 176.89 237.713 179.3 238.453C181.67 239.183 184.12 236.803 184.75 233.153Z" fill="#FFAD97"/>
<path d="M161.68 136.323C161.68 136.323 170.15 140.423 173.7 154.753C177.24 169.093 179.03 187.743 180.24 196.263C181.74 206.763 184.2 224.243 184.2 224.243L176.97 223.283L161.68 136.323Z" fill="#D42D45"/>
<path d="M248.6 175.804C234.61 176.984 219.84 175.774 216.63 176.194L216.69 186.224C217.48 186.304 235.39 189.304 250.62 186.514C266.03 183.684 271.91 153.224 274.84 140.244L271.07 136.604C260.21 142.184 251.76 175.524 248.6 175.804Z" fill="#23314C"/>
<path d="M267.48 351.013V358.213H260.06V350.653L267.48 351.013Z" fill="#FFAD97"/>
<path d="M267.48 355.783C267.48 355.783 269.44 356.843 269.44 359.403V364.593H239.65C239.65 364.593 239.11 361.523 243.21 361.523C247.31 361.523 254.47 359.053 255.81 357.863C257.53 356.363 258.75 355.773 260.06 355.773H267.49L267.48 355.783Z" fill="url(#paint0_linear_188_1789)"/>
<path d="M311.66 351.013V358.213H304.24V350.653L311.66 351.013Z" fill="#FFAD97"/>
<path d="M311.66 355.783C311.66 355.783 313.63 356.843 313.63 359.403V364.593H283.8C283.8 364.593 283.26 361.523 287.37 361.523C291.48 361.523 298.64 359.053 299.98 357.863C301.7 356.363 302.94 355.773 304.24 355.773H311.66V355.783Z" fill="url(#paint1_linear_188_1789)"/>
<path d="M209.1 175.123C213.02 175.363 215.85 178.853 215.4 181.173C214.94 183.483 211.95 186.493 208.03 186.263C204.13 186.023 200.76 182.653 201.22 180.333C201.65 178.003 205.19 174.883 209.09 175.123H209.1Z" fill="#D18C6B"/>
<path d="M254.34 203.954L257.18 355.894C257.18 355.894 264.93 357.184 270.07 355.894C274.37 336.424 275.36 269.444 281.53 241.234C287.7 213.014 292.2 207.174 292.2 194.524C292.2 181.874 254.34 203.954 254.34 203.954Z" fill="#1BCCDC"/>
<path d="M263.63 201.993C263.63 201.993 283.73 277.793 289.71 292.053C295.68 306.333 302.21 356.193 302.21 356.193C302.21 356.193 308.38 357.333 314.27 355.623C314.27 355.623 303.63 262.953 300.65 247.373C297.64 231.813 296.52 197.763 292.77 191.273C289.05 184.773 263.63 201.983 263.63 201.983V201.993Z" fill="#1BCCDC"/>
<path d="M263.63 201.993C263.63 201.993 283.73 277.793 289.71 292.053C295.68 306.333 302.21 356.193 302.21 356.193C302.21 356.193 308.38 357.333 314.27 355.623C314.27 355.623 303.63 262.953 300.65 247.373C297.64 231.813 296.52 197.763 292.77 191.273C289.05 184.773 263.63 201.983 263.63 201.983V201.993Z" fill="#3B3687"/>
<path d="M263.63 201.993C263.63 201.993 283.73 277.793 289.71 292.053C295.68 306.333 302.21 356.193 302.21 356.193C302.21 356.193 308.38 357.333 314.27 355.623C314.27 355.623 303.63 262.953 300.65 247.373C297.64 231.813 296.52 197.763 292.77 191.273C289.05 184.773 263.63 201.983 263.63 201.983V201.993Z" fill="#1BCCDC"/>
<path d="M300.41 228.793C297.68 216.743 295.7 202.483 295.79 201.593C300.23 162.983 312.73 150.413 309.13 143.683C305.55 136.983 292.47 132.373 292.47 132.373C292.47 132.373 286.68 130.833 279.43 131.843C268.57 136.173 266.02 140.673 262.29 155.173C257.5 173.883 253.88 205.663 251.29 230.483C258.46 232.203 281.8 236.853 300.39 228.783L300.41 228.793Z" fill="#23314C"/>
<g style="mix-blend-mode:multiply" opacity="0.3">
<path d="M295.97 152.554L304 164.874C304 164.874 304 164.894 303.98 164.904C303.25 167.054 302.48 169.404 301.72 171.964C296.86 161.234 295.97 152.554 295.97 152.554Z" fill="#666666"/>
</g>
<path d="M292.47 132.344C289.94 134.444 283.59 139.364 281 139.484C278.46 139.594 278.61 134.514 278.79 132.114C279 132.034 279.21 131.944 279.43 131.854C285.76 130.964 291.24 132.054 292.46 132.344H292.47Z" fill="#FFB38B"/>
<g style="mix-blend-mode:multiply" opacity="0.3">
<path d="M297.03 192.693C296.68 194.863 296.35 197.153 296.05 199.503L290.88 205.323L297.02 192.703L297.03 192.693Z" fill="#666666"/>
</g>
<path d="M309.13 143.684C314.11 149.704 318.72 171.204 319.24 180.314C319.72 189.434 299.63 209.514 295.63 212.164C295.63 212.164 290.66 209.944 290.49 205.944C290.49 205.944 304.84 185.984 306 179.834C307.17 173.634 296.86 158.754 295.96 152.564C295.27 147.974 302.61 135.844 309.13 143.694V143.684Z" fill="#23314C"/>
<path d="M284.21 214.274C286.45 211.334 290.06 209.944 292.2 211.164C294.35 212.414 294.29 215.814 292.03 218.754C289.8 221.714 286.21 223.134 284.05 221.874C281.88 220.634 281.96 217.234 284.21 214.274Z" fill="#FFB38B"/>
<path d="M280.63 133.703C280.63 133.703 280.62 134.723 283.99 134.783C287.35 134.833 288.74 133.523 288.74 133.523L288.6 126.863L280.48 127.043L280.63 133.713V133.703Z" fill="#FFB38B"/>
<g style="mix-blend-mode:multiply" opacity="0.4">
<path d="M280.52 128.073L280.5 127.273C280.58 127.203 280.67 127.113 280.77 127.033L288.61 126.863L288.67 129.963C284.84 130.993 281.59 128.893 280.52 128.073Z" fill="#F0B896"/>
</g>
<path d="M272.02 109.833C272.02 109.833 270.86 108.783 269.64 109.073C268.43 109.363 267.72 111.383 268.13 113.693C268.53 115.993 270.38 117.333 271.9 117.313C273.41 117.293 272.03 109.843 272.03 109.843L272.02 109.833Z" fill="#F0B096"/>
<g style="mix-blend-mode:multiply" opacity="0.3">
<path d="M271.89 117.304C273.4 117.284 272.02 109.834 272.02 109.834C272.02 109.834 271.4 109.284 270.6 109.094C270.57 109.554 270.54 109.944 270.52 110.204C270.52 110.204 270.18 113.354 270.68 117.054C271.09 117.224 271.5 117.314 271.89 117.314V117.304Z" fill="#F0B896"/>
</g>
<path d="M271.25 110.313C271.25 110.313 269.44 126.983 280.19 128.713C288.92 130.103 294.14 122.683 294.14 122.683C294.14 122.683 299.19 123.573 300.27 119.323C301.36 115.083 297.32 112.663 294.64 116.873C294.64 116.873 296.24 114.723 296.65 111.463C297.06 108.193 298.91 98.8032 286.14 96.7532C271.54 94.4132 271.43 107.663 271.23 110.313H271.25Z" fill="#FFB38B"/>
<g style="mix-blend-mode:multiply" opacity="0.4">
<path d="M272.07 104.724C272.53 103.054 273.31 101.334 274.58 99.8838L277.22 99.9238L293.88 102.254L296.92 106.294C297.02 107.324 297 108.304 296.93 109.174L295.48 114.614C295.71 110.984 293.75 109.564 292.73 108.104C291.71 106.634 292.16 104.684 292.16 104.684C284.15 108.014 274.39 105.434 272.08 104.724H272.07Z" fill="#F0B896"/>
</g>
<path d="M294.25 117.494C294.25 117.494 295.51 112.874 295.09 111.204C294.67 109.534 292.43 106.704 293.75 103.764C290.04 103.684 280.04 106.474 269.16 101.294C264.93 99.2337 263.87 93.4637 266.23 88.4237C268.02 91.2137 271.23 92.1637 274.61 89.9637C278.72 87.2937 285.11 84.2337 291.57 87.2837C297.47 90.0637 301.71 95.2137 300.92 99.1337C304.49 101.604 306.43 107.764 300.35 116.684C300.35 116.684 299.52 114.334 297.45 114.734C296.74 114.904 295.31 115.534 294.25 117.494Z" fill="#0A3043"/>
<path d="M165.85 351.013V358.213H173.28V350.653L165.85 351.013Z" fill="#FFAD97"/>
<path d="M165.85 355.783C165.85 355.783 163.89 356.843 163.89 359.403V364.593H193.69C193.69 364.593 194.23 361.523 190.14 361.523C186.05 361.523 178.88 359.053 177.53 357.863C175.81 356.363 174.59 355.773 173.29 355.773H165.86L165.85 355.783Z" fill="url(#paint2_linear_188_1789)"/>
<path d="M121.68 351.013V358.213H129.1V350.653L121.68 351.013Z" fill="#FFAD97"/>
<path d="M121.68 355.783C121.68 355.783 119.71 356.843 119.71 359.403V364.593H149.54C149.54 364.593 150.07 361.523 145.97 361.523C141.87 361.523 134.7 359.053 133.36 357.863C131.64 356.363 130.41 355.773 129.1 355.773H121.68V355.783Z" fill="url(#paint3_linear_188_1789)"/>
<g style="mix-blend-mode:multiply" opacity="0.3">
<path d="M179.01 203.954L176.16 355.894C176.16 355.894 168.42 357.184 163.27 355.894C158.97 336.424 157.99 269.444 151.81 241.234C145.63 213.014 141.14 207.174 141.14 194.524C141.14 181.874 179.01 203.954 179.01 203.954Z" fill="#666666"/>
</g>
<path d="M169.7 201.993C169.7 201.993 149.61 277.793 143.63 292.053C137.65 306.333 131.13 356.193 131.13 356.193C131.13 356.193 124.96 357.333 119.07 355.623C119.07 355.623 129.71 262.953 132.68 247.373C135.69 231.813 136.81 197.763 140.56 191.273C144.28 184.773 169.69 201.983 169.69 201.983L169.7 201.993Z" fill="#23314C"/>
<path d="M132.93 228.794C135.66 216.743 134.87 195.244 134.78 194.344C130.34 155.744 131.05 147.694 134.64 140.964C138.23 134.264 147.92 130.254 153.91 131.844C161.54 133.864 167.32 140.674 171.04 155.174C175.83 173.884 179.45 205.664 182.04 230.484C174.87 232.204 151.54 236.854 132.94 228.784L132.93 228.794Z" fill="#FE0056"/>
<path d="M204.03 174.994C200.11 175.244 197.29 178.724 197.73 181.044C198.19 183.344 201.18 186.364 205.1 186.124C209 185.884 212.36 182.514 211.91 180.194C211.47 177.864 207.94 174.744 204.03 174.994Z" fill="#FFB38B"/>
<path d="M177.21 189.503C176.97 187.743 176.72 186.003 176.47 184.273C170.75 183.943 162.08 182.743 159.15 178.543C154.64 172.093 148.71 152.743 148.71 152.743L138.88 143.223L135.19 140.663C135.19 140.663 132.84 144.143 135.81 154.693C138.78 165.243 144.82 175.173 149.12 180.083C153.42 185.003 155.88 187.973 164.99 188.783C169.68 189.213 174.06 189.403 177.22 189.503H177.21Z" fill="#D42D45"/>
<path d="M175.91 180.513C175.64 178.823 175.39 177.163 175.12 175.533C171.25 175.103 164.38 173.943 164.38 173.943L162.43 169.233C160.48 164.523 156.59 151.833 151.68 144.453C146.77 137.083 141.34 136.983 141.34 136.983L140.42 143.123L147.48 163.913L154.14 176.403C154.14 176.403 168.88 182.033 169.4 182.233C169.73 182.363 173.4 181.283 175.92 180.513H175.91Z" fill="#D42D45"/>
<path d="M164.53 175.673C186.39 178.853 193.29 176.593 196.5 177.003L196.44 186.093C195.66 186.183 177.75 189.183 162.51 186.373C147.1 183.553 132.63 147.413 134.99 141.373C134.99 141.373 135.45 138.963 137.7 137.323C139.96 135.683 143.38 137.223 143.38 137.223C154.24 142.803 161.39 175.213 164.53 175.673Z" fill="#FE0056"/>
<path d="M171.66 122.334C174.68 112.184 170.98 101.724 170.98 101.724C169.12 102.114 164.73 101.834 161.6 101.974C158.45 102.124 158.57 106.054 158.44 107.904C158.28 109.754 156.78 113.834 155.67 114.114C155.06 112.004 154.87 105.254 151.43 107.554C148.02 109.844 149.18 110.924 149.51 114.884C149.82 118.834 144.49 117.994 144.49 117.994C147.57 127.564 146.95 130.794 148.5 132.984C151.99 137.944 160.34 143.304 160.44 137.824C159.26 133.274 158.85 126.114 158.85 126.114C166.27 130.304 169.91 127.844 171.65 122.344L171.66 122.334Z" fill="#FFB38B"/>
<path d="M175.13 105.503C178.2 105.183 174.2 91.9129 159.46 87.4029C152.46 85.2629 142.29 87.1629 141.47 96.0329C141.47 96.0329 136.44 96.7929 135.49 105.413C134.57 113.813 142.84 122.423 145.94 124.663C145.94 124.663 149.83 118.803 149.52 114.853C149.18 110.903 148.02 109.813 151.44 107.523C154.88 105.233 155.07 111.973 155.68 114.083C156.79 113.803 158.29 109.723 158.45 107.873C158.58 106.023 158.46 102.093 161.61 101.943C164.74 101.803 170.08 106.003 175.13 105.483V105.503Z" fill="#0A3043"/>
<path d="M288.57 58.703C287.66 58.043 286.49 58.863 285.97 60.523L280.72 77.153C280.19 78.813 280.94 79.353 282.37 78.363L296.68 68.393C298.11 67.393 298.54 66.043 297.64 65.373L288.58 58.703H288.57Z" fill="#FE0056"/>
<path d="M275.64 61.4732C275.64 67.1232 280.22 71.7032 285.87 71.7032H323.44C329.08 71.7032 333.66 67.1232 333.66 61.4732C333.66 55.8232 329.08 51.2432 323.44 51.2432H285.87C280.22 51.2432 275.64 55.8232 275.64 61.4732Z" fill="#FE0056"/>
<path d="M28.5901 365.494C28.5901 366.864 29.7001 367.984 31.0701 367.984H394.87C396.24 367.984 397.35 366.864 397.35 365.494C397.35 364.124 396.24 363.014 395.49 363.014H31.6901C29.6901 363.014 28.5801 364.124 28.5801 365.494H28.5901Z" fill="#D9D9D9"/>
<path d="M205.09 180.053C205.5 180.033 205.91 179.963 206.3 179.873C206.86 180.043 207.44 180.153 208.03 180.193C211.95 180.423 214.93 177.413 215.4 175.103C215.84 172.783 213.01 169.293 209.1 169.053C208.31 169.003 207.54 169.103 206.8 169.293C205.92 169.003 204.98 168.863 204.02 168.923C200.1 169.173 197.28 172.653 197.72 174.973C198.18 177.273 201.17 180.293 205.09 180.053Z" stroke="#1A1818" stroke-width="3.03" stroke-miterlimit="10"/>
<path d="M282.61 65.0929L280.72 71.0828C280.19 72.7428 280.94 73.2829 282.37 72.2929L291.93 65.6329H323.45C329.09 65.6329 333.67 61.0529 333.67 55.4029C333.67 49.7529 329.09 45.1729 323.45 45.1729H285.88C280.23 45.1729 275.65 49.7529 275.65 55.4029C275.65 59.9129 278.57 63.7229 282.62 65.0929H282.61Z" stroke="#1A1818" stroke-width="3.03" stroke-miterlimit="10"/>
<path d="M395.49 356.954H388.1C387.96 354.464 387.01 354.634 385.95 352.964C384.8 351.174 386.96 349.674 384.36 346.874C382.7 345.064 379.42 345.294 378.02 342.934C375.43 338.504 371.59 339.014 371.59 339.014C371.59 339.014 367.75 338.504 365.16 342.934C363.76 345.294 361.82 344.934 360.15 346.744C359.11 347.884 358.87 348.854 358.86 349.734C358.67 349.534 358.45 349.354 358.21 349.214C358.07 349.134 357.93 349.054 357.78 348.994C357.81 347.154 358.78 345.224 356.04 342.254C353.66 339.674 348.99 340.054 347 336.634C343.3 330.334 337.82 331.044 337.82 331.044C337.82 331.044 332.33 330.334 328.63 336.634C327.65 338.304 326.49 339.024 325.28 339.634C323.37 338.494 321.66 338.714 321.66 338.714C321.66 338.714 317.75 338.194 315.12 342.674C314.67 343.434 314.17 343.924 313.64 344.284C311.34 324.414 303.18 254.664 300.64 241.324C299.74 236.654 299.01 230.324 298.32 223.574C299.02 223.314 299.71 223.034 300.4 222.734C299.04 216.734 297.87 210.184 297.04 205.004C303.01 199.994 319.67 182.564 319.24 174.244C318.72 165.134 314.11 143.634 309.13 137.614C305.55 130.914 292.47 126.304 292.47 126.304C292.47 126.304 292.45 126.304 292.43 126.304C292.43 126.304 292.45 126.284 292.46 126.284C291.93 126.154 290.58 125.874 288.7 125.674L288.61 121.264C292.16 119.424 294.14 116.624 294.14 116.624C294.14 116.624 299.19 117.514 300.27 113.264C300.67 111.694 300.37 110.384 299.7 109.554C300.14 110.084 300.34 110.644 300.34 110.644C306.42 101.724 304.48 95.5635 300.91 93.0935C301.7 89.1835 297.46 84.0235 291.56 81.2435C285.1 78.1935 278.71 81.2435 274.6 83.9235C271.22 86.1235 268.01 85.1735 266.22 82.3835C263.86 87.4235 264.92 93.1835 269.15 95.2535C270.36 95.8335 271.56 96.3035 272.75 96.7035C271.67 99.1635 271.4 101.774 271.3 103.324C271.26 103.304 271.23 103.294 271.19 103.274C271.15 103.254 271.11 103.244 271.08 103.224C270.98 103.184 270.87 103.144 270.76 103.104C270.71 103.084 270.65 103.064 270.6 103.054C270.3 102.984 269.98 102.954 269.65 103.034C268.44 103.324 267.73 105.344 268.13 107.654C268.49 109.724 270.01 111.004 271.42 111.224C272.08 116.024 274.16 121.704 280.19 122.674C280.3 122.694 280.42 122.704 280.53 122.714L280.59 125.664C280.21 125.704 279.82 125.754 279.44 125.804C279.21 125.904 279 125.984 278.8 126.064C275.41 127.464 272.86 128.894 270.84 130.694C260.1 136.644 251.75 169.484 248.61 169.754C234.62 170.934 219.85 169.724 216.64 170.144L216.7 180.174C217.49 180.254 235.4 183.254 250.63 180.464C252.96 180.034 255.07 178.974 256.98 177.434C254.71 192.794 252.83 209.824 251.31 224.434C252.24 224.654 253.43 224.924 254.85 225.214L257.18 349.834C257.18 349.834 257.69 349.924 258.54 350.024C257.73 350.334 256.86 350.914 255.8 351.824C254.46 353.014 247.3 355.484 243.2 355.484C241.2 355.484 240.31 356.214 239.91 356.964H193.4C193.01 356.214 192.12 355.484 190.12 355.484C186.02 355.484 178.86 353.014 177.51 351.824C176.45 350.904 175.59 350.334 174.78 350.024C175.63 349.914 176.14 349.834 176.14 349.834L178.35 231.934C178.64 232.144 178.95 232.304 179.29 232.404C181.66 233.134 184.11 230.754 184.74 227.104C185.36 223.444 183.93 219.864 181.57 219.124C181.53 219.114 181.49 219.104 181.45 219.094C181.4 218.664 181.36 218.244 181.31 217.814L184.18 218.194C184.18 218.194 181.72 200.714 180.22 190.214C179.9 187.944 179.53 184.944 179.1 181.504C188.42 181.344 195.91 180.104 196.41 180.044L196.47 170.954C194.03 170.634 189.44 171.874 177.74 171.074C176.71 163.704 175.4 155.694 173.67 148.704C170.35 135.324 162.75 130.864 161.76 130.334C161.12 129.704 160.46 129.144 159.79 128.644C159.1 124.524 158.84 120.054 158.84 120.054C166.26 124.244 169.9 121.784 171.64 116.284C173.57 109.794 172.75 103.174 171.91 99.2435C172.97 99.4635 174.04 99.5735 175.1 99.4635C178.17 99.1435 174.17 85.8735 159.43 81.3635C152.43 79.2235 142.26 81.1235 141.44 90.0035C141.44 90.0035 136.41 90.7635 135.46 99.3835C134.54 107.784 142.81 116.394 145.91 118.634C145.91 118.634 146.03 118.454 146.21 118.154C147.12 122.054 147.3 124.244 147.89 125.794C142.72 126.814 137.14 130.194 134.61 134.924C131.02 141.654 130.31 149.704 134.75 188.304C134.85 189.204 135.63 210.704 132.9 222.754C133.59 223.054 134.28 223.324 134.98 223.594C134.3 230.344 133.56 236.674 132.66 241.344C129.69 256.924 119.05 349.594 119.05 349.594C119.76 349.804 120.47 349.964 121.17 350.094C120.59 350.584 119.67 351.634 119.67 353.384V356.984H31.6598C29.6598 356.984 28.5498 358.094 28.5498 359.464C28.5498 360.834 29.6598 361.954 31.0298 361.954H394.83C396.2 361.954 397.31 360.834 397.31 359.464C397.31 358.094 396.2 356.984 395.45 356.984L395.49 356.954ZM294.87 110.504C294.8 110.594 294.74 110.674 294.67 110.774C294.69 110.744 294.73 110.694 294.77 110.624C294.8 110.584 294.83 110.544 294.86 110.504H294.87ZM306.01 173.754C305.35 177.244 300.44 185.184 296.32 191.404C296.54 189.764 296.78 188.164 297.03 186.624C298.36 178.434 300.03 171.604 301.72 165.894C302.09 164.664 302.46 163.474 302.82 162.334C304.9 166.824 306.51 171.084 306.01 173.754ZM298.48 108.704C298.6 108.734 298.71 108.784 298.81 108.834C298.7 108.784 298.59 108.744 298.48 108.704ZM298.96 108.914C299.05 108.964 299.13 109.014 299.2 109.074C299.12 109.014 299.04 108.964 298.96 108.914ZM299.61 109.434C299.54 109.364 299.48 109.294 299.4 109.234C299.47 109.304 299.54 109.364 299.61 109.434ZM268.1 350.184C268.78 350.094 269.45 349.974 270.08 349.824C273.69 333.504 274.96 283.794 278.92 251.524C283.3 266.814 287.49 280.674 289.72 285.984C295.69 300.264 302.22 350.134 302.22 350.134C302.22 350.134 302.29 350.144 302.4 350.164C301.68 350.494 300.91 351.034 300 351.824C298.66 353.014 291.5 355.484 287.39 355.484C285.39 355.484 284.49 356.214 284.1 356.964H269.46V353.364C269.46 351.754 268.69 350.734 268.11 350.204L268.1 350.184ZM145.97 355.474C141.86 355.474 134.7 353.004 133.36 351.814C132.45 351.024 131.68 350.494 130.96 350.154C131.06 350.134 131.14 350.124 131.14 350.124C131.14 350.124 137.66 300.254 143.64 285.974C145.87 280.664 150.05 266.804 154.43 251.504C158.39 283.774 159.66 333.494 163.27 349.814C163.9 349.974 164.56 350.094 165.25 350.174C164.68 350.704 163.9 351.724 163.9 353.334V356.934H149.26C148.87 356.184 147.97 355.454 145.97 355.454V355.474Z" stroke="#1A1818" stroke-width="3.03" stroke-miterlimit="10"/>
<path d="M97.28 154.043C97.28 142.073 87.5699 132.363 75.6099 132.363C63.6499 132.363 53.9399 142.073 53.9399 154.043C53.9399 166.013 63.6399 175.703 75.6099 175.703C87.5699 175.703 97.28 166.003 97.28 154.043Z" fill="white"/>
<path d="M97.28 160.223C97.28 172.183 87.5699 181.883 75.6099 181.883C63.6499 181.883 53.9399 172.183 53.9399 160.223C53.9399 148.263 63.6399 138.543 75.6099 138.543C87.5799 138.543 97.28 148.253 97.28 160.223Z" fill="#FE0056"/>
<path d="M81.8297 147.173C81.8297 147.173 75.6397 155.013 72.8997 158.493C71.2097 156.723 69.3597 154.803 69.3597 154.803C68.2297 153.633 66.3797 153.593 65.1997 154.723C64.0397 155.843 63.9997 157.713 65.1097 158.873L70.9897 165.003C71.5697 165.603 72.4097 165.943 73.2597 165.903C74.1097 165.873 74.8897 165.463 75.4197 164.793L86.4397 150.833C87.4497 149.563 87.2297 147.703 85.9597 146.703C84.6797 145.693 82.8397 145.913 81.8297 147.173Z" fill="white" stroke="#1A1818" stroke-width="3.03" stroke-linejoin="round"/>
<path d="M97.28 154.043C97.28 142.073 87.5699 132.363 75.6099 132.363C63.6499 132.363 53.9399 142.073 53.9399 154.043C53.9399 166.013 63.6399 175.703 75.6099 175.703C87.5699 175.703 97.28 166.003 97.28 154.043Z" stroke="#1A1818" stroke-width="3.03" stroke-miterlimit="10"/>
<path d="M313.87 55.8237C313.87 57.6337 315.33 59.0837 317.14 59.0837C318.95 59.0837 320.4 57.6237 320.4 55.8237C320.4 54.0237 318.93 52.5537 317.14 52.5537C315.35 52.5537 313.87 54.0237 313.87 55.8237Z" fill="white" stroke="#1A1818" stroke-width="3.03" stroke-linejoin="round"/>
<path d="M301.43 55.8237C301.43 57.6337 302.89 59.0837 304.69 59.0837C306.49 59.0837 307.96 57.6237 307.96 55.8237C307.96 54.0237 306.5 52.5537 304.69 52.5537C302.88 52.5537 301.43 54.0237 301.43 55.8237Z" fill="white" stroke="#1A1818" stroke-width="3.03" stroke-linejoin="round"/>
<path d="M289 55.8237C289 57.6337 290.46 59.0837 292.26 59.0837C294.06 59.0837 295.52 57.6237 295.52 55.8237C295.52 54.0237 294.06 52.5537 292.26 52.5537C290.46 52.5537 289 54.0237 289 55.8237Z" fill="white" stroke="#1A1818" stroke-width="3.03" stroke-linejoin="round"/>
<defs>
<linearGradient id="paint0_linear_188_1789" x1="239.63" y1="360.193" x2="269.45" y2="360.193" gradientUnits="userSpaceOnUse">
<stop stop-color="#3D342B"/>
<stop offset="1" stop-color="#291C17"/>
</linearGradient>
<linearGradient id="paint1_linear_188_1789" x1="283.78" y1="37.4843" x2="313.64" y2="37.4843" gradientUnits="userSpaceOnUse">
<stop stop-color="#3D342B"/>
<stop offset="1" stop-color="#291C17"/>
</linearGradient>
<linearGradient id="paint2_linear_188_1789" x1="193.71" y1="37.4843" x2="163.89" y2="37.4843" gradientUnits="userSpaceOnUse">
<stop stop-color="#3D342B"/>
<stop offset="1" stop-color="#291C17"/>
</linearGradient>
<linearGradient id="paint3_linear_188_1789" x1="149.56" y1="37.4843" x2="119.71" y2="37.4843" gradientUnits="userSpaceOnUse">
<stop stop-color="#3D342B"/>
<stop offset="1" stop-color="#291C17"/>
</linearGradient>
</defs>
</svg>
