<svg width="143" height="143" viewBox="0 0 143 143" fill="none" xmlns="http://www.w3.org/2000/svg">
<g filter="url(#filter0_d_201_745)">
<path d="M71.1755 123.854C59.3727 123.854 47.8351 120.354 38.0215 113.796C28.2078 107.239 20.559 97.9183 16.0424 87.0137C11.5257 76.1092 10.3441 64.1102 12.6468 52.534C14.9496 40.9579 20.6333 30.3245 28.9793 21.9787C37.3254 13.6328 47.9588 7.9492 59.535 5.64663C71.1112 3.34406 83.1102 4.52592 94.0146 9.04276C104.919 13.5596 114.239 21.2086 120.797 31.0224C127.354 40.836 130.854 52.3737 130.854 64.1765C130.836 79.9986 124.543 95.1676 113.355 106.356C102.167 117.543 86.9976 123.836 71.1755 123.854Z" fill="white" stroke="#E4E4E4"/>
<path d="M46.0806 63.5357V45.4171C46.0806 42.5768 48.3829 40.2656 51.2321 40.2656H90.583C93.4234 40.2656 95.7345 42.5679 95.7345 45.4171V89.7079C95.7345 92.5483 93.4322 94.8594 90.583 94.8594H51.2321C48.3917 94.8594 46.0806 92.5571 46.0806 89.7079V75.8852" fill="#1BCCDC"/>
<path d="M61.9319 64.5892C61.3056 64.6156 60.7058 64.7391 60.1589 64.942C59.7795 65.0743 59.3738 64.8273 59.3032 64.4392L58.7739 61.5812L67.9214 53.2452C68.9976 52.2661 69.0682 50.6077 68.089 49.5315L67.2334 48.5877C66.9952 48.3231 66.5806 48.3054 66.3072 48.5436L57.8036 56.2973L55.5983 44.3359C55.5366 43.9743 55.1926 43.7449 54.8397 43.8155L53.5871 44.0448C52.1581 44.3095 51.2143 45.6767 51.4877 47.1057L53.8518 59.9052L51.2143 62.2957C50.9232 62.5603 50.4557 62.5162 50.2263 62.181C49.9087 61.687 49.503 61.2283 49.0266 60.8226C46.742 58.8996 43.3635 58.8643 41.0435 60.7255C38.1679 63.0455 37.8944 67.2708 40.3908 69.9347C42.7284 72.4223 46.7773 72.5017 49.3001 70.1994L54.8221 65.1714L56.057 71.8754C56.6745 75.2362 59.9471 77.6179 63.3168 77.0446C66.9158 76.4359 69.2534 72.8986 68.3625 69.3173C67.648 66.4239 64.9311 64.4127 61.9495 64.5715L61.9319 64.5892ZM46.4244 67.2443C45.5423 68.047 44.175 67.9853 43.3723 67.1032C42.5696 66.2211 42.6225 64.8538 43.5134 64.0511C44.3956 63.2484 45.7628 63.3101 46.5655 64.1922C47.3683 65.0743 47.3065 66.4416 46.4244 67.2443ZM62.6376 72.9868C61.4644 73.2074 60.3441 72.4311 60.1236 71.2579C59.903 70.0847 60.6793 68.9644 61.8525 68.7439C63.0257 68.5234 64.1548 69.2996 64.3753 70.4728C64.5959 71.646 63.8196 72.7663 62.6376 72.9868Z" fill="white"/>
<path d="M61.8616 68.5501C63.0348 68.3296 64.1639 69.1059 64.3756 70.2791C64.5961 71.4523 63.8199 72.5814 62.6467 72.7931C61.4735 73.0136 60.3444 72.2374 60.1327 71.0642C59.9121 69.891 60.6884 68.7618 61.8616 68.5501Z" stroke="#23314C" stroke-width="2.76" stroke-linecap="round" stroke-linejoin="round"/>
<path d="M51.4702 46.9211L56.0483 71.6996C56.6658 75.0516 59.9473 77.4421 63.3081 76.8776C66.8983 76.2689 69.2447 72.7316 68.3538 69.1503C67.6304 66.257 64.9224 64.2457 61.9408 64.3957C61.3145 64.431 60.7147 64.5545 60.159 64.7485C59.7797 64.8809 59.3739 64.6339 59.3033 64.2457L55.5985 44.1601C55.5367 43.8073 55.1927 43.5691 54.831 43.6308L53.5784 43.8602C52.1494 44.1248 51.2055 45.4921 51.4702 46.9211Z" stroke="#23314C" stroke-width="2.76" stroke-linecap="round" stroke-linejoin="round"/>
<path d="M46.5656 63.9986C45.7629 63.1165 44.3956 63.0548 43.5135 63.8575C42.6314 64.6602 42.5696 66.0275 43.3724 66.9096C44.1751 67.7917 45.5424 67.8534 46.4245 67.0507C47.3066 66.248 47.3683 64.8807 46.5656 63.9986Z" stroke="#23314C" stroke-width="2.76" stroke-linecap="round" stroke-linejoin="round"/>
<path d="M54.8045 64.995L49.2824 70.023C46.7596 72.3165 42.7019 72.246 40.3731 69.7584C37.8768 67.0944 38.1502 62.8691 41.0259 60.5492C43.3458 58.6791 46.7243 58.7232 49.009 60.6462C49.4942 61.052 49.8911 61.5107 50.2175 62.0047C50.438 62.3399 50.9055 62.3928 51.2054 62.1193L53.8341 59.72" stroke="#23314C" stroke-width="2.76" stroke-linecap="round" stroke-linejoin="round"/>
<path d="M57.7948 56.1043L66.2983 48.3506C66.563 48.1036 66.9776 48.1212 67.2246 48.3947L68.0802 49.3297C69.0593 50.4059 68.98 52.0642 67.9038 53.0434L58.7651 61.3793" stroke="#23314C" stroke-width="2.76" stroke-linecap="round" stroke-linejoin="round"/>
<path d="M76.5751 54.3131L75.5077 50.8199C75.1196 49.5497 75.8341 48.2001 77.1131 47.812L82.6881 46.1183C83.9583 45.7302 85.3079 46.4447 85.6961 47.7237L86.7634 51.2169C86.8164 51.3757 86.7193 51.5433 86.5605 51.5962L76.9544 54.5248C76.7956 54.5689 76.628 54.4807 76.5751 54.3219V54.3131Z" fill="white" stroke="#23314C" stroke-width="2.76" stroke-linecap="round" stroke-linejoin="round"/>
<path d="M79.4508 61.9166V58.3264C79.4508 57.9912 79.7243 57.7266 80.0506 57.7266H85.952C86.2872 57.7266 86.5518 58 86.5518 58.3264V61.9166" fill="white"/>
<path d="M79.4508 61.9166V58.3264C79.4508 57.9912 79.7243 57.7266 80.0506 57.7266H85.952C86.2872 57.7266 86.5518 58 86.5518 58.3264V61.9166" stroke="#23314C" stroke-width="2.76" stroke-linecap="round" stroke-linejoin="round"/>
<path d="M46.0806 59.2701V41.1515C46.0806 38.3111 48.3829 36 51.2321 36H90.583C93.4234 36 95.7345 38.3023 95.7345 41.1515V85.4423C95.7345 88.2826 93.4322 90.5938 90.583 90.5938H51.2321C48.3917 90.5938 46.0806 88.2915 46.0806 85.4423V71.6196" stroke="#23314C" stroke-width="2.76" stroke-linecap="round" stroke-linejoin="round"/>
<path d="M77.6778 79.5053V62.5159C77.6778 62.1806 77.9512 61.916 78.2776 61.916H87.7162C88.0514 61.916 88.316 62.1895 88.316 62.5159V79.5053C88.316 80.5021 87.5045 81.3136 86.5077 81.3136H79.4773C78.4805 81.3136 77.6689 80.5021 77.6689 79.5053H77.6778Z" fill="white" stroke="#23314C" stroke-width="2.76" stroke-linecap="round" stroke-linejoin="round"/>
<path d="M88.3248 76.4453H77.6866" stroke="#23314C" stroke-width="2.76" stroke-linecap="round" stroke-linejoin="round"/>
<path d="M88.3248 72.4395H77.6866" stroke="#23314C" stroke-width="2.76" stroke-linecap="round" stroke-linejoin="round"/>
</g>
<defs>
<filter id="filter0_d_201_745" x="0" y="0" width="142.354" height="142.354" filterUnits="userSpaceOnUse" color-interpolation-filters="sRGB">
<feFlood flood-opacity="0" result="BackgroundImageFix"/>
<feColorMatrix in="SourceAlpha" type="matrix" values="0 0 0 0 0 0 0 0 0 0 0 0 0 0 0 0 0 0 127 0" result="hardAlpha"/>
<feOffset dy="7"/>
<feGaussianBlur stdDeviation="5.5"/>
<feColorMatrix type="matrix" values="0 0 0 0 0 0 0 0 0 0 0 0 0 0 0 0 0 0 0.051 0"/>
<feBlend mode="normal" in2="BackgroundImageFix" result="effect1_dropShadow_201_745"/>
<feBlend mode="normal" in="SourceGraphic" in2="effect1_dropShadow_201_745" result="shape"/>
</filter>
</defs>
</svg>
