<svg xmlns="http://www.w3.org/2000/svg" width="43" height="43" viewBox="0 0 43 43">
  <g id="Group_7741" data-name="Group 7741" transform="translate(9837 2611)">
    <circle id="Ellipse_467" data-name="Ellipse 467" cx="21.5" cy="21.5" r="21.5" transform="translate(-9837 -2611)" fill="#f7ba00" opacity="0.25"/>
    <g id="yellow-customize-icon" transform="translate(-9827.406 -2601.755)">
      <path id="Path_3927" data-name="Path 3927" d="M51.956,45.379V43.74a.9.9,0,0,0-.793-.894l-2.572-.307A8.527,8.527,0,0,0,47.566,40.1l1.612-2.047a.9.9,0,0,0-.071-1.193l-.572-.572-.015-.015-.572-.571a.9.9,0,0,0-1.193-.071l-2.064,1.624a8.508,8.508,0,0,0-2.417-.993l-.312-2.618a.9.9,0,0,0-.894-.794H39.429a.9.9,0,0,0-.894.793l-.313,2.621a8.519,8.519,0,0,0-2.406,1l-2.073-1.629a.9.9,0,0,0-1.193.071l-.571.57-.015.015-.574.572a.9.9,0,0,0-.071,1.194l1.625,2.064a8.521,8.521,0,0,0-1.015,2.42l-2.6.309a.9.9,0,0,0-.794.892v1.639a.9.9,0,0,0,.794.894l2.573.307a8.539,8.539,0,0,0,1.006,2.461L31.32,51.064a.9.9,0,0,0,.071,1.193l.572.571.015.015.572.572a.9.9,0,0,0,1.193.071l2.01-1.581a8.521,8.521,0,0,0,2.48,1.036l.3,2.528a.9.9,0,0,0,.894.793h1.639a.9.9,0,0,0,.895-.792l.3-2.524a8.536,8.536,0,0,0,2.492-1.036l2,1.573a.9.9,0,0,0,1.193-.071l.572-.572.015-.015.573-.569a.9.9,0,0,0,.071-1.193L47.6,49.055a8.551,8.551,0,0,0,1.016-2.48l2.55-.3a.9.9,0,0,0,.794-.894" transform="translate(-28.541 -30.302)" fill="#f7ba00"/>
      <path id="Path_3928" data-name="Path 3928" d="M51.959,41.052V39.413a.9.9,0,0,0-.793-.894l-2.572-.307a8.527,8.527,0,0,0-1.025-2.438l1.612-2.047a.9.9,0,0,0-.071-1.193l-.572-.574-.015-.015-.572-.571a.9.9,0,0,0-1.193-.071l-2.064,1.624a8.518,8.518,0,0,0-2.417-.993l-.312-2.616a.9.9,0,0,0-.894-.794H39.432a.9.9,0,0,0-.894.793l-.313,2.621a8.519,8.519,0,0,0-2.406,1l-2.073-1.629a.9.9,0,0,0-1.193.071l-.571.57-.015.015-.572.572a.9.9,0,0,0-.071,1.194l1.625,2.064a8.51,8.51,0,0,0-1.015,2.42l-2.6.309a.9.9,0,0,0-.794.892v1.639a.9.9,0,0,0,.794.894l2.573.307a8.529,8.529,0,0,0,1.006,2.461l-1.593,2.025a.9.9,0,0,0,.071,1.193l.572.572.015.015.572.572a.9.9,0,0,0,1.193.071l2.01-1.581a8.521,8.521,0,0,0,2.48,1.036l.3,2.528a.9.9,0,0,0,.894.793h1.639a.9.9,0,0,0,.895-.791l.3-2.524a8.511,8.511,0,0,0,2.492-1.036l2,1.574a.9.9,0,0,0,1.193-.071l.572-.572.015-.015.571-.571a.9.9,0,0,0,.071-1.193L47.6,44.728a8.531,8.531,0,0,0,1.016-2.48l2.55-.3A.9.9,0,0,0,51.959,41.052Z" transform="translate(-28.543 -28.525)" fill="none" stroke="#23314c" stroke-linecap="round" stroke-linejoin="round" stroke-width="1.8"/>
      <path id="Path_3929" data-name="Path 3929" d="M49.541,53.574a3.881,3.881,0,1,0,3.88-3.881,3.881,3.881,0,0,0-3.88,3.881Z" transform="translate(-41.768 -41.858)" fill="#fff"/>
      <path id="Path_3930" data-name="Path 3930" d="M49.541,53.574a3.881,3.881,0,1,0,3.88-3.881,3.881,3.881,0,0,0-3.88,3.881Z" transform="translate(-41.768 -41.858)" fill="none" stroke="#23314c" stroke-linecap="round" stroke-linejoin="round" stroke-width="1.8"/>
    </g>
  </g>
</svg>
