<svg width="143" height="143" viewBox="0 0 143 143" fill="none" xmlns="http://www.w3.org/2000/svg">
<g filter="url(#filter0_d_201_729)">
<path d="M71.1755 123.854C59.3727 123.854 47.8351 120.354 38.0215 113.796C28.2078 107.239 20.559 97.9183 16.0424 87.0137C11.5257 76.1092 10.3441 64.1102 12.6468 52.534C14.9496 40.9579 20.6333 30.3245 28.9794 21.9787C37.3254 13.6328 47.9588 7.9492 59.535 5.64663C71.1112 3.34406 83.1102 4.52592 94.0146 9.04276C104.919 13.5596 114.239 21.2086 120.797 31.0224C127.354 40.836 130.854 52.3737 130.854 64.1765C130.836 79.9986 124.543 95.1674 113.355 106.355C102.167 117.543 86.9976 123.836 71.1755 123.854Z" fill="white" stroke="#E4E4E4"/>
</g>
<path d="M87.1509 40.1934C83.9314 40.1932 80.7679 41.0364 77.9756 42.6391C75.1833 44.2419 72.8596 46.5482 71.2359 49.3284C69.1915 45.8334 66.0535 43.1086 62.3063 41.5746C58.5591 40.0406 54.4112 39.7828 50.5029 40.8408C46.5945 41.8989 43.1432 44.214 40.6816 47.4288C38.22 50.6436 36.8851 54.5794 36.8829 58.6284C36.8829 89.3794 71.2369 101.449 71.2369 101.449C71.2369 101.449 105.59 89.3814 105.59 58.6284C105.589 53.7386 103.646 49.0495 100.188 45.5923C96.7302 42.1351 92.0406 40.1931 87.1509 40.1934Z" fill="#FE0056"/>
<path d="M87.089 35.8633C83.87 35.8628 80.707 36.7056 77.9149 38.3076C75.1228 39.9096 72.7991 42.215 71.175 44.9943C69.1296 41.4995 65.9907 38.7752 62.2428 37.2421C58.4949 35.709 54.3466 35.4523 50.4383 36.5117C46.53 37.571 43.0792 39.8875 40.6186 43.1035C38.158 46.3194 36.8245 50.256 36.824 54.3053C36.824 85.0523 71.178 97.1233 71.178 97.1233C71.178 97.1233 105.524 85.0513 105.524 54.3053C105.525 49.4157 103.584 44.726 100.128 41.2675C96.6711 37.8091 91.9825 35.8651 87.093 35.8633H87.089Z" stroke="#23314C" stroke-width="2.763" stroke-linecap="round" stroke-linejoin="round"/>
<path d="M86.7329 67.9463C86.7329 71.0119 85.8239 74.0087 84.1207 76.5576C82.4175 79.1066 79.9968 81.0933 77.1645 82.2664C74.3323 83.4396 71.2157 83.7465 68.209 83.1485C65.2023 82.5504 62.4405 81.0742 60.2728 78.9064C58.105 76.7387 56.6288 73.9769 56.0307 70.9702C55.4327 67.9635 55.7396 64.847 56.9128 62.0147C58.0859 59.1824 60.0726 56.7617 62.6216 55.0585C65.1705 53.3554 68.1673 52.4463 71.2329 52.4463C73.2684 52.4463 75.284 52.8472 77.1645 53.6262C79.0451 54.4051 80.7538 55.5468 82.1931 56.9861C83.6324 58.4254 84.7741 60.1342 85.553 62.0147C86.332 63.8952 86.7329 65.9108 86.7329 67.9463Z" fill="white"/>
<path d="M71.2369 52.4492C74.3025 52.4492 77.2993 53.3583 79.8483 55.0614C82.3972 56.7646 84.3839 59.1854 85.5571 62.0176C86.7302 64.8499 87.0372 67.9664 86.4391 70.9731C85.841 73.9798 84.3648 76.7417 82.1971 78.9094C80.0294 81.0771 77.2675 82.5533 74.2608 83.1514C71.2541 83.7495 68.1376 83.4425 65.3053 82.2694C62.4731 81.0962 60.0523 79.1095 58.3492 76.5606C56.646 74.0116 55.7369 71.0148 55.7369 67.9492C55.7369 63.8384 57.37 59.8959 60.2768 56.9891C63.1836 54.0822 67.1261 52.4492 71.2369 52.4492Z" stroke="#23314C" stroke-width="2.763" stroke-linecap="round" stroke-linejoin="round"/>
<path d="M71.238 52.4482V56.5352" stroke="#23314C" stroke-width="2.763" stroke-linecap="round" stroke-linejoin="round"/>
<path d="M86.732 67.9443H82.645" stroke="#23314C" stroke-width="2.763" stroke-linecap="round" stroke-linejoin="round"/>
<path d="M71.238 83.4405V79.3535" stroke="#23314C" stroke-width="2.763" stroke-linecap="round" stroke-linejoin="round"/>
<path d="M55.7419 67.9443H59.8289" stroke="#23314C" stroke-width="2.763" stroke-linecap="round" stroke-linejoin="round"/>
<path d="M71.1749 62.4209V67.9409H75.8829" stroke="#23314C" stroke-width="2.763" stroke-linecap="round" stroke-linejoin="round"/>
<defs>
<filter id="filter0_d_201_729" x="0" y="0" width="142.354" height="142.354" filterUnits="userSpaceOnUse" color-interpolation-filters="sRGB">
<feFlood flood-opacity="0" result="BackgroundImageFix"/>
<feColorMatrix in="SourceAlpha" type="matrix" values="0 0 0 0 0 0 0 0 0 0 0 0 0 0 0 0 0 0 127 0" result="hardAlpha"/>
<feOffset dy="7"/>
<feGaussianBlur stdDeviation="5.5"/>
<feColorMatrix type="matrix" values="0 0 0 0 0 0 0 0 0 0 0 0 0 0 0 0 0 0 0.051 0"/>
<feBlend mode="normal" in2="BackgroundImageFix" result="effect1_dropShadow_201_729"/>
<feBlend mode="normal" in="SourceGraphic" in2="effect1_dropShadow_201_729" result="shape"/>
</filter>
</defs>
</svg>
