<svg xmlns="http://www.w3.org/2000/svg" width="66.495" height="69.655" viewBox="0 0 66.495 69.655">
  <g id="blue-label-icon" transform="translate(-607.462 -3049.602)">
    <path id="Path_3922" data-name="Path 3922" d="M339.646,43.7l-6.731,6.888a5.935,5.935,0,0,0-1.192,3.579V66.292a5.911,5.911,0,0,0,1.81,4.275l31.175,29.892a3.314,3.314,0,0,0,4.661-.071l26.962-27.48a.223.223,0,0,0,0-.308L365.8,39.77a5.7,5.7,0,0,0-4.175-1.829H347.542a5.67,5.67,0,0,0-2.4.534Z" transform="translate(276.063 3017.875)" fill="#1bccdc"/>
    <path id="Path_3923" data-name="Path 3923" d="M339.613,38.636l-6.735,6.888a5.937,5.937,0,0,0-1.192,3.574V61.221A5.911,5.911,0,0,0,333.5,65.5l31.178,29.9a3.315,3.315,0,0,0,4.661-.07l24.9-25.372a3.316,3.316,0,0,0,.061-4.58L365.772,34.7a5.7,5.7,0,0,0-4.17-1.829H347.509a5.67,5.67,0,0,0-2.4.534l-5.491,5.227" transform="translate(277.276 3018.227)" fill="none" stroke="#1a1818" stroke-miterlimit="10" stroke-width="3"/>
    <path id="Path_3924" data-name="Path 3924" d="M346.475,55.524h0a6.413,6.413,0,1,1,6.413-6.413,6.413,6.413,0,0,1-6.413,6.413" transform="translate(278.179 3021.082)" fill="#fff"/>
    <path id="Path_3925" data-name="Path 3925" d="M346.475,55.524h0a6.413,6.413,0,1,1,6.413-6.413A6.413,6.413,0,0,1,346.475,55.524Z" transform="translate(278.179 3021.082)" fill="none" stroke="#1a1818" stroke-miterlimit="10" stroke-width="3"/>
  </g>
</svg>
