<svg xmlns="http://www.w3.org/2000/svg" width="62.651" height="65.539" viewBox="0 0 62.651 65.539">
  <g id="green-brand-icon" transform="translate(-919.769 -2108.173)">
    <path id="Path_3905" data-name="Path 3905" d="M827.289,96.366h0A29.944,29.944,0,1,0,797.347,66.42h0a29.944,29.944,0,0,0,29.942,29.945" transform="translate(123.804 2077.346)" fill="#3dcc4b"/>
    <path id="Path_3907" data-name="Path 3907" d="M827.991,57.32a42.509,42.509,0,0,0-4.316-1.955,9.7,9.7,0,0,1-2.37-1.326,2.061,2.061,0,0,1,.51-3.668,4.147,4.147,0,0,1,1.451-.3,11.011,11.011,0,0,1,5.455,1.079c.86.415,1.145.283,1.436-.613.307-.948.562-1.911.846-2.866a1,1,0,0,0-.649-1.334,13.831,13.831,0,0,0-3.441-1.028c-1.56-.241-1.56-.248-1.567-1.815-.007-2.21-.007-2.21-2.224-2.21-.321,0-.642-.006-.963,0-1.036.03-1.21.212-1.24,1.255-.014.466,0,.933-.006,1.407-.007,1.385-.015,1.364-1.343,1.845-3.208,1.166-5.192,3.354-5.4,6.854-.189,3.1,1.429,5.192,3.974,6.715a43.634,43.634,0,0,0,4.965,2.232,7.415,7.415,0,0,1,1.809,1.064,2.48,2.48,0,0,1-.59,4.347,5.941,5.941,0,0,1-3.187.415,14.211,14.211,0,0,1-4.857-1.451c-.9-.466-1.158-.344-1.466.627-.262.839-.5,1.685-.728,2.53-.313,1.138-.2,1.408.889,1.939a15.515,15.515,0,0,0,4.375,1.255c1.181.189,1.217.241,1.232,1.466.008.554.008,1.116.014,1.67a.992.992,0,0,0,1.066,1.122c.816.015,1.64.015,2.457-.008a.934.934,0,0,0,1.013-1.057c0-.758.036-1.523.008-2.282a1.205,1.205,0,0,1,1.043-1.372,8.24,8.24,0,0,0,4.294-2.756,7.748,7.748,0,0,0-2.486-11.784" transform="translate(128.012 2080.564)" fill="#fff"/>
    <path id="green-brand-icon-2" data-name="green-brand-icon" d="M827.289,91.366h0A29.944,29.944,0,1,0,797.347,61.42h0A29.944,29.944,0,0,0,827.289,91.366Z" transform="translate(123.804 2078.076)" fill="none" stroke="#23314c" stroke-linecap="round" stroke-linejoin="round" stroke-width="2.763"/>
    <path id="Path_3908" data-name="Path 3908" d="M827.991,57.32a42.509,42.509,0,0,0-4.316-1.955,9.7,9.7,0,0,1-2.37-1.326,2.061,2.061,0,0,1,.51-3.668,4.147,4.147,0,0,1,1.451-.3,11.011,11.011,0,0,1,5.455,1.079c.86.415,1.145.283,1.436-.613.307-.948.562-1.911.846-2.866a1,1,0,0,0-.649-1.334,13.831,13.831,0,0,0-3.441-1.028c-1.56-.241-1.56-.248-1.567-1.815-.007-2.21-.007-2.21-2.224-2.21-.321,0-.642-.006-.963,0-1.036.03-1.21.212-1.24,1.255-.014.466,0,.933-.006,1.407-.007,1.385-.015,1.364-1.343,1.845-3.208,1.166-5.192,3.354-5.4,6.854-.189,3.1,1.429,5.192,3.974,6.715a43.634,43.634,0,0,0,4.965,2.232,7.415,7.415,0,0,1,1.809,1.064,2.48,2.48,0,0,1-.59,4.347,5.941,5.941,0,0,1-3.187.415,14.211,14.211,0,0,1-4.857-1.451c-.9-.466-1.158-.344-1.466.627-.262.839-.5,1.685-.728,2.53-.313,1.138-.2,1.408.889,1.939a15.515,15.515,0,0,0,4.375,1.255c1.181.189,1.217.241,1.232,1.466.008.554.008,1.116.014,1.67a.992.992,0,0,0,1.066,1.122c.816.015,1.64.015,2.457-.008a.934.934,0,0,0,1.013-1.057c0-.758.036-1.523.008-2.282a1.205,1.205,0,0,1,1.043-1.372,8.24,8.24,0,0,0,4.294-2.756A7.748,7.748,0,0,0,827.991,57.32Z" transform="translate(128.012 2080.564)" fill="none" stroke="#23314c" stroke-linecap="round" stroke-linejoin="round" stroke-width="2.763"/>
  </g>
</svg>
