<svg width="85" height="88" viewBox="0 0 85 88" fill="none" xmlns="http://www.w3.org/2000/svg">
<path d="M6.05385 68.9949C8.63427 68.9949 10.7261 66.9031 10.7261 64.3226C10.7261 61.7422 8.63427 59.6504 6.05385 59.6504C3.47343 59.6504 1.38159 61.7422 1.38159 64.3226C1.38159 66.9031 3.47343 68.9949 6.05385 68.9949Z" fill="#3DCC4B"/>
<path d="M6.05385 87.9363C8.63427 87.9363 10.7261 85.8445 10.7261 83.2641C10.7261 80.6836 8.63427 78.5918 6.05385 78.5918C3.47343 78.5918 1.38159 80.6836 1.38159 83.2641C1.38159 85.8445 3.47343 87.9363 6.05385 87.9363Z" fill="#F7BA00"/>
<path d="M24.9933 87.9363C27.5737 87.9363 29.6656 85.8445 29.6656 83.2641C29.6656 80.6836 27.5737 78.5918 24.9933 78.5918C22.4129 78.5918 20.321 80.6836 20.321 83.2641C20.321 85.8445 22.4129 87.9363 24.9933 87.9363Z" fill="#FE0056"/>
<path d="M78.4738 34.4539C81.0542 34.4539 83.146 32.3621 83.146 29.7816C83.146 27.2012 81.0542 25.1094 78.4738 25.1094C75.8934 25.1094 73.8015 27.2012 73.8015 29.7816C73.8015 32.3621 75.8934 34.4539 78.4738 34.4539Z" fill="#3DCC4B"/>
<path d="M78.4738 15.5144C81.0542 15.5144 83.146 13.4226 83.146 10.8422C83.146 8.26176 81.0542 6.16992 78.4738 6.16992C75.8934 6.16992 73.8015 8.26176 73.8015 10.8422C73.8015 13.4226 75.8934 15.5144 78.4738 15.5144Z" fill="#F7BA00"/>
<path d="M59.5346 15.5144C62.115 15.5144 64.2068 13.4226 64.2068 10.8422C64.2068 8.26176 62.115 6.16992 59.5346 6.16992C56.9541 6.16992 54.8623 8.26176 54.8623 10.8422C54.8623 13.4226 56.9541 15.5144 59.5346 15.5144Z" fill="#FE0056"/>
<path d="M42.2641 73.0838C56.6407 73.0838 68.2952 61.4293 68.2952 47.0526C68.2952 32.676 56.6407 21.0215 42.2641 21.0215C27.8875 21.0215 16.2329 32.676 16.2329 47.0526C16.2329 61.4293 27.8875 73.0838 42.2641 73.0838Z" fill="#1BCCDC"/>
<path d="M69.6469 84.3637H52.5932C49.1891 84.3637 46.4358 81.6104 46.4358 78.2063V61.1359C46.4358 57.7318 49.1891 54.9785 52.5932 54.9785H69.6469C73.051 54.9785 75.8043 57.7318 75.8043 61.1359V78.2063C75.8043 81.6104 73.051 84.3637 69.6469 84.3637Z" fill="#EFEFEF"/>
<path d="M75.8043 71.248V78.2063C75.8043 81.6104 73.051 84.3637 69.6469 84.3637H52.5932C49.1891 84.3637 46.4358 81.6104 46.4358 78.2063V73.0835L48.8554 70.664C50.4072 69.1121 52.9102 69.1121 54.4621 70.664L55.0962 71.2981C56.5145 72.7164 58.7338 72.9 60.3691 71.7486L60.4192 71.7152L65.008 68.478C67.7279 66.559 71.4324 66.8761 73.7852 69.2289L75.7876 71.248H75.8043Z" fill="#3DCC4B"/>
<path d="M38.0755 15.882V32.9524C38.0755 36.3565 35.3222 39.1098 31.9181 39.1098H14.8644C11.4603 39.1098 8.70703 36.3565 8.70703 32.9524V15.882C8.70703 12.4779 11.4603 9.72461 14.8644 9.72461H31.9181C35.3222 9.72461 38.0755 12.4779 38.0755 15.882Z" fill="#FE0056"/>
<path d="M28.3638 18.678L20.6379 14.1893C19.62 13.6053 18.3518 14.3395 18.3518 15.5076V24.4683C18.3518 25.6363 19.62 26.3706 20.6379 25.7865L28.3638 21.2978C29.3817 20.7138 29.3817 19.2454 28.3638 18.6613V18.678Z" fill="white"/>
<path d="M10.7263 59.5351H14.0636L19.2198 54.3789" stroke="#23314C" stroke-width="2.763" stroke-linecap="round" stroke-linejoin="round"/>
<path d="M6.05385 64.2078C8.63427 64.2078 10.7261 62.116 10.7261 59.5355C10.7261 56.9551 8.63427 54.8633 6.05385 54.8633C3.47343 54.8633 1.38159 56.9551 1.38159 59.5355C1.38159 62.116 3.47343 64.2078 6.05385 64.2078Z" stroke="#23314C" stroke-width="2.763" stroke-linecap="round" stroke-linejoin="round"/>
<path d="M9.35767 75.1681L23.3578 61.168" stroke="#23314C" stroke-width="2.763" stroke-linecap="round" stroke-linejoin="round"/>
<path d="M6.05385 83.1473C8.63427 83.1473 10.7261 81.0554 10.7261 78.475C10.7261 75.8946 8.63427 73.8027 6.05385 73.8027C3.47343 73.8027 1.38159 75.8946 1.38159 78.475C1.38159 81.0554 3.47343 83.1473 6.05385 83.1473Z" stroke="#23314C" stroke-width="2.763" stroke-linecap="round" stroke-linejoin="round"/>
<path d="M24.9932 73.8001V70.4628L30.1493 65.3066" stroke="#23314C" stroke-width="2.763" stroke-linecap="round" stroke-linejoin="round"/>
<path d="M24.9933 83.1473C27.5737 83.1473 29.6656 81.0554 29.6656 78.475C29.6656 75.8946 27.5737 73.8027 24.9933 73.8027C22.4129 73.8027 20.321 75.8946 20.321 78.475C20.321 81.0554 22.4129 83.1473 24.9933 83.1473Z" stroke="#23314C" stroke-width="2.763" stroke-linecap="round" stroke-linejoin="round"/>
<path d="M73.8016 24.9941H70.4643L65.3081 30.1503" stroke="#23314C" stroke-width="2.763" stroke-linecap="round" stroke-linejoin="round"/>
<path d="M78.4738 29.6668C81.0542 29.6668 83.146 27.5749 83.146 24.9945C83.146 22.4141 81.0542 20.3223 78.4738 20.3223C75.8934 20.3223 73.8015 22.4141 73.8015 24.9945C73.8015 27.5749 75.8934 29.6668 78.4738 29.6668Z" stroke="#23314C" stroke-width="2.763" stroke-linecap="round" stroke-linejoin="round"/>
<path d="M75.17 9.35742L61.1699 23.3575" stroke="#23314C" stroke-width="2.763" stroke-linecap="round" stroke-linejoin="round"/>
<path d="M78.4738 10.7254C81.0542 10.7254 83.146 8.63354 83.146 6.05312C83.146 3.4727 81.0542 1.38086 78.4738 1.38086C75.8934 1.38086 73.8015 3.4727 73.8015 6.05312C73.8015 8.63354 75.8934 10.7254 78.4738 10.7254Z" stroke="#23314C" stroke-width="2.763" stroke-linecap="round" stroke-linejoin="round"/>
<path d="M59.5346 10.7246V14.0619L54.3784 19.2181" stroke="#23314C" stroke-width="2.763" stroke-linecap="round" stroke-linejoin="round"/>
<path d="M59.5346 10.7254C62.115 10.7254 64.2068 8.63354 64.2068 6.05312C64.2068 3.4727 62.115 1.38086 59.5346 1.38086C56.9541 1.38086 54.8623 3.4727 54.8623 6.05312C54.8623 8.63354 56.9541 10.7254 59.5346 10.7254Z" stroke="#23314C" stroke-width="2.763" stroke-linecap="round" stroke-linejoin="round"/>
<path d="M38.0422 28.9123C39.4105 29.1293 40.8289 29.2461 42.264 29.2461C48.8719 29.2461 54.8957 26.7931 59.4846 22.7383" stroke="#23314C" stroke-width="2.763" stroke-linecap="round" stroke-linejoin="round"/>
<path d="M46.5025 55.6297C45.1175 55.3961 43.7158 55.2793 42.2641 55.2793C35.6562 55.2793 29.6323 57.7322 25.0435 61.7871" stroke="#23314C" stroke-width="2.763" stroke-linecap="round" stroke-linejoin="round"/>
<path d="M50.4903 50.5902C50.7907 47.9704 50.9408 45.1837 50.9408 42.2636C50.9408 27.8797 47.0529 16.2324 42.2638 16.2324C37.4747 16.2324 39.3269 17.4005 38.0754 19.4529" stroke="#23314C" stroke-width="2.763" stroke-linecap="round" stroke-linejoin="round"/>
<path d="M34.0375 33.9375C33.7371 36.5573 33.5869 39.344 33.5869 42.2641C33.5869 56.648 37.4749 68.2953 42.264 68.2953C47.053 68.2953 45.2008 67.1272 46.4523 65.0748" stroke="#23314C" stroke-width="2.763" stroke-linecap="round" stroke-linejoin="round"/>
<path d="M68.2952 42.2637H16.2329" stroke="#23314C" stroke-width="2.763" stroke-linecap="round" stroke-linejoin="round"/>
<path d="M67.0601 50.2064C67.8611 47.7034 68.2949 45.0336 68.2949 42.2636C68.2949 27.8797 56.6477 16.2324 42.2638 16.2324C39.6874 16.2324 39.4437 16.3492 38.0754 16.5662" stroke="#23314C" stroke-width="2.763" stroke-linecap="round" stroke-linejoin="round"/>
<path d="M17.4677 34.3203C16.6668 36.8233 16.2329 39.4932 16.2329 42.2632C16.2329 56.647 27.8802 68.2943 42.2641 68.2943C43.7559 68.2943 45.0841 68.1775 46.4524 67.9606" stroke="#23314C" stroke-width="2.763" stroke-linecap="round" stroke-linejoin="round"/>
<path d="M69.6469 79.5766H52.5932C49.1891 79.5766 46.4358 76.8233 46.4358 73.4192V56.3488C46.4358 52.9447 49.1891 50.1914 52.5932 50.1914H69.6469C73.051 50.1914 75.8043 52.9447 75.8043 56.3488V73.4192C75.8043 76.8233 73.051 79.5766 69.6469 79.5766Z" stroke="#23314C" stroke-width="2.763" stroke-linecap="round" stroke-linejoin="round"/>
<path d="M31.9181 34.3207H14.8644C11.4603 34.3207 8.70703 31.5674 8.70703 28.1633V11.0929C8.70703 7.68884 11.4603 4.93555 14.8644 4.93555H31.9181C35.3222 4.93555 38.0755 7.68884 38.0755 11.0929V28.1633C38.0755 31.5674 35.3222 34.3207 31.9181 34.3207Z" stroke="#23314C" stroke-width="2.763" stroke-linecap="round" stroke-linejoin="round"/>
</svg>
