<svg xmlns="http://www.w3.org/2000/svg" width="20.51" height="20.51" viewBox="0 0 20.51 20.51">
  <g id="rms-info-icon" transform="translate(6389.518 -1990.477)">
    <path id="Path_4234" data-name="Path 4234" d="M10.248,20.51A10.255,10.255,0,1,1,20.51,10.269,10.27,10.27,0,0,1,10.248,20.51m0-1.906a8.355,8.355,0,1,0-8.345-8.364A8.376,8.376,0,0,0,10.251,18.6" transform="translate(-6389.518 1990.477)" fill="#8a8b8c"/>
    <path id="Path_4235" data-name="Path 4235" d="M151.984,179.251v-2.6c-.163,0-.321,0-.479,0-.179,0-.36.005-.538-.013a.91.91,0,0,1-.883-.9.848.848,0,0,1,.776-.946,14.132,14.132,0,0,1,2.2-.013c.58.045.835.417.838,1.031.006,1.018,0,2.035,0,3.053,0,.354,0,.354.343.383a.934.934,0,0,1,.863,1.3.915.915,0,0,1-.934.59q-1.539.023-3.079,0a.947.947,0,0,1-.941-1.311.923.923,0,0,1,.934-.587c.289-.009.579,0,.9,0" transform="translate(-6531.891 1824.698)" fill="#8a8b8c"/>
    <path id="Path_4236" data-name="Path 4236" d="M177.626,101.039a1.266,1.266,0,1,1-1.254-1.267,1.223,1.223,0,0,1,1.254,1.267" transform="translate(-6555.623 1895.827)" fill="#8a8b8c"/>
  </g>
</svg>
