<svg xmlns="http://www.w3.org/2000/svg" width="43" height="43" viewBox="0 0 43 43">
  <g id="Group_7738" data-name="Group 7738" transform="translate(10205 2348)">
    <circle id="Ellipse_471" data-name="Ellipse 471" cx="21.5" cy="21.5" r="21.5" transform="translate(-10205 -2348)" fill="#23314c" opacity="0.16"/>
    <g id="Group_7727" data-name="Group 7727" transform="translate(-10197.038 -2335.896)">
      <g id="Group_7732" data-name="Group 7732" transform="translate(0 0)">
        <path id="Path_4279" data-name="Path 4279" d="M0,21.067V5.133A2.259,2.259,0,0,1,2.257,2.876H25.385a2.259,2.259,0,0,1,2.257,2.257V21.067Z" transform="translate(0.247 0.322)" fill="#23314c" opacity="0.34"/>
        <line id="Line_522" data-name="Line 522" y1="18.191" transform="translate(11.845 2.086)" fill="#3dcc4b"/>
        <line id="Line_523" data-name="Line 523" x2="4.795" transform="translate(2.544 12.669)" fill="#3dcc4b"/>
        <line id="Line_524" data-name="Line 524" x2="9.204" transform="translate(14.139 8.351)" fill="#3dcc4b"/>
        <line id="Line_525" data-name="Line 525" y2="1.938" transform="translate(18.756 6.413)" fill="#3dcc4b"/>
        <g id="Group_7733" data-name="Group 7733">
          <path id="Path_4283" data-name="Path 4283" d="M1.778,19.191V3.257A2.259,2.259,0,0,1,4.035,1H27.163a2.26,2.26,0,0,1,2.258,2.257V19.191Z" transform="translate(-1.778 -1)" fill="none" stroke="#23314c" stroke-miterlimit="10" stroke-width="1.8"/>
          <line id="Line_526" data-name="Line 526" y1="18.191" transform="translate(13.822 0)" fill="none" stroke="#23314c" stroke-miterlimit="10" stroke-width="1.8"/>
          <path id="Path_4284" data-name="Path 4284" d="M5.106,14.385,7.3,5.713a1.045,1.045,0,0,1,2.027,0l2.2,8.673" transform="translate(-1.406 -0.561)" fill="none" stroke="#23314c" stroke-miterlimit="10" stroke-width="1.8"/>
          <line id="Line_527" data-name="Line 527" x2="4.795" transform="translate(4.521 10.583)" fill="none" stroke="#23314c" stroke-miterlimit="10" stroke-width="1.8"/>
          <line id="Line_528" data-name="Line 528" x2="9.204" transform="translate(16.115 6.266)" fill="none" stroke="#23314c" stroke-miterlimit="10" stroke-width="1.8"/>
          <line id="Line_529" data-name="Line 529" y2="1.938" transform="translate(20.734 4.328)" fill="none" stroke="#23314c" stroke-miterlimit="10" stroke-width="1.8"/>
          <path id="Path_4285" data-name="Path 4285" d="M24.1,6.635a7.878,7.878,0,0,1-7.872,7.6" transform="translate(-0.161 -0.369)" fill="none" stroke="#23314c" stroke-miterlimit="10" stroke-width="1.8"/>
          <path id="Path_4286" data-name="Path 4286" d="M18.365,9.717a7.875,7.875,0,0,0,6.952,4.171" transform="translate(0.078 -0.024)" fill="none" stroke="#23314c" stroke-miterlimit="10" stroke-width="1.8"/>
        </g>
      </g>
    </g>
  </g>
</svg>
