<svg xmlns="http://www.w3.org/2000/svg" width="403.235" height="46.262" viewBox="0 0 403.235 46.262">
  <path id="rms-top-heading-highlight" d="M123.881,44.724a4.326,4.326,0,0,0-1.412.61c-.253.206-1.535.4-1.335.263s.837-.535.959-.628-.6-.319-.721-.469l-.192-.066-.46-.169c-.292-.225-.629-.488-.752-.572s-.729.2-.9.328l.008.131v.075c.054.1-.077.366-.292.581s-.276.872-.361.891a.9.9,0,0,1-.46-.084c-.092-.066-.568-.319-.775-.422s.76-.347.875-.431.107-.234-.261-.122a10.761,10.761,0,0,1-1.681-.178c-.23.028.031.4.123.516l.038.113.031.122c-.015.113-.53.178-1.151.122l-.507.019h-.084c-.084.263-.261.441-.407.4a5.577,5.577,0,0,0-1.335.038l-.015-.019-.269-.234c.468-.038.806-.15.744-.244a.838.838,0,0,0-.806-.159,6.229,6.229,0,0,1-1.727.488c-.422,0-1.573-.019-1.581-.038a1.326,1.326,0,0,1,.507-.084c.284-.019,1.113-.188,1.113-.347s1.19-.338,1.412-.356a4.339,4.339,0,0,0,.967-.206l-.031-.038a.571.571,0,0,0-.315-.131,20.93,20.93,0,0,1-3.477.31l-.829-.019a4.747,4.747,0,0,1-1.1.563c-.2.056-.645-.216-.744-.253a8.105,8.105,0,0,0-.806-.188c-.223-.047-.752-.216-.622-.272a2.216,2.216,0,0,1,.806-.113l.054.056.284.3a13.247,13.247,0,0,0,1.4-.159c.13-.038.368-.263.361-.366s-.9-.31-1.2-.328l-.015-.047c-.269-.61-1.059-.263-1.2-.056-.269.375-1.136.4-1.665.61l-.476.178c-.307.234-.622.319-.7.206l-.038-.113-.069-.206c-.56-.113-1.389-.3-1.857-.422l-.077-.141c-.207-.356-.744-.366-1.435-.366-.3,0-.652-.159-.89-.131s-.345.216-.545.31l-.069.038c-.261.019-.276.084-.023.15s.721.31.507.394-1.781-.234-1.6-.338l.092-.1c.261-.3-.1-.478-.86-.356-.6.094-.76-.122-1.128-.141l-.461-.028c-.553.019-1.589.113-2.3.206l-.4-.1-.491-.122c-.453.028-1.136.094-1.52.15a13.443,13.443,0,0,1-2-.159c-.3-.028-1.044.019-1.412.009a7.551,7.551,0,0,0-1.85.075,4.172,4.172,0,0,1-2.21.009l-.837.1-.576.066c-.606-.038-1.558-.066-2.126-.056s-2.172.169-2.847.253-2.755-.122-3.569-.066l-.814-.2-.6-.141c-1.074.122-2.118.244-2.333.272s-1.1,0-1.619,0-1.88.1-1.934.038a.674.674,0,0,0-.537-.1,2.169,2.169,0,0,1-1.074.047l-.238-.075L63,43.552a1.6,1.6,0,0,0-.629.066,1.58,1.58,0,0,1-.721.1,2.776,2.776,0,0,0-.921.084c-.138.038-.86.1-1.566.159l-.629-.1c-.322-.056-.629-.122-.944-.188-.414-.084-.752-.347-1.3-.084a1.181,1.181,0,0,1-.461-.047,1.207,1.207,0,0,0-1.512.066l-.414.281c-.307-.338-.66-.553-.791-.478s-.614.253-.729.159a2.774,2.774,0,0,0-.852-.347,3.383,3.383,0,0,0-1.105.356c-.161.084-.729-.056-.814.009s-.246.094-.192-.075-1,.113-1.067.122l-.069.009c-.691.094-.706-.441-1.566-.263l-.453.094c-.637-.009-1.32-.028-1.5-.038s-.86.047-1.3.056a9.762,9.762,0,0,0-1.957-.009l-.3.075-.169.047a7.307,7.307,0,0,1-1.19-.272c-.33-.1-2.042.178-2.21.075a1.836,1.836,0,0,0-1.051-.159c-.215.1-.975-.113-1.1-.066l-.1.047c-.13.066-.253.188-.361.178-.376-.009-1.028.122-.982-.188l.015-.084c.453-.1.652-.216.445-.272a2.486,2.486,0,0,0-1.021.009c-.153.094-.837.338-.829.094l-.023-.113a.308.308,0,0,0-.154-.15l-.368.028c-.407.028-.66-.084-.56-.263l-.66.075-.123.009a2.706,2.706,0,0,1-.967-.009c-.422-.066-2.034-.075-2.5-.066s-1.949-.281-2.333-.263-1.412.1-1.566-.084-8.082-.319-8.2-.3l-.015-.009-.591-.516c-1.044-.075-1.98-.159-2.08-.178s-.568-.019-.944-.028-1.9.038-2.579.066l-.13-.478c-.015-.056-.276-.15-.33-.131l-.391.131a3.484,3.484,0,0,1-.89-.338,7.68,7.68,0,0,0-.975-.3,4.909,4.909,0,0,0-.89-.15.535.535,0,0,1-.43-.159l-.123-.084a.727.727,0,0,0-.43-.019A4.808,4.808,0,0,1,3.17,39.8c-.675.019-.345-.141-.307-.319.023-.1-.4-.216.138-.253a4.192,4.192,0,0,0,.706-.141c.261-.075.215-.15.023-.272l-.215-.122c.215-.113.629-.338.929-.506s.66-.788.33-.825l-.238.019-.284.019a2.325,2.325,0,0,1-1.021-.038c-.269-.094-.2-.825-.1-1.125a6.42,6.42,0,0,0,.284-1.079,1.7,1.7,0,0,0-.6.281l-.322-.281-.161-.141a2.124,2.124,0,0,1,.422-.535l-.3-.084L2.3,34.36c-.368.113-.583.084-.484-.066l.023-.122.054-.338a3.29,3.29,0,0,1-.522-.882c-.023-.141.307-.628.8-.769s.484-.9.123-.844l-.207.1-.215.1a1.344,1.344,0,0,1-1.1-.366l.184-.244c.061-.075.054-.178.123-.244.177-.178.384-.347.576-.516.215-.2.468.253.721-.019l.069-.075c.3-.038.269-.122-.077-.188l-.015-.075c-.023-.113.146-.263.284-.375.077-.056.292-.047.414-.094.292-.122.376-.469.092-.525a.747.747,0,0,1-.591-.328,18.239,18.239,0,0,0-2.218-.113c-.069-.028-.061-.15.015-.272s.276-.619.376-.347l.115-.084c.023-.019.069.2.077.347l.031.347a.971.971,0,0,0,.061-.5l.008-.141c.008-.441.023-.882.046-1.313l.008-.094.084-.206.084-.291c.031-.009.123-.066.13-.1l.061-.244c.015-.056.069.178.084.216s.054.094.061-.084.046-.478.084-.366.13-.122.123-.159A.689.689,0,0,1,1.8,24.85l.015.028c.054.094.107.45.123-.122v-.009l.092.075c.031.047.13-.131.161-.141s.123.028.169.028.123-.356.084-.422a2.33,2.33,0,0,1-.084-.685,7.543,7.543,0,0,0-.138-.929.829.829,0,0,0-.015-.385v-.441c-.046-.009-.1-.094-.123-.188l-.015-.1-.031-.225a8.113,8.113,0,0,0,0-.966l-.015-.253v-.084c.008-.1.046-.084.1.047s.192-.1.192-.15a.786.786,0,0,0-.038-.281l-.015.038-.031.084c-.046.1-.069.1-.061,0l.008-.1.008-.1c.008-.122,0-.2-.008-.178a.068.068,0,0,1-.092.009,6.08,6.08,0,0,1,.046-.8l.069-.066.031-.056L2.226,17.9a1.115,1.115,0,0,0,.146-.544c-.031-.075-.138.028-.153,0a4.314,4.314,0,0,1-.246-.4l-.107.084c-.046.038-.046-.084-.061-.253l-.015-.263c-.031.159-.092.244-.13.188a1.938,1.938,0,0,1-.2-.441v-.019l.038-.216c-.023-.216-.054-.422-.061-.478s-.046-.113-.054-.047l-.015.047-.015.066a1.327,1.327,0,0,1-.107.206c-.031.066-.146.159-.161.084a2.18,2.18,0,0,1-.031-.525c.015-.131.146.084.192.094l.008-.141a1.893,1.893,0,0,0-.031-.488l-.23-.047a7.312,7.312,0,0,0,0-1.257c-.038-.028-.092.291-.1.253l-.038-.159c0-.009-.023-.159-.031-.3a5.385,5.385,0,0,1,.046-.722v-.113l.008-.1c-.008-.113-.031-.2-.054-.188l-.015.019-.015.019c-.023.028-.038-.019-.046-.094l.008-.028a43.871,43.871,0,0,1,5.073-.159c.391-.281.345-.431-.1-.338l-.253.019L5,11.672c-.545-.019-1.021-.122-1.059-.244l.015-.094.1-.882a15.373,15.373,0,0,0-1.381-.741L2.64,9.665l-.13-.188a1.2,1.2,0,0,0-.269-.825l-.276-.066c-.7-.169-.683-.46-.652-.788l.015-.122c-.008-.225-.361-.328-.8-.216l.284-.291C1.074,6.9.606,6.9.46,6.786c-.038-.038-.3.347-.437-.009L0,6.73c.223-.084.445-.159.491-.178s-.084-.3-.407-.591L.2,5.632c.031-.084.13-.169.115-.253L.3,5.285C.207,5.192.23,5.126.353,5.154a2.215,2.215,0,0,0,.913-.159c.23-.131-.107-.619.054-.657l.046.019a.97.97,0,0,0,1.182-.038l.322-.263c.353.188.66.263.7.159A2.251,2.251,0,0,1,4.7,3.672l.376.469.2.234c.537-.263.883-.488.775-.516s-.376-.131-.345-.206l.031.009a7.023,7.023,0,0,1,.767.047l.123.009a.374.374,0,0,0,.345-.1c.061-.075.5-.028.537-.084s.292-.225.376-.122A.647.647,0,0,0,8.7,3.372l.192-.131.1-.066a2.966,2.966,0,0,1,.906.122c.284.075,1.3-.1,1.512-.009s.8.281,1.028.038l.192-.169L12.809,3a3.06,3.06,0,0,1,1,.1c.192.066.583-.263.814-.263a5.518,5.518,0,0,1,.99.159c.084.047.491.122.583-.019s7.276-.422,7.59-.366a6.1,6.1,0,0,0,1.328-.056c.246-.047.959.094,1.082.056l.015-.047.061-.159a17.206,17.206,0,0,1,1.712.31l.084-.441.008-.038c.138-.028.783-.1,1.435-.169s2.824.113,3.392.1l.407.056c.422.056.7.291.721-.094a1.773,1.773,0,0,1,.5-.1,1.715,1.715,0,0,0,1.42-.009c.46-.253,1.105.1,1.6-.131l.192-.094c.8.122,1.543.234,1.658.253a5.24,5.24,0,0,0,1.182-.31,8.217,8.217,0,0,1,2.019.131V1.853l-.031-.45a7.953,7.953,0,0,0,2.425-.084l.522.356.261.178c.537-.113,1.259-.263,1.589-.328l.345-.038.107-.009a6.173,6.173,0,0,1,.852,0c.361.019,1.619-.019,1.988.019s1.312-.15,1.4-.1.484.169.568.113l.084-.056.092-.056c.115-.056.246-.066.276-.019A1.121,1.121,0,0,0,53.4,1.6l.092-.009.668-.075c.76-.056,1.5-.131,1.627-.169l.1-.038L56.572.99c.514.3,1.044.478,1.182.385a1.441,1.441,0,0,1,.7-.216c.13.047.422-.131.437-.488l.975.45.177.084a13.956,13.956,0,0,1,1.451-.047c.3.009.982.084,1.005-.019s1.028-.122,1.19-.038.43-.056.407-.385l1.075.422A5.444,5.444,0,0,0,66.219.952l.192-.038c.184-.038.967-.159,1.735-.253a14.535,14.535,0,0,1,2.893.385c.161,0,1.105-.066,1.758-.122s3.047,0,3.53.038l.207-.084L77.026.7A10.336,10.336,0,0,0,78.4.924l.292.009h.53c.545-.1,1.22-.225,1.5-.253S82.39.605,83.135.605h.875c.215-.047.414-.019.453.066a2.053,2.053,0,0,0,.952-.019A1.435,1.435,0,0,1,86.2.53a2.755,2.755,0,0,0,1.059.141,16.386,16.386,0,0,1,1.85-.234l.169.113c.368.234.8-.225,1.2.075l.177.131A4.318,4.318,0,0,1,92.122.633c.177.056.721.2.767.131a.689.689,0,0,1,.4-.169.99.99,0,0,0,.591-.1C93.964.4,95.453.446,96.328.371l.959.141a7.058,7.058,0,0,0,2.748-.1l.445-.131A10.673,10.673,0,0,1,102.2.521a1.2,1.2,0,0,0,.867-.1c.253-.169,1.428.141,1.512.075s.407-.234.453-.122a.345.345,0,0,0,.5.1,18.4,18.4,0,0,1,2.134.019l.675.056.883.075a9.705,9.705,0,0,1,2.08-.2c.069.066.361.206.445.131A1.536,1.536,0,0,1,112.43.3l.077.028.629.263c.837-.028,1.98-.038,2.533-.009a17.785,17.785,0,0,1,2.686.075l.476-.272c.077-.047.668.084,1.021.084l1.036-.009C122.031.436,123.62.361,124.426.3l.606.3.115.066a13.23,13.23,0,0,1,1.328-.047c.338,0,1.159.094,1.2,0a2.988,2.988,0,0,1,1.512.159l.6-.234.192-.075c.537.056,1.174.113,1.412.131s1.128.075,1.458.075l.292.009c.223,0,.46.019.668,0,.23-.019.43-.1.66-.122L134.6.549a2.45,2.45,0,0,0,.791.009,4.542,4.542,0,0,1,1.428.234l-.015-.347A17.554,17.554,0,0,1,138.678.7l.729.019.576.009c.645-.122,1.289-.253,1.435-.281a1.648,1.648,0,0,1,.906.338l.691-.1a3.508,3.508,0,0,1,1.159-.028c.568.3.76-.188,1.282-.056l.46.113c.652.019,1.489.084,1.857.141L147.888.8l.7-.281a5.706,5.706,0,0,0,1.619.169,1.654,1.654,0,0,1,.852-.066l.622.347c.031,0,.476-.094.875-.178a17.033,17.033,0,0,1,2.609-.038c.537.038,1.965-.019,2.379.066s1.474-.2,1.842-.094l.008-.009,1.013-.563a29.416,29.416,0,0,0,3.024.46c.322,0,.936-.047.9.113s1.236-.141,1.558-.2a5.76,5.76,0,0,1,1.282.019c.246.028.867-.056.929,0s.345.206.46.141a4.6,4.6,0,0,1,1.428-.225l.468.113,1.4.234.322-.1a1.923,1.923,0,0,1,.9-.141,7.278,7.278,0,0,0,.982.347L174.8.624l.077-.038a2.881,2.881,0,0,1,.714.122,9.078,9.078,0,0,0,2.279-.084L177.935.6l.292-.131c.376.075.591.347.484.61l.952-.253.721-.188c-.054.244-.038.31.031.131s1.113.1,1.174.094.522-.038.913-.075a20.148,20.148,0,0,1,2.241.225c.391.047,1.358-.169,1.5-.113s.553.225.583.234a1.8,1.8,0,0,0,.4-.131,3.921,3.921,0,0,1,1.236-.084l.292.009c.169.009.468-.122.514-.1l.491.2a7.063,7.063,0,0,1,2.034.019l.568.084.23.038a3.236,3.236,0,0,0,.821-.1c.161-.056.867-.066,1.09-.131a22.15,22.15,0,0,1,2.31.122l.645.028.545.019a4.387,4.387,0,0,0,1.251.056,3.646,3.646,0,0,1,1.228-.113l.345.075c.368.075.668.319.691-.075a2.067,2.067,0,0,1,.407-.019c.837.038,1.7.141,2.51.094l.622-.038c.491.1,1.005.188,1.136.2s.752-.038,1.09-.075a27.454,27.454,0,0,1,3.016.141,20.39,20.39,0,0,0,2.556-.3,15.5,15.5,0,0,0,2.21-.15,6.151,6.151,0,0,1,1.688.328c.123-.009.821-.216,1.113-.047l.307.028c.322.038.775-.141,1.067-.094l.6.084a2.646,2.646,0,0,1,1.005-.253l.146.047.276.084a1.162,1.162,0,0,0,.737.113c.153-.066.56-.141.583-.038a2.364,2.364,0,0,0,1.105.047,1.747,1.747,0,0,1,.952-.084,2.784,2.784,0,0,0,.706.338l.038-.028c.453-.4,1.144-.056,1.719-.075h.269a5.36,5.36,0,0,1,1.059-.075c.177.019.66.047.982.113s1.673-.1,2.249-.019l.645-.066c.353-.038.837.131,1.174.084l.568-.075c.568.056,1.435.131,1.934.15l.468-.028.806-.056c.913-.028,1.788-.056,1.934-.056a2.447,2.447,0,0,1,.852.281c.23.141,1.236-.066,1.4,0a2.113,2.113,0,0,0,.821.131l-.023-.038c-.061-.122-.307-.338-.269-.347l.53-.113a.948.948,0,0,0,.476.385,2.163,2.163,0,0,0,.691-.094,1.838,1.838,0,0,1,.814-.084c.169.066.622.019.66-.253l.837.188h.023c-.13.141.207.225.752.188s1.842.291,1.957.244V1.749l-.023-.31a6.139,6.139,0,0,1,1.136.216c.123.066.545.178.583.084s.407-.244.744-.122a12.473,12.473,0,0,0,2.126-.056,5.384,5.384,0,0,1,1.466.31A3.506,3.506,0,0,0,256,1.731c.138-.075.883-.141,1.128.141l.737-.084c.775-.084-.483-.31.084-.338l.576-.028c.66.009,2.233.038,3.484.047l1.144.009c.576,0,1.144,0,1.719.019l.476.009a5.285,5.285,0,0,0,1.8-.206l.514.31.3.178a1.1,1.1,0,0,1,.6-.506l.238.131.384.206c.468-.056,1.144-.131,1.5-.169s1.566-.131,1.85-.216a11.952,11.952,0,0,1,1.727.188c.376.009,1.481.1,1.673.056s.967-.15,1.474-.2l.384-.094L278.508,1c.307.225.583.338.614.253a1.065,1.065,0,0,1,.9-.244,22.568,22.568,0,0,0,2.241.281c.422.009,1.926-.31,2.74-.31l.675.019c.691.028,1.335-.028,2-.019l.453.019a4.294,4.294,0,0,1,1.435-.047L289.767.9c.66-.159.852-.084.929.206l.008.019a7.69,7.69,0,0,0,1.873-.366l.99.347.1.028c.107.038.207-.047.215-.2s1.289.038,1.589.084A11.125,11.125,0,0,0,297.142.99c.315-.028,1.3-.141,1.55-.113s1.243-.122,1.8-.084,2.21,0,2.441.047.737.253.791.188.353-.159.468.019l.169.038.284.056c.368-.019,1.2-.047,1.842-.066l.376-.113.5-.159a5.492,5.492,0,0,0,.952.178,4.47,4.47,0,0,0,.729-.122A10.985,10.985,0,0,1,310.589,1a13.825,13.825,0,0,0,2.049-.141c.13-.019.768.347.814.244a1.26,1.26,0,0,1,.921-.338l.384.009.491.028a6.592,6.592,0,0,0,1.635.15c.384-.028,1.55-.188,1.842-.216s1.028.131,1.067.038.261-.347.391-.338l.061.019A2.163,2.163,0,0,0,322,.671l.253-.066a10.15,10.15,0,0,0,1.282.066c.23-.009.921.113,1.074.122l.138-.009.507-.056a11.861,11.861,0,0,1,1.8-.038l.4.019.315.009A1.578,1.578,0,0,1,328.8.605a1.222,1.222,0,0,0,.806.131,2.73,2.73,0,0,1,1.251-.15,6.257,6.257,0,0,0,1.635.253l.522.047.522.047a9.752,9.752,0,0,1,1.382-.15l.33-.075.161-.038A13.1,13.1,0,0,0,337.236.53l.744.263.4.141c.752-.009,1.4-.131,1.443-.263s.967-.038,1.19.019,1.151.094,1.466.131A8.427,8.427,0,0,0,343.6.68c.061.019.338.131.5.188s1.343.206,1.167.113-.146-.188.391-.066l.576-.272a6.549,6.549,0,0,1,1.619,0l.414.009A3.8,3.8,0,0,0,349,.924c.092.009.867.019,1.627.066l.522-.3.084-.047c.729.141,1.266.178,1.174.094s-.222-.319-.153-.356a9.023,9.023,0,0,1,1.09-.1c.491-.038,1.85.2,2.065.141l.108.028.476.113a7.121,7.121,0,0,1,1.527.122,7.552,7.552,0,0,0,1.857-.516l.6.113.706.131a6.344,6.344,0,0,1,.867-.3,2.693,2.693,0,0,0,.507-.094,4.238,4.238,0,0,1,1.205.178c.215.056,1.036.178.875.009s.783-.019.959-.038A4.291,4.291,0,0,1,366.24.3a3.452,3.452,0,0,0,1.213.047,8.709,8.709,0,0,1,2.118-.1l.484.159.89.3c.077-.31.46-.4.86-.206l.829-.122a8.53,8.53,0,0,1,2.94.15,2.913,2.913,0,0,0,1.543.056A5.178,5.178,0,0,1,378.7.812c.253.047-.622.169-.061.272.161.028.468-.122.683-.1a2.7,2.7,0,0,1,.967.169l.315.319c.706.1,1.65.253,2.1.328a18.44,18.44,0,0,0,2.187.2c.269-.019,1.105.113,1.3.075s.6-.056.553.094.967-.056,1.143-.084.875.009,1.42.009,6.531.375,6.623.347.384-.028.391.047a.663.663,0,0,0,.66.263,8.556,8.556,0,0,1,1.819.375l.123.356c.061.188.668.216.783.563l.054.159.852.272c.077.019.215.188.138.319h.008l.338.122a1.333,1.333,0,0,0-.223.675l.038.169.069.356c.107.394.261.732.345.741l.084.009h.084c.092,0,.177.038.184.075s-.176.15-.361.216l-.153.084c-.031.009-.008.113.023.159l.177.019c.031,0,.054-.056.092-.056l.192-.028c.223-.019.391.019.384.075a.877.877,0,0,0,.4.478l.161.159.1.113c.015.206-.2.3-.491.206s-.982-.028-.744.422.284,1.651.054,1.7a3.645,3.645,0,0,0-.8.253,3.9,3.9,0,0,1,.606.3l.084.141c.238.4.384-.216.629-.009l.138.122c.292.094-.906.328-1.005.46s.192.8.253,1.116l-.192.291c-.207.319.176.853.652.891l.407.028c.453.075.645.131.43.141s-.829.131-.829.234.215.45.484.413l.253-.019.138-.019a7.778,7.778,0,0,0-.929.047c.146.028-.491-.038-.146-.028s.768.675.721.732l-.184-.019c-.368-.047-.56.159-.422.385.1.15.192.338.361.413l.384.169c.031.291.13.469.223.385l.1-.009a.513.513,0,0,1,.322.047.178.178,0,0,1,.015.225.814.814,0,0,1-.729.244.274.274,0,0,0-.215.15c-.008.056.084.159.161.188l.276.094c.315.094.3.272-.023.4l-.292.009-.238.009c-.338-.15-.606-.066-.606.169l-.054.159c-.069.234,1.32.244,1.32.244-.322.066-.745.131-.929.15s-.146.506-.023.778S402.2,20.92,402,21s-.023.535.092.619.307.356.154.431l-.192.056c-.161.056-.361-.206-.545.019l-.023.028c-.161-.019,1.028-.094.821-.159a4.907,4.907,0,0,0-1.328.1,6.381,6.381,0,0,1-1.711-.3c-.269-.1.077-.1-.13-.141s-.744-.272-.814-.169a1.145,1.145,0,0,0-.169.553c.023.141.668.216.821.216l.069.047c.146.1.023.356.445.319h.061c.115.188-.982.263-.79.1,0,0,1.351-.056,1.4.31l.008.075a3.85,3.85,0,0,0,.936.1l.054.225.038.178c.061.206.008.319-.13.253a1.345,1.345,0,0,0-.729-.066,1.021,1.021,0,0,1-.7.009c-.207-.113-.706-.46-.783-.375l.023.028c.115.244.4.488.353.713l-.054.244c-.338.281-.522.572-.414.647a1.027,1.027,0,0,0,.737-.056l.123-.141.077-.084c.023-.122.069-.216.107-.206l.023.019.246.272a1.5,1.5,0,0,1,.729-.188c.092.038.061.272-.284.441l.223.291.092.113a.723.723,0,0,1,.7.375c.138.263.322.544.253.591a.748.748,0,0,1-.6-.066L401,26.313l-.023-.009a.459.459,0,0,0-.3.15c-.069.084-.138.356.031.366s.675.131.522.206-.53.385-.468.478.315.347.4.272l.069-.009a1.025,1.025,0,0,1,.867.535l.115.159a5.184,5.184,0,0,1-.368.394.179.179,0,0,0,.077.272h.138c.345.009.453.094.307.319-.038.056-.138.159-.107.178l.154.113a.413.413,0,0,1-.453.2l-.084-.188-.038-.075c-.5-.038-.484.075.031.234l-.2.328-.107.178c-.084.2-.069.422.023.488s.276.4.146.535-.76.3-.767.413l.061.084.115.159c.1.206.1.31-.008.225a1.279,1.279,0,0,0-.645-.113,2.275,2.275,0,0,1-.714,0c-.154-.028-.583.038-.507.084s.353.253.476.319.522-.1.568-.1.13.084.107.225.614-.009.737-.028.315.1.108.178-.8.216-.844.141a.609.609,0,0,0-.353-.169c-.069.009-.353.422-.468.413a.807.807,0,0,0-.591.375l.115.225a.608.608,0,0,0,.583.375h.069c.077.066.054.225-.061.356a5.889,5.889,0,0,1-.714.441c-.061.056-.046.281-.13.291s-.146.15-.169.169.031.131.161.225a1.168,1.168,0,0,1,.4.722l-.146.131c-.4.356-.3.535.261.76l.43.169a6.218,6.218,0,0,0-.714.7c-.107.15-.445.338-.138.356l-.038.328-.023.141c.038.2.084.488.107.657l.169.113.2.141c-.069.159-.192.45-.284.638l.192.2.484.478c-.407.206-.76.375-.775.385a4.123,4.123,0,0,0,.775.947l.368.469.1.141c-.2-.047-.391-.084-.422-.084a.942.942,0,0,0-.33.094,3.177,3.177,0,0,1-.637.225,4.28,4.28,0,0,0-.783.159l-.215.066-.253.094a6.431,6.431,0,0,0-1.627.169c-.6.131-8.657.216-9.195.281l-.506.028-.514.038c-.545.056-1.9.122-3.032.131h-1.566a7.353,7.353,0,0,0-1.635.516l-.491-.31a8.652,8.652,0,0,0-.921.084c-.253-.328-.76.234-1.121-.066l-.123-.113a4.557,4.557,0,0,1-1.458.234l-.054.019-.507.2a8.051,8.051,0,0,0-1.65.066c-.261.066-1.32-.084-1.581-.056s-1.512.1-2.187.1-2.448.225-2.625.15a9.022,9.022,0,0,0-1.781.225l-.4-.047-.683-.084c-.7.047-1.6.113-2.018.131a12.54,12.54,0,0,1-1.435.094,2.924,2.924,0,0,0-1.182.178c-.384.15-1.957-.075-2.31,0l-.123-.038-.56-.188a6.638,6.638,0,0,1-2,.2l-.5.066-.522.066a14.045,14.045,0,0,0-1.949-.113l-.537.028-.507.028a5.153,5.153,0,0,1-1.8-.075l-.6.141-.43.1c-.645-.019-1.857.019-2.7.094l-.852-.113-.568-.075c-.767.1-1.589.2-1.827.216s-1.044-.1-1.274-.047a13.248,13.248,0,0,1-1.558.019c-.53-.009-1.9.122-1.957.066s-.2-.056-.215.113-1.09-.15-1.312-.15-1.2.009-1.658.038-1.711-.056-2.042-.028a18.59,18.59,0,0,1-1.972-.094c-.43-.028-1.98.019-2.441-.028a13.386,13.386,0,0,0-1.9.263c-.207.019-.86-.075-1.113-.066s-.982-.019-1.535-.038-2.149-.094-2.341-.094-.683.084-.844-.019a9.407,9.407,0,0,0-1.9.028,21.02,21.02,0,0,0-2.579.234l-.729-.234-.537-.169a25.193,25.193,0,0,0-2.986.141l-.767-.141-.115-.028a2.007,2.007,0,0,1-1.351.084,22.669,22.669,0,0,0-3.277.15c-.875.038-3.239-.244-3.369-.253s-.99.056-1.8.113l-.76-.131-.453-.075a1.306,1.306,0,0,1-1.105.272,4.454,4.454,0,0,0-1.527-.131,3.165,3.165,0,0,1-1.251.206,5.7,5.7,0,0,0-1.857-.216l-.514.113a3.624,3.624,0,0,1-1.566-.028l-.507-.131a3.064,3.064,0,0,1-1.136.122c-.23-.047-1.051-.141-1.289-.159a4.949,4.949,0,0,0-1.3.159c-.269.084-1.174-.009-1.42.028s-1.22-.019-1.527-.019a3.469,3.469,0,0,1-1.144-.178c-.023-.094-.192-.347-.307-.319s-.437.047-.514-.038a1.5,1.5,0,0,0-.821-.094l-.138.15a4.12,4.12,0,0,1-.975.263,2.147,2.147,0,0,1-1.911-.056l-.153-.047a1.487,1.487,0,0,0-.76.038,3.322,3.322,0,0,1-1.343.113c-.284-.113-1.121-.338-1.159-.244a1.456,1.456,0,0,1-.913.385c-.422.019-2.594-.084-4.014.056l-1.374-.225-.43-.075a3.285,3.285,0,0,1-1.573.169c-.138-.094-.8.094-.875.122a10.608,10.608,0,0,1-1.374.038c-.652-.009-2.525-.169-2.771-.2a7.191,7.191,0,0,0-1.474.225,22.549,22.549,0,0,0-2.425.253l-.729-.291-.43-.169a5.13,5.13,0,0,1-1.489-.019,8.1,8.1,0,0,0-1.527.263,3.577,3.577,0,0,1-1.335-.216.931.931,0,0,0-.906-.094l-.307.141-.353.159a3.572,3.572,0,0,0-1.059-.047c-.192.047-.791.113-.821.009s-.207-.122-.322.131l-.714-.141-.376-.075c-.315.047-.752.094-.982.113s-1.067-.15-1.343-.122a6.986,6.986,0,0,1-1.52-.094c-.3-.084-1.359-.038-1.819-.1l-.414-.038a5.364,5.364,0,0,0-.583.084c-.353-.2-.522-.028-.8.028a3.387,3.387,0,0,1-.675-.159c-.046-.009-.261.084-.261.131l-.008.038c.161.047.238.113.177.141a1.788,1.788,0,0,1-.568-.028,6.985,6.985,0,0,0-1.489.056h-.368a10.048,10.048,0,0,0-1.65-.084l-.591.188a6.388,6.388,0,0,0-1.32-.188,9.976,9.976,0,0,0-1.312.234c-.223.084-.43-.272-.46-.291a9.367,9.367,0,0,0-1.174.028c-.6.028-2.54.113-2.978.131s-1.666-.5-1.827-.422a2.454,2.454,0,0,1-1.213.469c-.675.038-3.239-.347-4.329-.5l-.952.385-.261.1c-.66-.066-1.335-.15-1.512-.2s-.875.028-1.167-.038a6.8,6.8,0,0,0-1.4.122c-.154.009-1-.019-1.543-.056s-2.755.047-3.738.141l-.821-.272-2.034.216a.944.944,0,0,1-.315.122l-.5.047c-.468-.1-.813-.272-.767-.366a.355.355,0,0,0-.3-.366c-.184,0-.591.075-.445.159l.015.094.023.122c-.008.178-.422.281-.929.225h-.783c-.368.047-1.09.1-1.6.113s-2.041-.122-2.349-.066-1.328-.075-1.619,0S195.158,45.962,195,46l-.161.009a10.036,10.036,0,0,1-2.241-.084l-.691-.094h-2.318c-.307,0-.614-.328-.99-.113l-.2.113-.115.066a4.084,4.084,0,0,1-1.144.244,18.145,18.145,0,0,1-2.364-.263c-.261-.019-.791,0-.967-.038a7.872,7.872,0,0,0-1.144.019c-.223.009-1.22.038-1.712.009a13.475,13.475,0,0,1-1.8-.234c-.023-.038-.3.047-.576.291l-.844-.206a12.932,12.932,0,0,0-1.343.244l-.414.028a3.32,3.32,0,0,0-1.735.206l-.706-.253-.4-.141a3.307,3.307,0,0,0-1.412-.075c-.123.084-.7.291-.867.188a1.7,1.7,0,0,0-1.159-.056l-.307.075a2.183,2.183,0,0,1-.706-.038l-.077-.4c-.844-.122-1.581-.113-1.635.019a1.241,1.241,0,0,1-.982.319l-.361.047c-.284.028-.476.141-.507-.066s-.43-.272-.706-.169a9.269,9.269,0,0,1-2.5.141l-.576.038c-.637.047-1.251.084-1.358.084l-.1-.009-.691-.056c-.936-.075-1.451-.188-1.144-.234s-.322-.319-.376-.4-.43-.178-.46.009-.338.638-.645.563l-.207-.075-.246-.094a1.638,1.638,0,0,0-1.228-.141,4.314,4.314,0,0,1-1.781.056,1.5,1.5,0,0,0-1.2-.216v.15l-.015.441a16.09,16.09,0,0,1-2.019-.094c-.545-.066-2.141.038-2.249.019s-.668-.113-.952-.159a11.714,11.714,0,0,0-2.2.094l-.4-.075-.4-.066a1.271,1.271,0,0,0-1.082-.319,3.433,3.433,0,0,0-1.082.394l-.015.066-.008.056a.6.6,0,0,1-.353.084,4.668,4.668,0,0,1-.791-.3,4.929,4.929,0,0,0-1.42.141c-.161,0-.844-.047-1.174-.094l-.038-.066-.123-.216c.437,0,1.113-.019,1.5-.038s.553-.469.177-.5-1.489-.009-1.489.141l-.161.131a1.638,1.638,0,0,1-.837.422c-.844.019-.177-.347-.53-.478l-.054-.019a1.882,1.882,0,0,0-.76.31,11.855,11.855,0,0,1-2.679.2c-.56.019-1.167-.46-1.328-.281s1.028.31,1.1.338.107.188-.077.281l-.2.019L132,45.9a8.371,8.371,0,0,1-1.4-.469l-.115-.7c-.015-.094-.6-.272-.629-.263-1.435.488-.952-.1-1.105-.328l-.015-.028a.262.262,0,0,0-.338.206.578.578,0,0,1-.7.347c-.315-.141-.814.46-.921.582a2.335,2.335,0,0,1-.806.488c-.192.009-1.3-.028-2.134,0l-.752.019h-.161c-.169.038-.315.009-.322-.056s.023-.216.015-.338.583-.385.921-.366l.269.038.246.019a5.127,5.127,0,0,0,1.1.253l.368.028a1.2,1.2,0,0,0,.553-.084l.207-.206a1.326,1.326,0,0,1,.959-.431l.115-.075c.253-.159.253-.4.56-.525l.6-.234a3.284,3.284,0,0,0-1.013-.394c-.207-.019-.875.113-.875.366a1.148,1.148,0,0,1-.921.882l-.292.169a1.37,1.37,0,0,1-1.251.038Zm5.349-1.848a3.171,3.171,0,0,0-.79-.075c-.038.028.077.159.307.253a6.533,6.533,0,0,0,2.134.019l.629.253a1.2,1.2,0,0,0,.345-.075l.215-.1c.276-.169.169-.338-.23-.366s-2.21.159-2.609.094m-11.958.328c-.568.094-.852.272-.629.413s1.243-.141,1.489-.216A15.218,15.218,0,0,1,120,43.289c.437.009,1.65-.1,1.458-.234a4.8,4.8,0,0,0-1.635.019,11.953,11.953,0,0,1-1.6-.084l-.484.113ZM397.561,21.661c.261.075.376.009.253-.15s-.537-.732-.752-1.022l-.384.375-.284.281c-.315-.1-.4-.141-.192-.094s1.1.535,1.358.61M212.242,43.571a4.125,4.125,0,0,0-1.182.131l.038.038.154.15c-.154.15-.115.31.092.366a7.278,7.278,0,0,0,1.381-.178c.384-.047.069-.506-.484-.506m187.974-22.06c-.177-.225-.261-.225-.207,0s.829.469,1.059.488l.015-.225.015-.1c.184-.206-.038-.216-.491-.028l-.153-.056ZM113.589,42.961c-.929.113-1.412.206-1.059.206a11.21,11.21,0,0,1,1.681.375c.269.075,1.105.2,1.105.056s-.384-.394-.852-.291l-.1-.038Zm40.378.975c-.2-.019-.092.225.23.553l.437.1.537.141a4,4,0,0,0,1.451.216l.077-.075.1-.1c-.038-.15-.553-.253-1.144-.216l-.322-.075-.361-.094a3.009,3.009,0,0,0-1.005-.45m130.1.319c.261-.056.322-.178.123-.263s-.767-.338-.883-.413-.744.009-.614.206a2.523,2.523,0,0,0,1.374.469m-143.275.056c-.077-.234-.123-.253-.1-.056s-.123.76.238.741-.054-.441-.138-.685m-139.561-16c.038.038.054-.066.046-.234H1.266c-.069-.019-.084-.169-.077-.413v-.113c-.008-.169-.038-.122-.061.094a1.889,1.889,0,0,0,.1.666M4.958,32.4c-.015-.094-.184-.2-.391-.225L4.4,32.119c-.161-.047-.223-.206-.476-.056-.2.122-.353.2-.038.338.253.122-.23.506.4.478.23-.009.43-.281.622-.431Z" transform="translate(0 -0.001)" fill="#fe0056"/>
</svg>
