<svg xmlns="http://www.w3.org/2000/svg" width="250.675" height="44"><g data-name="Group 6841"><path data-name="Path 3656" d="M42.459 24.636a13.849 13.849 0 1 0-4.51 3.621l6.362 3.307-1.85-6.927Zm-7.176-8.689.9 5.261-4.725-2.484-4.725 2.484.9-5.261-3.823-3.726 5.283-.768 2.362-4.787 2.363 4.787 5.283.768Z" fill="#f8c102"/><path data-name="Path 3657" d="M44.31 30.714a.573.573 0 0 1-.265-.065l-6.1-3.173A14.445 14.445 0 0 1 17.272 14.34 14.442 14.442 0 0 1 31.711 0h.106A14.437 14.437 0 0 1 43.09 23.341l1.776 6.65a.574.574 0 0 1-.555.722m-6.36-4.454a.574.574 0 0 1 .265.065l5.207 2.707-1.507-5.642a.565.565 0 0 1-.022-.1.575.575 0 0 1 .123-.445 13.295 13.295 0 0 0-10.206-21.7h-.1a13.295 13.295 0 0 0-.093 26.589 13.119 13.119 0 0 0 6.071-1.416.574.574 0 0 1 .259-.062m-1.763-4.477a.574.574 0 0 1-.267-.066l-4.458-2.344-4.458 2.344a.574.574 0 0 1-.832-.6l.851-4.964-3.607-3.515a.574.574 0 0 1 .318-.979l4.984-.724 2.229-4.516a.574.574 0 0 1 1.029 0l2.229 4.516 4.984.724a.574.574 0 0 1 .318.979l-3.607 3.515.851 4.964a.574.574 0 0 1-.566.671m-4.725-3.632a.574.574 0 0 1 .267.066l3.7 1.943-.706-4.115a.573.573 0 0 1 .165-.508l2.99-2.915-4.132-.6a.573.573 0 0 1-.432-.314l-1.848-3.744-1.848 3.744a.573.573 0 0 1-.432.314l-4.132.6 2.99 2.915a.573.573 0 0 1 .165.508l-.706 4.115 3.7-1.943a.574.574 0 0 1 .267-.066" fill="#23314c"/><path data-name="Path 3658" d="M33.843 28.548a13.861 13.861 0 0 1-22.547 10.8l-6.91 1.9 3.26-6.382a13.861 13.861 0 1 1 26.2-6.319" fill="#fff"/><path data-name="Path 3659" d="M33.843 30.139a13.861 13.861 0 0 1-22.547 10.8l-6.91 1.9 3.26-6.382a13.861 13.861 0 1 1 26.2-6.319" fill="#1bccdc"/><path data-name="Path 3660" d="M20.163 42.986a14.374 14.374 0 0 1-8.813-3l-6.634 1.822a.574.574 0 0 1-.663-.814l3.128-6.123a14.437 14.437 0 1 1 12.982 8.115m-8.687-4.206a.572.572 0 0 1 .359.126 13.287 13.287 0 1 0-4.959-10.354 13.128 13.128 0 0 0 1.458 6.057.574.574 0 0 1 0 .523l-2.671 5.219 5.627-1.545a.56.56 0 0 1 .094-.023.581.581 0 0 1 .088-.007" fill="#23314c"/><path data-name="Path 3661" d="M19.293 27.274a.574.574 0 0 1-.574-.574 2.124 2.124 0 1 0-4.247 0 .574.574 0 0 1-1.148 0 3.272 3.272 0 0 1 6.543 0 .574.574 0 0 1-.574.574" fill="#23314c"/><path data-name="Path 3662" d="M31.015 27.274a.574.574 0 0 1-.574-.574 2.124 2.124 0 1 0-4.247 0 .574.574 0 0 1-1.148 0 3.272 3.272 0 0 1 6.543 0 .574.574 0 0 1-.574.574" fill="#23314c"/><path data-name="Path 3663" d="M22.453 35.749a7.082 7.082 0 0 1-6.374-3.992.574.574 0 0 1 1.032-.5 5.9 5.9 0 0 0 5.342 3.346 5.971 5.971 0 0 0 5.348-3.358.574.574 0 1 1 1.033.5 7.082 7.082 0 0 1-6.381 4.007" fill="#23314c"/><path data-name="Path 3664" d="M10.582 5.044a8.9 8.9 0 0 0-7.916 12.948L.574 22.086l4.434-1.218a8.893 8.893 0 1 0 5.574-15.824" fill="#fff"/><path data-name="Path 3665" d="M10.582 6.421a8.9 8.9 0 0 0-7.916 12.948L.574 23.463l4.434-1.218a8.893 8.893 0 1 0 5.574-15.823m3.521 8.517-3.141 3.141-.495.5-.5-.5-3.134-3.142a2.571 2.571 0 0 1 3.637-3.636 2.571 2.571 0 0 1 3.636 3.636" fill="#fe0056"/><path data-name="Path 3666" d="M10.582 23.429a9.494 9.494 0 0 1-5.7-1.907L.725 22.664a.574.574 0 0 1-.663-.818l1.961-3.838a9.468 9.468 0 1 1 8.559 5.417m-5.573-3.11a.573.573 0 0 1 .359.126 8.227 8.227 0 0 0 5.214 1.836 8.319 8.319 0 1 0-8.319-8.319 8.218 8.218 0 0 0 .913 3.792.574.574 0 0 1 0 .523l-1.5 2.936 3.156-.863a.59.59 0 0 1 .087-.021.569.569 0 0 1 .089-.007m5.459-1.172a.574.574 0 0 1-.406-.168l-3.637-3.632a3.145 3.145 0 0 1 4.042-4.791 3.145 3.145 0 0 1 4.042 4.791l-3.636 3.636a.574.574 0 0 1-.406.168Zm-1.819-8.024a2 2 0 0 0-1.412 3.41l3.231 3.23.089-.089 3.144-3.141a2 2 0 1 0-2.825-2.825.574.574 0 0 1-.812 0 1.985 1.985 0 0 0-1.413-.585m5.45 3.816Z" fill="#23314c"/></g><path data-name="Path 3667" d="m63.708 29.074-4.648-8.076h-2.527v8.076h-3.312V8.884h6.972a8.674 8.674 0 0 1 3.936.814 5.646 5.646 0 0 1 2.411 2.179 5.93 5.93 0 0 1 .8 3.05 6.043 6.043 0 0 1-1.147 3.588 5.824 5.824 0 0 1-3.53 2.193l5 8.367Zm-7.175-10.72h3.66a3.839 3.839 0 0 0 2.8-.93 3.348 3.348 0 0 0 .944-2.5 3.23 3.23 0 0 0-.93-2.455 3.951 3.951 0 0 0-2.818-.886h-3.66Z" fill="#23314c"/><path data-name="Path 3668" d="M70.211 16.728a7.3 7.3 0 0 1 6.551-3.922 6.99 6.99 0 0 1 3.3.741 6.7 6.7 0 0 1 2.251 1.845v-2.324h3.341v16.006h-3.341v-2.382a6.58 6.58 0 0 1-2.295 1.888 7.427 7.427 0 0 1-7.088-.305 7.515 7.515 0 0 1-2.716-2.963 9.115 9.115 0 0 1-1-4.314 8.861 8.861 0 0 1 1-4.27m11.417 1.453a4.8 4.8 0 0 0-1.787-1.859 4.681 4.681 0 0 0-2.382-.639 4.757 4.757 0 0 0-2.382.625 4.709 4.709 0 0 0-1.787 1.83A5.713 5.713 0 0 0 72.61 21a5.96 5.96 0 0 0 .683 2.9 4.811 4.811 0 0 0 1.8 1.9 4.617 4.617 0 0 0 2.368.654 4.674 4.674 0 0 0 2.382-.639 4.767 4.767 0 0 0 1.787-1.874 5.881 5.881 0 0 0 .683-2.89 5.8 5.8 0 0 0-.683-2.876" fill="#23314c"/><path data-name="Path 3669" d="M93.1 15.769v8.86a1.7 1.7 0 0 0 .421 1.293 2.094 2.094 0 0 0 1.438.392h2.033v2.76h-2.615a5.04 5.04 0 0 1-3.428-1.046 4.31 4.31 0 0 1-1.191-3.4v-8.86H87.87v-2.7h1.888V9.09h3.341v3.98h3.893v2.7Z" fill="#23314c"/><path data-name="Path 3670" d="M113.566 22.306h-12.23a4.438 4.438 0 0 0 1.423 3.079 4.492 4.492 0 0 0 3.137 1.162 3.875 3.875 0 0 0 3.776-2.237h3.573a7.21 7.21 0 0 1-2.629 3.617 7.712 7.712 0 0 1-4.721 1.409 8.173 8.173 0 0 1-4.111-1.031 7.332 7.332 0 0 1-2.847-2.9 8.858 8.858 0 0 1-1.032-4.35 9.071 9.071 0 0 1 1-4.343 7.05 7.05 0 0 1 2.818-2.891 8.387 8.387 0 0 1 4.169-1.017 8.156 8.156 0 0 1 4.038.988 6.984 6.984 0 0 1 2.76 2.774 8.36 8.36 0 0 1 .988 4.111 10.374 10.374 0 0 1-.116 1.627m-3.341-2.673a3.77 3.77 0 0 0-1.307-2.934 4.675 4.675 0 0 0-3.166-1.1 4.253 4.253 0 0 0-2.934 1.089 4.552 4.552 0 0 0-1.453 2.949Z" fill="#23314c"/><path data-name="Path 3671" d="M135.617 9.116v19.957h-1.307V11.846l-7.669 17.227h-1.046l-7.7-17.227v17.227h-1.306V9.116h1.394l8.134 18.244 8.134-18.244Z" fill="#23314c"/><path data-name="Path 3672" d="m152.263 13.299-9.18 23.182h-1.336l2.934-7.408-6.623-15.774h1.423l5.922 14.322 5.52-14.322Z" fill="#23314c"/><path data-name="Path 3673" d="M157.432 28.58a5.681 5.681 0 0 1-2.31-1.888 5.288 5.288 0 0 1-.944-2.644h1.365a4.939 4.939 0 0 0 1.5 2.847 5.273 5.273 0 0 0 3.846 1.252 5.874 5.874 0 0 0 2.629-.552 4.19 4.19 0 0 0 1.728-1.511 3.869 3.869 0 0 0 .61-2.121 3.611 3.611 0 0 0-.712-2.353 4.419 4.419 0 0 0-1.772-1.307 25.842 25.842 0 0 0-2.861-.93 23.033 23.033 0 0 1-3.181-1.046 5.046 5.046 0 0 1-2.034-1.612 5.364 5.364 0 0 1-.058-5.636 5.287 5.287 0 0 1 2.193-1.9 7.371 7.371 0 0 1 3.283-.7 6.728 6.728 0 0 1 4.357 1.336 5.211 5.211 0 0 1 1.976 3.283h-1.394a4.321 4.321 0 0 0-.77-1.6 4.51 4.51 0 0 0-1.685-1.351 5.825 5.825 0 0 0-2.6-.537 5.306 5.306 0 0 0-3.428 1.119 4.014 4.014 0 0 0-.668 5.345 4.594 4.594 0 0 0 1.787 1.336 20.917 20.917 0 0 0 2.861.915 25.221 25.221 0 0 1 3.181 1.06 4.975 4.975 0 0 1 2 1.6 4.759 4.759 0 0 1 .828 2.949 4.979 4.979 0 0 1-.726 2.586 5.453 5.453 0 0 1-2.135 1.99 7.027 7.027 0 0 1-3.413.77 8.04 8.04 0 0 1-3.457-.7" fill="#23314c"/><path data-name="Path 3674" d="M184.575 21.695H170.95a7.224 7.224 0 0 0 .93 3.573 5.626 5.626 0 0 0 2.295 2.179 6.734 6.734 0 0 0 3.108.726 6.415 6.415 0 0 0 3.893-1.147 4.97 4.97 0 0 0 1.975-3.123h1.366a6.316 6.316 0 0 1-2.382 3.907 7.648 7.648 0 0 1-4.851 1.5 7.867 7.867 0 0 1-3.951-.988 6.932 6.932 0 0 1-2.731-2.832 9.95 9.95 0 0 1-.015-8.613 6.773 6.773 0 0 1 2.716-2.8 8.027 8.027 0 0 1 3.98-.973 7.686 7.686 0 0 1 3.936.973 6.588 6.588 0 0 1 2.542 2.586 7.188 7.188 0 0 1 .872 3.471 15.543 15.543 0 0 1-.058 1.569m-1.99-4.619a5.271 5.271 0 0 0-2.251-2.164 6.79 6.79 0 0 0-3.079-.712 6.7 6.7 0 0 0-3.065.712 5.65 5.65 0 0 0-2.295 2.164 7.071 7.071 0 0 0-.944 3.544h12.375a6.491 6.491 0 0 0-.741-3.544" fill="#23314c"/><path data-name="Path 3675" d="M191.429 13.895a7.082 7.082 0 0 1 3.776-.915v1.365h-.436a5.723 5.723 0 0 0-3.864 1.322q-1.54 1.322-1.54 4.314v9.093h-1.307V13.299h1.307v3.253a4.794 4.794 0 0 1 2.063-2.658" fill="#23314c"/><path data-name="Path 3676" d="m204.071 27.651 5.81-14.351h1.394l-6.536 15.774h-1.365L196.837 13.3h1.423Z" fill="#23314c"/><path data-name="Path 3677" d="M213.576 9.48a1.089 1.089 0 0 1-.32-.828 1.1 1.1 0 0 1 .32-.814 1.123 1.123 0 0 1 1.569 0 1.1 1.1 0 0 1 .32.814 1.12 1.12 0 0 1-1.888.828M215 29.074h-1.308V13.3h1.307Z" fill="#23314c"/><path data-name="Path 3678" d="M219.289 16.873a6.8 6.8 0 0 1 2.7-2.8 7.943 7.943 0 0 1 3.965-.973 7.686 7.686 0 0 1 4.866 1.482 6.328 6.328 0 0 1 2.368 3.98h-1.365a4.924 4.924 0 0 0-1.961-3.2 6.427 6.427 0 0 0-3.907-1.162 6.551 6.551 0 0 0-3.167.77 5.635 5.635 0 0 0-2.28 2.353 9.106 9.106 0 0 0 0 7.713 5.748 5.748 0 0 0 2.28 2.353 6.984 6.984 0 0 0 7.074-.378 4.922 4.922 0 0 0 1.961-3.2h1.365a6.4 6.4 0 0 1-2.382 3.98 7.6 7.6 0 0 1-4.851 1.511 7.845 7.845 0 0 1-3.965-.988 6.866 6.866 0 0 1-2.7-2.832 10.019 10.019 0 0 1 0-8.613" fill="#23314c"/><path data-name="Path 3679" d="M250.613 21.695h-13.625a7.225 7.225 0 0 0 .93 3.573 5.626 5.626 0 0 0 2.295 2.183 6.735 6.735 0 0 0 3.109.726 6.415 6.415 0 0 0 3.893-1.147 4.971 4.971 0 0 0 1.975-3.123h1.365a6.315 6.315 0 0 1-2.382 3.907 7.648 7.648 0 0 1-4.851 1.5 7.867 7.867 0 0 1-3.951-.988 6.932 6.932 0 0 1-2.731-2.832 9.95 9.95 0 0 1-.015-8.613 6.773 6.773 0 0 1 2.716-2.8 8.027 8.027 0 0 1 3.98-.973 7.686 7.686 0 0 1 3.936.973 6.589 6.589 0 0 1 2.542 2.586 7.189 7.189 0 0 1 .871 3.471 15.543 15.543 0 0 1-.058 1.569m-1.99-4.619a5.271 5.271 0 0 0-2.251-2.164 6.79 6.79 0 0 0-3.079-.712 6.7 6.7 0 0 0-3.065.712 5.651 5.651 0 0 0-2.295 2.164 7.069 7.069 0 0 0-.944 3.544h12.375a6.492 6.492 0 0 0-.741-3.544" fill="#23314c"/></svg>