<svg width="75" height="77" viewBox="0 0 75 77" fill="none" xmlns="http://www.w3.org/2000/svg">
<path opacity="0.16" d="M37.5 0C47.5601 0.117281 57.1617 4.22526 64.1936 11.4206C71.2254 18.6159 75.1115 28.3095 74.9976 38.3696C75.1115 48.4297 71.2254 58.1233 64.1936 65.3186C57.1617 72.5139 47.5601 76.6219 37.5 76.7392C27.4399 76.6219 17.8383 72.5139 10.8065 65.3186C3.77465 58.1233 -0.111547 48.4297 0.00243851 38.3696C-0.111547 28.3095 3.77465 18.6159 10.8065 11.4206C17.8383 4.22526 27.4399 0.117281 37.5 0Z" fill="#23314C"/>
<path opacity="0.34" d="M22.9027 24.6855H30.2278C31.2749 24.6865 32.2788 25.1031 33.0189 25.8438C33.7589 26.5845 34.1747 27.5888 34.1747 28.6359V35.961C34.1733 37.0082 33.7563 38.0121 33.0153 38.7521C32.2743 39.4922 31.2698 39.9078 30.2226 39.9078H22.8975C21.8507 39.9064 20.8473 39.4896 20.1076 38.7489C19.3679 38.0083 18.9524 37.0043 18.9524 35.9575V28.6324C18.9533 27.5853 19.3699 26.5814 20.1106 25.8413C20.8514 25.1013 21.8556 24.6855 22.9027 24.6855Z" fill="#23314C"/>
<path opacity="0.34" d="M22.9019 46.5586H30.227C31.2741 46.5595 32.278 46.9761 33.0181 47.7168C33.7581 48.4576 34.1738 49.4618 34.1738 50.5089V57.834C34.1725 58.8813 33.7555 59.8851 33.0145 60.6252C32.2735 61.3652 31.269 61.7809 30.2218 61.7809H22.8967C21.8496 61.7799 20.8457 61.3633 20.1056 60.6226C19.3655 59.8819 18.9498 58.8776 18.9498 57.8305L18.9498 50.5054C18.9512 49.4582 19.3682 48.4543 20.1092 47.7143C20.8502 46.9743 21.8547 46.5586 22.9019 46.5586Z" fill="#23314C"/>
<path opacity="0.34" d="M44.7786 24.6816H52.1037C53.1508 24.6826 54.1547 25.0992 54.8948 25.8399C55.6348 26.5806 56.0505 27.5849 56.0505 28.632V35.9571C56.0492 37.0043 55.6322 38.0082 54.8912 38.7482C54.1502 39.4882 53.1457 39.9039 52.0985 39.9039H44.7734C43.7263 39.903 42.7224 39.4864 41.9823 38.7457C41.2423 38.0049 40.8265 37.0007 40.8265 35.9536V28.6285C40.8279 27.5812 41.2449 26.5773 41.9859 25.8373C42.7269 25.0973 43.7314 24.6816 44.7786 24.6816Z" fill="#23314C"/>
<path opacity="0.34" d="M49.9864 53.4099V46.5645H43.7531C42.9776 46.5668 42.2346 46.8758 41.6862 47.4242C41.1379 47.9725 40.8288 48.7155 40.8265 49.491V58.8602C40.8288 59.6356 41.1379 60.3787 41.6862 60.927C42.2346 61.4753 42.9776 61.7844 43.7531 61.7867H53.1223C53.8977 61.7844 54.6408 61.4753 55.1891 60.927C55.7374 60.3787 56.0465 59.6356 56.0488 58.8602V53.4099H49.9864Z" fill="#23314C"/>
<path d="M30.2243 19.8223H22.9027C20.721 19.8223 18.9524 21.5909 18.9524 23.7726V31.0942C18.9524 33.2759 20.721 35.0445 22.9027 35.0445H30.2243C32.406 35.0445 34.1747 33.2759 34.1747 31.0942V23.7726C34.1747 21.5909 32.406 19.8223 30.2243 19.8223Z" stroke="#23314C" stroke-width="2.763" stroke-linecap="round" stroke-linejoin="round"/>
<path d="M22.9019 41.6934H30.227C31.2741 41.6943 32.278 42.1109 33.018 42.8516C33.7581 43.5923 34.1738 44.5966 34.1738 45.6437V52.9688C34.1725 54.016 33.7555 55.0199 33.0145 55.7599C32.2735 56.5 31.269 56.9156 30.2218 56.9156H22.8967C21.8496 56.9147 20.8457 56.4981 20.1056 55.7574C19.3655 55.0166 18.9498 54.0124 18.9498 52.9653L18.9498 45.6402C18.9512 44.5929 19.3682 43.5891 20.1092 42.849C20.8502 42.109 21.8546 41.6934 22.9019 41.6934Z" stroke="#23314C" stroke-width="2.763" stroke-linecap="round" stroke-linejoin="round"/>
<path d="M44.7786 19.8184H52.1037C53.1508 19.8193 54.1547 20.2359 54.8948 20.9766C55.6348 21.7173 56.0505 22.7216 56.0505 23.7687V31.0938C56.0492 32.141 55.6322 33.1449 54.8912 33.8849C54.1502 34.625 53.1457 35.0406 52.0985 35.0406H44.7734C43.7263 35.0397 42.7224 34.6231 41.9823 33.8824C41.2423 33.1416 40.8265 32.1374 40.8265 31.0903V23.7652C40.8279 22.7179 41.2449 21.7141 41.9859 20.974C42.7269 20.234 43.7314 19.8184 44.7786 19.8184Z" stroke="#23314C" stroke-width="2.763" stroke-linecap="round" stroke-linejoin="round"/>
<path d="M49.9864 48.548V41.6973H43.7531C42.9776 41.6996 42.2346 42.0086 41.6862 42.557C41.1379 43.1053 40.8288 43.8484 40.8265 44.6238V53.993C40.8288 54.7684 41.1379 55.5115 41.6862 56.0598C42.2346 56.6082 42.9776 56.9172 43.7531 56.9195H53.1223C53.8977 56.9172 54.6408 56.6082 55.1891 56.0598C55.7374 55.5115 56.0465 54.7684 56.0488 53.993V48.548H49.9864Z" stroke="#23314C" stroke-width="2.763" stroke-linecap="round" stroke-linejoin="round"/>
</svg>
