<svg xmlns="http://www.w3.org/2000/svg" width="43" height="43" viewBox="0 0 43 43">
  <g id="Group_7739" data-name="Group 7739" transform="translate(9837 2348)">
    <circle id="Ellipse_469" data-name="Ellipse 469" cx="21.5" cy="21.5" r="21.5" transform="translate(-9837 -2348)" fill="#fe0056" opacity="0.17"/>
    <g id="Group_7730" data-name="Group 7730" transform="translate(-9827.785 -2337.857)">
      <g id="Group_7734" data-name="Group 7734" transform="translate(0 0)">
        <path id="Path_4301" data-name="Path 4301" d="M2.409,23.818h0A2.409,2.409,0,0,1,0,21.409V8.5H4.819V21.409a2.409,2.409,0,0,1-2.409,2.409" transform="translate(0 1.163)" fill="#fe0056"/>
        <path id="Path_4302" data-name="Path 4302" d="M4.772,21.37V4.089A1.961,1.961,0,0,1,6.733,2.128H20.041A1.961,1.961,0,0,1,22,4.089v18.09a1.961,1.961,0,0,1-1.961,1.961H2.293" transform="translate(0.115 0.842)" fill="#fe0056"/>
        <path id="Path_4303" data-name="Path 4303" d="M11.281,6.741A1.942,1.942,0,1,1,9.338,4.8a1.942,1.942,0,0,1,1.943,1.943" transform="translate(2.473 -0.132)" fill="#fff"/>
        <line id="Line_532" data-name="Line 532" x1="4.722" transform="translate(13.504 7.502)" fill="#fff"/>
        <line id="Line_533" data-name="Line 533" x1="11.51" transform="translate(6.718 11.349)" fill="#fff"/>
        <line id="Line_534" data-name="Line 534" x1="11.51" transform="translate(6.718 15.197)" fill="#fff"/>
        <line id="Line_535" data-name="Line 535" x1="11.51" transform="translate(6.718 19.044)" fill="#fff"/>
        <path id="Path_4304" data-name="Path 4304" d="M4.129,22.69h0A2.409,2.409,0,0,1,1.72,20.281V7.369H6.539V20.281A2.409,2.409,0,0,1,4.129,22.69Z" transform="translate(-0.964 -1.053)" fill="none" stroke="#23314c" stroke-linecap="round" stroke-linejoin="round" stroke-miterlimit="10" stroke-width="1.8"/>
        <path id="Path_4305" data-name="Path 4305" d="M6.492,20.224V3.317A1.961,1.961,0,0,1,8.453,1.356H21.761a1.961,1.961,0,0,1,1.961,1.961V21.033a1.961,1.961,0,0,1-1.961,1.961H4.013" transform="translate(-0.848 -1.356)" fill="none" stroke="#23314c" stroke-miterlimit="10" stroke-width="1.8"/>
        <path id="Path_4306" data-name="Path 4306" d="M13.375,5.8a2.129,2.129,0,1,1-2.13-2.13A2.129,2.129,0,0,1,13.375,5.8Z" transform="translate(0.272 0.674)" fill="none" stroke="#23314c" stroke-miterlimit="10" stroke-width="1.8"/>
        <line id="Line_536" data-name="Line 536" x1="1.05" transform="translate(17.302 6.454)" fill="none" stroke="#23314c" stroke-linecap="round" stroke-miterlimit="10" stroke-width="1.8"/>
        <line id="Line_537" data-name="Line 537" x1="7.893" transform="translate(10.333 12.386)" fill="none" stroke="#23314c" stroke-linecap="round" stroke-miterlimit="10" stroke-width="1.8"/>
        <line id="Line_539" data-name="Line 539" x1="7.893" transform="translate(10.333 18.007)" fill="none" stroke="#23314c" stroke-linecap="round" stroke-miterlimit="10" stroke-width="1.8"/>
      </g>
    </g>
  </g>
</svg>
