<svg width="143" height="143" viewBox="0 0 143 143" fill="none" xmlns="http://www.w3.org/2000/svg">
<g filter="url(#filter0_d_201_760)">
<path d="M71.1721 123.854C59.3693 123.853 47.8319 120.352 38.0188 113.794C28.2056 107.236 20.5574 97.9158 16.0413 87.0112C11.5253 76.1066 10.3441 64.1078 12.6472 52.5319C14.9504 40.9561 20.6343 30.3231 28.9804 21.9776C37.3265 13.6321 47.9598 7.94882 59.5358 5.64646C71.1118 3.3441 83.1106 4.52605 94.0149 9.04286C104.919 13.5597 114.239 21.2085 120.797 31.0221C127.354 40.8356 130.854 52.3733 130.854 64.176C130.854 72.0134 129.311 79.7741 126.311 87.0149C123.312 94.2557 118.916 100.835 113.374 106.376C107.832 111.918 101.252 116.314 94.0112 119.313C86.7702 122.312 79.0095 123.855 71.1721 123.854Z" fill="white" stroke="#E4E4E4"/>
</g>
<path d="M60.541 64.1794C60.5414 66.2529 61.1567 68.2798 62.309 70.0036C63.4613 71.7275 65.099 73.0709 67.0148 73.8641C68.9307 74.6572 71.0387 74.8644 73.0723 74.4595C75.1059 74.0546 76.9738 73.0557 78.4397 71.5892C79.9057 70.1228 80.9038 68.2545 81.308 66.2207C81.7121 64.1869 81.5041 62.079 80.7102 60.1635C79.9163 58.2479 78.5723 56.6108 76.848 55.4591C75.1236 54.3075 73.0966 53.693 71.023 53.6934C69.6462 53.6936 68.283 53.9651 67.0111 54.4922C65.7392 55.0193 64.5836 55.7917 63.6103 56.7655C62.637 57.7392 61.8649 58.8951 61.3383 60.1672C60.8117 61.4392 60.5408 62.8026 60.541 64.1794Z" fill="white"/>
<path d="M76.9736 71.5018C77.7257 68.8531 78.5032 66.3468 79.1201 63.807C79.3356 62.9199 79.3568 61.8906 79.1328 61.0077C78.6722 59.1876 77.3581 58.0453 75.4904 57.7064C73.4664 57.3382 71.7761 58.0328 70.5719 59.7023C67.8464 63.4806 65.142 67.2673 62.4546 71.0708C62.2307 71.3888 62.1377 71.8532 62.1335 72.2507C62.1166 81.1589 62.1208 90.0713 62.1208 98.9795V99.8373C62.3236 99.8749 62.425 99.9126 62.5264 99.9126C69.1563 99.9126 75.782 99.9628 82.4118 99.8791C85.6106 99.8373 87.8881 97.9084 88.7544 94.8455C90.1446 89.9249 91.5686 85.0126 92.87 80.071C93.1574 78.979 93.2165 77.7321 92.9926 76.6316C92.3672 73.552 89.7093 71.531 86.5021 71.5143C83.3668 71.4934 80.2272 71.5101 76.9693 71.5101L76.9736 71.5018ZM58.2206 71.4976C56.6487 71.4976 55.1782 71.4892 53.7077 71.4976C50.9823 71.5227 48.9498 73.3595 48.9287 76.0416C48.8695 82.4811 48.8822 88.9207 48.9287 95.3602C48.9413 97.4816 50.2301 99.2891 52.2204 99.6406C54.1683 99.9837 56.1924 99.8959 58.2291 100V71.4934L58.2206 71.4976ZM64.7956 47.6935C64.7322 48.7689 65.6829 49.3965 66.6928 48.907C67.7746 48.3839 68.8605 47.8525 69.8916 47.2458C70.6986 46.7688 71.4085 46.7521 72.2156 47.2207C73.2297 47.8107 74.265 48.3798 75.3467 48.8358C75.7735 49.0158 76.4792 49.0367 76.8088 48.794C77.1384 48.5513 77.3158 47.8777 77.2693 47.4174C77.151 46.183 76.9102 44.9529 76.6482 43.7395C76.4918 43.024 76.7116 42.5177 77.2229 42.0407C78.1398 41.1871 79.0229 40.2959 79.9357 39.4381C80.3709 39.0322 80.6413 38.505 80.3498 38.028C80.1089 37.6347 79.5976 37.2748 79.1413 37.1744C77.9666 36.915 76.7623 36.7895 75.5664 36.6514C74.7763 36.5593 74.2396 36.2288 73.91 35.4798C73.4495 34.4379 72.8832 33.4421 72.3931 32.4128C72.1142 31.8312 71.7888 31.3374 71.0494 31.3458C70.3057 31.3542 70.0056 31.873 69.731 32.4463C69.2366 33.4714 68.6788 34.4714 68.214 35.5133C67.8929 36.233 67.3731 36.551 66.6168 36.643C65.4209 36.7895 64.2167 36.915 63.042 37.1702C62.5814 37.2707 62.0447 37.6054 61.8039 37.9903C61.487 38.4966 61.7743 39.0406 62.2307 39.4674C63.1476 40.321 64.0307 41.2122 64.9434 42.07C65.4294 42.526 65.6322 43.0198 65.4928 43.7018C65.2223 45.024 65.028 46.363 64.7998 47.6935H64.7956ZM91.4841 57.7733C91.4502 58.9868 92.363 59.5725 93.3475 59.0955C94.5264 58.5265 95.6885 57.924 96.8378 57.2921C97.4674 56.9449 98.0336 56.9532 98.6548 57.2921C99.7788 57.9072 100.903 58.5349 102.077 59.0411C102.475 59.2127 103.151 59.2127 103.468 58.9826C103.785 58.7524 103.979 58.1206 103.941 57.6938C103.827 56.4846 103.603 55.2795 103.341 54.0912C103.163 53.2711 103.37 52.6644 103.996 52.1121C104.871 51.3338 105.695 50.4928 106.544 49.6852C106.975 49.2752 107.275 48.8275 107.059 48.2082C106.848 47.6015 106.362 47.3923 105.758 47.3128C104.587 47.1663 103.425 46.9655 102.255 46.8316C101.465 46.7395 100.924 46.4174 100.586 45.6726C100.083 44.5638 99.4914 43.4926 98.9633 42.3921C98.7097 41.8649 98.3421 41.5218 97.7379 41.5218C97.1294 41.5218 96.7617 41.8691 96.5082 42.3921C95.9758 43.4884 95.3927 44.5638 94.8898 45.6726C94.5687 46.3797 94.0659 46.7312 93.301 46.819C92.1052 46.9613 90.9136 47.1622 89.7178 47.3128C89.1135 47.3881 88.6318 47.5931 88.4205 48.204C88.2008 48.8317 88.505 49.2668 88.9361 49.6769C89.7685 50.4677 90.5544 51.3087 91.4249 52.0493C92.1517 52.6686 92.2954 53.3673 92.1094 54.2502C91.8517 55.4678 91.67 56.698 91.4841 57.7691V57.7733ZM39.5353 59.2629C39.6747 59.2085 39.9578 59.1206 40.2114 58.9909C41.3311 58.4219 42.4509 57.8528 43.5538 57.2587C44.1242 56.949 44.6566 56.9449 45.2271 57.2587C46.2623 57.8194 47.3103 58.3424 48.3498 58.8947C48.9329 59.2043 49.5118 59.4889 50.1498 59.037C50.7921 58.5809 50.6823 57.9365 50.5724 57.3005C50.3822 56.2042 50.1963 55.108 49.985 54.0159C49.8414 53.2753 50.0104 52.6895 50.5977 52.1707C51.4936 51.3757 52.3302 50.5095 53.1965 49.6811C53.6275 49.271 53.919 48.8275 53.7035 48.204C53.488 47.5931 53.0021 47.3923 52.4021 47.317C51.2062 47.1663 50.0189 46.9697 48.8188 46.8274C48.054 46.7354 47.5554 46.3797 47.2342 45.6768C46.7314 44.5679 46.1483 43.4926 45.6116 42.3963C45.3581 41.8775 44.9905 41.5302 44.382 41.5344C43.7735 41.5386 43.4143 41.8859 43.165 42.4131C42.6242 43.5344 42.0284 44.6307 41.5002 45.7604C41.1959 46.4132 40.7227 46.727 40.0255 46.819C38.8043 46.978 37.5873 47.1705 36.3661 47.3253C35.7619 47.4007 35.2802 47.6182 35.0689 48.2249C34.8703 48.8066 35.1238 49.2459 35.5379 49.6434C36.4253 50.4886 37.2873 51.3631 38.1958 52.1874C38.7705 52.7104 38.9522 53.2795 38.7958 54.0368C38.5381 55.2795 38.3352 56.5348 38.1366 57.7901C38.0014 58.6269 38.5719 59.288 39.5311 59.2755L39.5353 59.2629Z" fill="#F8C102"/>
<path d="M76.9718 67.6619C77.724 64.9799 78.5015 62.442 79.1185 59.8702C79.334 58.9719 79.3551 57.9297 79.1312 57.0357C78.6706 55.1926 77.3563 54.0359 75.4885 53.6927C73.4644 53.3199 71.7741 54.0232 70.5697 55.7137C67.8441 59.5397 65.1396 63.3741 62.452 67.2255C62.228 67.5475 62.1351 68.0178 62.1308 68.4203C62.1139 77.4407 62.1182 86.4654 62.1182 95.4858V96.3543C62.321 96.3925 62.4224 96.4306 62.5238 96.4306C69.1541 96.4306 75.7801 96.4814 82.4104 96.3967C85.6093 96.3543 87.887 94.4011 88.7533 91.2997C90.1436 86.3171 91.5677 81.3429 92.8692 76.3391C93.1565 75.2333 93.2157 73.9707 92.9917 72.8564C92.3663 69.738 89.7083 67.6915 86.5009 67.6746C83.3654 67.6534 80.2256 67.6704 76.9676 67.6704L76.9718 67.6619ZM58.222 67.6619C56.65 67.6619 55.1794 67.6534 53.7088 67.6619C50.9832 67.6873 48.9506 69.5473 48.9295 72.2632C48.8703 78.7838 48.883 85.3044 48.9295 91.8251C48.9422 93.9732 50.231 95.8035 52.2214 96.1594C54.1695 96.5069 56.1936 96.4179 58.2304 96.5238V67.6576L58.222 67.6619ZM64.7931 43.5538C64.7297 44.6427 65.6805 45.2782 66.6905 44.7825C67.7723 44.2529 68.8583 43.7148 69.8894 43.1004C70.6965 42.6174 71.4064 42.6005 72.2136 43.075C73.2277 43.6724 74.2631 44.2486 75.3449 44.7105C75.7717 44.8926 76.4774 44.9138 76.807 44.6681C77.1366 44.4223 77.3141 43.7402 77.2676 43.2741C77.1493 42.0242 76.9084 40.7786 76.6464 39.5499C76.4901 38.8254 76.7098 38.3127 77.2211 37.8297C78.1381 36.9654 79.0213 36.0629 79.9341 35.1943C80.3693 34.7833 80.6398 34.2495 80.3482 33.7665C80.1073 33.3682 79.596 33.0038 79.1396 32.9021C77.9649 32.6395 76.7605 32.5123 75.5646 32.3725C74.7744 32.2793 74.2377 31.9446 73.9081 31.1862C73.4475 30.1312 72.8812 29.1228 72.391 28.0805C72.1121 27.4916 71.7868 26.9916 71.0472 27.0001C70.3035 27.0086 70.0035 27.534 69.7288 28.1144C69.2344 29.1525 68.6766 30.1651 68.2117 31.2201C67.8906 31.9488 67.3708 32.2708 66.6144 32.3641C65.4185 32.5123 64.2141 32.6395 63.0394 32.8979C62.5788 32.9996 62.0421 33.3385 61.8012 33.7283C61.4843 34.241 61.7716 34.7918 62.228 35.224C63.145 36.0883 64.0282 36.9908 64.941 37.8593C65.4269 38.3212 65.6298 38.8211 65.4903 39.5117C65.2199 40.8506 65.0255 42.2064 64.7973 43.5538H64.7931ZM91.4831 53.7605C91.4493 54.9892 92.3621 55.5824 93.3467 55.0994C94.5257 54.5232 95.6878 53.9131 96.8372 53.2733C97.4669 52.9216 98.0331 52.9301 98.6543 53.2733C99.7784 53.8961 100.902 54.5316 102.077 55.0443C102.474 55.218 103.151 55.218 103.467 54.985C103.784 54.752 103.979 54.1122 103.941 53.68C103.827 52.4556 103.603 51.2353 103.341 50.032C103.163 49.2016 103.37 48.5872 103.996 48.028C104.87 47.2399 105.694 46.3883 106.544 45.5706C106.975 45.1553 107.275 44.702 107.059 44.0749C106.848 43.4606 106.362 43.2487 105.758 43.1682C104.587 43.0199 103.425 42.8165 102.255 42.681C101.464 42.5878 100.924 42.2615 100.585 41.5073C100.083 40.3846 99.491 39.2999 98.9628 38.1856C98.7092 37.6517 98.3416 37.3043 97.7373 37.3043C97.1288 37.3043 96.7611 37.656 96.5076 38.1856C95.9751 39.2957 95.392 40.3846 94.8891 41.5073C94.568 42.2234 94.0651 42.5793 93.3002 42.6683C92.1043 42.8123 90.9127 43.0157 89.7168 43.1682C89.1125 43.2445 88.6307 43.4521 88.4194 44.0707C88.1997 44.7062 88.504 45.1469 88.935 45.5621C89.7675 46.3629 90.5535 47.2145 91.424 47.9644C92.1508 48.5915 92.2945 49.299 92.1086 50.193C91.8508 51.426 91.6691 52.6716 91.4831 53.7563V53.7605ZM39.5356 55.2731C39.675 55.218 39.9581 55.1291 40.2117 54.9977C41.3315 54.4215 42.4514 53.8453 43.5543 53.2436C44.1248 52.9301 44.6572 52.9259 45.2277 53.2436C46.263 53.8114 47.311 54.341 48.3505 54.9003C48.9337 55.2138 49.5126 55.5019 50.1507 55.0443C50.7931 54.5825 50.6832 53.93 50.5733 53.286C50.3831 52.1759 50.1972 51.0658 49.9859 49.96C49.8422 49.2101 50.0113 48.6169 50.5987 48.0915C51.4945 47.2865 52.3312 46.4095 53.1975 45.5706C53.6286 45.1553 53.9201 44.7062 53.7046 44.0749C53.4891 43.4563 53.0031 43.253 52.4031 43.1767C51.2072 43.0242 50.0197 42.825 48.8196 42.681C48.0547 42.5878 47.5561 42.2276 47.2349 41.5158C46.7321 40.393 46.1489 39.3041 45.6122 38.1941C45.3587 37.6687 44.991 37.317 44.3825 37.3213C43.774 37.3255 43.4148 37.6772 43.1655 38.211C42.6246 39.3465 42.0288 40.4566 41.5005 41.6006C41.1963 42.2615 40.723 42.5793 40.0257 42.6725C38.8045 42.8335 37.5875 43.0284 36.3662 43.1852C35.7619 43.2614 35.2802 43.4817 35.0689 44.0961C34.8703 44.685 35.1238 45.1299 35.538 45.5324C36.4254 46.3883 37.2874 47.2738 38.196 48.1085C38.7707 48.6381 38.9524 49.2143 38.796 49.9812C38.5383 51.2396 38.3354 52.5106 38.1368 53.7817C38.0016 54.6291 38.5721 55.2985 39.5313 55.2858L39.5356 55.2731Z" stroke="#23314C" stroke-width="1.4" stroke-linecap="round" stroke-linejoin="round"/>
<path d="M76.9219 67.058C80.2089 67.058 83.3723 67.0411 86.54 67.0622C89.7716 67.0832 92.4575 69.1126 93.0885 72.2115C93.3145 73.3188 93.2548 74.5777 92.9649 75.6724C91.6518 80.6448 90.215 85.5878 88.8124 90.5391C87.9384 93.6211 85.6404 95.5621 82.4131 95.6042C75.7282 95.6926 69.039 95.6379 62.3498 95.6379C62.2475 95.6379 62.1451 95.6 61.9405 95.5621V94.699C61.9405 85.7351 61.9405 76.7671 61.9533 67.8032C61.9533 67.4032 62.0513 66.9359 62.2773 66.6159C64.9845 62.7887 67.7173 58.9741 70.4672 55.1764C71.6822 53.4964 73.3876 52.7975 75.4297 53.168C77.3099 53.5091 78.6358 54.6585 79.1047 56.49C79.3307 57.3784 79.3094 58.4099 79.0919 59.3067C78.4652 61.8666 77.6808 64.3844 76.9262 67.0496L76.9219 67.058Z" stroke="#23314C" stroke-width="2.763" stroke-linecap="round" stroke-linejoin="round"/>
<path d="M58.4643 67.8471V96.5243C56.3791 96.419 54.3068 96.5074 52.3124 96.1623C50.2747 95.8087 48.9596 93.9903 48.9423 91.8563C48.899 85.3784 48.886 78.9004 48.9423 72.4225C48.9682 69.7244 51.0448 67.8724 53.8352 67.8513C55.3408 67.8387 56.8506 67.8513 58.4557 67.8513L58.4643 67.8471Z" stroke="#23314C" stroke-width="2.763" stroke-linecap="round" stroke-linejoin="round"/>
<path d="M65.1238 43.8278C65.3559 42.4582 65.5535 41.0799 65.8285 39.7189C65.9703 39.0168 65.7641 38.5086 65.2699 38.0391C64.3418 37.1562 63.4438 36.2388 62.5114 35.3601C62.0431 34.9208 61.7552 34.3609 62.0774 33.8397C62.3223 33.4435 62.868 33.0989 63.3364 32.9955C64.5309 32.7328 65.7555 32.6036 66.9714 32.4529C67.7406 32.3581 68.2691 32.0265 68.5956 31.2899C69.0683 30.2218 69.6354 29.1924 70.1382 28.1329C70.4217 27.5428 70.7268 27.0087 71.4787 27.0001C72.2307 26.9915 72.5615 27.4997 72.8451 28.0984C73.3435 29.1579 73.9193 30.183 74.3877 31.2555C74.7271 32.0265 75.2685 32.3667 76.072 32.4615C77.288 32.6036 78.5126 32.7371 79.7071 32.9998C80.1711 33.1032 80.691 33.4779 80.9359 33.8785C81.2324 34.3738 80.9574 34.9122 80.5148 35.33C79.5867 36.2129 78.6887 37.1303 77.7563 38.009C77.2364 38.5 77.0173 39.0211 77.172 39.7576C77.4384 41.011 77.679 42.273 77.8036 43.5435C77.8509 44.013 77.6661 44.7108 77.3352 44.9606C77.0044 45.2104 76.2825 45.1845 75.8486 45.0036C74.7486 44.5385 73.6959 43.9484 72.6647 43.3411C71.844 42.8587 71.1178 42.8759 70.3014 43.367C69.253 43.9958 68.1488 44.5385 67.0488 45.0769C66.0219 45.5808 65.0551 44.9304 65.1238 43.8278Z" stroke="#23314C" stroke-width="2.763" stroke-linecap="round" stroke-linejoin="round"/>
<path d="M91.9287 53.3481C92.1093 52.3026 92.2858 51.0932 92.5363 49.9002C92.7169 49.0351 92.5773 48.3505 91.8712 47.7437C91.0255 47.0139 90.2618 46.1899 89.4531 45.4191C89.0343 45.0174 88.7387 44.591 88.9522 43.976C89.1616 43.3775 89.6296 43.1766 90.2126 43.1028C91.3744 42.9552 92.5322 42.7625 93.694 42.619C94.4371 42.5288 94.9257 42.1844 95.2377 41.4957C95.7303 40.4092 96.2928 39.3556 96.8101 38.2815C97.0564 37.769 97.4136 37.4287 98.0048 37.4287C98.596 37.4287 98.949 37.7649 99.1954 38.2815C99.7085 39.3597 100.283 40.4092 100.772 41.4957C101.1 42.2254 101.626 42.5411 102.394 42.6313C103.531 42.7625 104.66 42.9593 105.797 43.1028C106.384 43.1766 106.856 43.3857 107.061 43.9801C107.271 44.5869 106.979 45.0256 106.561 45.4273C105.735 46.2186 104.935 47.0426 104.085 47.8052C103.477 48.3505 103.276 48.9408 103.449 49.7444C103.699 50.9087 103.917 52.0894 104.032 53.2743C104.073 53.6924 103.88 54.3156 103.572 54.537C103.26 54.7625 102.607 54.7666 102.221 54.5944C101.08 54.0942 99.9877 53.4833 98.8957 52.8807C98.288 52.5486 97.742 52.5404 97.1303 52.8807C96.0177 53.4997 94.8846 54.086 93.7392 54.6477C92.7826 55.115 91.8958 54.537 91.9287 53.3522V53.3481Z" stroke="#23314C" stroke-width="2.763" stroke-linecap="round" stroke-linejoin="round"/>
<path d="M39.6137 54.8095C38.637 54.8218 38.0561 54.1741 38.1938 53.3543C38.4003 52.1245 38.6026 50.8947 38.865 49.6773C39.0242 48.9353 38.8392 48.3778 38.2541 47.8654C37.329 47.0578 36.4513 46.2011 35.5477 45.3731C35.1261 44.9877 34.8679 44.5573 35.0702 43.9834C35.281 43.389 35.7715 43.1759 36.391 43.1021C37.6345 42.9504 38.8736 42.7618 40.1171 42.6061C40.827 42.52 41.3089 42.2085 41.6187 41.569C42.1522 40.4622 42.7588 39.3882 43.3139 38.2896C43.572 37.7772 43.9334 37.4328 44.553 37.4287C45.1726 37.4246 45.5469 37.7649 45.8051 38.2732C46.3515 39.3472 46.9409 40.4007 47.4573 41.487C47.7842 42.1798 48.2919 42.5282 49.0707 42.6143C50.2883 42.7537 51.5017 42.9463 52.7193 43.0939C53.3303 43.1677 53.8251 43.3644 54.0445 43.9629C54.2639 44.5737 53.9713 45.0082 53.5282 45.41C52.6418 46.2216 51.7942 47.066 50.8821 47.849C50.284 48.3614 50.1119 48.9353 50.2582 49.6568C50.4734 50.7267 50.667 51.8007 50.8563 52.8747C50.9681 53.4977 51.08 54.129 50.426 54.5758C49.7763 55.0186 49.1869 54.7398 48.5931 54.4365C47.5347 53.8995 46.4634 53.383 45.4135 52.8337C44.8327 52.5303 44.2906 52.5344 43.7097 52.8337C42.5867 53.4158 41.4466 53.9732 40.3064 54.5307C40.0439 54.6578 39.76 54.7439 39.618 54.7972L39.6137 54.8095Z" stroke="#23314C" stroke-width="2.763" stroke-linecap="round" stroke-linejoin="round"/>
<defs>
<filter id="filter0_d_201_760" x="0" y="0" width="142.354" height="142.354" filterUnits="userSpaceOnUse" color-interpolation-filters="sRGB">
<feFlood flood-opacity="0" result="BackgroundImageFix"/>
<feColorMatrix in="SourceAlpha" type="matrix" values="0 0 0 0 0 0 0 0 0 0 0 0 0 0 0 0 0 0 127 0" result="hardAlpha"/>
<feOffset dy="7"/>
<feGaussianBlur stdDeviation="5.5"/>
<feColorMatrix type="matrix" values="0 0 0 0 0 0 0 0 0 0 0 0 0 0 0 0 0 0 0.051 0"/>
<feBlend mode="normal" in2="BackgroundImageFix" result="effect1_dropShadow_201_760"/>
<feBlend mode="normal" in="SourceGraphic" in2="effect1_dropShadow_201_760" result="shape"/>
</filter>
</defs>
</svg>
