<svg width="75" height="75" viewBox="0 0 75 75" fill="none" xmlns="http://www.w3.org/2000/svg">
<path opacity="0.25" d="M37.5 75C58.2107 75 75 58.2107 75 37.5C75 16.7893 58.2107 0 37.5 0C16.7893 0 0 16.7893 0 37.5C0 58.2107 16.7893 75 37.5 75Z" fill="#3DCC4B"/>
<path d="M49.3302 48.0485C47.2393 47.8121 45.2954 48.572 43.8742 49.9398L30.7242 42.0874C31.7043 41.0741 32.6517 40.0271 33.6319 39.0308C34.1546 38.5073 34.465 37.8149 34.1219 37.1901C34.1056 37.1563 34.0729 37.1226 34.0566 37.0888L43.8742 31.229C46.6022 33.8296 50.8494 33.7958 53.4957 31.0601C56.2074 28.2569 56.2074 23.7143 53.4957 20.911C50.7841 18.1078 46.3898 18.1078 43.6782 20.911C41.9303 22.7179 41.3259 25.2679 41.8322 27.5814L28.6822 35.417C28.6822 35.417 28.5189 35.4001 28.4535 35.3832C27.5061 35.265 26.8853 34.8259 26.4769 33.8634C25.9215 32.5124 25.2518 31.2121 24.68 29.8611C24.3533 29.1012 23.9613 28.4595 23.0792 28.4764C22.1971 28.4764 21.8377 29.1688 21.511 29.9118C20.9229 31.2459 20.2531 32.5631 19.7141 33.914C19.3384 34.8428 18.7176 35.265 17.8192 35.3832C16.398 35.569 14.9605 35.7378 13.572 36.0756C13.0166 36.2107 12.3795 36.6497 12.1018 37.1395C11.7261 37.798 12.0691 38.5073 12.6082 39.0646C13.7026 40.1791 14.7481 41.3443 15.8262 42.4589C16.398 43.0499 16.643 43.6916 16.4797 44.5866C16.153 46.3091 15.9243 48.0485 15.6629 49.7878C15.5812 51.1895 16.7084 52 17.9172 51.3752C19.2077 50.6997 20.4982 50.0074 21.7233 49.2137C22.6708 48.5889 23.5202 48.572 24.484 49.1799C25.6928 49.9567 26.918 50.6997 28.2085 51.2908C28.7149 51.5272 29.5643 51.5441 29.9401 51.2401C30.3321 50.9193 30.5445 50.0411 30.4955 49.4501C30.4138 48.5044 30.2668 47.5587 30.1034 46.6131L41.8649 53.6381C41.7996 53.9083 41.7342 54.1616 41.7016 54.4487C41.2768 58.3833 44.0375 61.9296 47.8437 62.3687C51.6498 62.8077 55.0803 59.9538 55.505 56.0191C55.9297 52.0845 53.169 48.5382 49.3629 48.0991L49.3302 48.0485Z" fill="#3DCC4B"/>
<path d="M31.9673 31.7533L42.5846 25.667M42.5846 46.8307L29.7622 39.4784M15.6656 45.0954C15.9433 43.4237 16.172 41.752 16.4824 40.0965C16.6457 39.2363 16.4007 38.6196 15.829 38.0515C14.7509 36.9803 13.6892 35.8605 12.6111 34.7893C12.0558 34.2537 11.7291 33.572 12.1048 32.939C12.3988 32.4521 13.0358 32.0302 13.5748 31.9165C14.9633 31.5919 16.4007 31.4459 17.8218 31.2511C18.7202 31.1375 19.3409 30.7317 19.7165 29.8391C20.2719 28.5407 20.9253 27.291 21.5133 25.9926C21.84 25.2784 22.1994 24.6292 23.0814 24.613C23.9635 24.613 24.3392 25.2135 24.6822 25.9439C25.2702 27.226 25.9399 28.4758 26.4789 29.7904C26.871 30.7317 27.508 31.1375 28.4554 31.2511C29.8765 31.4296 31.3139 31.5919 32.7023 31.9003C33.2413 32.0302 33.8457 32.4846 34.1397 32.9715C34.4828 33.572 34.1724 34.2212 33.6497 34.7406C32.5716 35.8118 31.5099 36.9316 30.4318 38.0028C29.8275 38.6033 29.5661 39.2363 29.7458 40.129C30.0562 41.6546 30.3338 43.1965 30.4809 44.7383C30.5299 45.3064 30.3175 46.1503 29.9255 46.4587C29.5335 46.7671 28.7004 46.7346 28.194 46.5074C26.9036 45.9394 25.6786 45.2252 24.4698 44.4786C23.5061 43.8944 22.6567 43.9106 21.7093 44.5111C20.4843 45.2739 19.1938 45.9394 17.9034 46.5886C16.711 47.2053 15.5676 46.41 15.6493 45.0629L15.6656 45.0954ZM53.5122 27.0953C56.2237 24.4011 56.2237 20.0352 53.5122 17.341C50.8007 14.6468 46.4068 14.6468 43.6953 17.341C40.9838 20.0352 40.9838 24.4011 43.6953 27.0953C46.4068 29.7895 50.8007 29.7895 53.5122 27.0953ZM55.505 51.0354C55.9297 47.2538 53.1692 43.8455 49.3633 43.4235C45.5574 43.0015 42.1272 45.7444 41.7025 49.526C41.2778 53.3076 44.0383 56.7159 47.8442 57.1379C51.6501 57.5599 55.0803 54.817 55.505 51.0354Z" stroke="#23314C" stroke-width="2.763" stroke-linecap="round" stroke-linejoin="round"/>
</svg>
