<svg width="84" height="77" viewBox="0 0 84 77" fill="none" xmlns="http://www.w3.org/2000/svg">
<path d="M58.7852 48.3053H46.341C48.4666 42.8624 48.064 37.6233 46.4535 32.3435C46.0574 31.0443 44.8495 30.1641 43.4916 30.1641C41.7164 30.1641 40.3031 31.6523 40.396 33.4259C40.9274 43.6709 33.323 44.3148 27.3226 51.171V73.4852C29.8737 73.6368 31.9733 73.9596 33.9571 75.4804C34.7086 76.0575 35.6264 76.3786 36.5751 76.3786H58.7852V48.3053Z" fill="#FFCEBF"/>
<path d="M24.946 45.7793H18.6C17.2829 45.7793 16.2151 46.847 16.2151 48.1641V73.9912C16.2151 75.3083 17.2829 76.376 18.6 76.376H24.946C26.2631 76.376 27.3308 75.3083 27.3308 73.9912V48.1641C27.3308 46.847 26.2631 45.7793 24.946 45.7793Z" fill="#1BCCDC"/>
<path d="M42.9146 5.16503L44.4616 8.29968C44.6278 8.63711 44.949 8.87021 45.3206 8.92401L48.7813 9.42607C49.717 9.56137 50.0903 10.7122 49.4138 11.3724L46.91 13.8126C46.641 14.0751 46.5187 14.4533 46.5823 14.8233L47.174 18.2693C47.3338 19.2017 46.3557 19.9124 45.5179 19.4723L42.4239 17.8455C42.0914 17.671 41.6936 17.671 41.3627 17.8455L38.2672 19.4723C37.4309 19.9124 36.4512 19.2017 36.611 18.2693L37.2027 14.8233C37.2663 14.4533 37.144 14.0751 36.8751 13.8126L34.3712 11.3724C33.6947 10.7122 34.068 9.56137 35.0037 9.42607L38.4644 8.92401C38.8361 8.87021 39.1572 8.63711 39.3235 8.29968L40.8704 5.16503C41.2894 4.31739 42.4973 4.31739 42.9162 5.16503H42.9146Z" fill="#F7BA00"/>
<path d="M24.9199 11.6885L26.4668 14.8231C26.6331 15.1605 26.9542 15.3937 27.3259 15.4474L30.7866 15.9495C31.7223 16.0848 32.0956 17.2356 31.4191 17.8958L28.9153 20.3361C28.6463 20.5985 28.524 20.9767 28.5876 21.3467L29.1793 24.7927C29.3391 25.7251 28.361 26.4358 27.5231 25.9957L24.4276 24.3689C24.095 24.1945 23.6973 24.1945 23.3664 24.3689L20.2708 25.9957C19.433 26.4358 18.4549 25.7251 18.6147 24.7927L19.2064 21.3467C19.27 20.9767 19.1477 20.5985 18.8787 20.3361L16.3749 17.8958C15.6984 17.2356 16.0717 16.0864 17.0074 15.9495L20.4681 15.4474C20.8397 15.3937 21.1609 15.1605 21.3271 14.8231L22.8741 11.6885C23.293 10.8408 24.5026 10.8408 24.9199 11.6885Z" fill="#F7BA00"/>
<path d="M10.2735 26.3584L11.8204 29.493C11.9867 29.8305 12.3078 30.0636 12.6795 30.1174L16.1402 30.6194C17.0759 30.7547 17.4492 31.9056 16.7727 32.5658L14.2688 35.006C13.9999 35.2684 13.8776 35.6466 13.9412 36.0166L14.5329 39.4626C14.6927 40.3951 13.7146 41.1058 12.8767 40.6656L9.78117 39.0388C9.44863 38.8644 9.05251 38.8644 8.71997 39.0388L5.62441 40.6656C4.78654 41.1058 3.80848 40.3951 3.96823 39.4626L4.55996 36.0166C4.62353 35.6466 4.50127 35.2684 4.23231 35.006L1.72848 32.5658C1.05198 31.9056 1.42528 30.7564 2.36095 30.6194L5.82166 30.1174C6.19332 30.0636 6.51445 29.8305 6.68072 29.493L8.22768 26.3584C8.64662 25.5107 9.85615 25.5107 10.2751 26.3584H10.2735Z" fill="#F7BA00"/>
<path d="M75.5541 26.3584L77.101 29.493C77.2673 29.8305 77.5884 30.0636 77.9601 30.1174L81.4208 30.6194C82.3565 30.7547 82.7297 31.9056 82.0533 32.5658L79.5494 35.006C79.2805 35.2684 79.1582 35.6466 79.2218 36.0166L79.8135 39.4626C79.9733 40.3951 78.9952 41.1058 78.1573 40.6656L75.0634 39.0388C74.7309 38.8644 74.3331 38.8644 74.0006 39.0388L70.9066 40.6656C70.0688 41.1058 69.0907 40.3951 69.2505 39.4626L69.8422 36.0166C69.9058 35.6466 69.7835 35.2684 69.5145 35.006L67.0107 32.5658C66.3342 31.9056 66.7075 30.7564 67.6432 30.6194L71.1039 30.1174C71.4755 30.0636 71.7967 29.8305 71.9629 29.493L73.5099 26.3584C73.9288 25.5107 75.1367 25.5107 75.5557 26.3584H75.5541Z" fill="#F7BA00"/>
<path d="M60.9582 11.6885L62.5051 14.8231C62.6714 15.1605 62.9925 15.3937 63.3642 15.4474L66.8249 15.9495C67.7606 16.0848 68.1338 17.2356 67.4574 17.8958L64.9535 20.3361C64.6846 20.5985 64.5623 20.9767 64.6259 21.3467L65.2176 24.7927C65.3774 25.7251 64.3993 26.4358 63.5614 25.9957L60.4659 24.3689C60.1333 24.1945 59.7356 24.1945 59.403 24.3689L56.3091 25.9957C55.4712 26.4358 54.4932 25.7251 54.6529 24.7927L55.2447 21.3467C55.3082 20.9767 55.186 20.5985 54.917 20.3361L52.4132 17.8958C51.7367 17.2356 52.11 16.0864 53.0456 15.9495L56.5064 15.4474C56.878 15.3937 57.1991 15.1605 57.3654 14.8231L58.9124 11.6885C59.3313 10.8408 60.5408 10.8408 60.9582 11.6885Z" fill="#F7BA00"/>
<path d="M56.772 72.2263H36.5767C35.628 72.2263 34.7103 71.9051 33.9588 71.3281C31.975 69.8072 29.8754 69.4861 27.3243 69.3345V47.0203C33.3247 40.1625 40.9291 39.5186 40.3977 29.2735C40.3048 27.5 41.7181 26.0117 43.4932 26.0117C44.8511 26.0117 46.059 26.8936 46.4551 28.1928C46.9246 29.7316 47.2914 31.2671 47.5228 32.8059C47.6304 33.5003 47.7168 34.2616 47.7625 35.0815C47.826 36.2014 47.8016 37.2267 47.7348 38.1347C47.6793 38.8291 47.5848 39.5822 47.4332 40.3842C47.1952 41.6312 46.8382 42.888 46.3426 44.1529H55.1419" stroke="#23314C" stroke-width="2.763" stroke-linecap="round" stroke-linejoin="round"/>
<path d="M62.4285 55.3238H55.1419C53.2037 55.3238 51.6323 53.7524 51.6323 51.8143C51.6323 49.8761 53.2037 48.3047 55.1419 48.3047H62.4285C64.3667 48.3047 65.9381 49.8761 65.9381 51.8143C65.9381 53.7524 64.3667 55.3238 62.4285 55.3238Z" fill="#FFCEBF"/>
<path d="M62.4285 69.3609H55.1419C53.2037 69.3609 51.6323 67.7895 51.6323 65.8514C51.6323 63.9132 53.2037 62.3418 55.1419 62.3418H62.4285C64.3667 62.3418 65.9381 63.9132 65.9381 65.8514C65.9381 67.7895 64.3667 69.3609 62.4285 69.3609Z" fill="#FFCEBF"/>
<path d="M60.7984 76.3805H56.7721C54.8339 76.3805 53.2625 74.8091 53.2625 72.8709C53.2625 70.9327 54.8339 69.3613 56.7721 69.3613H60.7984C62.7366 69.3613 64.308 70.9327 64.308 72.8709C64.308 74.8091 62.7366 76.3805 60.7984 76.3805Z" fill="#FFCEBF"/>
<path d="M64.0586 62.3414H56.7721C54.8339 62.3414 53.2625 60.77 53.2625 58.8318C53.2625 56.8937 54.8339 55.3223 56.7721 55.3223H64.0586C65.9968 55.3223 67.5682 56.8937 67.5682 58.8318C67.5682 60.77 65.9968 62.3414 64.0586 62.3414Z" fill="#FFCEBF"/>
<path d="M21.7737 48.8848V52.0015" stroke="#23314C" stroke-width="2.763" stroke-linecap="round" stroke-linejoin="round"/>
<path d="M62.4285 51.1734H55.1419C53.2037 51.1734 51.6323 49.602 51.6323 47.6639C51.6323 45.7257 53.2037 44.1543 55.1419 44.1543H62.4285C64.3667 44.1543 65.9381 45.7257 65.9381 47.6639C65.9381 49.602 64.3667 51.1734 62.4285 51.1734Z" stroke="#23314C" stroke-width="2.763" stroke-linecap="round" stroke-linejoin="round"/>
<path d="M62.4285 65.2106H55.1419C53.2037 65.2106 51.6323 63.6391 51.6323 61.701C51.6323 59.7628 53.2037 58.1914 55.1419 58.1914H62.4285C64.3667 58.1914 65.9381 59.7628 65.9381 61.701C65.9381 63.6391 64.3667 65.2106 62.4285 65.2106Z" stroke="#23314C" stroke-width="2.763" stroke-linecap="round" stroke-linejoin="round"/>
<path d="M60.7984 72.2281H56.7721C54.8339 72.2281 53.2625 70.6567 53.2625 68.7186C53.2625 66.7804 54.8339 65.209 56.7721 65.209H60.7984C62.7366 65.209 64.308 66.7804 64.308 68.7186C64.308 70.6567 62.7366 72.2281 60.7984 72.2281Z" stroke="#23314C" stroke-width="2.763" stroke-linecap="round" stroke-linejoin="round"/>
<path d="M64.0586 58.193H56.7721C54.8339 58.193 53.2625 56.6216 53.2625 54.6834C53.2625 52.7452 54.8339 51.1738 56.7721 51.1738H64.0586C65.9968 51.1738 67.5682 52.7452 67.5682 54.6834C67.5682 56.6216 65.9968 58.193 64.0586 58.193Z" stroke="#23314C" stroke-width="2.763" stroke-linecap="round" stroke-linejoin="round"/>
<path d="M46.3427 44.1562V47.1409C46.3427 51.2096 43.045 54.5073 38.9763 54.5073" stroke="#23314C" stroke-width="2.763" stroke-linecap="round" stroke-linejoin="round"/>
<path d="M42.9146 2.01659L44.4616 5.15125C44.6278 5.48867 44.949 5.72178 45.3206 5.77557L48.7813 6.27763C49.717 6.41293 50.0903 7.56377 49.4138 8.22396L46.91 10.6642C46.641 10.9266 46.5187 11.3048 46.5823 11.6748L47.174 15.1208C47.3338 16.0533 46.3557 16.764 45.5179 16.3238L42.4239 14.697C42.0914 14.5226 41.6936 14.5226 41.3627 14.697L38.2672 16.3238C37.4309 16.764 36.4512 16.0533 36.611 15.1208L37.2027 11.6748C37.2663 11.3048 37.144 10.9266 36.8751 10.6642L34.3712 8.22396C33.6947 7.56377 34.068 6.41293 35.0037 6.27763L38.4644 5.77557C38.8361 5.72178 39.1572 5.48867 39.3235 5.15125L40.8704 2.01659C41.2894 1.16895 42.4973 1.16895 42.9162 2.01659H42.9146Z" stroke="#23314C" stroke-width="2.763" stroke-linecap="round" stroke-linejoin="round"/>
<path d="M24.9199 8.53612L26.4668 11.6708C26.6331 12.0082 26.9542 12.2413 27.3259 12.2951L30.7866 12.7972C31.7223 12.9325 32.0956 14.0833 31.4191 14.7435L28.9153 17.1837C28.6463 17.4462 28.524 17.8243 28.5876 18.1944L29.1793 21.6404C29.3391 22.5728 28.361 23.2835 27.5231 22.8434L24.4276 21.2166C24.095 21.0421 23.6973 21.0421 23.3664 21.2166L20.2708 22.8434C19.433 23.2835 18.4549 22.5728 18.6147 21.6404L19.2064 18.1944C19.27 17.8243 19.1477 17.4462 18.8787 17.1837L16.3749 14.7435C15.6984 14.0833 16.0717 12.9341 17.0074 12.7972L20.4681 12.2951C20.8397 12.2413 21.1609 12.0082 21.3271 11.6708L22.8741 8.53612C23.293 7.68848 24.5026 7.68848 24.9199 8.53612Z" stroke="#23314C" stroke-width="2.763" stroke-linecap="round" stroke-linejoin="round"/>
<path d="M10.2735 23.21L11.8204 26.3446C11.9867 26.682 12.3078 26.9151 12.6795 26.9689L16.1402 27.471C17.0759 27.6063 17.4492 28.7571 16.7727 29.4173L14.2688 31.8576C13.9999 32.12 13.8776 32.4982 13.9412 32.8682L14.5329 36.3142C14.6927 37.2466 13.7146 37.9573 12.8767 37.5172L9.78117 35.8904C9.44863 35.716 9.05251 35.716 8.71997 35.8904L5.62441 37.5172C4.78654 37.9573 3.80848 37.2466 3.96823 36.3142L4.55996 32.8682C4.62353 32.4982 4.50127 32.12 4.23231 31.8576L1.72848 29.4173C1.05198 28.7571 1.42528 27.6079 2.36095 27.471L5.82166 26.9689C6.19332 26.9151 6.51445 26.682 6.68072 26.3446L8.22768 23.21C8.64662 22.3623 9.85615 22.3623 10.2751 23.21H10.2735Z" stroke="#23314C" stroke-width="2.763" stroke-linecap="round" stroke-linejoin="round"/>
<path d="M75.5541 23.21L77.101 26.3446C77.2673 26.682 77.5884 26.9151 77.9601 26.9689L81.4208 27.471C82.3565 27.6063 82.7298 28.7571 82.0533 29.4173L79.5494 31.8576C79.2805 32.12 79.1582 32.4982 79.2218 32.8682L79.8135 36.3142C79.9733 37.2466 78.9952 37.9573 78.1573 37.5172L75.0634 35.8904C74.7309 35.716 74.3331 35.716 74.0006 35.8904L70.9066 37.5172C70.0688 37.9573 69.0907 37.2466 69.2505 36.3142L69.8422 32.8682C69.9058 32.4982 69.7835 32.12 69.5145 31.8576L67.0107 29.4173C66.3342 28.7571 66.7075 27.6079 67.6432 27.471L71.1039 26.9689C71.4755 26.9151 71.7967 26.682 71.9629 26.3446L73.5099 23.21C73.9288 22.3623 75.1367 22.3623 75.5557 23.21H75.5541Z" stroke="#23314C" stroke-width="2.763" stroke-linecap="round" stroke-linejoin="round"/>
<path d="M60.9582 8.53612L62.5051 11.6708C62.6714 12.0082 62.9925 12.2413 63.3642 12.2951L66.8249 12.7972C67.7606 12.9325 68.1338 14.0833 67.4574 14.7435L64.9535 17.1837C64.6846 17.4462 64.5623 17.8243 64.6259 18.1944L65.2176 21.6404C65.3774 22.5728 64.3993 23.2835 63.5614 22.8434L60.4659 21.2166C60.1333 21.0421 59.7356 21.0421 59.403 21.2166L56.3091 22.8434C55.4712 23.2835 54.4932 22.5728 54.6529 21.6404L55.2447 18.1944C55.3082 17.8243 55.186 17.4462 54.917 17.1837L52.4132 14.7435C51.7367 14.0833 52.11 12.9341 53.0456 12.7972L56.5064 12.2951C56.878 12.2413 57.1991 12.0082 57.3654 11.6708L58.9124 8.53612C59.3313 7.68848 60.5408 7.68848 60.9582 8.53612Z" stroke="#23314C" stroke-width="2.763" stroke-linecap="round" stroke-linejoin="round"/>
<path d="M24.9459 41.6289H18.5999C17.2828 41.6289 16.2151 42.6966 16.2151 44.0137V69.8408C16.2151 71.1579 17.2828 72.2256 18.5999 72.2256H24.9459C26.263 72.2256 27.3307 71.1579 27.3307 69.8408V44.0137C27.3307 42.6966 26.263 41.6289 24.9459 41.6289Z" stroke="#23314C" stroke-width="2.763" stroke-linecap="round" stroke-linejoin="round"/>
</svg>
