<svg xmlns="http://www.w3.org/2000/svg" width="454.932" height="75.911" viewBox="0 0 454.932 75.911">
  <path id="Path_4059" data-name="Path 4059" d="M139.42,65.741a4.4,4.4,0,0,0-1.589.9c-.285.3-1.728.593-1.5.386s.941-.786,1.08-.924-.674-.469-.812-.689l-.216-.1-.518-.248c-.328-.331-.708-.717-.847-.841s-.821.29-1.011.483l.009.193v.11a1.241,1.241,0,0,1-.328.855c-.242.331-.311,1.282-.406,1.31a.806.806,0,0,1-.518-.124c-.1-.1-.639-.469-.872-.62s.855-.51.985-.634.121-.345-.294-.179-1.624-.317-1.892-.262.035.593.138.758l.043.165.035.179c-.017.165-.6.262-1.3.179l-.57.028h-.1c-.1.386-.294.648-.458.593a4.82,4.82,0,0,0-1.5.055l-.017-.028-.3-.345c.527-.055.907-.221.838-.358s-.587-.455-.907-.234a5.814,5.814,0,0,1-1.943.717c-.475,0-1.771-.028-1.779-.055a1.194,1.194,0,0,1,.57-.124c.32-.028,1.252-.276,1.252-.51s1.339-.5,1.589-.524a3.926,3.926,0,0,0,1.088-.3l-.035-.055a.575.575,0,0,0-.354-.193,18.208,18.208,0,0,1-3.913.455l-.933-.028a5,5,0,0,1-1.235.827c-.225.083-.726-.317-.838-.372a7.375,7.375,0,0,0-.907-.276c-.25-.069-.846-.317-.7-.4a1.96,1.96,0,0,1,.907-.165l.06.083.32.441a11.589,11.589,0,0,0,1.572-.234.864.864,0,0,0,.406-.538c0-.165-1.011-.455-1.347-.483l-.017-.069c-.3-.9-1.192-.386-1.356-.083-.3.551-1.278.593-1.874.9l-.536.262c-.346.345-.7.469-.786.3l-.043-.165-.078-.3c-.631-.165-1.563-.441-2.09-.62l-.086-.207c-.233-.524-.838-.538-1.615-.538-.337,0-.734-.234-1-.193s-.389.317-.613.455l-.078.055c-.294.028-.311.124-.026.221s.812.455.57.579-2-.345-1.8-.5l.1-.152c.294-.441-.112-.7-.967-.524-.674.138-.855-.179-1.27-.207l-.518-.041a25.589,25.589,0,0,0-2.591.3l-.449-.152-.553-.179c-.51.041-1.278.138-1.71.221a11.673,11.673,0,0,1-2.254-.234c-.337-.041-1.175.028-1.589.014a6.536,6.536,0,0,0-2.082.11,3.641,3.641,0,0,1-2.488.014l-.942.152-.648.1c-.682-.055-1.753-.1-2.393-.083a31.449,31.449,0,0,0-3.2.372c-.751.124-3.1-.179-4.016-.1l-.916-.29-.674-.207c-1.209.179-2.384.358-2.626.4s-1.235,0-1.823,0a18.392,18.392,0,0,1-2.177.055.622.622,0,0,0-.6-.152,1.894,1.894,0,0,1-1.209.069l-.268-.11-.181-.069a1.408,1.408,0,0,0-.708.1,1.4,1.4,0,0,1-.812.152,2.424,2.424,0,0,0-1.037.124,17.172,17.172,0,0,1-1.762.234l-.708-.152c-.363-.083-.708-.179-1.062-.276-.466-.124-.846-.51-1.468-.124A1.034,1.034,0,0,1,62.821,64c-.674-.414-.993-.538-1.7.1l-.466.414c-.346-.5-.743-.813-.89-.7s-.691.372-.821.234a2.777,2.777,0,0,0-.959-.51,3.227,3.227,0,0,0-1.244.524c-.181.124-.821-.083-.916.014s-.276.138-.216-.11-1.123.165-1.2.179l-.078.014c-.777.138-.795-.648-1.762-.386l-.51.138c-.717-.014-1.486-.041-1.693-.055s-.967.069-1.46.083-1.935-.221-2.2-.014l-.337.11-.19.069a6.635,6.635,0,0,1-1.339-.4c-.371-.152-2.3.262-2.488.11s-.95-.386-1.183-.234-1.1-.165-1.235-.1l-.112.069c-.147.1-.285.276-.406.262-.423-.014-1.157.179-1.106-.276l.017-.124c.51-.152.734-.317.5-.4a2.158,2.158,0,0,0-1.149.014c-.173.138-.942.5-.933.138L36.719,63a.409.409,0,0,0-.173-.221l-.415.041c-.458.041-.743-.124-.631-.386l-.743.11-.138.014a2.345,2.345,0,0,1-1.088-.014,23.642,23.642,0,0,0-2.816-.1c-.527.014-2.194-.414-2.626-.386s-1.589.152-1.762-.124-9.1-.469-9.225-.441l-.017-.014-.665-.758c-1.175-.11-2.229-.234-2.341-.262s-.639-.028-1.062-.041-2.142.055-2.9.1l-.147-.7c-.017-.083-.311-.221-.371-.193l-.441.193a3.439,3.439,0,0,1-1-.5,7.244,7.244,0,0,0-1.1-.441,4.355,4.355,0,0,0-1-.221.529.529,0,0,1-.484-.234L5.433,58.3a.638.638,0,0,0-.484-.028,4.224,4.224,0,0,1-1.382.234c-.76.028-.389-.207-.346-.469.026-.152-.449-.317.155-.372a3.764,3.764,0,0,0,.795-.207c.294-.11.242-.221.026-.4l-.242-.179c.242-.165.708-.5,1.045-.744s.743-1.158.371-1.213l-.268.028-.32.028a2.023,2.023,0,0,1-1.149-.055c-.3-.138-.225-1.213-.112-1.654a11.845,11.845,0,0,0,.32-1.585,1.739,1.739,0,0,0-.674.414l-.363-.414-.181-.207a3.152,3.152,0,0,1,.475-.786l-.337-.124-.173-.055c-.415.165-.656.124-.544-.1l.026-.179.06-.5a5.35,5.35,0,0,1-.587-1.3,1.571,1.571,0,0,1,.9-1.13c.553-.193.544-1.323.138-1.241l-.233.152-.242.152c-.285.138-.838-.1-1.235-.538l.207-.358c.069-.11.06-.262.138-.358.2-.262.432-.51.648-.758.242-.29.527.372.812-.028l.078-.11c.337-.055.3-.179-.086-.276l-.017-.11c-.026-.165.164-.386.32-.551.086-.083.328-.069.466-.138.328-.179.423-.689.1-.772a.833.833,0,0,1-.665-.483,15.769,15.769,0,0,0-2.5-.165C.3,41.683.311,41.5.4,41.325s.311-.91.423-.51l.13-.124a1.353,1.353,0,0,1,.086.51l.035.51a1.832,1.832,0,0,0,.069-.731l.009-.207c.009-.648.026-1.3.052-1.93l.009-.138.1-.3.1-.427c.035-.014.138-.1.147-.152l.069-.358c.017-.083.078.262.1.317s.06.138.069-.124.052-.7.1-.538.147-.179.138-.234a1.316,1.316,0,0,1,.017-.358l.017.041c.06.138.121.662.138-.179v-.014l.1.11c.035.069.147-.193.181-.207s.138.041.19.041a1.219,1.219,0,0,0,.1-.62,4.415,4.415,0,0,1-.1-1.006c.026-.345-.173-1.323-.155-1.365a1.582,1.582,0,0,0-.017-.565v-.648c-.052-.014-.112-.138-.138-.276l-.017-.152L2.3,31.357c.017-.386.026-1.02,0-1.42l-.017-.372v-.124c.009-.152.052-.124.112.069s.216-.152.216-.221a1.488,1.488,0,0,0-.043-.414l-.017.055-.035.124c-.052.152-.078.152-.069,0l.009-.152.009-.152c.009-.179,0-.29-.009-.262a.065.065,0,0,1-.1.014A11.647,11.647,0,0,1,2.4,27.332l.078-.1.035-.083L2.5,26.312a2.051,2.051,0,0,0,.164-.8c-.035-.11-.155.041-.173,0s-.164-.317-.276-.593l-.121.124c-.052.055-.052-.124-.069-.372l-.017-.386c-.035.234-.1.358-.147.276a3.327,3.327,0,0,1-.225-.648v-.028l.043-.317c-.026-.317-.06-.62-.069-.7s-.052-.165-.06-.069l-.017.069-.017.1a2.217,2.217,0,0,1-.121.3c-.035.1-.164.234-.181.124a4.169,4.169,0,0,1-.035-.772c.017-.193.164.124.216.138l.009-.207a3.616,3.616,0,0,0-.035-.717l-.259-.069a14.025,14.025,0,0,0,0-1.847c-.043-.041-.1.427-.112.372l-.043-.234c0-.014-.026-.234-.035-.441A10.307,10.307,0,0,1,.976,18.55v-.165l.009-.152c-.009-.165-.035-.29-.06-.276l-.017.028-.017.028c-.026.041-.043-.028-.052-.138l.009-.041c.035-.29,5.709-.234,5.709-.234.441-.414.389-.634-.112-.5l-.285.028-.536.028c-.613-.028-1.149-.179-1.192-.358l.017-.138.112-1.3a16.437,16.437,0,0,0-1.555-1.089l-.035-.069-.147-.276a2.143,2.143,0,0,0-.3-1.213l-.311-.1c-.786-.248-.769-.676-.734-1.158l.017-.179c-.009-.331-.406-.483-.9-.317l.32-.427c.294-.4-.233-.4-.4-.565-.043-.055-.337.51-.492-.014L0,9.892c.25-.124.5-.234.553-.262S.458,9.189.1,8.761l.13-.483c.035-.124.147-.248.13-.372L.337,7.769c-.1-.138-.078-.234.06-.193a1.977,1.977,0,0,0,1.028-.234c.259-.193-.121-.91.06-.965l.052.028c.484.331.907.4,1.33-.055l.363-.386c.4.276.743.386.786.234a2.393,2.393,0,0,1,1.278-.8l.423.689.225.345c.6-.386.993-.717.872-.758s-.423-.193-.389-.3l.035.014a6.078,6.078,0,0,1,.864.069l.138.014a.363.363,0,0,0,.389-.152c.069-.11.561-.041.6-.124s.328-.331.423-.179a.6.6,0,0,0,.907-.055L10,4.763l.112-.1a2.612,2.612,0,0,1,1.019.179c.32.11,1.468-.152,1.7-.014s.9.414,1.157.055l.216-.248.207-.234a2.682,2.682,0,0,1,1.123.152c.216.1.656-.386.916-.386a4.894,4.894,0,0,1,1.114.234c.1.069.553.179.656-.028a80.325,80.325,0,0,1,8.543-.538,5.28,5.28,0,0,0,1.494-.083c.276-.069,1.08.138,1.218.083l.017-.069.069-.234a15.318,15.318,0,0,1,1.926.455l.1-.648.009-.055c.155-.041.881-.152,1.615-.248s3.179.165,3.818.152l.458.083c.475.083.786.427.812-.138,0-.055.544-.165.561-.152a1.526,1.526,0,0,0,1.6-.014c.518-.372,1.244.152,1.8-.193l.216-.138c.9.179,1.736.345,1.866.372a4.814,4.814,0,0,0,1.33-.455c.492-.234,2.185.221,2.272.193V2.723L47.9,2.061a6.891,6.891,0,0,0,2.729-.124l.587.524.294.262c.6-.165,1.417-.386,1.788-.483l.389-.055.121-.014a5.324,5.324,0,0,1,.959,0c.406.028,1.823-.028,2.237.028s1.477-.221,1.581-.152.544.248.639.165l.1-.083.1-.083c.13-.083.276-.1.311-.028a1.324,1.324,0,0,0,.363.331l.1-.014.751-.11a15.428,15.428,0,0,0,1.831-.248l.112-.055.769-.469c.579.441,1.175.7,1.33.565s.639-.386.786-.317.475-.193.492-.717l1.1.662.2.124A12.043,12.043,0,0,1,69.2,1.7c.337.014,1.106.124,1.132-.028s1.157-.179,1.339-.055.484-.083.458-.565l1.209.62A4.842,4.842,0,0,0,74.525,1.4l.216-.055c.207-.055,1.088-.234,1.952-.372a12.8,12.8,0,0,1,3.256.565c.181,0,1.244-.1,1.978-.179a37.444,37.444,0,0,1,3.973.055l.233-.124.553-.262a9.155,9.155,0,0,0,1.546.331l.328.014h.6c.613-.152,1.373-.331,1.684-.372s1.883-.11,2.721-.11h.985c.242-.069.466-.028.51.1s.95.069,1.071-.028.682-.29.881-.179A2.434,2.434,0,0,0,98.2.986a14.371,14.371,0,0,1,2.082-.345l.19.165c.415.345.9-.331,1.356.11l.2.193a3.759,3.759,0,0,1,1.65-.179c.2.083.812.29.864.193s.32-.276.449-.248.561,0,.665-.152,1.771-.069,2.755-.179l1.08.207A6.13,6.13,0,0,0,112.583.6l.5-.193a9.424,9.424,0,0,1,1.935.358,1.068,1.068,0,0,0,.976-.152c.285-.248,1.607.207,1.7.11s.458-.345.51-.179a.343.343,0,0,0,.561.152c.216-.221,1.762.124,2.4.028l.76.083.993.11a8.439,8.439,0,0,1,2.341-.29c.078.1.406.3.5.193a1.523,1.523,0,0,1,.769-.386l.086.041.708.386c.942-.041,2.229-.055,2.85-.014a15.354,15.354,0,0,1,3.023.11l.536-.4c.086-.069.751.124,1.149.124l1.166-.014c1.287-.028,3.075-.138,3.982-.234l.682.441.13.1A11.42,11.42,0,0,1,142.339.9c.38,0,1.3.138,1.347,0a2.626,2.626,0,0,1,1.7.234l.674-.345.216-.11c.6.083,1.322.165,1.589.193s1.27.11,1.641.11l.328.014a6.83,6.83,0,0,0,.751,0c.259-.028.484-.152.743-.179l.155-.014a2.122,2.122,0,0,0,.89.014,4.033,4.033,0,0,1,1.607.345l-.017-.51a15.4,15.4,0,0,1,2.108.372l.821.028.648.014c.726-.179,1.451-.372,1.615-.414a1.611,1.611,0,0,1,1.019.5L160.953,1a3.038,3.038,0,0,1,1.3-.041c.639.441.855-.276,1.442-.083l.518.165a16.838,16.838,0,0,1,2.09.207l.13-.069.786-.414a4.977,4.977,0,0,0,1.823.248c.164-.083.795-.234.959-.1l.7.51c.035,0,.536-.138.985-.262a14.7,14.7,0,0,1,2.937-.055c.6.055,2.211-.028,2.678.1s1.658-.29,2.073-.138l.009-.014,1.14-.827a25.933,25.933,0,0,0,3.4.676c.363,0,1.054-.069,1.011.165s1.391-.207,1.753-.29a4.975,4.975,0,0,1,1.443.028c.276.041.976-.083,1.045,0s.389.3.518.207a4.1,4.1,0,0,1,1.607-.331l.527.165,1.572.345.363-.152c.475-.193.924-.29,1.011-.207a7.046,7.046,0,0,0,1.106.51l.847-.427.086-.055a2.562,2.562,0,0,1,.8.179,7.851,7.851,0,0,0,2.565-.124l.069-.041.328-.193a.716.716,0,0,1,.544.9l1.071-.372.812-.276c-.06.358-.043.455.035.193s1.252.152,1.322.138.587-.055,1.028-.11a17.555,17.555,0,0,1,2.522.331c.441.069,1.529-.248,1.693-.165s.622.331.656.345a1.709,1.709,0,0,0,.449-.193,3.412,3.412,0,0,1,1.391-.124l.328.014c.19.014.527-.179.579-.152l.553.29a6.108,6.108,0,0,1,2.289.028l.639.124.259.055a2.845,2.845,0,0,0,.924-.152c.181-.083.976-.1,1.227-.193a19.147,19.147,0,0,1,2.6.179l.726.041.613.028a3.8,3.8,0,0,0,1.408.083,3.193,3.193,0,0,1,1.382-.165l.389.11c.415.11.751.469.777-.11a1.79,1.79,0,0,1,.458-.028,21.826,21.826,0,0,0,2.825.138l.7-.055a12.034,12.034,0,0,0,1.278.29,10.219,10.219,0,0,0,1.227-.11,23.721,23.721,0,0,1,3.395.207,17.841,17.841,0,0,0,2.876-.441,13.433,13.433,0,0,0,2.488-.221c.536-.152,1.753.5,1.9.483s.924-.317,1.252-.069l.346.041c.363.055.872-.207,1.2-.138l.674.124a2.432,2.432,0,0,1,1.132-.372l.164.069.311.124a1.04,1.04,0,0,0,.829.165c.173-.1.631-.207.656-.055s1.071.179,1.244.069a1.538,1.538,0,0,1,1.071-.124,2.883,2.883,0,0,0,.795.5l.043-.041c.51-.593,1.287-.083,1.935-.11h.3a4.647,4.647,0,0,1,1.192-.11,9.373,9.373,0,0,1,1.106.165c.354.1,1.883-.152,2.531-.028l.726-.1c.4-.055.941.193,1.322.124l.639-.11c.639.083,1.615.193,2.177.221l.527-.041.907-.083c1.028-.041,2.013-.083,2.177-.083a2.333,2.333,0,0,1,.959.414c.259.207,1.391-.1,1.581,0s.8.276.924.193l-.026-.055c-.069-.179-.345-.5-.3-.51l.6-.165a1.17,1.17,0,0,0,.536.565,1.907,1.907,0,0,0,.777-.138,1.615,1.615,0,0,1,.916-.124c.19.1.7.028.743-.372l.941.276h.026c-.147.207.233.331.846.276s2.073.427,2.2.358V2.571l-.026-.455a5.51,5.51,0,0,1,1.278.317c.138.1.613.262.656.124s.458-.358.838-.179a10.769,10.769,0,0,0,2.393-.083,4.878,4.878,0,0,1,1.65.455,3.076,3.076,0,0,0,1.408-.207c.156-.11.993-.207,1.27.207l.829-.124c.872-.124-.544-.455.1-.5l.648-.041c.743.014,2.514.055,3.921.069l1.287.014c.648,0,1.287,0,1.935.028l.536.014a4.64,4.64,0,0,0,2.021-.3l.579.455.337.262a1.407,1.407,0,0,1,.674-.744l.268.193.432.3c.527-.083,1.287-.193,1.693-.248a17.924,17.924,0,0,0,2.082-.317,10.433,10.433,0,0,1,1.943.276,16,16,0,0,0,1.883.083,15.151,15.151,0,0,1,1.658-.29l.432-.138.8-.276c.346.331.656.5.691.372a1.03,1.03,0,0,1,1.011-.358,19.774,19.774,0,0,0,2.522.414c.475.014,2.168-.455,3.084-.455l.76.028c.777.041,1.5-.041,2.246-.028l.51.028A3.723,3.723,0,0,1,325.88,1.4l.233-.083c.743-.234.959-.124,1.045.3l.009.028a6.888,6.888,0,0,0,2.108-.538l1.114.51.112.041c.121.055.233-.069.242-.29s1.451.055,1.788.124a9.6,9.6,0,0,0,1.883-.041,13.5,13.5,0,0,1,1.745-.165c.285.055,1.4-.179,2.03-.124s2.488,0,2.747.069.829.372.89.276.4-.234.527.028l.19.055.32.083c.415-.028,1.347-.069,2.073-.1l.423-.165.561-.234a4.9,4.9,0,0,0,1.071.262,3.969,3.969,0,0,0,.821-.179,9.549,9.549,0,0,1,1.736.207,11.988,11.988,0,0,0,2.306-.207c.147-.028.864.51.916.358a1.268,1.268,0,0,1,1.036-.5l.432.014.553.041a5.742,5.742,0,0,0,1.84.221c.432-.041,1.745-.276,2.073-.317s1.157.193,1.2.055.294-.51.44-.5l.069.028a1.956,1.956,0,0,0,1.978.317l.285-.1a8.773,8.773,0,0,0,1.442.1c.259-.014,1.037.165,1.209.179l.155-.014.57-.083a10.235,10.235,0,0,1,2.03-.055l.449.028.354.014c.475-.234.993-.3,1.157-.165a1.1,1.1,0,0,0,.907.193c.233-.124,1.166-.386,1.408-.221a5.556,5.556,0,0,0,1.84.372l.587.069.587.069a8.514,8.514,0,0,1,1.555-.221l.371-.11.181-.055a11.359,11.359,0,0,0,2.056-.207l.838.386.449.207c.846-.014,1.581-.193,1.624-.386s1.088-.055,1.339.028,1.3.138,1.65.193A7.4,7.4,0,0,0,386.7,1c.069.028.38.193.561.276s1.512.3,1.313.165-.164-.276.441-.1l.648-.4a5.659,5.659,0,0,1,1.823,0l.466.014a3.685,3.685,0,0,0,.829.4c.1.014.976.028,1.831.1l.587-.441.1-.069c.821.207,1.425.262,1.322.138s-.25-.469-.173-.524a7.863,7.863,0,0,1,1.227-.152c.553-.055,2.082.29,2.323.207l.121.041.535.165A6.2,6.2,0,0,1,402.366,1c.3.11,1.4-.483,2.09-.758l.674.165.795.193A6.072,6.072,0,0,1,406.9.159a2.4,2.4,0,0,0,.57-.138,3.746,3.746,0,0,1,1.356.262c.242.083,1.166.262.985.014s.881-.028,1.08-.055a3.758,3.758,0,0,1,1.287.193A2.993,2.993,0,0,0,413.543.5a7.562,7.562,0,0,1,2.384-.152l.544.234,1,.441c.086-.455.518-.593.967-.3l.933-.179a7.408,7.408,0,0,1,3.308.221,2.548,2.548,0,0,0,1.736.083,4.574,4.574,0,0,1,1.779.345c.285.069-.7.248-.069.4.181.041.527-.179.769-.152a2.425,2.425,0,0,1,1.088.248l.354.469c.795.152,1.857.372,2.367.483a16.031,16.031,0,0,0,2.462.29c.3-.028,1.244.165,1.46.11s.674-.083.622.138,1.088-.083,1.287-.124.985.014,1.6.014,7.351.551,7.454.51.432-.041.44.069a.694.694,0,0,0,.743.386,7.7,7.7,0,0,1,2.047.551l.138.524c.069.276.751.317.881.827l.06.234.959.4a.409.409,0,0,1,.156.469h.009l.38.179a2.394,2.394,0,0,0-.25.993l.043.248.078.524a2.4,2.4,0,0,0,.389,1.089l.1.014h.1c.1,0,.2.055.207.11s-.2.221-.406.317l-.173.124c-.035.014-.009.165.026.234l.2.028c.035,0,.061-.083.1-.083l.216-.041c.25-.028.44.028.432.11a1.294,1.294,0,0,0,.449.7l.181.234.112.165c.017.3-.224.441-.553.3s-1.106-.041-.838.62.32,2.426.06,2.5-.985.345-.9.372a4.074,4.074,0,0,1,.682.441l.095.207c.268.593.432-.317.708-.014l.156.179c.328.138-1.019.483-1.132.676s.216,1.172.285,1.641l-.216.427a1.025,1.025,0,0,0,.734,1.31l.458.041c.51.11.726.193.484.207s-.933.193-.933.345.242.662.544.607l.285-.028.155-.028a6.725,6.725,0,0,0-1.045.069c.164.041-.553-.055-.164-.041s.864.993.812,1.075l-.207-.028c-.415-.069-.631.234-.475.565.112.221.216.5.406.607l.432.248c.034.427.147.689.25.565l.112-.014a.46.46,0,0,1,.363.069.324.324,0,0,1,.017.331.8.8,0,0,1-.821.358c-.078-.014-.233.138-.242.221a.374.374,0,0,0,.181.276l.311.138c.354.138.337.4-.026.593l-.328.014-.268.014c-.38-.221-.682-.1-.682.248l-.06.234c-.078.345,1.486.358,1.486.358a10.62,10.62,0,0,1-1.045.221c-.216.014-.164.744-.026,1.144s.389,1.7.173,1.806-.026.786.1.91.346.524.173.634l-.216.083c-.181.083-.406-.3-.613.028l-.026.041c-.181-.028,1.157-.138.924-.234a4.266,4.266,0,0,0-1.494.152,5.691,5.691,0,0,1-1.926-.441c-.3-.152.086-.152-.147-.207s-.838-.4-.916-.248a2.069,2.069,0,0,0-.19.813c.026.207.752.317.924.317l.078.069c.164.152.026.524.5.469h.069c.13.276-1.106.386-.89.152,0,0,1.52-.083,1.572.455l.009.11a3.369,3.369,0,0,0,1.054.152l.06.331.043.262c.069.3.009.469-.147.372s-.734-.193-.821-.1a.9.9,0,0,1-.786.014c-.233-.165-.795-.676-.881-.551l.026.041c.13.358.449.717.4,1.048l-.06.358c-.38.414-.587.841-.466.951a.91.91,0,0,0,.829-.083l.138-.207.086-.124c.026-.179.078-.317.121-.3l.026.028.276.4a1.373,1.373,0,0,1,.821-.276c.1.055.069.4-.32.648l.251.427.1.165c.276-.069.631.179.786.551s.363.8.285.869a.669.669,0,0,1-.674-.1l-.216-.165-.026-.014a.487.487,0,0,0-.337.221c-.078.124-.156.524.034.538s.76.193.587.3-.6.565-.527.7.354.51.449.4l.078-.014c.276-.069.682.234.976.786l.13.234c-.173.262-.363.524-.415.579a.308.308,0,0,0,.086.4h.155c.389.014.51.138.345.469-.043.083-.155.234-.121.262l.173.165a.436.436,0,0,1-.51.29l-.1-.276-.043-.11c-.561-.055-.544.11.035.345l-.225.483-.121.262a.845.845,0,0,0,.026.717c.1.1.311.593.164.786s-.855.441-.864.607l.069.124.13.234c.112.3.112.455-.009.331a1.148,1.148,0,0,0-.726-.165,1.969,1.969,0,0,1-.8,0c-.173-.041-.656.055-.57.124a7.1,7.1,0,0,0,.536.469c.147.1.587-.152.639-.152s.147.124.121.331.691-.014.829-.041.354.152.121.262-.9.317-.95.207a.634.634,0,0,0-.4-.248c-.078.014-.4.62-.527.607a.912.912,0,0,0-.665.551l.129.331a.711.711,0,0,0,.656.551h.078a.488.488,0,0,1-.069.524,6.628,6.628,0,0,1-.8.648c-.069.083-.052.414-.147.427s-.164.221-.19.248.034.193.181.331a1.9,1.9,0,0,1,.449,1.062l-.164.193c-.449.524-.337.786.294,1.117l.484.248a8.407,8.407,0,0,0-.8,1.034c-.121.221-.5.5-.156.524l-.043.483-.026.207c.043.29.1.717.121.965l.19.165.225.207c-.078.234-.216.662-.32.937l.216.29.544.7c-.458.3-.855.551-.872.565A6.109,6.109,0,0,0,449.9,62.6l.415.689.112.207a3.9,3.9,0,0,0-.475-.124.874.874,0,0,0-.371.138,3.068,3.068,0,0,1-.717.331,3.843,3.843,0,0,0-.881.234l-.242.1-.285.138a5.612,5.612,0,0,0-1.831.248c-.674.193-9.743.317-10.348.414l-.57.041-.579.055c-.613.083-2.142.179-3.412.193h-1.762a6.972,6.972,0,0,0-1.84.758l-.553-.455a7.525,7.525,0,0,0-1.036.124c-.285-.483-.855.345-1.261-.1l-.138-.165a4.038,4.038,0,0,1-1.641.345l-.06.028-.57.29a6.965,6.965,0,0,0-1.857.1c-.294.1-1.486-.124-1.779-.083s-1.7.152-2.462.152-2.755.331-2.954.221a7.907,7.907,0,0,0-2,.331l-.449-.069-.769-.124c-.786.069-1.805.165-2.272.193a10.858,10.858,0,0,1-1.615.138,2.586,2.586,0,0,0-1.33.262c-.432.221-2.2-.11-2.6,0l-.138-.055-.631-.276a5.8,5.8,0,0,1-2.246.29l-.562.1-.587.1a12.157,12.157,0,0,0-2.194-.165l-.6.041-.57.041a4.473,4.473,0,0,1-2.021-.11l-.674.207-.484.152a24.153,24.153,0,0,0-3.04.138l-.959-.165-.639-.11c-.864.152-1.788.29-2.056.317a12.576,12.576,0,0,0-1.434-.069,11.426,11.426,0,0,1-1.753.028c-.6-.014-2.142.179-2.2.1s-.225-.083-.242.165-1.227-.221-1.477-.221-1.347.014-1.866.055-1.926-.083-2.3-.041a16.066,16.066,0,0,1-2.22-.138c-.484-.041-2.229.028-2.747-.041a11.783,11.783,0,0,0-2.133.386c-.233.028-.967-.11-1.252-.1s-1.106-.028-1.728-.055-2.419-.138-2.635-.138-.769.124-.95-.028a8.121,8.121,0,0,0-2.142.041,18.278,18.278,0,0,0-2.9.345l-.821-.345-.6-.248a21.774,21.774,0,0,0-3.36.207l-.864-.207-.13-.041a1.772,1.772,0,0,1-1.52.124,19.59,19.59,0,0,0-3.688.221,31.337,31.337,0,0,1-3.792-.372c-.138-.028-1.114.083-2.03.165l-.855-.193-.51-.11a1.227,1.227,0,0,1-1.244.4,3.885,3.885,0,0,0-1.719-.193c-.242.124-1.2.441-1.408.3a5.018,5.018,0,0,0-2.09-.317l-.579.165a3.15,3.15,0,0,1-1.762-.041l-.57-.193a2.684,2.684,0,0,1-1.278.179c-.259-.069-1.183-.207-1.451-.234a4.343,4.343,0,0,0-1.46.234,12.493,12.493,0,0,1-1.6.041c-.276.055-1.373-.028-1.719-.028s-1.261-.124-1.287-.262-.216-.51-.346-.469-.492.069-.579-.055a1.331,1.331,0,0,0-.924-.138l-.155.221c-.13.179-.734.248-1.1.386-1.028.4-1.062.4-2.151-.083l-.173-.069a1.3,1.3,0,0,0-.855.055,2.905,2.905,0,0,1-1.512.165c-.32-.165-1.261-.5-1.3-.358a1.5,1.5,0,0,1-1.028.565,41.428,41.428,0,0,0-4.517.083l-1.546-.331-.484-.11a2.882,2.882,0,0,1-1.771.248c-.155-.138-.9.138-.985.179a9.16,9.16,0,0,1-1.546.055c-.734-.014-2.842-.248-3.118-.29a6.355,6.355,0,0,0-1.658.331,19.655,19.655,0,0,0-2.73.372l-.821-.427-.484-.248a4.439,4.439,0,0,1-1.676-.028c-.346-.124-1.356.358-1.719.386a3.194,3.194,0,0,1-1.5-.317.855.855,0,0,0-1.019-.138l-.346.207-.4.234A3.1,3.1,0,0,0,280.4,67.6c-.216.069-.89.165-.924.014s-.233-.179-.363.193l-.8-.207-.423-.11c-.354.069-.846.138-1.106.165s-1.2-.221-1.512-.179a6.056,6.056,0,0,1-1.71-.138c-.337-.124-1.529-.055-2.047-.152l-.466-.055c-.2-.028-.622.152-.656.124-.4-.29-.587-.041-.9.041-.147.041-.484-.165-.76-.234-.052-.014-.294.124-.294.193l-.009.055c.181.069.268.165.2.207a1.55,1.55,0,0,1-.639-.041,6.039,6.039,0,0,0-1.676.083H265.9c-.639,0-1.52-.276-1.857-.124l-.665.276a5.624,5.624,0,0,0-1.486-.276,8.887,8.887,0,0,0-1.477.345c-.25.124-.484-.4-.518-.427a8.08,8.08,0,0,0-1.322.041c-.674.041-2.859.165-3.351.193s-1.874-.731-2.056-.62a2.465,2.465,0,0,1-1.365.689,39.555,39.555,0,0,1-4.872-.731l-1.071.565-.294.152a14.653,14.653,0,0,1-1.7-.29c-.19-.069-.985.041-1.313-.055a5.923,5.923,0,0,0-1.572.179c-.173.014-1.123-.028-1.736-.083a38.008,38.008,0,0,0-4.207.207l-.924-.4-2.289.317a.932.932,0,0,1-.354.179l-.561.069c-.527-.152-.916-.4-.864-.538s-.121-.538-.337-.538-.665.11-.5.234l.017.138.026.179c-.009.262-.475.414-1.045.331h-.881a15.618,15.618,0,0,1-1.805.165c-.587.028-2.3-.179-2.643-.1s-1.494-.11-1.823,0-1.417-.083-1.6-.028l-.181.014a8.68,8.68,0,0,1-2.522-.124l-.777-.138h-2.609c-.346,0-.691-.483-1.114-.165l-.225.165-.13.1a3.713,3.713,0,0,1-1.287.358,15.854,15.854,0,0,1-2.66-.386c-.294-.028-.89,0-1.088-.055a6.792,6.792,0,0,0-1.287.028c-.251.014-1.373.055-1.926.014a11.838,11.838,0,0,1-2.03-.345c-.026-.055-.337.069-.648.427l-.95-.3c-.259-.1-.967.317-1.512.358l-.466.041a2.937,2.937,0,0,0-1.952.3l-.795-.372-.449-.207a2.876,2.876,0,0,0-1.589-.11c-.138.124-.786.427-.976.276a1.5,1.5,0,0,0-1.3-.083l-.346.11a1.9,1.9,0,0,1-.795-.055l-.086-.593c-.95-.179-1.779-.165-1.84.028a1.225,1.225,0,0,1-1.106.469l-.406.069c-.32.041-.536.207-.57-.1s-.484-.4-.795-.248c-.881.414-1.892.124-2.816.207l-.648.055c-.717.069-1.408.124-1.529.124l-.112-.014-.777-.083c-1.054-.11-1.633-.276-1.287-.345s-.363-.469-.423-.593-.484-.262-.518.014-.38.937-.726.827l-.233-.11-.276-.138a1.47,1.47,0,0,0-1.382-.207c-.484.165-1.831.29-2,.083s-.976-.579-1.356-.317v.221l-.017.648a13.906,13.906,0,0,1-2.272-.138c-.613-.1-2.41.055-2.531.028s-.751-.165-1.071-.234a10.126,10.126,0,0,0-2.47.138l-.449-.11-.449-.1a1.22,1.22,0,0,0-1.218-.469c-.389.11-1.261.483-1.218.579l-.017.1-.009.083a.556.556,0,0,1-.4.124,4.563,4.563,0,0,1-.89-.441c-.268-.179-1.417.193-1.6.207a11.909,11.909,0,0,1-1.322-.138l-.043-.1-.138-.317c.492,0,1.252-.028,1.693-.055s.622-.689.2-.731-1.676-.014-1.676.207l-.181.193c-.225.234-.6.607-.942.62-.95.028-.2-.51-.6-.7l-.06-.028c-.086-.041-.475.165-.855.455a10.3,10.3,0,0,1-3.015.29c-.631.028-1.313-.676-1.494-.414s1.157.455,1.235.5.121.276-.086.414l-.225.028-.276.014a7.985,7.985,0,0,1-1.581-.689l-.13-1.034c-.017-.138-.674-.4-.708-.386-1.615.717-1.071-.152-1.244-.483l-.017-.041c-.173-.069-.345.069-.38.3s-.423.7-.786.51-.916.676-1.037.855a2.616,2.616,0,0,1-.907.717c-.216.014-1.46-.041-2.4,0l-.846.028h-.181c-.19.055-.354.014-.363-.083s.026-.317.017-.5.656-.565,1.037-.538l.3.055.276.028a4.672,4.672,0,0,0,1.235.372l.415.041a1.07,1.07,0,0,0,.622-.124l.233-.3a1.375,1.375,0,0,1,1.08-.634l.13-.11c.285-.234.285-.593.631-.772l.674-.345a3.226,3.226,0,0,0-1.14-.579c-.233-.028-.985.165-.985.538s-.484,1.282-1.037,1.3l-.328.248a1.229,1.229,0,0,1-1.408.055Zm6.02-2.716a2.759,2.759,0,0,0-.89-.11c-.043.041.086.234.346.372a5.658,5.658,0,0,0,2.4.028l.708.372a1.08,1.08,0,0,0,.389-.11l.242-.152c.311-.248.19-.5-.259-.538s-2.488.234-2.937.138m-13.457.483c-.639.138-.959.4-.708.607s1.4-.207,1.676-.317a13.174,13.174,0,0,1,2.1-.165c.492.014,1.857-.152,1.641-.345s-1.52-.041-1.84.028a10.335,10.335,0,0,1-1.805-.124l-.544.165ZM447.429,31.84c.294.11.423.014.285-.221s-.6-1.075-.846-1.5l-.432.551-.32.414c-.354-.152-.449-.207-.216-.138s1.235.786,1.529.9M238.865,64.045a3.625,3.625,0,0,0-1.33.193l.043.055.173.221c-.173.221-.13.455.1.538a6.384,6.384,0,0,0,1.555-.262c.432-.069.078-.744-.544-.744M450.418,31.619c-.2-.331-.294-.331-.233,0s.933.689,1.192.717l.017-.331.017-.152c.207-.3-.043-.317-.553-.041l-.173-.083ZM127.837,63.149c-1.045.165-1.589.3-1.192.3a10.159,10.159,0,0,1,1.892.551c.3.11,1.244.29,1.244.083a.763.763,0,0,0-.959-.427l-.112-.055Zm45.443,1.434c-.225-.028-.1.331.259.813l.492.152.6.207a3.536,3.536,0,0,0,1.632.317l.086-.11.112-.152c-.043-.221-.622-.372-1.287-.317l-.363-.11-.406-.138a3.061,3.061,0,0,0-1.131-.662m146.416.469c.294-.083.363-.262.138-.386s-.864-.5-.993-.607-.838.014-.691.3a2.444,2.444,0,0,0,1.546.689m-161.247.083c-.086-.345-.138-.372-.112-.083s-.138,1.117.268,1.089-.06-.648-.155-1.006M1.382,41.615c.043.055.06-.1.052-.345H1.425c-.078-.028-.1-.248-.086-.607V40.5c-.009-.248-.043-.179-.069.138a3.558,3.558,0,0,0,.112.979m4.2,6.011c-.017-.138-.207-.29-.441-.331l-.19-.083c-.181-.069-.25-.3-.536-.083-.225.179-.4.29-.043.5.285.179-.259.744.449.7.259-.014.484-.414.7-.634Z" transform="matrix(1, -0.017, 0.017, 1, 0, 7.92)" fill="#f8e802"/>
</svg>
