<?xml version="1.0" encoding="UTF-8"?>
<svg xmlns="http://www.w3.org/2000/svg" version="1.1" viewBox="0 0 116.4 28.4">
  <defs>
    <style>
      .cls-1 {
        fill: #21b685;
      }

      .cls-2 {
        fill: #00562f;
      }
    </style>
  </defs>
  <!-- Generator: Adobe Illustrator 28.6.0, SVG Export Plug-In . SVG Version: 1.2.0 Build 709)  -->
  <g>
    <g id="review-logo-trustpilot">
      <path id="Path_4024" d="M30.4,10h11.7v2.2h-4.6v12.3h-2.5v-12.3h-4.6v-2.2h0ZM41.6,14h2.2v2h0c0-.3.2-.6.4-.8.2-.3.4-.5.7-.8.3-.2.6-.4.9-.5.3-.1.7-.2,1-.2.2,0,.4,0,.6,0,0,0,.2,0,.3,0v2.2c-.2,0-.3,0-.5,0-.2,0-.3,0-.5,0-.4,0-.8,0-1.1.2-.3.2-.7.4-.9.7-.3.3-.5.7-.6,1.1-.2.5-.2,1-.2,1.5v5h-2.3v-10.5ZM58.3,24.5h-2.3v-1.5h0c-.3.5-.7,1-1.3,1.3-.5.3-1.1.5-1.7.5-1.1.1-2.2-.3-3-1-.7-.9-1-2-.9-3.1v-6.7h2.3v6.4c0,.7.1,1.4.5,2,.4.4.9.6,1.5.6.4,0,.8,0,1.2-.2.3-.1.6-.3.8-.6.2-.3.4-.6.4-.9,0-.4.1-.8.1-1.1v-6.1h2.3v10.5ZM62.3,21.2c0,.6.3,1.1.8,1.4.5.3,1,.4,1.6.4.2,0,.5,0,.8,0,.3,0,.5,0,.8-.2.2,0,.4-.2.6-.4.2-.2.2-.5.2-.7,0-.3-.1-.5-.3-.7-.2-.2-.5-.4-.8-.5-.4-.1-.7-.2-1.1-.3-.4,0-.8-.2-1.2-.3-.4,0-.8-.2-1.2-.3-.4-.1-.7-.3-1.1-.5-.3-.2-.6-.5-.8-.9-.2-.4-.3-.9-.3-1.3,0-.5.1-1,.4-1.4.3-.4.6-.7,1-.9.4-.2.9-.4,1.4-.5.5,0,1-.1,1.5-.1.5,0,1,0,1.5.2.5.1.9.3,1.3.6.4.3.7.6,1,1,.3.5.5,1,.5,1.5h-2.4c0-.5-.3-.9-.8-1.1-.4-.2-.9-.3-1.4-.3-.2,0-.4,0-.6,0-.2,0-.4,0-.6.2-.2,0-.4.2-.5.3-.1.2-.2.4-.2.6,0,.3,0,.5.3.7.2.2.5.3.8.4.4.1.7.2,1.1.3.4,0,.8.2,1.2.3.4,0,.8.2,1.2.3.4.1.8.3,1.1.5.3.2.6.5.8.9.2.4.3.8.3,1.3,0,.6-.1,1.1-.4,1.6-.3.4-.7.8-1.1,1-.5.3-1,.5-1.5.6-.5.1-1.1.2-1.6.2-.6,0-1.2,0-1.8-.2-.5-.1-1-.4-1.5-.7-.4-.3-.7-.7-1-1.1-.2-.5-.4-1.1-.4-1.6h2.3,0ZM69.9,14h1.8v-3.1h2.3v3.1h2.1v1.7h-2.1v5.6c0,.2,0,.4,0,.6,0,.2,0,.3.1.5,0,.1.2.2.3.3.2,0,.4.1.6,0h.5c.2,0,.3,0,.5,0v1.8c-.2,0-.5,0-.8,0-.2,0-.5,0-.8,0-.5,0-1,0-1.5-.2-.3,0-.6-.3-.9-.5-.2-.2-.4-.5-.4-.8,0-.4-.1-.8-.1-1.2v-6.2h-1.8v-1.7h0ZM77.7,14h2.2v1.4h0c.3-.6.8-1,1.4-1.3.6-.3,1.2-.4,1.9-.4.7,0,1.5.1,2.2.4.6.3,1.1.7,1.5,1.2.4.5.7,1.1.9,1.8.2.7.3,1.4.3,2.2,0,.7,0,1.4-.3,2-.2.6-.4,1.2-.8,1.8-.4.5-.9.9-1.4,1.2-.6.3-1.3.5-2,.5-.3,0-.7,0-1,0-.3,0-.7-.2-1-.3-.3-.1-.6-.3-.9-.5-.3-.2-.5-.5-.7-.8h0v5.2h-2.3v-14.3h0ZM85.7,19.3c0-.5,0-.9-.2-1.4-.1-.4-.3-.8-.5-1.2-.2-.3-.6-.6-.9-.8-.4-.2-.8-.3-1.2-.3-.9,0-1.7.3-2.2,1-.5.8-.8,1.7-.8,2.7,0,.5,0,1,.2,1.5.1.4.3.8.6,1.2.3.3.6.6.9.8.8.4,1.8.4,2.6,0,.4-.2.7-.5.9-.8.2-.4.4-.8.5-1.2.1-.4.2-.9.2-1.3h0ZM89.8,10h2.3v2.2h-2.3v-2.2ZM89.8,14h2.3v10.5h-2.3v-10.5ZM94.2,10h2.3v14.5h-2.3v-14.5ZM103.6,24.8c-.8,0-1.5-.1-2.2-.4-.6-.3-1.2-.6-1.7-1.1-.5-.5-.8-1.1-1-1.8-.2-.7-.4-1.5-.4-2.2,0-.8.1-1.5.4-2.2.2-.6.6-1.2,1-1.8.5-.5,1-.9,1.7-1.1.7-.3,1.5-.4,2.2-.4.8,0,1.5.1,2.2.4.6.3,1.2.6,1.7,1.1.5.5.8,1.1,1,1.8.2.7.4,1.5.4,2.2,0,.8-.1,1.5-.4,2.2-.2.6-.6,1.2-1,1.8-.5.5-1,.9-1.7,1.1-.7.3-1.5.4-2.2.4h0ZM103.6,23c.9,0,1.8-.4,2.3-1.2.3-.4.4-.8.5-1.2.1-.4.2-.9.2-1.3,0-.5,0-.9-.2-1.3-.1-.4-.3-.8-.5-1.2-.2-.3-.6-.6-.9-.8-.8-.4-1.8-.4-2.7,0-.4.2-.7.5-.9.8-.3.4-.4.8-.5,1.2-.1.4-.2.9-.2,1.3,0,.5,0,.9.2,1.3.1.4.3.8.5,1.2.2.3.6.6.9.8.4.2.9.3,1.3.3h0ZM109.5,14h1.8v-3.1h2.3v3.1h2.1v1.7h-2.1v5.6c0,.2,0,.4,0,.6,0,.2,0,.3.1.5,0,.1.2.2.3.3.2,0,.4.1.6,0h.5c.2,0,.3,0,.5,0v1.8c-.2,0-.5,0-.8,0-.2,0-.5,0-.8,0-.5,0-1,0-1.5-.2-.3,0-.6-.3-.9-.5-.2-.2-.4-.5-.4-.8,0-.4-.1-.8-.1-1.2v-6.2h-1.7v-1.7h0Z"/>
      <path id="Path_4025" class="cls-1" d="M27.7,10h-10.6L13.8,0l-3.3,10H0l8.6,6.2-3.3,10,8.5-6.2,8.6,6.2-3.3-10,8.5-6.2h0Z"/>
      <path id="Path_4026" class="cls-2" d="M19.9,18.6l-.7-2.3-5.3,3.8,6-1.6Z"/>
    </g>
  </g>
</svg>